solid OpenSCAD_Model
  facet normal 0.866025 0.5 0
    outer loop
      vertex 5.075 0 6
      vertex 2.5375 4.39508 0
      vertex 2.5375 4.39508 6
    endloop
  endfacet
  facet normal 0.866025 0.5 0
    outer loop
      vertex 2.5375 4.39508 0
      vertex 5.075 0 6
      vertex 5.075 0 0
    endloop
  endfacet
  facet normal -0.866025 0.5 0
    outer loop
      vertex -5.075 0 0
      vertex -2.5375 4.39508 6
      vertex -2.5375 4.39508 0
    endloop
  endfacet
  facet normal -0.866025 0.5 0
    outer loop
      vertex -2.5375 4.39508 6
      vertex -5.075 0 0
      vertex -5.075 0 6
    endloop
  endfacet
  facet normal 0 1 -0
    outer loop
      vertex 2.5375 4.39508 0
      vertex -2.5375 4.39508 6
      vertex 2.5375 4.39508 6
    endloop
  endfacet
  facet normal 0 1 0
    outer loop
      vertex -2.5375 4.39508 6
      vertex 2.5375 4.39508 0
      vertex -2.5375 4.39508 0
    endloop
  endfacet
  facet normal 0 0 1
    outer loop
      vertex 2.5375 4.39508 6
      vertex 3.075 0 6
      vertex 5.075 0 6
    endloop
  endfacet
  facet normal 0 0 1
    outer loop
      vertex 2.5375 4.39508 6
      vertex 1.5375 2.66303 6
      vertex 3.075 0 6
    endloop
  endfacet
  facet normal 0 0 1
    outer loop
      vertex 2.5375 4.39508 6
      vertex -1.5375 2.66303 6
      vertex 1.5375 2.66303 6
    endloop
  endfacet
  facet normal -0 0 1
    outer loop
      vertex -2.5375 4.39508 6
      vertex -1.5375 2.66303 6
      vertex 2.5375 4.39508 6
    endloop
  endfacet
  facet normal 0 0 1
    outer loop
      vertex -2.5375 4.39508 6
      vertex -3.075 0 6
      vertex -1.5375 2.66303 6
    endloop
  endfacet
  facet normal 0 -0 1
    outer loop
      vertex -3.075 0 6
      vertex -2.5375 4.39508 6
      vertex -5.075 0 6
    endloop
  endfacet
  facet normal -0 0 1
    outer loop
      vertex 3.075 0 6
      vertex 2.5375 -4.39508 6
      vertex 5.075 0 6
    endloop
  endfacet
  facet normal -0 0 1
    outer loop
      vertex 1.5375 -2.66303 6
      vertex 2.5375 -4.39508 6
      vertex 3.075 0 6
    endloop
  endfacet
  facet normal -0 0 1
    outer loop
      vertex -1.5375 -2.66303 6
      vertex 2.5375 -4.39508 6
      vertex 1.5375 -2.66303 6
    endloop
  endfacet
  facet normal 0 0 1
    outer loop
      vertex -1.5375 -2.66303 6
      vertex -2.5375 -4.39508 6
      vertex 2.5375 -4.39508 6
    endloop
  endfacet
  facet normal 0 0 1
    outer loop
      vertex -3.075 0 6
      vertex -2.5375 -4.39508 6
      vertex -1.5375 -2.66303 6
    endloop
  endfacet
  facet normal 0 0 1
    outer loop
      vertex -2.5375 -4.39508 6
      vertex -3.075 0 6
      vertex -5.075 0 6
    endloop
  endfacet
  facet normal 0.866025 -0.5 0
    outer loop
      vertex 2.5375 -4.39508 6
      vertex 5.075 0 0
      vertex 5.075 0 6
    endloop
  endfacet
  facet normal 0.866025 -0.5 0
    outer loop
      vertex 5.075 0 0
      vertex 2.5375 -4.39508 6
      vertex 2.5375 -4.39508 0
    endloop
  endfacet
  facet normal 0 0 -1
    outer loop
      vertex 1.33488 -0.969845 0
      vertex 5.075 0 0
      vertex 2.5375 -4.39508 0
    endloop
  endfacet
  facet normal 0 0 -1
    outer loop
      vertex 1.56924 0.509877 0
      vertex 5.075 0 0
      vertex 1.65 0 0
    endloop
  endfacet
  facet normal -0 0 -1
    outer loop
      vertex 5.075 0 0
      vertex 1.56924 -0.509877 0
      vertex 1.65 0 0
    endloop
  endfacet
  facet normal 0 0 -1
    outer loop
      vertex 5.075 0 0
      vertex 1.33488 -0.969845 0
      vertex 1.56924 -0.509877 0
    endloop
  endfacet
  facet normal 0 0 -1
    outer loop
      vertex 2.5375 -4.39508 0
      vertex 0.969845 -1.33488 0
      vertex 1.33488 -0.969845 0
    endloop
  endfacet
  facet normal 0 0 -1
    outer loop
      vertex 2.5375 -4.39508 0
      vertex 0.509877 -1.56924 0
      vertex 0.969845 -1.33488 0
    endloop
  endfacet
  facet normal 0 0 -1
    outer loop
      vertex 2.5375 -4.39508 0
      vertex 0 -1.65 0
      vertex 0.509877 -1.56924 0
    endloop
  endfacet
  facet normal 0 0 -1
    outer loop
      vertex -2.5375 -4.39508 0
      vertex 0 -1.65 0
      vertex 2.5375 -4.39508 0
    endloop
  endfacet
  facet normal -0 0 -1
    outer loop
      vertex 0 -1.65 0
      vertex -2.5375 -4.39508 0
      vertex -0.509877 -1.56924 0
    endloop
  endfacet
  facet normal 0 0 -1
    outer loop
      vertex -1.33488 -0.969845 0
      vertex -5.075 0 0
      vertex -1.56924 -0.509877 0
    endloop
  endfacet
  facet normal 0 0 -1
    outer loop
      vertex -5.075 0 0
      vertex -1.33488 -0.969845 0
      vertex -2.5375 -4.39508 0
    endloop
  endfacet
  facet normal -0 0 -1
    outer loop
      vertex -0.969845 -1.33488 0
      vertex -2.5375 -4.39508 0
      vertex -1.33488 -0.969845 0
    endloop
  endfacet
  facet normal -0 0 -1
    outer loop
      vertex -0.509877 -1.56924 0
      vertex -2.5375 -4.39508 0
      vertex -0.969845 -1.33488 0
    endloop
  endfacet
  facet normal 0 0 -1
    outer loop
      vertex 1.33488 0.969845 0
      vertex 5.075 0 0
      vertex 1.56924 0.509877 0
    endloop
  endfacet
  facet normal 0 0 -1
    outer loop
      vertex 5.075 0 0
      vertex 1.33488 0.969845 0
      vertex 2.5375 4.39508 0
    endloop
  endfacet
  facet normal 0 0 -1
    outer loop
      vertex 0.969845 1.33488 0
      vertex 2.5375 4.39508 0
      vertex 1.33488 0.969845 0
    endloop
  endfacet
  facet normal 0 0 -1
    outer loop
      vertex 0.509877 1.56924 0
      vertex 2.5375 4.39508 0
      vertex 0.969845 1.33488 0
    endloop
  endfacet
  facet normal 0 0 -1
    outer loop
      vertex 0 1.65 0
      vertex 2.5375 4.39508 0
      vertex 0.509877 1.56924 0
    endloop
  endfacet
  facet normal 0 0 -1
    outer loop
      vertex -2.5375 4.39508 0
      vertex 0 1.65 0
      vertex -0.509877 1.56924 0
    endloop
  endfacet
  facet normal 0 0 -1
    outer loop
      vertex -2.5375 4.39508 0
      vertex -0.509877 1.56924 0
      vertex -0.969845 1.33488 0
    endloop
  endfacet
  facet normal 0 0 -1
    outer loop
      vertex -1.56924 -0.509877 0
      vertex -5.075 0 0
      vertex -1.65 0 0
    endloop
  endfacet
  facet normal 0 0 -1
    outer loop
      vertex 0 1.65 0
      vertex -2.5375 4.39508 0
      vertex 2.5375 4.39508 0
    endloop
  endfacet
  facet normal 0 0 -1
    outer loop
      vertex -1.33488 0.969845 0
      vertex -2.5375 4.39508 0
      vertex -0.969845 1.33488 0
    endloop
  endfacet
  facet normal 0 0 -1
    outer loop
      vertex -5.075 0 0
      vertex -1.33488 0.969845 0
      vertex -1.56924 0.509877 0
    endloop
  endfacet
  facet normal 0 0 -1
    outer loop
      vertex -1.65 0 0
      vertex -5.075 0 0
      vertex -1.56924 0.509877 0
    endloop
  endfacet
  facet normal -0 0 -1
    outer loop
      vertex -1.33488 0.969845 0
      vertex -5.075 0 0
      vertex -2.5375 4.39508 0
    endloop
  endfacet
  facet normal 0 -1 0
    outer loop
      vertex -2.5375 -4.39508 0
      vertex 2.5375 -4.39508 6
      vertex -2.5375 -4.39508 6
    endloop
  endfacet
  facet normal 0 -1 -0
    outer loop
      vertex 2.5375 -4.39508 6
      vertex -2.5375 -4.39508 0
      vertex 2.5375 -4.39508 0
    endloop
  endfacet
  facet normal -0.866025 -0.5 0
    outer loop
      vertex -2.5375 -4.39508 0
      vertex -5.075 0 6
      vertex -5.075 0 0
    endloop
  endfacet
  facet normal -0.866025 -0.5 0
    outer loop
      vertex -5.075 0 6
      vertex -2.5375 -4.39508 0
      vertex -2.5375 -4.39508 6
    endloop
  endfacet
  facet normal -0.866026 -0.5 0
    outer loop
      vertex 3.075 0 2
      vertex 1.5375 2.66303 6
      vertex 1.5375 2.66303 2
    endloop
  endfacet
  facet normal -0.866026 -0.5 0
    outer loop
      vertex 1.5375 2.66303 6
      vertex 3.075 0 2
      vertex 3.075 0 6
    endloop
  endfacet
  facet normal 0.866026 -0.5 0
    outer loop
      vertex -3.075 0 6
      vertex -1.5375 2.66303 2
      vertex -1.5375 2.66303 6
    endloop
  endfacet
  facet normal 0.866026 -0.5 0
    outer loop
      vertex -1.5375 2.66303 2
      vertex -3.075 0 6
      vertex -3.075 0 2
    endloop
  endfacet
  facet normal 0 -1 0
    outer loop
      vertex -1.5375 2.66303 2
      vertex 1.5375 2.66303 6
      vertex -1.5375 2.66303 6
    endloop
  endfacet
  facet normal 0 -1 -0
    outer loop
      vertex 1.5375 2.66303 6
      vertex -1.5375 2.66303 2
      vertex 1.5375 2.66303 2
    endloop
  endfacet
  facet normal 0.866026 0.5 0
    outer loop
      vertex -1.5375 -2.66303 6
      vertex -3.075 0 2
      vertex -3.075 0 6
    endloop
  endfacet
  facet normal 0.866026 0.5 0
    outer loop
      vertex -3.075 0 2
      vertex -1.5375 -2.66303 6
      vertex -1.5375 -2.66303 2
    endloop
  endfacet
  facet normal 0 0 1
    outer loop
      vertex 3.075 0 2
      vertex 1.56924 0.509877 2
      vertex 1.65 0 2
    endloop
  endfacet
  facet normal -0 0 1
    outer loop
      vertex 1.33488 0.969845 2
      vertex 3.075 0 2
      vertex 1.5375 2.66303 2
    endloop
  endfacet
  facet normal 0 0 1
    outer loop
      vertex 3.075 0 2
      vertex 1.33488 0.969845 2
      vertex 1.56924 0.509877 2
    endloop
  endfacet
  facet normal 0 0 1
    outer loop
      vertex 1.5375 2.66303 2
      vertex 0.969845 1.33488 2
      vertex 1.33488 0.969845 2
    endloop
  endfacet
  facet normal 0 0 1
    outer loop
      vertex 1.5375 2.66303 2
      vertex 0.509877 1.56924 2
      vertex 0.969845 1.33488 2
    endloop
  endfacet
  facet normal 0 0 1
    outer loop
      vertex 1.5375 2.66303 2
      vertex 0 1.65 2
      vertex 0.509877 1.56924 2
    endloop
  endfacet
  facet normal -0 0 1
    outer loop
      vertex -1.5375 2.66303 2
      vertex 0 1.65 2
      vertex 1.5375 2.66303 2
    endloop
  endfacet
  facet normal 0 0 1
    outer loop
      vertex 0 1.65 2
      vertex -1.5375 2.66303 2
      vertex -0.509877 1.56924 2
    endloop
  endfacet
  facet normal 0 0 1
    outer loop
      vertex -0.509877 1.56924 2
      vertex -1.5375 2.66303 2
      vertex -0.969845 1.33488 2
    endloop
  endfacet
  facet normal 0 0 1
    outer loop
      vertex -1.5375 2.66303 2
      vertex -1.33488 0.969845 2
      vertex -0.969845 1.33488 2
    endloop
  endfacet
  facet normal 0 0 1
    outer loop
      vertex -3.075 0 2
      vertex -1.33488 0.969845 2
      vertex -1.5375 2.66303 2
    endloop
  endfacet
  facet normal 0 0 1
    outer loop
      vertex -1.33488 0.969845 2
      vertex -3.075 0 2
      vertex -1.56924 0.509877 2
    endloop
  endfacet
  facet normal 0 0 1
    outer loop
      vertex -1.56924 0.509877 2
      vertex -3.075 0 2
      vertex -1.65 0 2
    endloop
  endfacet
  facet normal 0 0 1
    outer loop
      vertex 1.56924 -0.509877 2
      vertex 3.075 0 2
      vertex 1.65 0 2
    endloop
  endfacet
  facet normal 0 0 1
    outer loop
      vertex 1.33488 -0.969845 2
      vertex 3.075 0 2
      vertex 1.56924 -0.509877 2
    endloop
  endfacet
  facet normal 0 0 1
    outer loop
      vertex 3.075 0 2
      vertex 1.33488 -0.969845 2
      vertex 1.5375 -2.66303 2
    endloop
  endfacet
  facet normal -0 0 1
    outer loop
      vertex 0.969845 -1.33488 2
      vertex 1.5375 -2.66303 2
      vertex 1.33488 -0.969845 2
    endloop
  endfacet
  facet normal -0 0 1
    outer loop
      vertex 0.509877 -1.56924 2
      vertex 1.5375 -2.66303 2
      vertex 0.969845 -1.33488 2
    endloop
  endfacet
  facet normal -0 0 1
    outer loop
      vertex 0 -1.65 2
      vertex 1.5375 -2.66303 2
      vertex 0.509877 -1.56924 2
    endloop
  endfacet
  facet normal 0 0 1
    outer loop
      vertex -1.5375 -2.66303 2
      vertex 0 -1.65 2
      vertex -0.509877 -1.56924 2
    endloop
  endfacet
  facet normal 0 0 1
    outer loop
      vertex -1.5375 -2.66303 2
      vertex -0.509877 -1.56924 2
      vertex -0.969845 -1.33488 2
    endloop
  endfacet
  facet normal 0 0 1
    outer loop
      vertex 0 -1.65 2
      vertex -1.5375 -2.66303 2
      vertex 1.5375 -2.66303 2
    endloop
  endfacet
  facet normal 0 0 1
    outer loop
      vertex -1.33488 -0.969845 2
      vertex -1.5375 -2.66303 2
      vertex -0.969845 -1.33488 2
    endloop
  endfacet
  facet normal 0 0 1
    outer loop
      vertex -3.075 0 2
      vertex -1.33488 -0.969845 2
      vertex -1.56924 -0.509877 2
    endloop
  endfacet
  facet normal -0 0 1
    outer loop
      vertex -3.075 0 2
      vertex -1.56924 -0.509877 2
      vertex -1.65 0 2
    endloop
  endfacet
  facet normal 0 0 1
    outer loop
      vertex -1.33488 -0.969845 2
      vertex -3.075 0 2
      vertex -1.5375 -2.66303 2
    endloop
  endfacet
  facet normal 0 1 -0
    outer loop
      vertex 1.5375 -2.66303 2
      vertex -1.5375 -2.66303 6
      vertex 1.5375 -2.66303 6
    endloop
  endfacet
  facet normal 0 1 0
    outer loop
      vertex -1.5375 -2.66303 6
      vertex 1.5375 -2.66303 2
      vertex -1.5375 -2.66303 2
    endloop
  endfacet
  facet normal -0.866026 0.5 0
    outer loop
      vertex 1.5375 -2.66303 2
      vertex 3.075 0 6
      vertex 3.075 0 2
    endloop
  endfacet
  facet normal -0.866026 0.5 0
    outer loop
      vertex 3.075 0 6
      vertex 1.5375 -2.66303 2
      vertex 1.5375 -2.66303 6
    endloop
  endfacet
  facet normal -0.987687 -0.156441 0
    outer loop
      vertex 1.65 0 0
      vertex 1.56924 0.509877 2
      vertex 1.56924 0.509877 0
    endloop
  endfacet
  facet normal -0.987687 -0.156441 0
    outer loop
      vertex 1.56924 0.509877 2
      vertex 1.65 0 0
      vertex 1.65 0 2
    endloop
  endfacet
  facet normal 0.987687 -0.156441 0
    outer loop
      vertex -1.65 0 2
      vertex -1.56924 0.509877 0
      vertex -1.56924 0.509877 2
    endloop
  endfacet
  facet normal 0.987687 -0.156441 0
    outer loop
      vertex -1.56924 0.509877 0
      vertex -1.65 0 2
      vertex -1.65 0 0
    endloop
  endfacet
  facet normal -0.156441 -0.987687 0
    outer loop
      vertex 0 1.65 0
      vertex 0.509877 1.56924 2
      vertex 0 1.65 2
    endloop
  endfacet
  facet normal -0.156441 -0.987687 -0
    outer loop
      vertex 0.509877 1.56924 2
      vertex 0 1.65 0
      vertex 0.509877 1.56924 0
    endloop
  endfacet
  facet normal 0.156441 0.987687 -0
    outer loop
      vertex 0 -1.65 0
      vertex -0.509877 -1.56924 2
      vertex 0 -1.65 2
    endloop
  endfacet
  facet normal 0.156441 0.987687 0
    outer loop
      vertex -0.509877 -1.56924 2
      vertex 0 -1.65 0
      vertex -0.509877 -1.56924 0
    endloop
  endfacet
  facet normal -0.707107 -0.707107 0
    outer loop
      vertex 1.33488 0.969845 0
      vertex 0.969845 1.33488 2
      vertex 0.969845 1.33488 0
    endloop
  endfacet
  facet normal -0.707107 -0.707107 0
    outer loop
      vertex 0.969845 1.33488 2
      vertex 1.33488 0.969845 0
      vertex 1.33488 0.969845 2
    endloop
  endfacet
  facet normal -0.891011 -0.453982 0
    outer loop
      vertex 1.56924 0.509877 0
      vertex 1.33488 0.969845 2
      vertex 1.33488 0.969845 0
    endloop
  endfacet
  facet normal -0.891011 -0.453982 0
    outer loop
      vertex 1.33488 0.969845 2
      vertex 1.56924 0.509877 0
      vertex 1.56924 0.509877 2
    endloop
  endfacet
  facet normal -0.453982 -0.891011 0
    outer loop
      vertex 0.509877 1.56924 0
      vertex 0.969845 1.33488 2
      vertex 0.509877 1.56924 2
    endloop
  endfacet
  facet normal -0.453982 -0.891011 -0
    outer loop
      vertex 0.969845 1.33488 2
      vertex 0.509877 1.56924 0
      vertex 0.969845 1.33488 0
    endloop
  endfacet
  facet normal 0.453982 -0.891011 0
    outer loop
      vertex -0.969845 1.33488 0
      vertex -0.509877 1.56924 2
      vertex -0.969845 1.33488 2
    endloop
  endfacet
  facet normal 0.453982 -0.891011 0
    outer loop
      vertex -0.509877 1.56924 2
      vertex -0.969845 1.33488 0
      vertex -0.509877 1.56924 0
    endloop
  endfacet
  facet normal 0.707107 -0.707107 0
    outer loop
      vertex -1.33488 0.969845 2
      vertex -0.969845 1.33488 0
      vertex -0.969845 1.33488 2
    endloop
  endfacet
  facet normal 0.707107 -0.707107 0
    outer loop
      vertex -0.969845 1.33488 0
      vertex -1.33488 0.969845 2
      vertex -1.33488 0.969845 0
    endloop
  endfacet
  facet normal 0.156441 -0.987687 0
    outer loop
      vertex -0.509877 1.56924 0
      vertex 0 1.65 2
      vertex -0.509877 1.56924 2
    endloop
  endfacet
  facet normal 0.156441 -0.987687 0
    outer loop
      vertex 0 1.65 2
      vertex -0.509877 1.56924 0
      vertex 0 1.65 0
    endloop
  endfacet
  facet normal -0.891011 0.453982 0
    outer loop
      vertex 1.33488 -0.969845 0
      vertex 1.56924 -0.509877 2
      vertex 1.56924 -0.509877 0
    endloop
  endfacet
  facet normal -0.891011 0.453982 0
    outer loop
      vertex 1.56924 -0.509877 2
      vertex 1.33488 -0.969845 0
      vertex 1.33488 -0.969845 2
    endloop
  endfacet
  facet normal 0.707107 0.707107 0
    outer loop
      vertex -0.969845 -1.33488 2
      vertex -1.33488 -0.969845 0
      vertex -1.33488 -0.969845 2
    endloop
  endfacet
  facet normal 0.707107 0.707107 0
    outer loop
      vertex -1.33488 -0.969845 0
      vertex -0.969845 -1.33488 2
      vertex -0.969845 -1.33488 0
    endloop
  endfacet
  facet normal 0.987687 0.156441 0
    outer loop
      vertex -1.56924 -0.509877 2
      vertex -1.65 0 0
      vertex -1.65 0 2
    endloop
  endfacet
  facet normal 0.987687 0.156441 0
    outer loop
      vertex -1.65 0 0
      vertex -1.56924 -0.509877 2
      vertex -1.56924 -0.509877 0
    endloop
  endfacet
  facet normal 0.891011 -0.453982 0
    outer loop
      vertex -1.56924 0.509877 2
      vertex -1.33488 0.969845 0
      vertex -1.33488 0.969845 2
    endloop
  endfacet
  facet normal 0.891011 -0.453982 0
    outer loop
      vertex -1.33488 0.969845 0
      vertex -1.56924 0.509877 2
      vertex -1.56924 0.509877 0
    endloop
  endfacet
  facet normal -0.156441 0.987687 0
    outer loop
      vertex 0.509877 -1.56924 0
      vertex 0 -1.65 2
      vertex 0.509877 -1.56924 2
    endloop
  endfacet
  facet normal -0.156441 0.987687 0
    outer loop
      vertex 0 -1.65 2
      vertex 0.509877 -1.56924 0
      vertex 0 -1.65 0
    endloop
  endfacet
  facet normal -0.707107 0.707107 0
    outer loop
      vertex 0.969845 -1.33488 0
      vertex 1.33488 -0.969845 2
      vertex 1.33488 -0.969845 0
    endloop
  endfacet
  facet normal -0.707107 0.707107 0
    outer loop
      vertex 1.33488 -0.969845 2
      vertex 0.969845 -1.33488 0
      vertex 0.969845 -1.33488 2
    endloop
  endfacet
  facet normal 0.453982 0.891011 -0
    outer loop
      vertex -0.509877 -1.56924 0
      vertex -0.969845 -1.33488 2
      vertex -0.509877 -1.56924 2
    endloop
  endfacet
  facet normal 0.453982 0.891011 0
    outer loop
      vertex -0.969845 -1.33488 2
      vertex -0.509877 -1.56924 0
      vertex -0.969845 -1.33488 0
    endloop
  endfacet
  facet normal 0.891011 0.453982 0
    outer loop
      vertex -1.33488 -0.969845 2
      vertex -1.56924 -0.509877 0
      vertex -1.56924 -0.509877 2
    endloop
  endfacet
  facet normal 0.891011 0.453982 0
    outer loop
      vertex -1.56924 -0.509877 0
      vertex -1.33488 -0.969845 2
      vertex -1.33488 -0.969845 0
    endloop
  endfacet
  facet normal -0.987687 0.156441 0
    outer loop
      vertex 1.56924 -0.509877 0
      vertex 1.65 0 2
      vertex 1.65 0 0
    endloop
  endfacet
  facet normal -0.987687 0.156441 0
    outer loop
      vertex 1.65 0 2
      vertex 1.56924 -0.509877 0
      vertex 1.56924 -0.509877 2
    endloop
  endfacet
  facet normal -0.453982 0.891011 0
    outer loop
      vertex 0.969845 -1.33488 0
      vertex 0.509877 -1.56924 2
      vertex 0.969845 -1.33488 2
    endloop
  endfacet
  facet normal -0.453982 0.891011 0
    outer loop
      vertex 0.509877 -1.56924 2
      vertex 0.969845 -1.33488 0
      vertex 0.509877 -1.56924 0
    endloop
  endfacet
endsolid OpenSCAD_Model
