solid OpenSCAD_Model
  facet normal 0.994522 0.104529 0
    outer loop
      vertex 4 0 1
      vertex 3.91259 0.831646 0
      vertex 3.91259 0.831646 1
    endloop
  endfacet
  facet normal 0.994522 0.104529 0
    outer loop
      vertex 3.91259 0.831646 0
      vertex 4 0 1
      vertex 4 0 0
    endloop
  endfacet
  facet normal -0.994522 0.104529 0
    outer loop
      vertex -4 0 0
      vertex -3.91259 0.831646 1
      vertex -3.91259 0.831646 0
    endloop
  endfacet
  facet normal -0.994522 0.104529 0
    outer loop
      vertex -3.91259 0.831646 1
      vertex -4 0 0
      vertex -4 0 1
    endloop
  endfacet
  facet normal 0.743142 0.669134 0
    outer loop
      vertex 3.23607 2.35114 1
      vertex 3 2.61332 0
      vertex 3 2.61332 1
    endloop
  endfacet
  facet normal 0.743142 0.669134 0
    outer loop
      vertex 3 2.61332 0
      vertex 3.23607 2.35114 1
      vertex 3.23607 2.35114 0
    endloop
  endfacet
  facet normal -0.743142 0.669134 0
    outer loop
      vertex -3.23607 2.35114 0
      vertex -3 2.61332 1
      vertex -3 2.61332 0
    endloop
  endfacet
  facet normal -0.743142 0.669134 0
    outer loop
      vertex -3 2.61332 1
      vertex -3.23607 2.35114 0
      vertex -3.23607 2.35114 1
    endloop
  endfacet
  facet normal -0.866026 0.499999 0
    outer loop
      vertex -3.65418 1.62695 0
      vertex -3.23607 2.35114 1
      vertex -3.23607 2.35114 0
    endloop
  endfacet
  facet normal -0.866026 0.499999 0
    outer loop
      vertex -3.23607 2.35114 1
      vertex -3.65418 1.62695 0
      vertex -3.65418 1.62695 1
    endloop
  endfacet
  facet normal 0 0 -1
    outer loop
      vertex -3.23607 -2.35114 0
      vertex -3 2.61332 0
      vertex -2.67652 -2.97258 0
    endloop
  endfacet
  facet normal 0 0 -1
    outer loop
      vertex -3.65418 -1.62695 0
      vertex -3 2.61332 0
      vertex -3.23607 -2.35114 0
    endloop
  endfacet
  facet normal 0 0 -1
    outer loop
      vertex -3.91259 -0.831646 0
      vertex -3 2.61332 0
      vertex -3.65418 -1.62695 0
    endloop
  endfacet
  facet normal 0 0 -1
    outer loop
      vertex -3 2.61332 0
      vertex -3.65418 1.62695 0
      vertex -3.23607 2.35114 0
    endloop
  endfacet
  facet normal 0 0 -1
    outer loop
      vertex -3.91259 0.831646 0
      vertex -3 2.61332 0
      vertex -3.91259 -0.831646 0
    endloop
  endfacet
  facet normal 0 0 -1
    outer loop
      vertex -3 2.61332 0
      vertex -3.91259 0.831646 0
      vertex -3.65418 1.62695 0
    endloop
  endfacet
  facet normal 0 -0 -1
    outer loop
      vertex -3.91259 0.831646 0
      vertex -3.91259 -0.831646 0
      vertex -4 0 0
    endloop
  endfacet
  facet normal 0 0 -1
    outer loop
      vertex 3.91259 -0.831646 0
      vertex 3.91259 0.831646 0
      vertex 4 0 0
    endloop
  endfacet
  facet normal 0 0 -1
    outer loop
      vertex 3.65418 -1.62695 0
      vertex 3.91259 0.831646 0
      vertex 3.91259 -0.831646 0
    endloop
  endfacet
  facet normal 0 0 -1
    outer loop
      vertex 3 2.61332 0
      vertex 3.91259 0.831646 0
      vertex 3.65418 -1.62695 0
    endloop
  endfacet
  facet normal 0 0 -1
    outer loop
      vertex 3 2.61332 0
      vertex 3.65418 -1.62695 0
      vertex 3.23607 -2.35114 0
    endloop
  endfacet
  facet normal 0 0 -1
    outer loop
      vertex 3.91259 0.831646 0
      vertex 3 2.61332 0
      vertex 3.65418 1.62695 0
    endloop
  endfacet
  facet normal 0 0 -1
    outer loop
      vertex 3.65418 1.62695 0
      vertex 3 2.61332 0
      vertex 3.23607 2.35114 0
    endloop
  endfacet
  facet normal 0 0 -1
    outer loop
      vertex 2.67652 -2.97258 0
      vertex 3 2.61332 0
      vertex 3.23607 -2.35114 0
    endloop
  endfacet
  facet normal 0 0 -1
    outer loop
      vertex -3 2.61332 0
      vertex 3 2.61332 0
      vertex 2.67652 -2.97258 0
    endloop
  endfacet
  facet normal 0 0 -1
    outer loop
      vertex -3 2.61332 0
      vertex 2.67652 -2.97258 0
      vertex 2 -3.4641 0
    endloop
  endfacet
  facet normal 0 0 -1
    outer loop
      vertex -3 2.61332 0
      vertex 2 -3.4641 0
      vertex 1.23607 -3.80423 0
    endloop
  endfacet
  facet normal 0 0 -1
    outer loop
      vertex -3 2.61332 0
      vertex 1.23607 -3.80423 0
      vertex 0.418114 -3.97809 0
    endloop
  endfacet
  facet normal 0 0 -1
    outer loop
      vertex -3 2.61332 0
      vertex 0.418114 -3.97809 0
      vertex -0.418114 -3.97809 0
    endloop
  endfacet
  facet normal 0 0 -1
    outer loop
      vertex -3 2.61332 0
      vertex -0.418114 -3.97809 0
      vertex -1.23607 -3.80423 0
    endloop
  endfacet
  facet normal 0 0 -1
    outer loop
      vertex -3 2.61332 0
      vertex -1.23607 -3.80423 0
      vertex -2 -3.4641 0
    endloop
  endfacet
  facet normal 0 0 -1
    outer loop
      vertex -3 2.61332 0
      vertex -2 -3.4641 0
      vertex -2.67652 -2.97258 0
    endloop
  endfacet
  facet normal 0 0 -1
    outer loop
      vertex 3 2.61332 0
      vertex -3 2.61332 0
      vertex 3 5.5 0
    endloop
  endfacet
  facet normal -0 0 -1
    outer loop
      vertex 3 5.5 0
      vertex -3 2.61332 0
      vertex -3 5.5 0
    endloop
  endfacet
  facet normal 0.866026 0.499999 0
    outer loop
      vertex 3.65418 1.62695 1
      vertex 3.23607 2.35114 0
      vertex 3.23607 2.35114 1
    endloop
  endfacet
  facet normal 0.866026 0.499999 0
    outer loop
      vertex 3.23607 2.35114 0
      vertex 3.65418 1.62695 1
      vertex 3.65418 1.62695 0
    endloop
  endfacet
  facet normal 0.951056 0.309017 0
    outer loop
      vertex 3.91259 0.831646 1
      vertex 3.65418 1.62695 0
      vertex 3.65418 1.62695 1
    endloop
  endfacet
  facet normal 0.951056 0.309017 0
    outer loop
      vertex 3.65418 1.62695 0
      vertex 3.91259 0.831646 1
      vertex 3.91259 0.831646 0
    endloop
  endfacet
  facet normal -0.951056 0.309017 0
    outer loop
      vertex -3.91259 0.831646 0
      vertex -3.65418 1.62695 1
      vertex -3.65418 1.62695 0
    endloop
  endfacet
  facet normal -0.951056 0.309017 0
    outer loop
      vertex -3.65418 1.62695 1
      vertex -3.91259 0.831646 0
      vertex -3.91259 0.831646 1
    endloop
  endfacet
  facet normal 0 0 1
    outer loop
      vertex -3 2.61332 1
      vertex 3 2.61332 1
      vertex 3 5.5 1
    endloop
  endfacet
  facet normal 0 0 1
    outer loop
      vertex 3 2.61332 1
      vertex -3 2.61332 1
      vertex 2.67652 -2.97258 1
    endloop
  endfacet
  facet normal 0 0 1
    outer loop
      vertex 2.67652 -2.97258 1
      vertex -3 2.61332 1
      vertex 2 -3.4641 1
    endloop
  endfacet
  facet normal 0 0 1
    outer loop
      vertex 2 -3.4641 1
      vertex -3 2.61332 1
      vertex 1.23607 -3.80423 1
    endloop
  endfacet
  facet normal 0 0 1
    outer loop
      vertex 1.23607 -3.80423 1
      vertex -3 2.61332 1
      vertex 0.418114 -3.97809 1
    endloop
  endfacet
  facet normal 0 0 1
    outer loop
      vertex 0.418114 -3.97809 1
      vertex -3 2.61332 1
      vertex -0.418114 -3.97809 1
    endloop
  endfacet
  facet normal 0 0 1
    outer loop
      vertex -0.418114 -3.97809 1
      vertex -3 2.61332 1
      vertex -1.23607 -3.80423 1
    endloop
  endfacet
  facet normal 0 0 1
    outer loop
      vertex -1.23607 -3.80423 1
      vertex -3 2.61332 1
      vertex -2 -3.4641 1
    endloop
  endfacet
  facet normal 0 0 1
    outer loop
      vertex -3 2.61332 1
      vertex 3 5.5 1
      vertex -3 5.5 1
    endloop
  endfacet
  facet normal 0 0 1
    outer loop
      vertex -2 -3.4641 1
      vertex -3 2.61332 1
      vertex -2.67652 -2.97258 1
    endloop
  endfacet
  facet normal 0 0 1
    outer loop
      vertex -3.65418 1.62695 1
      vertex -3 2.61332 1
      vertex -3.23607 2.35114 1
    endloop
  endfacet
  facet normal 0 0 1
    outer loop
      vertex -3 2.61332 1
      vertex -3.23607 -2.35114 1
      vertex -2.67652 -2.97258 1
    endloop
  endfacet
  facet normal 0 0 1
    outer loop
      vertex -3.91259 0.831646 1
      vertex -3 2.61332 1
      vertex -3.65418 1.62695 1
    endloop
  endfacet
  facet normal 0 0 1
    outer loop
      vertex -3 2.61332 1
      vertex -3.65418 -1.62695 1
      vertex -3.23607 -2.35114 1
    endloop
  endfacet
  facet normal 0 0 1
    outer loop
      vertex -3 2.61332 1
      vertex -3.91259 0.831646 1
      vertex -3.65418 -1.62695 1
    endloop
  endfacet
  facet normal 0 0 1
    outer loop
      vertex -3.91259 0.831646 1
      vertex -3.91259 -0.831646 1
      vertex -3.65418 -1.62695 1
    endloop
  endfacet
  facet normal 0 -0 1
    outer loop
      vertex -3.91259 -0.831646 1
      vertex -3.91259 0.831646 1
      vertex -4 0 1
    endloop
  endfacet
  facet normal 0 0 1
    outer loop
      vertex 3.91259 0.831646 1
      vertex 3.91259 -0.831646 1
      vertex 4 0 1
    endloop
  endfacet
  facet normal 0 0 1
    outer loop
      vertex 3 2.61332 1
      vertex 3.91259 0.831646 1
      vertex 3.65418 1.62695 1
    endloop
  endfacet
  facet normal 0 0 1
    outer loop
      vertex 3.91259 0.831646 1
      vertex 3 2.61332 1
      vertex 3.91259 -0.831646 1
    endloop
  endfacet
  facet normal 0 0 1
    outer loop
      vertex 3 2.61332 1
      vertex 3.65418 1.62695 1
      vertex 3.23607 2.35114 1
    endloop
  endfacet
  facet normal 0 0 1
    outer loop
      vertex 3.91259 -0.831646 1
      vertex 3 2.61332 1
      vertex 3.65418 -1.62695 1
    endloop
  endfacet
  facet normal 0 0 1
    outer loop
      vertex 3.65418 -1.62695 1
      vertex 3 2.61332 1
      vertex 3.23607 -2.35114 1
    endloop
  endfacet
  facet normal 0 0 1
    outer loop
      vertex 3.23607 -2.35114 1
      vertex 3 2.61332 1
      vertex 2.67652 -2.97258 1
    endloop
  endfacet
  facet normal 0.994522 -0.104529 0
    outer loop
      vertex 3.91259 -0.831646 1
      vertex 4 0 0
      vertex 4 0 1
    endloop
  endfacet
  facet normal 0.994522 -0.104529 0
    outer loop
      vertex 4 0 0
      vertex 3.91259 -0.831646 1
      vertex 3.91259 -0.831646 0
    endloop
  endfacet
  facet normal -0.207909 -0.978148 0
    outer loop
      vertex -1.23607 -3.80423 0
      vertex -0.418114 -3.97809 1
      vertex -1.23607 -3.80423 1
    endloop
  endfacet
  facet normal -0.207909 -0.978148 -0
    outer loop
      vertex -0.418114 -3.97809 1
      vertex -1.23607 -3.80423 0
      vertex -0.418114 -3.97809 0
    endloop
  endfacet
  facet normal 0.207909 -0.978148 0
    outer loop
      vertex 0.418114 -3.97809 0
      vertex 1.23607 -3.80423 1
      vertex 0.418114 -3.97809 1
    endloop
  endfacet
  facet normal 0.207909 -0.978148 0
    outer loop
      vertex 1.23607 -3.80423 1
      vertex 0.418114 -3.97809 0
      vertex 1.23607 -3.80423 0
    endloop
  endfacet
  facet normal 0.743143 -0.669133 0
    outer loop
      vertex 2.67652 -2.97258 1
      vertex 3.23607 -2.35114 0
      vertex 3.23607 -2.35114 1
    endloop
  endfacet
  facet normal 0.743143 -0.669133 0
    outer loop
      vertex 3.23607 -2.35114 0
      vertex 2.67652 -2.97258 1
      vertex 2.67652 -2.97258 0
    endloop
  endfacet
  facet normal 0.951056 -0.309017 0
    outer loop
      vertex 3.65418 -1.62695 1
      vertex 3.91259 -0.831646 0
      vertex 3.91259 -0.831646 1
    endloop
  endfacet
  facet normal 0.951056 -0.309017 0
    outer loop
      vertex 3.91259 -0.831646 0
      vertex 3.65418 -1.62695 1
      vertex 3.65418 -1.62695 0
    endloop
  endfacet
  facet normal 0.866026 -0.499999 0
    outer loop
      vertex 3.23607 -2.35114 1
      vertex 3.65418 -1.62695 0
      vertex 3.65418 -1.62695 1
    endloop
  endfacet
  facet normal 0.866026 -0.499999 0
    outer loop
      vertex 3.65418 -1.62695 0
      vertex 3.23607 -2.35114 1
      vertex 3.23607 -2.35114 0
    endloop
  endfacet
  facet normal -0.866026 -0.499999 0
    outer loop
      vertex -3.23607 -2.35114 0
      vertex -3.65418 -1.62695 1
      vertex -3.65418 -1.62695 0
    endloop
  endfacet
  facet normal -0.866026 -0.499999 0
    outer loop
      vertex -3.65418 -1.62695 1
      vertex -3.23607 -2.35114 0
      vertex -3.23607 -2.35114 1
    endloop
  endfacet
  facet normal -0.994522 -0.104529 0
    outer loop
      vertex -3.91259 -0.831646 0
      vertex -4 0 1
      vertex -4 0 0
    endloop
  endfacet
  facet normal -0.994522 -0.104529 0
    outer loop
      vertex -4 0 1
      vertex -3.91259 -0.831646 0
      vertex -3.91259 -0.831646 1
    endloop
  endfacet
  facet normal -0.951056 -0.309017 0
    outer loop
      vertex -3.65418 -1.62695 0
      vertex -3.91259 -0.831646 1
      vertex -3.91259 -0.831646 0
    endloop
  endfacet
  facet normal -0.951056 -0.309017 0
    outer loop
      vertex -3.91259 -0.831646 1
      vertex -3.65418 -1.62695 0
      vertex -3.65418 -1.62695 1
    endloop
  endfacet
  facet normal 0.587785 -0.809017 0
    outer loop
      vertex 2 -3.4641 0
      vertex 2.67652 -2.97258 1
      vertex 2 -3.4641 1
    endloop
  endfacet
  facet normal 0.587785 -0.809017 0
    outer loop
      vertex 2.67652 -2.97258 1
      vertex 2 -3.4641 0
      vertex 2.67652 -2.97258 0
    endloop
  endfacet
  facet normal 0.406743 -0.913543 0
    outer loop
      vertex 1.23607 -3.80423 0
      vertex 2 -3.4641 1
      vertex 1.23607 -3.80423 1
    endloop
  endfacet
  facet normal 0.406743 -0.913543 0
    outer loop
      vertex 2 -3.4641 1
      vertex 1.23607 -3.80423 0
      vertex 2 -3.4641 0
    endloop
  endfacet
  facet normal 0 -1 0
    outer loop
      vertex -0.418114 -3.97809 0
      vertex 0.418114 -3.97809 1
      vertex -0.418114 -3.97809 1
    endloop
  endfacet
  facet normal 0 -1 -0
    outer loop
      vertex 0.418114 -3.97809 1
      vertex -0.418114 -3.97809 0
      vertex 0.418114 -3.97809 0
    endloop
  endfacet
  facet normal -0.406743 -0.913543 0
    outer loop
      vertex -2 -3.4641 0
      vertex -1.23607 -3.80423 1
      vertex -2 -3.4641 1
    endloop
  endfacet
  facet normal -0.406743 -0.913543 -0
    outer loop
      vertex -1.23607 -3.80423 1
      vertex -2 -3.4641 0
      vertex -1.23607 -3.80423 0
    endloop
  endfacet
  facet normal -0.743143 -0.669133 0
    outer loop
      vertex -2.67652 -2.97258 0
      vertex -3.23607 -2.35114 1
      vertex -3.23607 -2.35114 0
    endloop
  endfacet
  facet normal -0.743143 -0.669133 0
    outer loop
      vertex -3.23607 -2.35114 1
      vertex -2.67652 -2.97258 0
      vertex -2.67652 -2.97258 1
    endloop
  endfacet
  facet normal -0.587785 -0.809017 0
    outer loop
      vertex -2.67652 -2.97258 0
      vertex -2 -3.4641 1
      vertex -2.67652 -2.97258 1
    endloop
  endfacet
  facet normal -0.587785 -0.809017 -0
    outer loop
      vertex -2 -3.4641 1
      vertex -2.67652 -2.97258 0
      vertex -2 -3.4641 0
    endloop
  endfacet
  facet normal -1 0 0
    outer loop
      vertex -3 2.61332 0
      vertex -3 5.5 1
      vertex -3 5.5 0
    endloop
  endfacet
  facet normal -1 -0 0
    outer loop
      vertex -3 5.5 1
      vertex -3 2.61332 0
      vertex -3 2.61332 1
    endloop
  endfacet
  facet normal 1 -0 0
    outer loop
      vertex 3 2.61332 1
      vertex 3 5.5 0
      vertex 3 5.5 1
    endloop
  endfacet
  facet normal 1 0 0
    outer loop
      vertex 3 5.5 0
      vertex 3 2.61332 1
      vertex 3 2.61332 0
    endloop
  endfacet
  facet normal 0 1 -0
    outer loop
      vertex 3 5.5 0
      vertex -3 5.5 1
      vertex 3 5.5 1
    endloop
  endfacet
  facet normal 0 1 0
    outer loop
      vertex -3 5.5 1
      vertex 3 5.5 0
      vertex -3 5.5 0
    endloop
  endfacet
endsolid OpenSCAD_Model
