solid OpenSCAD_Model
  facet normal -0.104513 0 0.994524
    outer loop
      vertex -9.33671 -27.4 38.1748
      vertex -10.7146 -35.9 38.03
      vertex -9.33671 -35.9 38.1748
    endloop
  endfacet
  facet normal -0.104517 7.5831e-007 0.994523
    outer loop
      vertex -11 -27.4 38
      vertex -10.7146 -35.9 38.03
      vertex -9.33671 -27.4 38.1748
    endloop
  endfacet
  facet normal -0.10454 0 0.994521
    outer loop
      vertex -10.7146 -35.9 38.03
      vertex -11 -27.4 38
      vertex -11 -35.9 38
    endloop
  endfacet
  facet normal -0.500029 0 0.866009
    outer loop
      vertex -6.29772 -27.4 39.5279
      vertex -7.212 -35.9 39
      vertex -6.29772 -35.9 39.5279
    endloop
  endfacet
  facet normal -0.500032 5.12303e-007 0.866007
    outer loop
      vertex -7.74611 -27.4 38.6916
      vertex -7.212 -35.9 39
      vertex -6.29772 -27.4 39.5279
    endloop
  endfacet
  facet normal -0.500038 0 0.866003
    outer loop
      vertex -7.74611 -35.9 38.6916
      vertex -7.212 -35.9 39
      vertex -7.74611 -27.4 38.6916
    endloop
  endfacet
  facet normal 0 -1 0
    outer loop
      vertex -5.25867 -27.4 49
      vertex -3.04382 -27.4 46.8362
      vertex -4.6159 -27.4 49
    endloop
  endfacet
  facet normal -0 -1 -0
    outer loop
      vertex -3.04382 -27.4 46.8362
      vertex -5.25867 -27.4 49
      vertex -3.04382 -27.4 45.1638
    endloop
  endfacet
  facet normal -0.669133 0 0.743143
    outer loop
      vertex -6.29772 -27.4 39.5279
      vertex -5.05484 -35.9 40.647
      vertex -5.05484 -27.4 40.647
    endloop
  endfacet
  facet normal -0.669133 0 0.743143
    outer loop
      vertex -5.05484 -35.9 40.647
      vertex -6.29772 -27.4 39.5279
      vertex -6.29772 -35.9 39.5279
    endloop
  endfacet
  facet normal 0.669127 0 0.743148
    outer loop
      vertex -16.9452 -27.4 40.647
      vertex -15.7023 -35.9 39.5279
      vertex -15.7023 -27.4 39.5279
    endloop
  endfacet
  facet normal 0.669127 0 0.743148
    outer loop
      vertex -15.7023 -35.9 39.5279
      vertex -16.9452 -27.4 40.647
      vertex -16.9452 -35.9 40.647
    endloop
  endfacet
  facet normal 0.104517 0 0.994523
    outer loop
      vertex -12.6633 -27.4 38.1748
      vertex -11 -35.9 38
      vertex -11 -27.4 38
    endloop
  endfacet
  facet normal 0.104517 0 0.994523
    outer loop
      vertex -11 -35.9 38
      vertex -12.6633 -27.4 38.1748
      vertex -12.6633 -35.9 38.1748
    endloop
  endfacet
  facet normal 0 -1 0
    outer loop
      vertex -18.6085 -27.4 43.5279
      vertex -7.74611 -27.4 38.6916
      vertex -6.29772 -27.4 39.5279
    endloop
  endfacet
  facet normal 0 -1 0
    outer loop
      vertex -18.6085 -27.4 43.5279
      vertex -15.7023 -27.4 39.5279
      vertex -14.2539 -27.4 38.6916
    endloop
  endfacet
  facet normal 0 -1 0
    outer loop
      vertex -18.6085 -27.4 43.5279
      vertex -9.33671 -27.4 38.1748
      vertex -7.74611 -27.4 38.6916
    endloop
  endfacet
  facet normal 0.50003 0 0.866008
    outer loop
      vertex -15.7023 -27.4 39.5279
      vertex -14.2539 -35.9 38.6916
      vertex -14.2539 -27.4 38.6916
    endloop
  endfacet
  facet normal 0.50003 0 0.866008
    outer loop
      vertex -14.2539 -35.9 38.6916
      vertex -15.7023 -27.4 39.5279
      vertex -15.7023 -35.9 39.5279
    endloop
  endfacet
  facet normal 0 -1 0
    outer loop
      vertex -5.8279 -27.4 49
      vertex -3.04382 -27.4 45.1638
      vertex -5.25867 -27.4 49
    endloop
  endfacet
  facet normal -0 -1 0
    outer loop
      vertex -3.04382 -27.4 45.1638
      vertex -5.8279 -27.4 49
      vertex -3.39155 -27.4 43.5279
    endloop
  endfacet
  facet normal 0 -1 0
    outer loop
      vertex -18.6085 -27.4 43.5279
      vertex -15.177 -27.4 46.561
      vertex -15.177 -27.4 46.6176
    endloop
  endfacet
  facet normal 0 -1 0
    outer loop
      vertex -18.6085 -27.4 43.5279
      vertex -14.9944 -27.4 45.7021
      vertex -15.177 -27.4 46.561
    endloop
  endfacet
  facet normal 0 -1 0
    outer loop
      vertex -18.6085 -27.4 43.5279
      vertex -14.6373 -27.4 44.9
      vertex -14.9944 -27.4 45.7021
    endloop
  endfacet
  facet normal 0 -1 0
    outer loop
      vertex -18.6085 -27.4 43.5279
      vertex -14.1212 -27.4 44.1897
      vertex -14.6373 -27.4 44.9
    endloop
  endfacet
  facet normal 0 -1 0
    outer loop
      vertex -18.6085 -27.4 43.5279
      vertex -13.4687 -27.4 43.6021
      vertex -14.1212 -27.4 44.1897
    endloop
  endfacet
  facet normal 0 -1 0
    outer loop
      vertex -18.6085 -27.4 43.5279
      vertex -12.7083 -27.4 43.1631
      vertex -13.4687 -27.4 43.6021
    endloop
  endfacet
  facet normal 0 -1 0
    outer loop
      vertex -18.6085 -27.4 43.5279
      vertex -11.8732 -27.4 42.8918
      vertex -12.7083 -27.4 43.1631
    endloop
  endfacet
  facet normal 0 -1 0
    outer loop
      vertex -6.29772 -27.4 39.5279
      vertex -11.8732 -27.4 42.8918
      vertex -18.6085 -27.4 43.5279
    endloop
  endfacet
  facet normal 0 -1 0
    outer loop
      vertex -11.8732 -27.4 42.8918
      vertex -6.29772 -27.4 39.5279
      vertex -11 -27.4 42.8
    endloop
  endfacet
  facet normal 0 -1 0
    outer loop
      vertex -7.00556 -27.4 45.7021
      vertex -6.29772 -27.4 39.5279
      vertex -6.96615 -27.4 45.8876
    endloop
  endfacet
  facet normal 0 -1 0
    outer loop
      vertex -7.36269 -27.4 44.9
      vertex -6.29772 -27.4 39.5279
      vertex -7.00556 -27.4 45.7021
    endloop
  endfacet
  facet normal 0 -1 0
    outer loop
      vertex -7.87879 -27.4 44.1897
      vertex -6.29772 -27.4 39.5279
      vertex -7.36269 -27.4 44.9
    endloop
  endfacet
  facet normal 0 -1 0
    outer loop
      vertex -8.5313 -27.4 43.6021
      vertex -6.29772 -27.4 39.5279
      vertex -7.87879 -27.4 44.1897
    endloop
  endfacet
  facet normal 0 -1 0
    outer loop
      vertex -9.29171 -27.4 43.1631
      vertex -6.29772 -27.4 39.5279
      vertex -8.5313 -27.4 43.6021
    endloop
  endfacet
  facet normal 0 -1 0
    outer loop
      vertex -10.1268 -27.4 42.8918
      vertex -6.29772 -27.4 39.5279
      vertex -9.29171 -27.4 43.1631
    endloop
  endfacet
  facet normal 0 -1 0
    outer loop
      vertex -6.29772 -27.4 39.5279
      vertex -10.1268 -27.4 42.8918
      vertex -11 -27.4 42.8
    endloop
  endfacet
  facet normal -0 -1 -0
    outer loop
      vertex -7.29328 -27.4 49
      vertex -7.31817 -27.4 49
      vertex -7.28559 -27.4 48.9268
    endloop
  endfacet
  facet normal -0.809008 0 0.587797
    outer loop
      vertex -5.05484 -35.9 40.647
      vertex -4.21711 -27.4 41.8
      vertex -5.05484 -27.4 40.647
    endloop
  endfacet
  facet normal -0.809008 0 0.587797
    outer loop
      vertex -4.21711 -27.4 41.8
      vertex -5.05484 -35.9 40.647
      vertex -4.21711 -35.9 41.8
    endloop
  endfacet
  facet normal 0 -1 0
    outer loop
      vertex -18.6085 -27.4 43.5279
      vertex -12.6633 -27.4 38.1748
      vertex -11 -27.4 38
    endloop
  endfacet
  facet normal 0 -1 0
    outer loop
      vertex -18.6085 -27.4 43.5279
      vertex -11 -27.4 38
      vertex -9.33671 -27.4 38.1748
    endloop
  endfacet
  facet normal -0.308987 0 0.951066
    outer loop
      vertex -7.74611 -27.4 38.6916
      vertex -8.31031 -35.9 38.5083
      vertex -7.74611 -35.9 38.6916
    endloop
  endfacet
  facet normal -0.309008 1.51803e-006 0.95106
    outer loop
      vertex -9.33671 -27.4 38.1748
      vertex -8.31031 -35.9 38.5083
      vertex -7.74611 -27.4 38.6916
    endloop
  endfacet
  facet normal -0.309019 0 0.951056
    outer loop
      vertex -8.31031 -35.9 38.5083
      vertex -9.33671 -27.4 38.1748
      vertex -9.33671 -35.9 38.1748
    endloop
  endfacet
  facet normal 0 -1 0
    outer loop
      vertex -17.7829 -27.4 41.8
      vertex -18.6085 -27.4 43.5279
      vertex -17.9282 -27.4 42
    endloop
  endfacet
  facet normal 0 -1 0
    outer loop
      vertex -18.6085 -27.4 43.5279
      vertex -17.7829 -27.4 41.8
      vertex -16.9452 -27.4 40.647
    endloop
  endfacet
  facet normal 0 -1 0
    outer loop
      vertex -18.6085 -27.4 43.5279
      vertex -16.9452 -27.4 40.647
      vertex -15.7023 -27.4 39.5279
    endloop
  endfacet
  facet normal 0 -1 0
    outer loop
      vertex -18.6085 -27.4 43.5279
      vertex -14.2539 -27.4 38.6916
      vertex -12.6633 -27.4 38.1748
    endloop
  endfacet
  facet normal 0 -1 0
    outer loop
      vertex -4.6159 -27.4 49
      vertex -3.39155 -27.4 48.4721
      vertex -3.86684 -27.4 49
    endloop
  endfacet
  facet normal -0 -1 -0
    outer loop
      vertex -3.39155 -27.4 48.4721
      vertex -4.6159 -27.4 49
      vertex -3.04382 -27.4 46.8362
    endloop
  endfacet
  facet normal 0 -1 0
    outer loop
      vertex -6.83034 -27.4 49
      vertex -4.0718 -27.4 42
      vertex -6.34623 -27.4 49
    endloop
  endfacet
  facet normal 0 -1 0
    outer loop
      vertex -6.83034 -27.4 49
      vertex -4.21711 -27.4 41.8
      vertex -4.0718 -27.4 42
    endloop
  endfacet
  facet normal -0 -1 0
    outer loop
      vertex -4.21711 -27.4 41.8
      vertex -6.83034 -27.4 49
      vertex -5.05484 -27.4 40.647
    endloop
  endfacet
  facet normal 0 -1 0
    outer loop
      vertex -7.28559 -27.4 48.9268
      vertex -6.83034 -27.4 49
      vertex -7.29328 -27.4 49
    endloop
  endfacet
  facet normal 0 -1 0
    outer loop
      vertex -7.00556 -27.4 48.2979
      vertex -6.83034 -27.4 49
      vertex -7.28559 -27.4 48.9268
    endloop
  endfacet
  facet normal 0 -1 0
    outer loop
      vertex -6.82301 -27.4 47.439
      vertex -6.83034 -27.4 49
      vertex -7.00556 -27.4 48.2979
    endloop
  endfacet
  facet normal 0 -1 0
    outer loop
      vertex -6.82301 -27.4 47.439
      vertex -5.05484 -27.4 40.647
      vertex -6.83034 -27.4 49
    endloop
  endfacet
  facet normal 0 -1 0
    outer loop
      vertex -6.82301 -27.4 46.561
      vertex -5.05484 -27.4 40.647
      vertex -6.82301 -27.4 47.439
    endloop
  endfacet
  facet normal 0 -1 0
    outer loop
      vertex -6.96615 -27.4 45.8876
      vertex -5.05484 -27.4 40.647
      vertex -6.82301 -27.4 46.561
    endloop
  endfacet
  facet normal -0 -1 0
    outer loop
      vertex -5.05484 -27.4 40.647
      vertex -6.96615 -27.4 45.8876
      vertex -6.29772 -27.4 39.5279
    endloop
  endfacet
  facet normal 0 -1 0
    outer loop
      vertex -6.34623 -27.4 49
      vertex -3.39155 -27.4 43.5279
      vertex -5.8279 -27.4 49
    endloop
  endfacet
  facet normal -0 -1 0
    outer loop
      vertex -3.39155 -27.4 43.5279
      vertex -6.34623 -27.4 49
      vertex -4.0718 -27.4 42
    endloop
  endfacet
  facet normal 0.809016 0 0.587787
    outer loop
      vertex -17.1928 -35.9 40.9878
      vertex -17.7829 -27.4 41.8
      vertex -17.7829 -35.9 41.8
    endloop
  endfacet
  facet normal 0.809018 4.42461e-007 0.587784
    outer loop
      vertex -17.7829 -27.4 41.8
      vertex -17.1928 -35.9 40.9878
      vertex -16.9452 -27.4 40.647
    endloop
  endfacet
  facet normal 0.809023 0 0.587776
    outer loop
      vertex -16.9452 -27.4 40.647
      vertex -17.1928 -35.9 40.9878
      vertex -16.9452 -35.9 40.647
    endloop
  endfacet
  facet normal 0.309073 0 0.951038
    outer loop
      vertex -12.6633 -27.4 38.1748
      vertex -13.8532 -35.9 38.5615
      vertex -12.6633 -35.9 38.1748
    endloop
  endfacet
  facet normal 0.309008 1.01788e-005 0.95106
    outer loop
      vertex -14.2539 -27.4 38.6916
      vertex -13.8532 -35.9 38.5615
      vertex -12.6633 -27.4 38.1748
    endloop
  endfacet
  facet normal 0.308812 0 0.951123
    outer loop
      vertex -13.8532 -35.9 38.5615
      vertex -14.2539 -27.4 38.6916
      vertex -14.2539 -35.9 38.6916
    endloop
  endfacet
  facet normal -0 -1 -0
    outer loop
      vertex -3.62657 -27.4 49
      vertex -3.86684 -27.4 49
      vertex -3.39155 -27.4 48.4721
    endloop
  endfacet
  facet normal 0 -1 0
    outer loop
      vertex -15.177 -27.4 47.439
      vertex -17.9645 -27.4 49
      vertex -18.6398 -27.4 48.3247
    endloop
  endfacet
  facet normal 0 -1 0
    outer loop
      vertex -17.9645 -27.4 49
      vertex -14.9944 -27.4 48.2979
      vertex -14.6818 -27.4 49
    endloop
  endfacet
  facet normal 0 -1 0
    outer loop
      vertex -17.9645 -27.4 49
      vertex -15.177 -27.4 47.439
      vertex -14.9944 -27.4 48.2979
    endloop
  endfacet
  facet normal 0 -1 0
    outer loop
      vertex -18.9562 -27.4 46.8362
      vertex -15.177 -27.4 47.439
      vertex -18.6398 -27.4 48.3247
    endloop
  endfacet
  facet normal 0 -1 0
    outer loop
      vertex -18.9562 -27.4 46.8362
      vertex -15.177 -27.4 46.6176
      vertex -15.177 -27.4 47.439
    endloop
  endfacet
  facet normal 0 -1 0
    outer loop
      vertex -18.9562 -27.4 45.1638
      vertex -15.177 -27.4 46.6176
      vertex -18.9562 -27.4 46.8362
    endloop
  endfacet
  facet normal 0 -1 0
    outer loop
      vertex -15.177 -27.4 46.6176
      vertex -18.9562 -27.4 45.1638
      vertex -18.6085 -27.4 43.5279
    endloop
  endfacet
  facet normal 0 -1 0
    outer loop
      vertex -3.39155 -27.4 48.4721
      vertex -3.53553 -27.4 49
      vertex -3.62657 -27.4 49
    endloop
  endfacet
  facet normal 0 -1 0
    outer loop
      vertex -3.39155 -27.4 48.4721
      vertex -1.2 -27.4 46.6645
      vertex -3.53553 -27.4 49
    endloop
  endfacet
  facet normal 0 -1 0
    outer loop
      vertex -3.04382 -27.4 46.8362
      vertex -1.2 -27.4 46.6645
      vertex -3.39155 -27.4 48.4721
    endloop
  endfacet
  facet normal 0 -1 0
    outer loop
      vertex -3.04382 -27.4 45.1638
      vertex -1.2 -27.4 46.6645
      vertex -3.04382 -27.4 46.8362
    endloop
  endfacet
  facet normal 0 -1 0
    outer loop
      vertex -1.2 -27.4 41.8
      vertex -3.04382 -27.4 45.1638
      vertex -3.39155 -27.4 43.5279
    endloop
  endfacet
  facet normal 0 -1 0
    outer loop
      vertex -1.2 -27.4 41.8
      vertex -3.39155 -27.4 43.5279
      vertex -4.0718 -27.4 42
    endloop
  endfacet
  facet normal 0 -1 0
    outer loop
      vertex -3.04382 -27.4 45.1638
      vertex -1.2 -27.4 41.8
      vertex -1.2 -27.4 46.6645
    endloop
  endfacet
  facet normal 0 -1 0
    outer loop
      vertex -1.2 -27.4 41.8
      vertex -4.0718 -27.4 42
      vertex -4.21711 -27.4 41.8
    endloop
  endfacet
  facet normal 0 -1 0
    outer loop
      vertex -20.2 -27.4 46.7645
      vertex -18.9562 -27.4 46.8362
      vertex -18.6398 -27.4 48.3247
    endloop
  endfacet
  facet normal 0 -1 0
    outer loop
      vertex -20.2 -27.4 46.7645
      vertex -18.9562 -27.4 45.1638
      vertex -18.9562 -27.4 46.8362
    endloop
  endfacet
  facet normal 0 -1 0
    outer loop
      vertex -20.2 -27.4 41.8
      vertex -18.9562 -27.4 45.1638
      vertex -20.2 -27.4 46.7645
    endloop
  endfacet
  facet normal 0 -1 -0
    outer loop
      vertex -18.9562 -27.4 45.1638
      vertex -20.2 -27.4 41.8
      vertex -18.6085 -27.4 43.5279
    endloop
  endfacet
  facet normal 0 -1 -0
    outer loop
      vertex -18.6085 -27.4 43.5279
      vertex -20.2 -27.4 41.8
      vertex -17.9282 -27.4 42
    endloop
  endfacet
  facet normal 0 -1 -0
    outer loop
      vertex -17.9282 -27.4 42
      vertex -20.2 -27.4 41.8
      vertex -17.7829 -27.4 41.8
    endloop
  endfacet
  facet normal -0.104554 0 0.994519
    outer loop
      vertex -11 -17.65 42.8
      vertex -10.1268 -20.9 42.8918
      vertex -10.1268 -17.65 42.8918
    endloop
  endfacet
  facet normal -0.104554 0 0.994519
    outer loop
      vertex -10.1268 -20.9 42.8918
      vertex -11 -17.65 42.8
      vertex -11 -20.9 42.8
    endloop
  endfacet
  facet normal -0.104554 0 0.994519
    outer loop
      vertex -11 -24.4 42.8
      vertex -10.1268 -27.4 42.8918
      vertex -10.1268 -24.4 42.8918
    endloop
  endfacet
  facet normal -0.104554 0 0.994519
    outer loop
      vertex -10.1268 -27.4 42.8918
      vertex -11 -24.4 42.8
      vertex -11 -27.4 42.8
    endloop
  endfacet
  facet normal -1 0 0
    outer loop
      vertex -6.82301 -27.4 46.561
      vertex -6.82301 -17.65 47.439
      vertex -6.82301 -17.65 46.561
    endloop
  endfacet
  facet normal -1 -0 0
    outer loop
      vertex -6.82301 -17.65 47.439
      vertex -6.82301 -27.4 46.561
      vertex -6.82301 -27.4 47.439
    endloop
  endfacet
  facet normal 0.104554 0 0.994519
    outer loop
      vertex -11.8732 -17.65 42.8918
      vertex -11 -20.9 42.8
      vertex -11 -17.65 42.8
    endloop
  endfacet
  facet normal 0.104554 0 0.994519
    outer loop
      vertex -11 -20.9 42.8
      vertex -11.8732 -17.65 42.8918
      vertex -11.8732 -20.9 42.8918
    endloop
  endfacet
  facet normal 0.104554 0 0.994519
    outer loop
      vertex -11.8732 -24.4 42.8918
      vertex -11 -27.4 42.8
      vertex -11 -24.4 42.8
    endloop
  endfacet
  facet normal 0.104554 0 0.994519
    outer loop
      vertex -11 -27.4 42.8
      vertex -11.8732 -24.4 42.8918
      vertex -11.8732 -27.4 42.8918
    endloop
  endfacet
  facet normal -0.669179 0 0.743101
    outer loop
      vertex -8.5313 -17.65 43.6021
      vertex -7.87879 -27.4 44.1897
      vertex -7.87879 -17.65 44.1897
    endloop
  endfacet
  facet normal -0.669179 0 0.743101
    outer loop
      vertex -7.87879 -27.4 44.1897
      vertex -8.5313 -17.65 43.6021
      vertex -8.5313 -27.4 43.6021
    endloop
  endfacet
  facet normal 0.308938 0 0.951082
    outer loop
      vertex -11.8732 -17.65 42.8918
      vertex -12.2063 -20.9 43
      vertex -11.8732 -20.9 42.8918
    endloop
  endfacet
  facet normal 0.309 -0 0.951062
    outer loop
      vertex -12.7083 -27.4 43.1631
      vertex -12.2063 -20.9 43
      vertex -12.7083 -17.65 43.1631
    endloop
  endfacet
  facet normal 0.308975 -4.27865e-006 0.95107
    outer loop
      vertex -12.7083 -17.65 43.1631
      vertex -12.2063 -20.9 43
      vertex -11.8732 -17.65 42.8918
    endloop
  endfacet
  facet normal 0.308938 0 0.951082
    outer loop
      vertex -12.2063 -24.4 43
      vertex -11.8732 -27.4 42.8918
      vertex -11.8732 -24.4 42.8918
    endloop
  endfacet
  facet normal 0.308975 4.6352e-006 0.95107
    outer loop
      vertex -12.2063 -24.4 43
      vertex -12.7083 -27.4 43.1631
      vertex -11.8732 -27.4 42.8918
    endloop
  endfacet
  facet normal 0.309 0 0.951062
    outer loop
      vertex -12.2063 -20.9 43
      vertex -12.7083 -27.4 43.1631
      vertex -12.2063 -24.4 43
    endloop
  endfacet
  facet normal -0 -1 -0
    outer loop
      vertex -7.31817 -17.65 49
      vertex -7.63776 -17.65 49
      vertex -7.00556 -17.65 48.2979
    endloop
  endfacet
  facet normal -0.91354 0 0.406748
    outer loop
      vertex -7.36269 -27.4 44.9
      vertex -7.00556 -17.65 45.7021
      vertex -7.36269 -17.65 44.9
    endloop
  endfacet
  facet normal -0.91354 0 0.406748
    outer loop
      vertex -7.00556 -17.65 45.7021
      vertex -7.36269 -27.4 44.9
      vertex -7.00556 -27.4 45.7021
    endloop
  endfacet
  facet normal -0.49998 0 0.866037
    outer loop
      vertex -9.29171 -17.65 43.1631
      vertex -8.5313 -27.4 43.6021
      vertex -8.5313 -17.65 43.6021
    endloop
  endfacet
  facet normal -0.49998 0 0.866037
    outer loop
      vertex -8.5313 -27.4 43.6021
      vertex -9.29171 -17.65 43.1631
      vertex -9.29171 -27.4 43.1631
    endloop
  endfacet
  facet normal 0.808997 -0 0.587813
    outer loop
      vertex -14.6373 -27.4 44.9
      vertex -14.1212 -17.65 44.1897
      vertex -14.6373 -17.65 44.9
    endloop
  endfacet
  facet normal 0.808997 0 0.587813
    outer loop
      vertex -14.1212 -17.65 44.1897
      vertex -14.6373 -27.4 44.9
      vertex -14.1212 -27.4 44.1897
    endloop
  endfacet
  facet normal 0 -1 0
    outer loop
      vertex -8.90126 -17.65 49
      vertex -7.36269 -17.65 44.9
      vertex -8.69486 -17.65 49
    endloop
  endfacet
  facet normal -0 -1 0
    outer loop
      vertex -7.36269 -17.65 44.9
      vertex -8.90126 -17.65 49
      vertex -7.87879 -17.65 44.1897
    endloop
  endfacet
  facet normal -0.978151 0 -0.207896
    outer loop
      vertex -6.82301 -27.4 47.439
      vertex -7.00556 -17.65 48.2979
      vertex -6.82301 -17.65 47.439
    endloop
  endfacet
  facet normal -0.978151 -0 -0.207896
    outer loop
      vertex -7.00556 -17.65 48.2979
      vertex -6.82301 -27.4 47.439
      vertex -7.00556 -27.4 48.2979
    endloop
  endfacet
  facet normal 0 -1 0
    outer loop
      vertex -14.6373 -17.65 44.9
      vertex -8.5313 -17.65 43.6021
      vertex -7.87879 -17.65 44.1897
    endloop
  endfacet
  facet normal 0 -1 0
    outer loop
      vertex -8.47387 -17.65 49
      vertex -6.82301 -17.65 46.561
      vertex -8.23118 -17.65 49
    endloop
  endfacet
  facet normal -0 -1 0
    outer loop
      vertex -6.82301 -17.65 46.561
      vertex -8.47387 -17.65 49
      vertex -7.00556 -17.65 45.7021
    endloop
  endfacet
  facet normal -0.808997 0 0.587813
    outer loop
      vertex -7.87879 -27.4 44.1897
      vertex -7.36269 -17.65 44.9
      vertex -7.87879 -17.65 44.1897
    endloop
  endfacet
  facet normal -0.808997 0 0.587813
    outer loop
      vertex -7.36269 -17.65 44.9
      vertex -7.87879 -27.4 44.1897
      vertex -7.36269 -27.4 44.9
    endloop
  endfacet
  facet normal -0.978168 0 0.207815
    outer loop
      vertex -6.96615 -27.4 45.8876
      vertex -7.00556 -17.65 45.7021
      vertex -7.00556 -27.4 45.7021
    endloop
  endfacet
  facet normal -0.978151 1.6091e-006 0.207896
    outer loop
      vertex -7.00556 -17.65 45.7021
      vertex -6.96615 -27.4 45.8876
      vertex -6.82301 -17.65 46.561
    endloop
  endfacet
  facet normal -0.978146 0 0.207918
    outer loop
      vertex -6.82301 -17.65 46.561
      vertex -6.96615 -27.4 45.8876
      vertex -6.82301 -27.4 46.561
    endloop
  endfacet
  facet normal -0.309006 0 0.95106
    outer loop
      vertex -9.29171 -17.65 43.1631
      vertex -9.7937 -20.9 43
      vertex -9.29171 -27.4 43.1631
    endloop
  endfacet
  facet normal -0.308979 -4.65785e-006 0.951069
    outer loop
      vertex -10.1268 -17.65 42.8918
      vertex -9.7937 -20.9 43
      vertex -9.29171 -17.65 43.1631
    endloop
  endfacet
  facet normal -0.308938 0 0.951082
    outer loop
      vertex -9.7937 -20.9 43
      vertex -10.1268 -17.65 42.8918
      vertex -10.1268 -20.9 42.8918
    endloop
  endfacet
  facet normal -0.309006 0 0.95106
    outer loop
      vertex -9.7937 -24.4 43
      vertex -9.29171 -27.4 43.1631
      vertex -9.7937 -20.9 43
    endloop
  endfacet
  facet normal -0.308938 0 0.951082
    outer loop
      vertex -10.1268 -27.4 42.8918
      vertex -9.7937 -24.4 43
      vertex -10.1268 -24.4 42.8918
    endloop
  endfacet
  facet normal -0.308979 5.04601e-006 0.951069
    outer loop
      vertex -9.7937 -24.4 43
      vertex -10.1268 -27.4 42.8918
      vertex -9.29171 -27.4 43.1631
    endloop
  endfacet
  facet normal 0 -1 0
    outer loop
      vertex -14.6373 -17.65 44.9
      vertex -11 -17.65 42.8
      vertex -10.1268 -17.65 42.8918
    endloop
  endfacet
  facet normal 0 -1 0
    outer loop
      vertex -14.6373 -17.65 44.9
      vertex -11.8732 -17.65 42.8918
      vertex -11 -17.65 42.8
    endloop
  endfacet
  facet normal 0 -1 0
    outer loop
      vertex -14.6373 -17.65 44.9
      vertex -14.1212 -17.65 44.1897
      vertex -13.4687 -17.65 43.6021
    endloop
  endfacet
  facet normal 0 -1 0
    outer loop
      vertex -14.6373 -17.65 44.9
      vertex -9.29171 -17.65 43.1631
      vertex -8.5313 -17.65 43.6021
    endloop
  endfacet
  facet normal 0 -1 0
    outer loop
      vertex -14.6373 -17.65 44.9
      vertex -10.1268 -17.65 42.8918
      vertex -9.29171 -17.65 43.1631
    endloop
  endfacet
  facet normal 0.669185 0 0.743096
    outer loop
      vertex -14.1212 -17.65 44.1897
      vertex -13.4687 -27.4 43.6021
      vertex -13.4687 -17.65 43.6021
    endloop
  endfacet
  facet normal 0.669185 0 0.743096
    outer loop
      vertex -13.4687 -27.4 43.6021
      vertex -14.1212 -17.65 44.1897
      vertex -14.1212 -27.4 44.1897
    endloop
  endfacet
  facet normal 0.499985 0 0.866034
    outer loop
      vertex -13.4687 -17.65 43.6021
      vertex -12.7083 -27.4 43.1631
      vertex -12.7083 -17.65 43.1631
    endloop
  endfacet
  facet normal 0.499985 0 0.866034
    outer loop
      vertex -12.7083 -27.4 43.1631
      vertex -13.4687 -17.65 43.6021
      vertex -13.4687 -27.4 43.6021
    endloop
  endfacet
  facet normal -0.913538 0 -0.406753
    outer loop
      vertex -7.00556 -27.4 48.2979
      vertex -7.31817 -17.65 49
      vertex -7.00556 -17.65 48.2979
    endloop
  endfacet
  facet normal -0.913532 1.28632e-006 -0.406768
    outer loop
      vertex -7.28559 -27.4 48.9268
      vertex -7.31817 -17.65 49
      vertex -7.00556 -27.4 48.2979
    endloop
  endfacet
  facet normal -0.913595 -0 -0.406625
    outer loop
      vertex -7.31817 -17.65 49
      vertex -7.28559 -27.4 48.9268
      vertex -7.31817 -27.4 49
    endloop
  endfacet
  facet normal 0.978139 -0 0.20795
    outer loop
      vertex -15.177 -27.4 46.561
      vertex -14.9944 -17.65 45.7021
      vertex -15.177 -17.65 46.561
    endloop
  endfacet
  facet normal 0.978139 0 0.20795
    outer loop
      vertex -14.9944 -17.65 45.7021
      vertex -15.177 -27.4 46.561
      vertex -14.9944 -27.4 45.7021
    endloop
  endfacet
  facet normal 0 -1 0
    outer loop
      vertex -14.6373 -17.65 44.9
      vertex -13.4687 -17.65 43.6021
      vertex -12.7083 -17.65 43.1631
    endloop
  endfacet
  facet normal 0 -1 0
    outer loop
      vertex -14.6373 -17.65 44.9
      vertex -12.7083 -17.65 43.1631
      vertex -11.8732 -17.65 42.8918
    endloop
  endfacet
  facet normal 0 -1 0
    outer loop
      vertex -8.23118 -17.65 49
      vertex -6.82301 -17.65 47.439
      vertex -7.95713 -17.65 49
    endloop
  endfacet
  facet normal -0 -1 -0
    outer loop
      vertex -6.82301 -17.65 47.439
      vertex -8.23118 -17.65 49
      vertex -6.82301 -17.65 46.561
    endloop
  endfacet
  facet normal 0 -1 0
    outer loop
      vertex -8.69486 -17.65 49
      vertex -7.00556 -17.65 45.7021
      vertex -8.47387 -17.65 49
    endloop
  endfacet
  facet normal -0 -1 0
    outer loop
      vertex -7.00556 -17.65 45.7021
      vertex -8.69486 -17.65 49
      vertex -7.36269 -17.65 44.9
    endloop
  endfacet
  facet normal 0.913553 -0 0.40672
    outer loop
      vertex -14.9944 -27.4 45.7021
      vertex -14.6373 -17.65 44.9
      vertex -14.9944 -17.65 45.7021
    endloop
  endfacet
  facet normal 0.913553 0 0.40672
    outer loop
      vertex -14.6373 -17.65 44.9
      vertex -14.9944 -27.4 45.7021
      vertex -14.6373 -27.4 44.9
    endloop
  endfacet
  facet normal 0.978139 0 -0.20795
    outer loop
      vertex -14.9944 -27.4 48.2979
      vertex -15.177 -17.65 47.439
      vertex -14.9944 -17.65 48.2979
    endloop
  endfacet
  facet normal 0.978139 0 -0.20795
    outer loop
      vertex -15.177 -17.65 47.439
      vertex -14.9944 -27.4 48.2979
      vertex -15.177 -27.4 47.439
    endloop
  endfacet
  facet normal 0 -1 0
    outer loop
      vertex -7.87879 -17.65 44.1897
      vertex -10.9456 -17.65 49
      vertex -14.6373 -17.65 44.9
    endloop
  endfacet
  facet normal 0 -1 0
    outer loop
      vertex -10.9456 -17.65 49
      vertex -7.87879 -17.65 44.1897
      vertex -8.90126 -17.65 49
    endloop
  endfacet
  facet normal 0 -1 0
    outer loop
      vertex -14.9944 -17.65 48.2979
      vertex -10.9456 -17.65 49
      vertex -14.6818 -17.65 49
    endloop
  endfacet
  facet normal 0 -1 0
    outer loop
      vertex -15.177 -17.65 47.439
      vertex -10.9456 -17.65 49
      vertex -14.9944 -17.65 48.2979
    endloop
  endfacet
  facet normal 0 -1 0
    outer loop
      vertex -15.177 -17.65 46.561
      vertex -10.9456 -17.65 49
      vertex -15.177 -17.65 47.439
    endloop
  endfacet
  facet normal 0 -1 0
    outer loop
      vertex -14.9944 -17.65 45.7021
      vertex -10.9456 -17.65 49
      vertex -15.177 -17.65 46.561
    endloop
  endfacet
  facet normal 0 -1 0
    outer loop
      vertex -10.9456 -17.65 49
      vertex -14.9944 -17.65 45.7021
      vertex -14.6373 -17.65 44.9
    endloop
  endfacet
  facet normal 0.913543 0 -0.406742
    outer loop
      vertex -14.6818 -27.4 49
      vertex -14.9944 -17.65 48.2979
      vertex -14.6818 -17.65 49
    endloop
  endfacet
  facet normal 0.913543 0 -0.406742
    outer loop
      vertex -14.9944 -17.65 48.2979
      vertex -14.6818 -27.4 49
      vertex -14.9944 -27.4 48.2979
    endloop
  endfacet
  facet normal 1 -0 0
    outer loop
      vertex -15.177 -27.4 47.439
      vertex -15.177 -17.65 46.561
      vertex -15.177 -17.65 47.439
    endloop
  endfacet
  facet normal 1 -0 0
    outer loop
      vertex -15.177 -27.4 46.6176
      vertex -15.177 -17.65 46.561
      vertex -15.177 -27.4 47.439
    endloop
  endfacet
  facet normal 1 0 0
    outer loop
      vertex -15.177 -17.65 46.561
      vertex -15.177 -27.4 46.6176
      vertex -15.177 -27.4 46.561
    endloop
  endfacet
  facet normal 0 -1 0
    outer loop
      vertex -7.95713 -17.65 49
      vertex -7.00556 -17.65 48.2979
      vertex -7.63776 -17.65 49
    endloop
  endfacet
  facet normal -0 -1 -0
    outer loop
      vertex -7.00556 -17.65 48.2979
      vertex -7.95713 -17.65 49
      vertex -6.82301 -17.65 47.439
    endloop
  endfacet
  facet normal 0 0 -1
    outer loop
      vertex -20.2 -24.4 43
      vertex -12.2063 -20.9 43
      vertex -12.2063 -24.4 43
    endloop
  endfacet
  facet normal -0 0 -1
    outer loop
      vertex -12.2063 -20.9 43
      vertex -20.2 -24.4 43
      vertex -20.2 -20.9 43
    endloop
  endfacet
  facet normal 0 0 -1
    outer loop
      vertex -9.7937 -24.4 43
      vertex -1.2 -20.9 43
      vertex -1.2 -24.4 43
    endloop
  endfacet
  facet normal -0 0 -1
    outer loop
      vertex -1.2 -20.9 43
      vertex -9.7937 -24.4 43
      vertex -9.7937 -20.9 43
    endloop
  endfacet
  facet normal 0 1 -0
    outer loop
      vertex -1.2 -24.4 41
      vertex -9.7937 -24.4 43
      vertex -1.2 -24.4 43
    endloop
  endfacet
  facet normal 0 1 0
    outer loop
      vertex -9.7937 -24.4 43
      vertex -1.2 -24.4 41
      vertex -10.1268 -24.4 42.8918
    endloop
  endfacet
  facet normal 0 1 0
    outer loop
      vertex -10.1268 -24.4 42.8918
      vertex -1.2 -24.4 41
      vertex -11 -24.4 42.8
    endloop
  endfacet
  facet normal 0 1 0
    outer loop
      vertex -20.2 -24.4 41
      vertex -12.2063 -24.4 43
      vertex -11.8732 -24.4 42.8918
    endloop
  endfacet
  facet normal 0 1 0
    outer loop
      vertex -20.2 -24.4 41
      vertex -11.8732 -24.4 42.8918
      vertex -11 -24.4 42.8
    endloop
  endfacet
  facet normal 0 1 0
    outer loop
      vertex -20.2 -24.4 41
      vertex -11 -24.4 42.8
      vertex -1.2 -24.4 41
    endloop
  endfacet
  facet normal 0 1 0
    outer loop
      vertex -12.2063 -24.4 43
      vertex -20.2 -24.4 41
      vertex -20.2 -24.4 43
    endloop
  endfacet
  facet normal -0 0 1
    outer loop
      vertex -20.2 -20.9 41
      vertex -1.2 -24.4 41
      vertex -1.2 -20.9 41
    endloop
  endfacet
  facet normal 0 0 1
    outer loop
      vertex -1.2 -24.4 41
      vertex -20.2 -20.9 41
      vertex -20.2 -24.4 41
    endloop
  endfacet
  facet normal 0 -1 0
    outer loop
      vertex -20.2 -20.9 41
      vertex -12.2063 -20.9 43
      vertex -20.2 -20.9 43
    endloop
  endfacet
  facet normal 0 -1 -0
    outer loop
      vertex -12.2063 -20.9 43
      vertex -20.2 -20.9 41
      vertex -11.8732 -20.9 42.8918
    endloop
  endfacet
  facet normal 0 -1 -0
    outer loop
      vertex -11.8732 -20.9 42.8918
      vertex -20.2 -20.9 41
      vertex -11 -20.9 42.8
    endloop
  endfacet
  facet normal 0 -1 0
    outer loop
      vertex -1.2 -20.9 41
      vertex -9.7937 -20.9 43
      vertex -10.1268 -20.9 42.8918
    endloop
  endfacet
  facet normal 0 -1 0
    outer loop
      vertex -1.2 -20.9 41
      vertex -10.1268 -20.9 42.8918
      vertex -11 -20.9 42.8
    endloop
  endfacet
  facet normal 0 -1 0
    outer loop
      vertex -1.2 -20.9 41
      vertex -11 -20.9 42.8
      vertex -20.2 -20.9 41
    endloop
  endfacet
  facet normal 0 -1 0
    outer loop
      vertex -9.7937 -20.9 43
      vertex -1.2 -20.9 41
      vertex -1.2 -20.9 43
    endloop
  endfacet
  facet normal -0.104528 0 0.994522
    outer loop
      vertex -11 -35.9 34.5
      vertex -8.60902 -37 34.7513
      vertex -8.60902 -35.9 34.7513
    endloop
  endfacet
  facet normal -0.104528 0 0.994522
    outer loop
      vertex -8.60902 -37 34.7513
      vertex -11 -35.9 34.5
      vertex -11 -37 34.5
    endloop
  endfacet
  facet normal 0 -1 0
    outer loop
      vertex -2.67965 -35.9 39
      vertex -2.45383 -35.9 38.305
      vertex -1.94889 -35.9 39
    endloop
  endfacet
  facet normal -0.669131 0 0.743144
    outer loop
      vertex -4.24047 -35.9 36.6963
      vertex -2.45383 -37 38.305
      vertex -2.45383 -35.9 38.305
    endloop
  endfacet
  facet normal -0.669131 0 0.743144
    outer loop
      vertex -2.45383 -37 38.305
      vertex -4.24047 -35.9 36.6963
      vertex -4.24047 -37 36.6963
    endloop
  endfacet
  facet normal 0.104527 0 0.994522
    outer loop
      vertex -13.391 -35.9 34.7513
      vertex -11 -37 34.5
      vertex -11 -35.9 34.5
    endloop
  endfacet
  facet normal 0.104527 0 0.994522
    outer loop
      vertex -11 -37 34.5
      vertex -13.391 -35.9 34.7513
      vertex -13.391 -37 34.7513
    endloop
  endfacet
  facet normal 0 -1 0
    outer loop
      vertex -4.24047 -35.9 36.6963
      vertex -7.212 -35.9 39
      vertex -7.74611 -35.9 38.6916
    endloop
  endfacet
  facet normal 0 -1 0
    outer loop
      vertex -4.24047 -35.9 36.6963
      vertex -7.74611 -35.9 38.6916
      vertex -8.31031 -35.9 38.5083
    endloop
  endfacet
  facet normal 0 -1 0
    outer loop
      vertex -7.212 -35.9 39
      vertex -4.24047 -35.9 36.6963
      vertex -4.59283 -35.9 39
    endloop
  endfacet
  facet normal 0 -1 0
    outer loop
      vertex -4.59283 -35.9 39
      vertex -4.24047 -35.9 36.6963
      vertex -2.45383 -35.9 38.305
    endloop
  endfacet
  facet normal -0.309007 0 0.95106
    outer loop
      vertex -8.60902 -35.9 34.7513
      vertex -6.32253 -37 35.4942
      vertex -6.32253 -35.9 35.4942
    endloop
  endfacet
  facet normal -0.309007 0 0.95106
    outer loop
      vertex -6.32253 -37 35.4942
      vertex -8.60902 -35.9 34.7513
      vertex -8.60902 -37 34.7513
    endloop
  endfacet
  facet normal 0 -1 0
    outer loop
      vertex -17.7595 -35.9 36.6963
      vertex -18.2246 -35.9 39
      vertex -19.0896 -35.9 39
    endloop
  endfacet
  facet normal 0 -1 0
    outer loop
      vertex -18.2246 -35.9 39
      vertex -17.7595 -35.9 36.6963
      vertex -15.6775 -35.9 35.4942
    endloop
  endfacet
  facet normal 0 -1 0
    outer loop
      vertex -19.6305 -35.9 39.937
      vertex -20.2 -35.9 41.719
      vertex -20.2 -35.9 40.9233
    endloop
  endfacet
  facet normal 0 -1 0
    outer loop
      vertex -20.2 -35.9 41.719
      vertex -19.6305 -35.9 39.937
      vertex -18.3813 -35.9 39.2157
    endloop
  endfacet
  facet normal 0.500018 0 0.866015
    outer loop
      vertex -17.7595 -35.9 36.6963
      vertex -15.6775 -37 35.4942
      vertex -15.6775 -35.9 35.4942
    endloop
  endfacet
  facet normal 0.500018 0 0.866015
    outer loop
      vertex -15.6775 -37 35.4942
      vertex -17.7595 -35.9 36.6963
      vertex -17.7595 -37 36.6963
    endloop
  endfacet
  facet normal 0 -1 0
    outer loop
      vertex -18.2246 -35.9 39
      vertex -15.6775 -35.9 35.4942
      vertex -17.7174 -35.9 39
    endloop
  endfacet
  facet normal 0 -1 0
    outer loop
      vertex -20.2 -35.9 41.719
      vertex -19.7377 -35.9 41.8
      vertex -20.2 -35.9 41.8
    endloop
  endfacet
  facet normal 0 -1 0
    outer loop
      vertex -18.3813 -35.9 39.2157
      vertex -19.7377 -35.9 41.8
      vertex -20.2 -35.9 41.719
    endloop
  endfacet
  facet normal 0 -1 0
    outer loop
      vertex -17.7174 -35.9 39
      vertex -19.7377 -35.9 41.8
      vertex -18.3813 -35.9 39.2157
    endloop
  endfacet
  facet normal 0 -1 0
    outer loop
      vertex -17.7174 -35.9 39
      vertex -13.391 -35.9 34.7513
      vertex -19.7377 -35.9 41.8
    endloop
  endfacet
  facet normal 0 -1 0
    outer loop
      vertex -13.391 -35.9 34.7513
      vertex -17.7174 -35.9 39
      vertex -15.6775 -35.9 35.4942
    endloop
  endfacet
  facet normal 0 -1 0
    outer loop
      vertex -19.5462 -35.9 38.305
      vertex -19.0896 -35.9 39
      vertex -19.8556 -35.9 39
    endloop
  endfacet
  facet normal 0 -1 -0
    outer loop
      vertex -19.0896 -35.9 39
      vertex -19.5462 -35.9 38.305
      vertex -17.7595 -35.9 36.6963
    endloop
  endfacet
  facet normal 0 -1 0
    outer loop
      vertex -20.2 -35.9 40.9233
      vertex -20.2 -35.9 40.4497
      vertex -19.6305 -35.9 39.937
    endloop
  endfacet
  facet normal -0 -1 -0
    outer loop
      vertex -2.67965 -35.9 39
      vertex -4.59283 -35.9 39
      vertex -2.45383 -35.9 38.305
    endloop
  endfacet
  facet normal -0.500007 0 0.866021
    outer loop
      vertex -6.32253 -35.9 35.4942
      vertex -4.24047 -37 36.6963
      vertex -4.24047 -35.9 36.6963
    endloop
  endfacet
  facet normal -0.500007 0 0.866021
    outer loop
      vertex -4.24047 -37 36.6963
      vertex -6.32253 -35.9 35.4942
      vertex -6.32253 -37 35.4942
    endloop
  endfacet
  facet normal 0.809043 -0 0.587749
    outer loop
      vertex -20.0511 -37 39
      vertex -19.5462 -35.9 38.305
      vertex -20.0511 -35.9 39
    endloop
  endfacet
  facet normal 0.809043 0 0.587749
    outer loop
      vertex -19.5462 -35.9 38.305
      vertex -20.0511 -37 39
      vertex -19.5462 -37 38.305
    endloop
  endfacet
  facet normal 0 -1 0
    outer loop
      vertex -6.32253 -35.9 35.4942
      vertex -8.31031 -35.9 38.5083
      vertex -9.33671 -35.9 38.1748
    endloop
  endfacet
  facet normal 0 -1 0
    outer loop
      vertex -6.32253 -35.9 35.4942
      vertex -9.33671 -35.9 38.1748
      vertex -10.7146 -35.9 38.03
    endloop
  endfacet
  facet normal 0 -1 0
    outer loop
      vertex -8.31031 -35.9 38.5083
      vertex -6.32253 -35.9 35.4942
      vertex -4.24047 -35.9 36.6963
    endloop
  endfacet
  facet normal 0 -1 0
    outer loop
      vertex -8.60902 -35.9 34.7513
      vertex -11 -35.9 38
      vertex -12.6633 -35.9 38.1748
    endloop
  endfacet
  facet normal 0 -1 0
    outer loop
      vertex -8.60902 -35.9 34.7513
      vertex -12.6633 -35.9 38.1748
      vertex -13.8532 -35.9 38.5615
    endloop
  endfacet
  facet normal 0 -1 0
    outer loop
      vertex -11 -35.9 38
      vertex -8.60902 -35.9 34.7513
      vertex -6.32253 -35.9 35.4942
    endloop
  endfacet
  facet normal 0 -1 -0
    outer loop
      vertex -10.7146 -35.9 38.03
      vertex -11 -35.9 38
      vertex -6.32253 -35.9 35.4942
    endloop
  endfacet
  facet normal -0 -1 -0
    outer loop
      vertex -17.7829 -35.9 41.8
      vertex -18.3107 -35.9 41.8
      vertex -17.1928 -35.9 40.9878
    endloop
  endfacet
  facet normal 0.669119 0 0.743156
    outer loop
      vertex -19.5462 -35.9 38.305
      vertex -17.7595 -37 36.6963
      vertex -17.7595 -35.9 36.6963
    endloop
  endfacet
  facet normal 0.669119 0 0.743156
    outer loop
      vertex -17.7595 -37 36.6963
      vertex -19.5462 -35.9 38.305
      vertex -19.5462 -37 38.305
    endloop
  endfacet
  facet normal 0.309006 0 0.95106
    outer loop
      vertex -15.6775 -35.9 35.4942
      vertex -13.391 -37 34.7513
      vertex -13.391 -35.9 34.7513
    endloop
  endfacet
  facet normal 0.309006 0 0.95106
    outer loop
      vertex -13.391 -37 34.7513
      vertex -15.6775 -35.9 35.4942
      vertex -15.6775 -37 35.4942
    endloop
  endfacet
  facet normal -0.809021 0 0.58778
    outer loop
      vertex -2.45383 -37 38.305
      vertex -1.94889 -35.9 39
      vertex -2.45383 -35.9 38.305
    endloop
  endfacet
  facet normal -0.809021 0 0.58778
    outer loop
      vertex -1.94889 -35.9 39
      vertex -2.45383 -37 38.305
      vertex -1.94889 -37 39
    endloop
  endfacet
  facet normal 0 -1 0
    outer loop
      vertex -13.391 -35.9 34.7513
      vertex -19.1075 -35.9 41.8
      vertex -19.7377 -35.9 41.8
    endloop
  endfacet
  facet normal 0 -1 0
    outer loop
      vertex -19.1075 -35.9 41.8
      vertex -13.391 -35.9 34.7513
      vertex -11 -35.9 34.5
    endloop
  endfacet
  facet normal 0 -1 0
    outer loop
      vertex -19.1075 -35.9 41.8
      vertex -17.1928 -35.9 40.9878
      vertex -18.3107 -35.9 41.8
    endloop
  endfacet
  facet normal 0 -1 0
    outer loop
      vertex -19.1075 -35.9 41.8
      vertex -16.9452 -35.9 40.647
      vertex -17.1928 -35.9 40.9878
    endloop
  endfacet
  facet normal 0 -1 0
    outer loop
      vertex -19.1075 -35.9 41.8
      vertex -15.7023 -35.9 39.5279
      vertex -16.9452 -35.9 40.647
    endloop
  endfacet
  facet normal 0 -1 0
    outer loop
      vertex -11 -35.9 34.5
      vertex -13.8532 -35.9 38.5615
      vertex -14.2539 -35.9 38.6916
    endloop
  endfacet
  facet normal 0 -1 0
    outer loop
      vertex -11 -35.9 34.5
      vertex -14.2539 -35.9 38.6916
      vertex -15.7023 -35.9 39.5279
    endloop
  endfacet
  facet normal 0 -1 0
    outer loop
      vertex -11 -35.9 34.5
      vertex -15.7023 -35.9 39.5279
      vertex -19.1075 -35.9 41.8
    endloop
  endfacet
  facet normal 0 -1 0
    outer loop
      vertex -13.8532 -35.9 38.5615
      vertex -11 -35.9 34.5
      vertex -8.60902 -35.9 34.7513
    endloop
  endfacet
  facet normal -0 -1 -0
    outer loop
      vertex -19.8556 -35.9 39
      vertex -20.0511 -35.9 39
      vertex -19.5462 -35.9 38.305
    endloop
  endfacet
  facet normal -0 0 1
    outer loop
      vertex -4.21711 -27.4 41.8
      vertex -1.2 -35.9 41.8
      vertex -1.2 -27.4 41.8
    endloop
  endfacet
  facet normal 0 0 1
    outer loop
      vertex -1.2 -35.9 41.8
      vertex -4.21711 -27.4 41.8
      vertex -4.21711 -35.9 41.8
    endloop
  endfacet
  facet normal 0 0 1
    outer loop
      vertex -17.7829 -27.4 41.8
      vertex -18.3107 -35.9 41.8
      vertex -17.7829 -35.9 41.8
    endloop
  endfacet
  facet normal 0 0 1
    outer loop
      vertex -17.7829 -27.4 41.8
      vertex -19.1075 -35.9 41.8
      vertex -18.3107 -35.9 41.8
    endloop
  endfacet
  facet normal -0 0 1
    outer loop
      vertex -20.2 -27.4 41.8
      vertex -19.1075 -35.9 41.8
      vertex -17.7829 -27.4 41.8
    endloop
  endfacet
  facet normal 0 0 1
    outer loop
      vertex -19.1075 -35.9 41.8
      vertex -20.2 -27.4 41.8
      vertex -19.7377 -35.9 41.8
    endloop
  endfacet
  facet normal 0 0 1
    outer loop
      vertex -19.7377 -35.9 41.8
      vertex -20.2 -27.4 41.8
      vertex -20.2 -35.9 41.8
    endloop
  endfacet
  facet normal 0 -0.957826 0.287348
    outer loop
      vertex -36 -12.497 30
      vertex -5 -11 34.99
      vertex -36 -11 34.99
    endloop
  endfacet
  facet normal 0 -0.957826 0.287348
    outer loop
      vertex -5 -11 34.99
      vertex -36 -12.497 30
      vertex -3.503 -12.497 30
    endloop
  endfacet
  facet normal -0 0.957826 0.287348
    outer loop
      vertex -36 -17.503 30
      vertex -5 -19 34.99
      vertex -3.503 -17.503 30
    endloop
  endfacet
  facet normal 0 0.957826 0.287348
    outer loop
      vertex -5 -19 34.99
      vertex -36 -17.503 30
      vertex -36 -19 34.99
    endloop
  endfacet
  facet normal 0 0.957826 0.287348
    outer loop
      vertex 5.53446 -17.503 30
      vertex 3 -19 34.99
      vertex 7.03146 -19 34.99
    endloop
  endfacet
  facet normal 0 0.957826 0.287348
    outer loop
      vertex 3 -19 34.99
      vertex 5.53446 -17.503 30
      vertex 1.503 -17.503 30
    endloop
  endfacet
  facet normal 0 -1 0
    outer loop
      vertex -36 -11 34.99
      vertex -5 -11 35.49
      vertex -36 -11 35.49
    endloop
  endfacet
  facet normal 0 -1 -0
    outer loop
      vertex -5 -11 35.49
      vertex -36 -11 34.99
      vertex -5 -11 34.99
    endloop
  endfacet
  facet normal 0 0 0
    outer loop
      vertex -36 -11 35.49
      vertex -5 -11 35.49
      vertex -4 -11 35.49
    endloop
  endfacet
  facet normal 0 1 -0
    outer loop
      vertex 7.03146 -19 34.99
      vertex 3 -19 35.49
      vertex 7.03146 -19 35.49
    endloop
  endfacet
  facet normal 0 1 0
    outer loop
      vertex 3 -19 35.49
      vertex 7.03146 -19 34.99
      vertex 3 -19 34.99
    endloop
  endfacet
  facet normal 0 1 -0
    outer loop
      vertex -5 -19 34.99
      vertex -36 -19 35.49
      vertex -5 -19 35.49
    endloop
  endfacet
  facet normal 0 1 0
    outer loop
      vertex -36 -19 35.49
      vertex -5 -19 34.99
      vertex -36 -19 34.99
    endloop
  endfacet
  facet normal 0 0 0
    outer loop
      vertex 7.03146 -19 35.49
      vertex 3 -19 35.49
      vertex -5 -19 35.49
    endloop
  endfacet
  facet normal 0 0 0
    outer loop
      vertex -5 -19 35.49
      vertex -36 -19 35.49
      vertex 7.03146 -19 35.49
    endloop
  endfacet
  facet normal 0 0 -1
    outer loop
      vertex -36 -19 35.49
      vertex 3 -18 35.49
      vertex 7.03146 -19 35.49
    endloop
  endfacet
  facet normal 0 0 -1
    outer loop
      vertex -36 -19 35.49
      vertex -4 -11 35.49
      vertex 3 -18 35.49
    endloop
  endfacet
  facet normal -0 0 -1
    outer loop
      vertex -4 -11 35.49
      vertex -36 -19 35.49
      vertex -36 -11 35.49
    endloop
  endfacet
  facet normal 0 0 -1
    outer loop
      vertex 7.03146 -19 35.49
      vertex 3 -18 35.49
      vertex 3 -14.9685 35.49
    endloop
  endfacet
  facet normal -0.957826 0 0.287348
    outer loop
      vertex 1.503 -37 30
      vertex 3 -19 34.99
      vertex 1.503 -17.503 30
    endloop
  endfacet
  facet normal -0.957826 0 0.287348
    outer loop
      vertex 3 -19 34.99
      vertex 1.503 -37 30
      vertex 3 -37 34.99
    endloop
  endfacet
  facet normal 0.957826 0 0.287348
    outer loop
      vertex -3.503 -37 30
      vertex -5 -19 34.99
      vertex -5 -37 34.99
    endloop
  endfacet
  facet normal 0.957826 0 0.287348
    outer loop
      vertex -5 -19 34.99
      vertex -3.503 -37 30
      vertex -3.503 -17.503 30
    endloop
  endfacet
  facet normal 0.957826 -0 0.287348
    outer loop
      vertex -5 -11 34.99
      vertex -3.503 -8.46554 30
      vertex -5 -6.96854 34.99
    endloop
  endfacet
  facet normal 0.957826 0 0.287348
    outer loop
      vertex -3.503 -8.46554 30
      vertex -5 -11 34.99
      vertex -3.503 -12.497 30
    endloop
  endfacet
  facet normal -1 0 0
    outer loop
      vertex 3 -37 34.99
      vertex 3 -19 35.49
      vertex 3 -19 34.99
    endloop
  endfacet
  facet normal -1 -0 0
    outer loop
      vertex 3 -19 35.49
      vertex 3 -37 34.99
      vertex 3 -37 35.49
    endloop
  endfacet
  facet normal 1 -0 0
    outer loop
      vertex -5 -37 35.49
      vertex -5 -19 34.99
      vertex -5 -19 35.49
    endloop
  endfacet
  facet normal 1 0 0
    outer loop
      vertex -5 -19 34.99
      vertex -5 -37 35.49
      vertex -5 -37 34.99
    endloop
  endfacet
  facet normal 1 -0 0
    outer loop
      vertex -5 -11 35.49
      vertex -5 -6.96854 34.99
      vertex -5 -6.96854 35.49
    endloop
  endfacet
  facet normal 1 0 0
    outer loop
      vertex -5 -6.96854 34.99
      vertex -5 -11 35.49
      vertex -5 -11 34.99
    endloop
  endfacet
  facet normal 0 0 -1
    outer loop
      vertex -4 -11 35.49
      vertex 3 -14.9685 35.49
      vertex 3 -18 35.49
    endloop
  endfacet
  facet normal 0 0 -1
    outer loop
      vertex -4 -11 35.49
      vertex -5 -6.96854 35.49
      vertex 3 -14.9685 35.49
    endloop
  endfacet
  facet normal 0 0 -1
    outer loop
      vertex -5 -6.96854 35.49
      vertex -4 -11 35.49
      vertex -5 -11 35.49
    endloop
  endfacet
  facet normal 0 0 -1
    outer loop
      vertex -5 -37 35.49
      vertex 3 -19 35.49
      vertex 3 -37 35.49
    endloop
  endfacet
  facet normal -0 0 -1
    outer loop
      vertex 3 -19 35.49
      vertex -5 -37 35.49
      vertex -5 -19 35.49
    endloop
  endfacet
  facet normal 1 -0 0
    outer loop
      vertex 14 -37 35.8579
      vertex 14 -25.9685 30
      vertex 14 -25.9685 35.8579
    endloop
  endfacet
  facet normal 1 0 0
    outer loop
      vertex 14 -25.9685 30
      vertex 14 -37 35.8579
      vertex 14 -37 30
    endloop
  endfacet
  facet normal -0 0 1
    outer loop
      vertex -7.31817 -17.65 49
      vertex -3.53553 -27.4 49
      vertex -3.53553 -14.1421 49
    endloop
  endfacet
  facet normal 0 0 1
    outer loop
      vertex -3.53553 -27.4 49
      vertex -7.31817 -17.65 49
      vertex -3.62657 -27.4 49
    endloop
  endfacet
  facet normal 0 0 1
    outer loop
      vertex -3.62657 -27.4 49
      vertex -7.31817 -17.65 49
      vertex -3.86684 -27.4 49
    endloop
  endfacet
  facet normal 0 0 1
    outer loop
      vertex -3.86684 -27.4 49
      vertex -7.31817 -17.65 49
      vertex -4.6159 -27.4 49
    endloop
  endfacet
  facet normal 0 0 1
    outer loop
      vertex -4.6159 -27.4 49
      vertex -7.31817 -17.65 49
      vertex -5.25867 -27.4 49
    endloop
  endfacet
  facet normal 0 0 1
    outer loop
      vertex -5.25867 -27.4 49
      vertex -7.31817 -17.65 49
      vertex -5.8279 -27.4 49
    endloop
  endfacet
  facet normal 0 0 1
    outer loop
      vertex -5.8279 -27.4 49
      vertex -7.31817 -17.65 49
      vertex -6.34623 -27.4 49
    endloop
  endfacet
  facet normal 0 0 1
    outer loop
      vertex -6.34623 -27.4 49
      vertex -7.31817 -17.65 49
      vertex -6.83034 -27.4 49
    endloop
  endfacet
  facet normal 0 0 1
    outer loop
      vertex -6.83034 -27.4 49
      vertex -7.31817 -17.65 49
      vertex -7.29328 -27.4 49
    endloop
  endfacet
  facet normal 0 0 1
    outer loop
      vertex -3.53553 -14.1421 49
      vertex -7.63776 -17.65 49
      vertex -7.31817 -17.65 49
    endloop
  endfacet
  facet normal 0 0 1
    outer loop
      vertex -3.53553 -14.1421 49
      vertex -7.95713 -17.65 49
      vertex -7.63776 -17.65 49
    endloop
  endfacet
  facet normal 0 0 1
    outer loop
      vertex -3.53553 -14.1421 49
      vertex -8.23118 -17.65 49
      vertex -7.95713 -17.65 49
    endloop
  endfacet
  facet normal 0 0 1
    outer loop
      vertex -3.53553 -14.1421 49
      vertex -8.47387 -17.65 49
      vertex -8.23118 -17.65 49
    endloop
  endfacet
  facet normal 0 0 1
    outer loop
      vertex -3.53553 -14.1421 49
      vertex -8.69486 -17.65 49
      vertex -8.47387 -17.65 49
    endloop
  endfacet
  facet normal 0 0 1
    outer loop
      vertex -3.53553 -14.1421 49
      vertex -8.90126 -17.65 49
      vertex -8.69486 -17.65 49
    endloop
  endfacet
  facet normal 0 0 1
    outer loop
      vertex -3.53553 -14.1421 49
      vertex -10.9456 -17.65 49
      vertex -8.90126 -17.65 49
    endloop
  endfacet
  facet normal -0 0 1
    outer loop
      vertex -17.9645 -14.1421 49
      vertex -10.9456 -17.65 49
      vertex -3.53553 -14.1421 49
    endloop
  endfacet
  facet normal 0 0 1
    outer loop
      vertex -10.9456 -17.65 49
      vertex -17.9645 -14.1421 49
      vertex -14.6818 -17.65 49
    endloop
  endfacet
  facet normal 0 0 1
    outer loop
      vertex -17.9645 -27.4 49
      vertex -14.6818 -17.65 49
      vertex -17.9645 -14.1421 49
    endloop
  endfacet
  facet normal 0 0 1
    outer loop
      vertex -14.6818 -17.65 49
      vertex -17.9645 -27.4 49
      vertex -14.6818 -27.4 49
    endloop
  endfacet
  facet normal 0 0 1
    outer loop
      vertex -7.29328 -27.4 49
      vertex -7.31817 -17.65 49
      vertex -7.31817 -27.4 49
    endloop
  endfacet
  facet normal -1 0 0
    outer loop
      vertex -36 -22 39
      vertex -36 -19 34.99
      vertex -36 -22 30
    endloop
  endfacet
  facet normal -1 0 0
    outer loop
      vertex -36 -22 30
      vertex -36 -19 34.99
      vertex -36 -17.503 30
    endloop
  endfacet
  facet normal -1 0 0
    outer loop
      vertex -36 -11 34.99
      vertex -36 4.40858e-015 34.8579
      vertex -36 4.40858e-015 30
    endloop
  endfacet
  facet normal -1 0 0
    outer loop
      vertex -36 4.40858e-015 34.8579
      vertex -36 -11 34.99
      vertex -36 -4.14214 39
    endloop
  endfacet
  facet normal -1 0 -0
    outer loop
      vertex -36 -11 34.99
      vertex -36 4.40858e-015 30
      vertex -36 -12.497 30
    endloop
  endfacet
  facet normal -1 0 0
    outer loop
      vertex -36 -11 35.49
      vertex -36 -4.14214 39
      vertex -36 -11 34.99
    endloop
  endfacet
  facet normal -1 0 0
    outer loop
      vertex -36 -22 39
      vertex -36 -11 35.49
      vertex -36 -19 35.49
    endloop
  endfacet
  facet normal -1 0 0
    outer loop
      vertex -36 -11 35.49
      vertex -36 -22 39
      vertex -36 -4.14214 39
    endloop
  endfacet
  facet normal -1 0 0
    outer loop
      vertex -36 -19 34.99
      vertex -36 -22 39
      vertex -36 -19 35.49
    endloop
  endfacet
  facet normal 0 0 -1
    outer loop
      vertex 1.503 -37 30
      vertex 14 -25.9685 30
      vertex 14 -37 30
    endloop
  endfacet
  facet normal -0 0 -1
    outer loop
      vertex 14 -25.9685 30
      vertex 1.503 -37 30
      vertex 5.53446 -17.503 30
    endloop
  endfacet
  facet normal -0 0 -1
    outer loop
      vertex 5.53446 -17.503 30
      vertex 1.503 -37 30
      vertex 1.503 -17.503 30
    endloop
  endfacet
  facet normal 0 0 -1
    outer loop
      vertex -3.503 -12.497 30
      vertex -11.9685 1.46568e-015 30
      vertex -3.503 -8.46554 30
    endloop
  endfacet
  facet normal 0 0 -1
    outer loop
      vertex -36 -12.497 30
      vertex -11.9685 1.46568e-015 30
      vertex -3.503 -12.497 30
    endloop
  endfacet
  facet normal -0 0 -1
    outer loop
      vertex -11.9685 1.46568e-015 30
      vertex -36 -12.497 30
      vertex -36 4.40858e-015 30
    endloop
  endfacet
  facet normal 0 0 -1
    outer loop
      vertex -21 -37 30
      vertex -3.503 -17.503 30
      vertex -3.503 -37 30
    endloop
  endfacet
  facet normal 0 0 -1
    outer loop
      vertex -36 -22 30
      vertex -3.503 -17.503 30
      vertex -21 -37 30
    endloop
  endfacet
  facet normal -0 0 -1
    outer loop
      vertex -3.503 -17.503 30
      vertex -36 -22 30
      vertex -36 -17.503 30
    endloop
  endfacet
  facet normal 1.2246e-016 1 -0
    outer loop
      vertex -11.9685 1.46568e-015 30
      vertex -36 4.40858e-015 34.8579
      vertex -11.9685 1.46568e-015 34.8579
    endloop
  endfacet
  facet normal 1.2246e-016 1 0
    outer loop
      vertex -36 4.40858e-015 34.8579
      vertex -11.9685 1.46568e-015 30
      vertex -36 4.40858e-015 30
    endloop
  endfacet
  facet normal 0 -1 0
    outer loop
      vertex -21 -37 39
      vertex -19.5462 -37 38.305
      vertex -20.0511 -37 39
    endloop
  endfacet
  facet normal 0 -1 0
    outer loop
      vertex -21 -37 30
      vertex -19.5462 -37 38.305
      vertex -21 -37 39
    endloop
  endfacet
  facet normal 0 -1 -0
    outer loop
      vertex -13.391 -37 34.7513
      vertex -21 -37 30
      vertex -11 -37 34.5
    endloop
  endfacet
  facet normal 0 -1 -0
    outer loop
      vertex -15.6775 -37 35.4942
      vertex -21 -37 30
      vertex -13.391 -37 34.7513
    endloop
  endfacet
  facet normal 0 -1 -0
    outer loop
      vertex -17.7595 -37 36.6963
      vertex -21 -37 30
      vertex -15.6775 -37 35.4942
    endloop
  endfacet
  facet normal 0 -1 -0
    outer loop
      vertex -19.5462 -37 38.305
      vertex -21 -37 30
      vertex -17.7595 -37 36.6963
    endloop
  endfacet
  facet normal 0 -1 0
    outer loop
      vertex -6.32253 -37 35.4942
      vertex -5 -37 34.99
      vertex -5 -37 35.49
    endloop
  endfacet
  facet normal 0 -1 0
    outer loop
      vertex -8.60902 -37 34.7513
      vertex -5 -37 34.99
      vertex -6.32253 -37 35.4942
    endloop
  endfacet
  facet normal 0 -1 0
    outer loop
      vertex -3.503 -37 30
      vertex -8.60902 -37 34.7513
      vertex -11 -37 34.5
    endloop
  endfacet
  facet normal 0 -1 0
    outer loop
      vertex -3.503 -37 30
      vertex -11 -37 34.5
      vertex -21 -37 30
    endloop
  endfacet
  facet normal 0 -1 0
    outer loop
      vertex -8.60902 -37 34.7513
      vertex -3.503 -37 30
      vertex -5 -37 34.99
    endloop
  endfacet
  facet normal 0 -1 0
    outer loop
      vertex 3 -37 35.49
      vertex -1.94889 -37 39
      vertex -2.45383 -37 38.305
    endloop
  endfacet
  facet normal 0 -1 0
    outer loop
      vertex 3 -37 35.49
      vertex -2.45383 -37 38.305
      vertex -4.24047 -37 36.6963
    endloop
  endfacet
  facet normal 0 -1 0
    outer loop
      vertex -1.94889 -37 39
      vertex 3 -37 35.49
      vertex 10.8579 -37 39
    endloop
  endfacet
  facet normal 0 -1 0
    outer loop
      vertex -5 -37 35.49
      vertex -4.24047 -37 36.6963
      vertex -6.32253 -37 35.4942
    endloop
  endfacet
  facet normal 0 -1 0
    outer loop
      vertex 3 -37 35.49
      vertex -4.24047 -37 36.6963
      vertex -5 -37 35.49
    endloop
  endfacet
  facet normal 0 -1 0
    outer loop
      vertex 3 -37 34.99
      vertex 10.8579 -37 39
      vertex 3 -37 35.49
    endloop
  endfacet
  facet normal 0 -1 -0
    outer loop
      vertex 10.8579 -37 39
      vertex 3 -37 34.99
      vertex 14 -37 35.8579
    endloop
  endfacet
  facet normal 0 -1 0
    outer loop
      vertex 14 -37 30
      vertex 3 -37 34.99
      vertex 1.503 -37 30
    endloop
  endfacet
  facet normal 0 -1 0
    outer loop
      vertex 3 -37 34.99
      vertex 14 -37 30
      vertex 14 -37 35.8579
    endloop
  endfacet
  facet normal -1 0 0
    outer loop
      vertex -20.2 -4.14214 39
      vertex -20.2 -20.9 41
      vertex -20.2 -11.9066 46.7645
    endloop
  endfacet
  facet normal -1 0 0
    outer loop
      vertex -20.2 -35.9 39
      vertex -20.2 -20.9 41
      vertex -20.2 -4.14214 39
    endloop
  endfacet
  facet normal -1 0 0
    outer loop
      vertex -20.2 -24.4 41
      vertex -20.2 -27.4 41.8
      vertex -20.2 -24.4 43
    endloop
  endfacet
  facet normal -1 -0 0
    outer loop
      vertex -20.2 -20.9 41
      vertex -20.2 -35.9 39
      vertex -20.2 -24.4 41
    endloop
  endfacet
  facet normal -1 0 0
    outer loop
      vertex -20.2 -35.9 39
      vertex -20.2 -27.4 41.8
      vertex -20.2 -24.4 41
    endloop
  endfacet
  facet normal -1 0 0
    outer loop
      vertex -20.2 -35.9 40.4497
      vertex -20.2 -27.4 41.8
      vertex -20.2 -35.9 39
    endloop
  endfacet
  facet normal -1 0 0
    outer loop
      vertex -20.2 -35.9 40.9233
      vertex -20.2 -27.4 41.8
      vertex -20.2 -35.9 40.4497
    endloop
  endfacet
  facet normal -1 0 0
    outer loop
      vertex -20.2 -35.9 41.719
      vertex -20.2 -27.4 41.8
      vertex -20.2 -35.9 40.9233
    endloop
  endfacet
  facet normal -1 -0 0
    outer loop
      vertex -20.2 -27.4 41.8
      vertex -20.2 -35.9 41.719
      vertex -20.2 -35.9 41.8
    endloop
  endfacet
  facet normal -1 0 0
    outer loop
      vertex -20.2 -20.9 43
      vertex -20.2 -11.9066 46.7645
      vertex -20.2 -20.9 41
    endloop
  endfacet
  facet normal -1 0 0
    outer loop
      vertex -20.2 -27.4 46.7645
      vertex -20.2 -20.9 43
      vertex -20.2 -24.4 43
    endloop
  endfacet
  facet normal -1 0 0
    outer loop
      vertex -20.2 -20.9 43
      vertex -20.2 -27.4 46.7645
      vertex -20.2 -11.9066 46.7645
    endloop
  endfacet
  facet normal -1 0 0
    outer loop
      vertex -20.2 -27.4 46.7645
      vertex -20.2 -24.4 43
      vertex -20.2 -27.4 41.8
    endloop
  endfacet
  facet normal 0 0 0
    outer loop
      vertex -1.2 -35.9 39
      vertex -2.67965 -35.9 39
      vertex -1.94889 -35.9 39
    endloop
  endfacet
  facet normal 0 0 0
    outer loop
      vertex -1.2 -35.9 39
      vertex -4.59283 -35.9 39
      vertex -2.67965 -35.9 39
    endloop
  endfacet
  facet normal 0 0 0
    outer loop
      vertex -7.212 -35.9 39
      vertex -4.59283 -35.9 39
      vertex -1.2 -35.9 39
    endloop
  endfacet
  facet normal 0 0 1
    outer loop
      vertex -1.2 -35.9 39
      vertex 10.8579 -22.8264 39
      vertex -1.2 -10.7685 39
    endloop
  endfacet
  facet normal 0 0 1
    outer loop
      vertex 10.8579 -22.8264 39
      vertex -1.2 -35.9 39
      vertex 10.8579 -37 39
    endloop
  endfacet
  facet normal 0 0 1
    outer loop
      vertex -1.94889 -37 39
      vertex -1.2 -35.9 39
      vertex -1.94889 -35.9 39
    endloop
  endfacet
  facet normal 0 0 1
    outer loop
      vertex -1.2 -35.9 39
      vertex -1.94889 -37 39
      vertex 10.8579 -37 39
    endloop
  endfacet
  facet normal -0 0 1
    outer loop
      vertex -36 -22 39
      vertex -20.2 -35.9 39
      vertex -20.2 -4.14214 39
    endloop
  endfacet
  facet normal 0 0 1
    outer loop
      vertex -36 -22 39
      vertex -20.2 -4.14214 39
      vertex -36 -4.14214 39
    endloop
  endfacet
  facet normal 0 0 1
    outer loop
      vertex -20.2 -35.9 39
      vertex -36 -22 39
      vertex -21 -37 39
    endloop
  endfacet
  facet normal 0 0 0
    outer loop
      vertex -17.7174 -35.9 39
      vertex -19.0896 -35.9 39
      vertex -18.2246 -35.9 39
    endloop
  endfacet
  facet normal 0 0 0
    outer loop
      vertex -17.7174 -35.9 39
      vertex -19.8556 -35.9 39
      vertex -19.0896 -35.9 39
    endloop
  endfacet
  facet normal 0 0 0
    outer loop
      vertex -17.7174 -35.9 39
      vertex -20.0511 -35.9 39
      vertex -19.8556 -35.9 39
    endloop
  endfacet
  facet normal 0 0 0
    outer loop
      vertex -20.2 -35.9 39
      vertex -20.0511 -35.9 39
      vertex -17.7174 -35.9 39
    endloop
  endfacet
  facet normal -0 0 1
    outer loop
      vertex -20.2 -35.9 39
      vertex -20.0511 -37 39
      vertex -20.0511 -35.9 39
    endloop
  endfacet
  facet normal 0 0 1
    outer loop
      vertex -20.0511 -37 39
      vertex -20.2 -35.9 39
      vertex -21 -37 39
    endloop
  endfacet
  facet normal 1 -0 0
    outer loop
      vertex -1.2 -27.4 46.6645
      vertex -1.2 -20.9 43
      vertex -1.2 -11.8066 46.6645
    endloop
  endfacet
  facet normal 1 0 0
    outer loop
      vertex -1.2 -27.4 41.8
      vertex -1.2 -24.4 43
      vertex -1.2 -27.4 46.6645
    endloop
  endfacet
  facet normal 1 0 0
    outer loop
      vertex -1.2 -20.9 43
      vertex -1.2 -27.4 46.6645
      vertex -1.2 -24.4 43
    endloop
  endfacet
  facet normal 1 0 0
    outer loop
      vertex -1.2 -11.8066 46.6645
      vertex -1.2 -10.7685 39
      vertex -1.2 -10.7685 45.6264
    endloop
  endfacet
  facet normal 1 -0 0
    outer loop
      vertex -1.2 -20.9 43
      vertex -1.2 -10.7685 39
      vertex -1.2 -11.8066 46.6645
    endloop
  endfacet
  facet normal 1 -0 0
    outer loop
      vertex -1.2 -20.9 41
      vertex -1.2 -10.7685 39
      vertex -1.2 -20.9 43
    endloop
  endfacet
  facet normal 1 -0 0
    outer loop
      vertex -1.2 -24.4 41
      vertex -1.2 -10.7685 39
      vertex -1.2 -20.9 41
    endloop
  endfacet
  facet normal 1 0 0
    outer loop
      vertex -1.2 -24.4 43
      vertex -1.2 -27.4 41.8
      vertex -1.2 -24.4 41
    endloop
  endfacet
  facet normal 1 0 0
    outer loop
      vertex -1.2 -35.9 39
      vertex -1.2 -27.4 41.8
      vertex -1.2 -35.9 41.8
    endloop
  endfacet
  facet normal 1 0 0
    outer loop
      vertex -1.2 -27.4 41.8
      vertex -1.2 -35.9 39
      vertex -1.2 -24.4 41
    endloop
  endfacet
  facet normal 1 0 0
    outer loop
      vertex -1.2 -24.4 41
      vertex -1.2 -35.9 39
      vertex -1.2 -10.7685 39
    endloop
  endfacet
  facet normal 0 -1 0
    outer loop
      vertex -1.2 -35.9 39
      vertex -4.21711 -35.9 41.8
      vertex -5.05484 -35.9 40.647
    endloop
  endfacet
  facet normal 0 -1 0
    outer loop
      vertex -1.2 -35.9 39
      vertex -5.05484 -35.9 40.647
      vertex -6.29772 -35.9 39.5279
    endloop
  endfacet
  facet normal 0 -1 0
    outer loop
      vertex -1.2 -35.9 39
      vertex -6.29772 -35.9 39.5279
      vertex -7.212 -35.9 39
    endloop
  endfacet
  facet normal 0 -1 0
    outer loop
      vertex -4.21711 -35.9 41.8
      vertex -1.2 -35.9 39
      vertex -1.2 -35.9 41.8
    endloop
  endfacet
  facet normal 0 -1 0
    outer loop
      vertex -20.2 -35.9 39
      vertex -19.6305 -35.9 39.937
      vertex -20.2 -35.9 40.4497
    endloop
  endfacet
  facet normal 0 -1 0
    outer loop
      vertex -20.2 -35.9 39
      vertex -18.3813 -35.9 39.2157
      vertex -19.6305 -35.9 39.937
    endloop
  endfacet
  facet normal 0 -1 -0
    outer loop
      vertex -18.3813 -35.9 39.2157
      vertex -20.2 -35.9 39
      vertex -17.7174 -35.9 39
    endloop
  endfacet
  facet normal 0.707109 0.707105 -0
    outer loop
      vertex -5 -6.96854 34.99
      vertex -11.9685 1.46568e-015 34.8579
      vertex -5 -6.96854 35.49
    endloop
  endfacet
  facet normal 0.707109 0.707105 -4.46376e-006
    outer loop
      vertex -1.2 -10.7685 45.6264
      vertex -5 -6.96854 35.49
      vertex -11.9685 1.46568e-015 34.8579
    endloop
  endfacet
  facet normal 0.707103 0.707111 -0
    outer loop
      vertex -1.2 -10.7685 39
      vertex -5 -6.96854 35.49
      vertex -1.2 -10.7685 45.6264
    endloop
  endfacet
  facet normal 0.707105 0.707109 -4.23056e-006
    outer loop
      vertex -1.2 -10.7685 39
      vertex 3 -14.9685 35.49
      vertex -5 -6.96854 35.49
    endloop
  endfacet
  facet normal 0.707107 0.707107 -2.37425e-016
    outer loop
      vertex 10.8579 -22.8264 39
      vertex 3 -14.9685 35.49
      vertex -1.2 -10.7685 39
    endloop
  endfacet
  facet normal 0.707105 0.707109 -3.85532e-006
    outer loop
      vertex 14 -25.9685 35.8579
      vertex 7.03146 -19 35.49
      vertex 10.8579 -22.8264 39
    endloop
  endfacet
  facet normal 0.70711 0.707103 -1.57065e-005
    outer loop
      vertex 3 -14.9685 35.49
      vertex 10.8579 -22.8264 39
      vertex 7.03146 -19 35.49
    endloop
  endfacet
  facet normal 0.707109 0.707105 0
    outer loop
      vertex -11.9685 1.46568e-015 34.8579
      vertex -5 -6.96854 34.99
      vertex -11.9685 1.46568e-015 30
    endloop
  endfacet
  facet normal 0.707108 0.707105 1.00233e-006
    outer loop
      vertex -11.9685 1.46568e-015 30
      vertex -5 -6.96854 34.99
      vertex -3.503 -8.46554 30
    endloop
  endfacet
  facet normal 0.707105 0.707109 0
    outer loop
      vertex 7.03146 -19 35.49
      vertex 14 -25.9685 35.8579
      vertex 7.03146 -19 34.99
    endloop
  endfacet
  facet normal 0.707105 0.707109 -0
    outer loop
      vertex 14 -25.9685 30
      vertex 7.03146 -19 34.99
      vertex 14 -25.9685 35.8579
    endloop
  endfacet
  facet normal 0.707105 0.707108 1.00233e-006
    outer loop
      vertex 7.03146 -19 34.99
      vertex 14 -25.9685 30
      vertex 5.53446 -17.503 30
    endloop
  endfacet
  facet normal -0.707107 -0.707107 0
    outer loop
      vertex -21 -37 30
      vertex -36 -22 39
      vertex -36 -22 30
    endloop
  endfacet
  facet normal -0.707107 -0.707107 0
    outer loop
      vertex -36 -22 39
      vertex -21 -37 30
      vertex -21 -37 39
    endloop
  endfacet
  facet normal 0 0.707107 0.707107
    outer loop
      vertex -11.9685 1.46568e-015 34.8579
      vertex -17.9645 -14.1421 49
      vertex -3.53553 -14.1421 49
    endloop
  endfacet
  facet normal 1.03615e-015 0.707107 0.707107
    outer loop
      vertex -1.2 -10.7685 45.6264
      vertex -3.53553 -14.1421 49
      vertex -1.2 -11.8066 46.6645
    endloop
  endfacet
  facet normal 6.53793e-016 0.707107 0.707107
    outer loop
      vertex -11.9685 1.46568e-015 34.8579
      vertex -3.53553 -14.1421 49
      vertex -1.2 -10.7685 45.6264
    endloop
  endfacet
  facet normal -4.36802e-006 0.707108 0.707106
    outer loop
      vertex -20.2 -4.14214 39
      vertex -17.9645 -14.1421 49
      vertex -11.9685 1.46568e-015 34.8579
    endloop
  endfacet
  facet normal 3.64278e-006 0.707109 0.707105
    outer loop
      vertex -17.9645 -14.1421 49
      vertex -20.2 -4.14214 39
      vertex -20.2 -11.9066 46.7645
    endloop
  endfacet
  facet normal 8.6592e-017 0.707103 0.70711
    outer loop
      vertex -36 4.40858e-015 34.8579
      vertex -20.2 -4.14214 39
      vertex -11.9685 1.46568e-015 34.8579
    endloop
  endfacet
  facet normal 0 0.707103 0.70711
    outer loop
      vertex -20.2 -4.14214 39
      vertex -36 4.40858e-015 34.8579
      vertex -36 -4.14214 39
    endloop
  endfacet
  facet normal 0.707107 -0 0.707107
    outer loop
      vertex 10.8579 -37 39
      vertex 14 -25.9685 35.8579
      vertex 10.8579 -22.8264 39
    endloop
  endfacet
  facet normal 0.707107 0 0.707107
    outer loop
      vertex 14 -25.9685 35.8579
      vertex 10.8579 -37 39
      vertex 14 -37 35.8579
    endloop
  endfacet
  facet normal 0.707102 0 0.707111
    outer loop
      vertex -3.53553 -14.1421 49
      vertex -1.2 -27.4 46.6645
      vertex -1.2 -11.8066 46.6645
    endloop
  endfacet
  facet normal 0.707102 0 0.707111
    outer loop
      vertex -1.2 -27.4 46.6645
      vertex -3.53553 -14.1421 49
      vertex -3.53553 -27.4 49
    endloop
  endfacet
  facet normal -0.707107 0 0.707107
    outer loop
      vertex -20.2 -27.4 46.7645
      vertex -17.9645 -14.1421 49
      vertex -20.2 -11.9066 46.7645
    endloop
  endfacet
  facet normal -0.707107 8.34955e-017 0.707107
    outer loop
      vertex -18.6398 -27.4 48.3247
      vertex -17.9645 -14.1421 49
      vertex -20.2 -27.4 46.7645
    endloop
  endfacet
  facet normal -0.707107 0 0.707107
    outer loop
      vertex -17.9645 -14.1421 49
      vertex -18.6398 -27.4 48.3247
      vertex -17.9645 -27.4 49
    endloop
  endfacet
endsolid OpenSCAD_Model
