solid OpenSCAD_Model
  facet normal 0 -1 0
    outer loop
      vertex 3 0 0
      vertex 8 0 7
      vertex 3 0 7
    endloop
  endfacet
  facet normal 0 -1 -0
    outer loop
      vertex 8 0 7
      vertex 3 0 0
      vertex 8 0 0
    endloop
  endfacet
  facet normal 0 -1 0
    outer loop
      vertex 38 0 0
      vertex 43 0 7
      vertex 38 0 7
    endloop
  endfacet
  facet normal 0 -1 -0
    outer loop
      vertex 43 0 7
      vertex 38 0 0
      vertex 43 0 0
    endloop
  endfacet
  facet normal -0.707107 -0.707107 0
    outer loop
      vertex 3 0 0
      vertex 0 3 7
      vertex 0 3 0
    endloop
  endfacet
  facet normal -0.707107 -0.707107 0
    outer loop
      vertex 0 3 7
      vertex 3 0 0
      vertex 3 0 7
    endloop
  endfacet
  facet normal 0.707107 -0.707107 0
    outer loop
      vertex 43 0 7
      vertex 46 3 0
      vertex 46 3 7
    endloop
  endfacet
  facet normal 0.707107 -0.707107 0
    outer loop
      vertex 46 3 0
      vertex 43 0 7
      vertex 43 0 0
    endloop
  endfacet
  facet normal 0.707107 0.707107 0
    outer loop
      vertex 46 27 7
      vertex 44.15 28.85 0
      vertex 44.15 28.85 7
    endloop
  endfacet
  facet normal 0.707107 0.707107 0
    outer loop
      vertex 44.15 28.85 0
      vertex 46 27 7
      vertex 46 27 0
    endloop
  endfacet
  facet normal -0 0 1
    outer loop
      vertex 35.5 23.5 7
      vertex 38 23 7
      vertex 40.65 23.5 7
    endloop
  endfacet
  facet normal 0 0 1
    outer loop
      vertex 38 23 7
      vertex 35.5 23.5 7
      vertex 35.5 23 7
    endloop
  endfacet
  facet normal 0 0 1
    outer loop
      vertex 42.15 141.1 7
      vertex -9.65 137.1 7
      vertex 40.65 137.1 7
    endloop
  endfacet
  facet normal -0 0 1
    outer loop
      vertex -13.15 139.1 7
      vertex -9.65 137.1 7
      vertex -11.15 141.1 7
    endloop
  endfacet
  facet normal -0 0 1
    outer loop
      vertex -11.15 141.1 7
      vertex -9.65 137.1 7
      vertex 42.15 141.1 7
    endloop
  endfacet
  facet normal -0 0 1
    outer loop
      vertex 40.65 137.1 7
      vertex 44.15 28.85 7
      vertex 44.15 139.1 7
    endloop
  endfacet
  facet normal 0 0 1
    outer loop
      vertex 40.65 137.1 7
      vertex 44.15 139.1 7
      vertex 42.15 141.1 7
    endloop
  endfacet
  facet normal 0 0 1
    outer loop
      vertex 44.15 28.85 7
      vertex 40.65 137.1 7
      vertex 40.65 23.5 7
    endloop
  endfacet
  facet normal 0 0 1
    outer loop
      vertex 44.15 28.85 7
      vertex 40.65 23.5 7
      vertex 43 12 7
    endloop
  endfacet
  facet normal -0 0 1
    outer loop
      vertex 38 23 7
      vertex 43 12 7
      vertex 40.65 23.5 7
    endloop
  endfacet
  facet normal 0 0 1
    outer loop
      vertex 43 12 7
      vertex 38 23 7
      vertex 38 10.5 7
    endloop
  endfacet
  facet normal 0 0 1
    outer loop
      vertex 43 12 7
      vertex 46 27 7
      vertex 44.15 28.85 7
    endloop
  endfacet
  facet normal 0 0 1
    outer loop
      vertex 46 27 7
      vertex 43 12 7
      vertex 46 3 7
    endloop
  endfacet
  facet normal -0 0 1
    outer loop
      vertex 43 4 7
      vertex 46 3 7
      vertex 43 12 7
    endloop
  endfacet
  facet normal 0 0 1
    outer loop
      vertex 43 4 7
      vertex 43 0 7
      vertex 46 3 7
    endloop
  endfacet
  facet normal 0 0 1
    outer loop
      vertex 38 0 7
      vertex 43 4 7
      vertex 38 5.5 7
    endloop
  endfacet
  facet normal 0 0 1
    outer loop
      vertex 43 4 7
      vertex 38 0 7
      vertex 43 0 7
    endloop
  endfacet
  facet normal 0 0 1
    outer loop
      vertex 10.5 23.5 7
      vertex 8 23 7
      vertex 10.5 23 7
    endloop
  endfacet
  facet normal 0 0 1
    outer loop
      vertex 8 23 7
      vertex 3.001 12 7
      vertex 8 10.5003 7
    endloop
  endfacet
  facet normal 0 0 1
    outer loop
      vertex 0 3 7
      vertex 3.001 4 7
      vertex 3.001 12 7
    endloop
  endfacet
  facet normal 0 0 1
    outer loop
      vertex 0 3 7
      vertex 3.001 12 7
      vertex 0 18.5 7
    endloop
  endfacet
  facet normal 0 0 1
    outer loop
      vertex 8 23 7
      vertex 0 18.5 7
      vertex 3.001 12 7
    endloop
  endfacet
  facet normal -0 0 1
    outer loop
      vertex -9.65 23.5 7
      vertex 8 23 7
      vertex 10.5 23.5 7
    endloop
  endfacet
  facet normal 0 0 1
    outer loop
      vertex -9.65 23.5 7
      vertex 0 18.5 7
      vertex 8 23 7
    endloop
  endfacet
  facet normal 0 0 1
    outer loop
      vertex -9.65 23.5 7
      vertex -11.15 18.5 7
      vertex 0 18.5 7
    endloop
  endfacet
  facet normal 0 0 1
    outer loop
      vertex -9.65 137.1 7
      vertex -13.15 139.1 7
      vertex -9.65 23.5 7
    endloop
  endfacet
  facet normal 0 0 1
    outer loop
      vertex -13.15 20.5 7
      vertex -9.65 23.5 7
      vertex -13.15 139.1 7
    endloop
  endfacet
  facet normal 0 0 1
    outer loop
      vertex -9.65 23.5 7
      vertex -13.15 20.5 7
      vertex -11.15 18.5 7
    endloop
  endfacet
  facet normal -0 0 1
    outer loop
      vertex 3.001 4 7
      vertex 8 0 7
      vertex 8 5.4997 7
    endloop
  endfacet
  facet normal 0 0 1
    outer loop
      vertex 8 0 7
      vertex 3.001 4 7
      vertex 3 0 7
    endloop
  endfacet
  facet normal 0 0 1
    outer loop
      vertex 3.001 4 7
      vertex 0 3 7
      vertex 3 0 7
    endloop
  endfacet
  facet normal 0 0 -1
    outer loop
      vertex 8 0 0
      vertex 3.001 4 0
      vertex 8 5.4997 0
    endloop
  endfacet
  facet normal 0 0 -1
    outer loop
      vertex 0 3 0
      vertex 3.001 4 0
      vertex 3 0 0
    endloop
  endfacet
  facet normal 0 0 -1
    outer loop
      vertex 3 0 0
      vertex 3.001 4 0
      vertex 8 0 0
    endloop
  endfacet
  facet normal 0 0 -1
    outer loop
      vertex 8 10.5003 0
      vertex 3.001 12 0
      vertex 8 23 0
    endloop
  endfacet
  facet normal 0 0 -1
    outer loop
      vertex 38 0 0
      vertex 43 4 0
      vertex 43 0 0
    endloop
  endfacet
  facet normal -0 0 -1
    outer loop
      vertex 43 4 0
      vertex 38 0 0
      vertex 38 5.5 0
    endloop
  endfacet
  facet normal 0 0 -1
    outer loop
      vertex 43 12 0
      vertex 46 27 0
      vertex 46 3 0
    endloop
  endfacet
  facet normal 0 0 -1
    outer loop
      vertex 43 4 0
      vertex 46 3 0
      vertex 43 0 0
    endloop
  endfacet
  facet normal 0 0 -1
    outer loop
      vertex 43 12 0
      vertex 46 3 0
      vertex 43 4 0
    endloop
  endfacet
  facet normal 0 0 -1
    outer loop
      vertex 40.65 23.5 0
      vertex 46 27 0
      vertex 43 12 0
    endloop
  endfacet
  facet normal -0 0 -1
    outer loop
      vertex 46 27 0
      vertex 40.65 23.5 0
      vertex 44.15 28.85 0
    endloop
  endfacet
  facet normal 0 0 -1
    outer loop
      vertex 40.65 137.1 0
      vertex 44.15 28.85 0
      vertex 40.65 23.5 0
    endloop
  endfacet
  facet normal 0 0 -1
    outer loop
      vertex 44.15 28.85 0
      vertex 40.65 137.1 0
      vertex 44.15 139.1 0
    endloop
  endfacet
  facet normal 0 0 -1
    outer loop
      vertex 38 23 0
      vertex 43 12 0
      vertex 38 10.5 0
    endloop
  endfacet
  facet normal 0 0 -1
    outer loop
      vertex 43 12 0
      vertex 38 23 0
      vertex 40.65 23.5 0
    endloop
  endfacet
  facet normal 0 0 -1
    outer loop
      vertex 35.5 23.5 0
      vertex 38 23 0
      vertex 35.5 23 0
    endloop
  endfacet
  facet normal 0 0 -1
    outer loop
      vertex 38 23 0
      vertex 35.5 23.5 0
      vertex 40.65 23.5 0
    endloop
  endfacet
  facet normal -0 0 -1
    outer loop
      vertex 44.15 139.1 0
      vertex 40.65 137.1 0
      vertex 42.15 141.1 0
    endloop
  endfacet
  facet normal 0 0 -1
    outer loop
      vertex -9.65 137.1 0
      vertex 42.15 141.1 0
      vertex 40.65 137.1 0
    endloop
  endfacet
  facet normal 0 0 -1
    outer loop
      vertex -9.65 137.1 0
      vertex -11.15 141.1 0
      vertex 42.15 141.1 0
    endloop
  endfacet
  facet normal 0 0 -1
    outer loop
      vertex -9.65 23.5 0
      vertex -11.15 141.1 0
      vertex -9.65 137.1 0
    endloop
  endfacet
  facet normal 0 0 -1
    outer loop
      vertex -13.15 139.1 0
      vertex -9.65 23.5 0
      vertex -13.15 20.5 0
    endloop
  endfacet
  facet normal 0 0 -1
    outer loop
      vertex -9.65 23.5 0
      vertex -13.15 139.1 0
      vertex -11.15 141.1 0
    endloop
  endfacet
  facet normal 0 0 -1
    outer loop
      vertex 8 23 0
      vertex 10.5 23.5 0
      vertex 10.5 23 0
    endloop
  endfacet
  facet normal -0 0 -1
    outer loop
      vertex 3.001 4 0
      vertex 0 3 0
      vertex 3.001 12 0
    endloop
  endfacet
  facet normal 0 0 -1
    outer loop
      vertex 0 18.5 0
      vertex 3.001 12 0
      vertex 0 3 0
    endloop
  endfacet
  facet normal 0 0 -1
    outer loop
      vertex 0 18.5 0
      vertex 8 23 0
      vertex 3.001 12 0
    endloop
  endfacet
  facet normal 0 0 -1
    outer loop
      vertex 8 23 0
      vertex -9.65 23.5 0
      vertex 10.5 23.5 0
    endloop
  endfacet
  facet normal 0 0 -1
    outer loop
      vertex 0 18.5 0
      vertex -9.65 23.5 0
      vertex 8 23 0
    endloop
  endfacet
  facet normal 0 0 -1
    outer loop
      vertex -13.15 20.5 0
      vertex -9.65 23.5 0
      vertex -11.15 18.5 0
    endloop
  endfacet
  facet normal 0 0 -1
    outer loop
      vertex -11.15 18.5 0
      vertex -9.65 23.5 0
      vertex 0 18.5 0
    endloop
  endfacet
  facet normal -1 0 0
    outer loop
      vertex 0 3 0
      vertex 0 18.5 7
      vertex 0 18.5 0
    endloop
  endfacet
  facet normal -1 -0 0
    outer loop
      vertex 0 18.5 7
      vertex 0 3 0
      vertex 0 3 7
    endloop
  endfacet
  facet normal 1 -0 0
    outer loop
      vertex 46 3 7
      vertex 46 27 0
      vertex 46 27 7
    endloop
  endfacet
  facet normal 1 0 0
    outer loop
      vertex 46 27 0
      vertex 46 3 7
      vertex 46 3 0
    endloop
  endfacet
  facet normal 0 -1 0
    outer loop
      vertex -11.15 18.5 0
      vertex 0 18.5 7
      vertex -11.15 18.5 7
    endloop
  endfacet
  facet normal 0 -1 -0
    outer loop
      vertex 0 18.5 7
      vertex -11.15 18.5 0
      vertex 0 18.5 0
    endloop
  endfacet
  facet normal -0.707107 -0.707107 0
    outer loop
      vertex -11.15 18.5 0
      vertex -13.15 20.5 7
      vertex -13.15 20.5 0
    endloop
  endfacet
  facet normal -0.707107 -0.707107 0
    outer loop
      vertex -13.15 20.5 7
      vertex -11.15 18.5 0
      vertex -11.15 18.5 7
    endloop
  endfacet
  facet normal 1 -0 0
    outer loop
      vertex 44.15 28.85 7
      vertex 44.15 139.1 0
      vertex 44.15 139.1 7
    endloop
  endfacet
  facet normal 1 0 0
    outer loop
      vertex 44.15 139.1 0
      vertex 44.15 28.85 7
      vertex 44.15 28.85 0
    endloop
  endfacet
  facet normal -1 0 0
    outer loop
      vertex -13.15 20.5 0
      vertex -13.15 139.1 7
      vertex -13.15 139.1 0
    endloop
  endfacet
  facet normal -1 -0 0
    outer loop
      vertex -13.15 139.1 7
      vertex -13.15 20.5 0
      vertex -13.15 20.5 7
    endloop
  endfacet
  facet normal -0.707107 0.707107 0
    outer loop
      vertex -13.15 139.1 0
      vertex -11.15 141.1 7
      vertex -11.15 141.1 0
    endloop
  endfacet
  facet normal -0.707107 0.707107 0
    outer loop
      vertex -11.15 141.1 7
      vertex -13.15 139.1 0
      vertex -13.15 139.1 7
    endloop
  endfacet
  facet normal 0 1 -0
    outer loop
      vertex 42.15 141.1 0
      vertex -11.15 141.1 7
      vertex 42.15 141.1 7
    endloop
  endfacet
  facet normal 0 1 0
    outer loop
      vertex -11.15 141.1 7
      vertex 42.15 141.1 0
      vertex -11.15 141.1 0
    endloop
  endfacet
  facet normal 0.707107 0.707107 0
    outer loop
      vertex 44.15 139.1 7
      vertex 42.15 141.1 0
      vertex 42.15 141.1 7
    endloop
  endfacet
  facet normal 0.707107 0.707107 0
    outer loop
      vertex 42.15 141.1 0
      vertex 44.15 139.1 7
      vertex 44.15 139.1 0
    endloop
  endfacet
  facet normal 1 -0 0
    outer loop
      vertex 8 0 7
      vertex 8 5.4997 0
      vertex 8 5.4997 7
    endloop
  endfacet
  facet normal 1 0 0
    outer loop
      vertex 8 5.4997 0
      vertex 8 0 7
      vertex 8 0 0
    endloop
  endfacet
  facet normal 1 -0 0
    outer loop
      vertex 8 10.5003 7
      vertex 8 23 0
      vertex 8 23 7
    endloop
  endfacet
  facet normal 1 0 0
    outer loop
      vertex 8 23 0
      vertex 8 10.5003 7
      vertex 8 10.5003 0
    endloop
  endfacet
  facet normal -1 0 0
    outer loop
      vertex 38 0 0
      vertex 38 5.5 7
      vertex 38 5.5 0
    endloop
  endfacet
  facet normal -1 -0 0
    outer loop
      vertex 38 5.5 7
      vertex 38 0 0
      vertex 38 0 7
    endloop
  endfacet
  facet normal -1 0 0
    outer loop
      vertex 38 10.5 0
      vertex 38 23 7
      vertex 38 23 0
    endloop
  endfacet
  facet normal -1 -0 0
    outer loop
      vertex 38 23 7
      vertex 38 10.5 0
      vertex 38 10.5 7
    endloop
  endfacet
  facet normal 0 -1 0
    outer loop
      vertex 8 23 0
      vertex 10.5 23 7
      vertex 8 23 7
    endloop
  endfacet
  facet normal 0 -1 -0
    outer loop
      vertex 10.5 23 7
      vertex 8 23 0
      vertex 10.5 23 0
    endloop
  endfacet
  facet normal 0 -1 0
    outer loop
      vertex 35.5 23 0
      vertex 38 23 7
      vertex 35.5 23 7
    endloop
  endfacet
  facet normal 0 -1 -0
    outer loop
      vertex 38 23 7
      vertex 35.5 23 0
      vertex 38 23 0
    endloop
  endfacet
  facet normal 1 -0 0
    outer loop
      vertex 10.5 23 7
      vertex 10.5 23.5 0
      vertex 10.5 23.5 7
    endloop
  endfacet
  facet normal 1 0 0
    outer loop
      vertex 10.5 23.5 0
      vertex 10.5 23 7
      vertex 10.5 23 0
    endloop
  endfacet
  facet normal -1 0 0
    outer loop
      vertex 35.5 23 0
      vertex 35.5 23.5 7
      vertex 35.5 23.5 0
    endloop
  endfacet
  facet normal -1 -0 0
    outer loop
      vertex 35.5 23.5 7
      vertex 35.5 23 0
      vertex 35.5 23 7
    endloop
  endfacet
  facet normal -0.287348 0.957826 0
    outer loop
      vertex 8 5.4997 0
      vertex 3.001 4 7
      vertex 8 5.4997 7
    endloop
  endfacet
  facet normal -0.287348 0.957826 0
    outer loop
      vertex 3.001 4 7
      vertex 8 5.4997 0
      vertex 3.001 4 0
    endloop
  endfacet
  facet normal -0.287348 -0.957826 0
    outer loop
      vertex 3.001 12 0
      vertex 8 10.5003 7
      vertex 3.001 12 7
    endloop
  endfacet
  facet normal -0.287348 -0.957826 -0
    outer loop
      vertex 8 10.5003 7
      vertex 3.001 12 0
      vertex 8 10.5003 0
    endloop
  endfacet
  facet normal 1 -0 0
    outer loop
      vertex 3.001 4 7
      vertex 3.001 12 0
      vertex 3.001 12 7
    endloop
  endfacet
  facet normal 1 0 0
    outer loop
      vertex 3.001 12 0
      vertex 3.001 4 7
      vertex 3.001 4 0
    endloop
  endfacet
  facet normal 0.287348 -0.957826 0
    outer loop
      vertex 38 10.5 0
      vertex 43 12 7
      vertex 38 10.5 7
    endloop
  endfacet
  facet normal 0.287348 -0.957826 0
    outer loop
      vertex 43 12 7
      vertex 38 10.5 0
      vertex 43 12 0
    endloop
  endfacet
  facet normal 0.287348 0.957826 -0
    outer loop
      vertex 43 4 0
      vertex 38 5.5 7
      vertex 43 4 7
    endloop
  endfacet
  facet normal 0.287348 0.957826 0
    outer loop
      vertex 38 5.5 7
      vertex 43 4 0
      vertex 38 5.5 0
    endloop
  endfacet
  facet normal -1 0 0
    outer loop
      vertex 43 4 0
      vertex 43 12 7
      vertex 43 12 0
    endloop
  endfacet
  facet normal -1 -0 0
    outer loop
      vertex 43 12 7
      vertex 43 4 0
      vertex 43 4 7
    endloop
  endfacet
  facet normal 1 -0 0
    outer loop
      vertex -9.65 23.5 7
      vertex -9.65 137.1 0
      vertex -9.65 137.1 7
    endloop
  endfacet
  facet normal 1 0 0
    outer loop
      vertex -9.65 137.1 0
      vertex -9.65 23.5 7
      vertex -9.65 23.5 0
    endloop
  endfacet
  facet normal -1 0 0
    outer loop
      vertex 40.65 23.5 0
      vertex 40.65 137.1 7
      vertex 40.65 137.1 0
    endloop
  endfacet
  facet normal -1 -0 0
    outer loop
      vertex 40.65 137.1 7
      vertex 40.65 23.5 0
      vertex 40.65 23.5 7
    endloop
  endfacet
  facet normal 0 -1 0
    outer loop
      vertex -9.65 137.1 0
      vertex 40.65 137.1 7
      vertex -9.65 137.1 7
    endloop
  endfacet
  facet normal 0 -1 -0
    outer loop
      vertex 40.65 137.1 7
      vertex -9.65 137.1 0
      vertex 40.65 137.1 0
    endloop
  endfacet
  facet normal 0 1 -0
    outer loop
      vertex 10.5 23.5 0
      vertex -9.65 23.5 7
      vertex 10.5 23.5 7
    endloop
  endfacet
  facet normal 0 1 0
    outer loop
      vertex -9.65 23.5 7
      vertex 10.5 23.5 0
      vertex -9.65 23.5 0
    endloop
  endfacet
  facet normal 0 1 -0
    outer loop
      vertex 40.65 23.5 0
      vertex 35.5 23.5 7
      vertex 40.65 23.5 7
    endloop
  endfacet
  facet normal 0 1 0
    outer loop
      vertex 35.5 23.5 7
      vertex 40.65 23.5 0
      vertex 35.5 23.5 0
    endloop
  endfacet
endsolid OpenSCAD_Model
