solid OpenSCAD_Model
  facet normal 0.298276 0.95448 -0
    outer loop
      vertex 6 2.51594 2.22045e-19
      vertex 3.34548 3.34548 8
      vertex 6 2.51594 8
    endloop
  endfacet
  facet normal 0.298274 0.95448 -4.89657e-07
    outer loop
      vertex 1.86284 3.8088 9.18856e-16
      vertex 3.34548 3.34548 8
      vertex 6 2.51594 2.22045e-19
    endloop
  endfacet
  facet normal 0.298269 0.954482 0
    outer loop
      vertex 2.34045 3.65955 8
      vertex 1.86284 3.8088 9.18856e-16
      vertex 1.86284 3.8088 8
    endloop
  endfacet
  facet normal 0.298273 0.95448 -2.66534e-07
    outer loop
      vertex 3.34548 3.34548 8
      vertex 1.86284 3.8088 9.18856e-16
      vertex 2.34045 3.65955 8
    endloop
  endfacet
  facet normal 0 0 1
    outer loop
      vertex 6 2.51594 8
      vertex 3.34548 3.34548 8
      vertex 6.001 2.51562 8
    endloop
  endfacet
  facet normal 0.298274 -0.95448 0
    outer loop
      vertex 1.86284 -3.8088 9.18856e-16
      vertex 6 -2.51594 8
      vertex 1.86284 -3.8088 8
    endloop
  endfacet
  facet normal 0.298274 -0.95448 0
    outer loop
      vertex 6 -2.51594 8
      vertex 1.86284 -3.8088 9.18856e-16
      vertex 6 -2.51594 2.22045e-19
    endloop
  endfacet
  facet normal 0 0 1
    outer loop
      vertex 1.86284 -3.8088 8
      vertex 6 -2.51594 8
      vertex 6.001 -2.51562 8
    endloop
  endfacet
  facet normal -1 0 0
    outer loop
      vertex 1.251 2.04499 1.05471e-15
      vertex 1.251 2.93158 8
      vertex 1.251 2.93158 1.05471e-15
    endloop
  endfacet
  facet normal -1 -0 0
    outer loop
      vertex 1.251 2.93158 8
      vertex 1.251 2.04499 1.05471e-15
      vertex 1.251 2.04499 8
    endloop
  endfacet
  facet normal -1 0 0
    outer loop
      vertex 1.251 -2.93158 1.05471e-15
      vertex 1.251 -2.04499 8
      vertex 1.251 -2.04499 1.05471e-15
    endloop
  endfacet
  facet normal -1 -0 0
    outer loop
      vertex 1.251 -2.04499 8
      vertex 1.251 -2.93158 1.05471e-15
      vertex 1.251 -2.93158 8
    endloop
  endfacet
  facet normal -0.820203 -0.572072 0
    outer loop
      vertex 1.86284 -3.8088 9.18856e-16
      vertex 1.251 -2.93158 8
      vertex 1.251 -2.93158 1.05471e-15
    endloop
  endfacet
  facet normal -0.820203 -0.572072 0
    outer loop
      vertex 1.251 -2.93158 8
      vertex 1.86284 -3.8088 9.18856e-16
      vertex 1.86284 -3.8088 8
    endloop
  endfacet
  facet normal -0.820203 0.572072 0
    outer loop
      vertex 1.251 2.93158 1.05471e-15
      vertex 1.86284 3.8088 8
      vertex 1.86284 3.8088 9.18856e-16
    endloop
  endfacet
  facet normal -0.820203 0.572072 0
    outer loop
      vertex 1.86284 3.8088 8
      vertex 1.251 2.93158 1.05471e-15
      vertex 1.251 2.93158 8
    endloop
  endfacet
  facet normal -0.265154 0.964206 0
    outer loop
      vertex 4.401 -1.17875 8
      vertex 1.251 -2.04499 1.05471e-15
      vertex 1.251 -2.04499 8
    endloop
  endfacet
  facet normal -0.265154 0.964206 0
    outer loop
      vertex 1.251 -2.04499 1.05471e-15
      vertex 4.401 -1.17875 8
      vertex 4.401 -1.17875 3.55271e-16
    endloop
  endfacet
  facet normal -0.265154 -0.964206 0
    outer loop
      vertex 1.251 2.04499 1.05471e-15
      vertex 4.401 1.17875 8
      vertex 1.251 2.04499 8
    endloop
  endfacet
  facet normal -0.265154 -0.964206 -0
    outer loop
      vertex 4.401 1.17875 8
      vertex 1.251 2.04499 1.05471e-15
      vertex 4.401 1.17875 3.55271e-16
    endloop
  endfacet
  facet normal -1 0 0
    outer loop
      vertex 4.401 1 3.55271e-16
      vertex 4.401 1.17875 8
      vertex 4.401 1.17875 3.55271e-16
    endloop
  endfacet
  facet normal -1 -0 0
    outer loop
      vertex 4.401 1.17875 8
      vertex 4.401 1 3.55271e-16
      vertex 4.401 1 8
    endloop
  endfacet
  facet normal -1 0 0
    outer loop
      vertex 4.401 -1.17875 3.55271e-16
      vertex 4.401 -1 8
      vertex 4.401 -1 3.55271e-16
    endloop
  endfacet
  facet normal -1 -0 0
    outer loop
      vertex 4.401 -1 8
      vertex 4.401 -1.17875 3.55271e-16
      vertex 4.401 -1.17875 8
    endloop
  endfacet
  facet normal 0 0 1
    outer loop
      vertex 6.001 2.51562 8
      vertex 4.401 1.17875 8
      vertex 6.001 1 8
    endloop
  endfacet
  facet normal 0 0 1
    outer loop
      vertex 3.34548 3.34548 8
      vertex 4.401 1.17875 8
      vertex 6.001 2.51562 8
    endloop
  endfacet
  facet normal -0 0 1
    outer loop
      vertex 3 3 8
      vertex 4.401 1.17875 8
      vertex 3.34548 3.34548 8
    endloop
  endfacet
  facet normal 0 0 1
    outer loop
      vertex 1.251 2.93158 8
      vertex 3 3 8
      vertex 2.34045 3.65955 8
    endloop
  endfacet
  facet normal 0 0 1
    outer loop
      vertex 1.251 2.93158 8
      vertex 2.34045 3.65955 8
      vertex 1.86284 3.8088 8
    endloop
  endfacet
  facet normal 0 0 1
    outer loop
      vertex 3 3 8
      vertex 1.251 2.93158 8
      vertex 1.251 2.04499 8
    endloop
  endfacet
  facet normal 0 0 1
    outer loop
      vertex 3 3 8
      vertex 1.251 2.04499 8
      vertex 4.401 1.17875 8
    endloop
  endfacet
  facet normal 0 0 1
    outer loop
      vertex 6.001 1 8
      vertex 4.401 1.17875 8
      vertex 4.401 1 8
    endloop
  endfacet
  facet normal 0 0 1
    outer loop
      vertex 4.401 -1.17875 8
      vertex 6.001 -1 8
      vertex 4.401 -1 8
    endloop
  endfacet
  facet normal 0 0 1
    outer loop
      vertex 6.001 -1 8
      vertex 4.401 -1.17875 8
      vertex 6.001 -2.51562 8
    endloop
  endfacet
  facet normal 0 0 1
    outer loop
      vertex 4.401 -1.17875 8
      vertex 1.86284 -3.8088 8
      vertex 6.001 -2.51562 8
    endloop
  endfacet
  facet normal -0 0 1
    outer loop
      vertex 1.251 -2.04499 8
      vertex 1.86284 -3.8088 8
      vertex 4.401 -1.17875 8
    endloop
  endfacet
  facet normal 0 0 1
    outer loop
      vertex 1.86284 -3.8088 8
      vertex 1.251 -2.04499 8
      vertex 1.251 -2.93158 8
    endloop
  endfacet
  facet normal -2.22044e-16 -0 -1
    outer loop
      vertex 4.401 1.17875 3.55271e-16
      vertex 6 1 2.22045e-19
      vertex 4.401 1 3.55271e-16
    endloop
  endfacet
  facet normal -2.22044e-16 0 -1
    outer loop
      vertex 6 1 2.22045e-19
      vertex 4.401 1.17875 3.55271e-16
      vertex 6 2.51594 2.22045e-19
    endloop
  endfacet
  facet normal -2.22045e-16 1.78878e-22 -1
    outer loop
      vertex 4.401 1.17875 3.55271e-16
      vertex 1.86284 3.8088 9.18856e-16
      vertex 6 2.51594 2.22045e-19
    endloop
  endfacet
  facet normal -2.22044e-16 7.65323e-22 -1
    outer loop
      vertex 1.251 2.04499 1.05471e-15
      vertex 1.86284 3.8088 9.18856e-16
      vertex 4.401 1.17875 3.55271e-16
    endloop
  endfacet
  facet normal -2.22042e-16 0 -1
    outer loop
      vertex 1.86284 3.8088 9.18856e-16
      vertex 1.251 2.04499 1.05471e-15
      vertex 1.251 2.93158 1.05471e-15
    endloop
  endfacet
  facet normal -2.22044e-16 0 -1
    outer loop
      vertex 6 -2.51594 2.22045e-19
      vertex 4.401 -1.17875 3.55271e-16
      vertex 6 -1 2.22045e-19
    endloop
  endfacet
  facet normal -2.22045e-16 -1.78878e-22 -1
    outer loop
      vertex 1.86284 -3.8088 9.18856e-16
      vertex 4.401 -1.17875 3.55271e-16
      vertex 6 -2.51594 2.22045e-19
    endloop
  endfacet
  facet normal -2.22042e-16 -0 -1
    outer loop
      vertex 1.251 -2.04499 1.05471e-15
      vertex 1.86284 -3.8088 9.18856e-16
      vertex 1.251 -2.93158 1.05471e-15
    endloop
  endfacet
  facet normal -2.22044e-16 -7.65323e-22 -1
    outer loop
      vertex 1.86284 -3.8088 9.18856e-16
      vertex 1.251 -2.04499 1.05471e-15
      vertex 4.401 -1.17875 3.55271e-16
    endloop
  endfacet
  facet normal -2.22044e-16 0 -1
    outer loop
      vertex 6 -1 2.22045e-19
      vertex 4.401 -1.17875 3.55271e-16
      vertex 4.401 -1 3.55271e-16
    endloop
  endfacet
  facet normal -1 0 0
    outer loop
      vertex 6 -1 0
      vertex 6 -2.51594 2.22045e-19
      vertex 6 -1 2.22045e-19
    endloop
  endfacet
  facet normal -1 0 0
    outer loop
      vertex 6 -9 0
      vertex 6 -2.51594 2.22045e-19
      vertex 6 -1 0
    endloop
  endfacet
  facet normal -1 0 0
    outer loop
      vertex 6 -9 0
      vertex 6 -2.51594 8
      vertex 6 -2.51594 2.22045e-19
    endloop
  endfacet
  facet normal -1 -0 0
    outer loop
      vertex 6 -2.51594 8
      vertex 6 -9 0
      vertex 6 -9 8
    endloop
  endfacet
  facet normal -1 0 0
    outer loop
      vertex 6 8 0
      vertex 6 7.07107 8
      vertex 6 8 8
    endloop
  endfacet
  facet normal -1 0 0
    outer loop
      vertex 6 8 0
      vertex 6 6 8
      vertex 6 7.07107 8
    endloop
  endfacet
  facet normal -1 0 0
    outer loop
      vertex 6 8 0
      vertex 6 2.51594 2.22045e-19
      vertex 6 6 8
    endloop
  endfacet
  facet normal -1 0 0
    outer loop
      vertex 6 1 0
      vertex 6 2.51594 2.22045e-19
      vertex 6 8 0
    endloop
  endfacet
  facet normal -1 -0 0
    outer loop
      vertex 6 2.51594 2.22045e-19
      vertex 6 1 0
      vertex 6 1 2.22045e-19
    endloop
  endfacet
  facet normal -1 -0 0
    outer loop
      vertex 6 6 8
      vertex 6 2.51594 2.22045e-19
      vertex 6 2.51594 8
    endloop
  endfacet
  facet normal 0 0 1
    outer loop
      vertex 8 7 8
      vertex 6.001 2.51562 8
      vertex 6.5 1 8
    endloop
  endfacet
  facet normal 0 0 1
    outer loop
      vertex 8 7 8
      vertex 6 6 8
      vertex 6.001 2.51562 8
    endloop
  endfacet
  facet normal 0 0 1
    outer loop
      vertex 6.001 2.51562 8
      vertex 6 6 8
      vertex 6 2.51594 8
    endloop
  endfacet
  facet normal -0 0 1
    outer loop
      vertex 10 7 8
      vertex 11.5 -8 8
      vertex 11.5 8.5 8
    endloop
  endfacet
  facet normal -0 0 1
    outer loop
      vertex 10 -7.13397 8
      vertex 11.5 -8 8
      vertex 10 7 8
    endloop
  endfacet
  facet normal 0 0 1
    outer loop
      vertex 11.5 -8 8
      vertex 10 -7.13397 8
      vertex 11.4781 -8.20791 8
    endloop
  endfacet
  facet normal 0 0 1
    outer loop
      vertex 11.4135 -8.40674 8
      vertex 10 -7.13397 8
      vertex 11.309 -8.58778 8
    endloop
  endfacet
  facet normal 0 0 1
    outer loop
      vertex 11.309 -8.58778 8
      vertex 10 -7.13397 8
      vertex 11.1691 -8.74314 8
    endloop
  endfacet
  facet normal 0 0 1
    outer loop
      vertex 11.1691 -8.74314 8
      vertex 10 -7.13397 8
      vertex 11 -8.86602 8
    endloop
  endfacet
  facet normal 0 0 1
    outer loop
      vertex 11 -8.86602 8
      vertex 10 -7.13397 8
      vertex 10.809 -8.95106 8
    endloop
  endfacet
  facet normal 0 0 1
    outer loop
      vertex 10.809 -8.95106 8
      vertex 10 -7.13397 8
      vertex 10.6045 -8.99452 8
    endloop
  endfacet
  facet normal 0 0 1
    outer loop
      vertex 10.6045 -8.99452 8
      vertex 10 -7.13397 8
      vertex 10.3955 -8.99452 8
    endloop
  endfacet
  facet normal 0 0 1
    outer loop
      vertex 11.4781 -8.20791 8
      vertex 10 -7.13397 8
      vertex 11.4135 -8.40674 8
    endloop
  endfacet
  facet normal 0 0 1
    outer loop
      vertex 9.66913 7.74314 8
      vertex 11.5 8.5 8
      vertex 10 10 8
    endloop
  endfacet
  facet normal 0 0 1
    outer loop
      vertex 11.5 8.5 8
      vertex 9.97815 7.20791 8
      vertex 10 7 8
    endloop
  endfacet
  facet normal 0 0 1
    outer loop
      vertex 11.5 8.5 8
      vertex 9.91354 7.40674 8
      vertex 9.97815 7.20791 8
    endloop
  endfacet
  facet normal 0 0 1
    outer loop
      vertex 11.5 8.5 8
      vertex 9.80902 7.58778 8
      vertex 9.91354 7.40674 8
    endloop
  endfacet
  facet normal 0 0 1
    outer loop
      vertex 11.5 8.5 8
      vertex 9.66913 7.74314 8
      vertex 9.80902 7.58778 8
    endloop
  endfacet
  facet normal 0 0 1
    outer loop
      vertex 10 10 8
      vertex 9.5 7.86602 8
      vertex 9.66913 7.74314 8
    endloop
  endfacet
  facet normal 0 0 1
    outer loop
      vertex 10 10 8
      vertex 9.30902 7.95106 8
      vertex 9.5 7.86602 8
    endloop
  endfacet
  facet normal 0 0 1
    outer loop
      vertex 10 10 8
      vertex 9.10453 7.99452 8
      vertex 9.30902 7.95106 8
    endloop
  endfacet
  facet normal 0 0 1
    outer loop
      vertex 10 10 8
      vertex 8.89547 7.99452 8
      vertex 9.10453 7.99452 8
    endloop
  endfacet
  facet normal -0 0 1
    outer loop
      vertex 8 10 8
      vertex 8.89547 7.99452 8
      vertex 10 10 8
    endloop
  endfacet
  facet normal 0 0 1
    outer loop
      vertex 8.89547 7.99452 8
      vertex 8 10 8
      vertex 8.69098 7.95106 8
    endloop
  endfacet
  facet normal 0 0 1
    outer loop
      vertex 8.69098 7.95106 8
      vertex 8 10 8
      vertex 8.5 7.86602 8
    endloop
  endfacet
  facet normal 0 0 1
    outer loop
      vertex 8.5 7.86602 8
      vertex 8 10 8
      vertex 8.33087 7.74314 8
    endloop
  endfacet
  facet normal -0 0 1
    outer loop
      vertex 6 8 8
      vertex 8.33087 7.74314 8
      vertex 8 10 8
    endloop
  endfacet
  facet normal 0 0 1
    outer loop
      vertex 8.33087 7.74314 8
      vertex 6 8 8
      vertex 8.19098 7.58778 8
    endloop
  endfacet
  facet normal 0 0 1
    outer loop
      vertex 8.19098 7.58778 8
      vertex 6 8 8
      vertex 8.08645 7.40674 8
    endloop
  endfacet
  facet normal 0 0 1
    outer loop
      vertex 8.08645 7.40674 8
      vertex 6 8 8
      vertex 8.02185 7.20791 8
    endloop
  endfacet
  facet normal 0 0 1
    outer loop
      vertex 6 7.07107 8
      vertex 8.02185 7.20791 8
      vertex 6 8 8
    endloop
  endfacet
  facet normal 0 0 1
    outer loop
      vertex 8 7 8
      vertex 6.5 1 8
      vertex 8 -7.13397 8
    endloop
  endfacet
  facet normal -0 0 1
    outer loop
      vertex 6.5 -1 8
      vertex 8 -7.13397 8
      vertex 6.5 1 8
    endloop
  endfacet
  facet normal -0 0 1
    outer loop
      vertex 6 -2.51594 8
      vertex 8 -7.13397 8
      vertex 6.001 -2.51562 8
    endloop
  endfacet
  facet normal 0 0 1
    outer loop
      vertex 6 -9 8
      vertex 8 -7.13397 8
      vertex 6 -2.51594 8
    endloop
  endfacet
  facet normal -0 0 1
    outer loop
      vertex 6.001 -2.51562 8
      vertex 8 -7.13397 8
      vertex 6.5 -1 8
    endloop
  endfacet
  facet normal 0 0 1
    outer loop
      vertex 6 6 8
      vertex 8 7 8
      vertex 6.53553 6.53553 8
    endloop
  endfacet
  facet normal 0 0 1
    outer loop
      vertex 8.02185 7.20791 8
      vertex 6.53553 6.53553 8
      vertex 8 7 8
    endloop
  endfacet
  facet normal 0 0 1
    outer loop
      vertex 8.02185 7.20791 8
      vertex 6 7.07107 8
      vertex 6.53553 6.53553 8
    endloop
  endfacet
  facet normal 0 0 1
    outer loop
      vertex 10.3955 -8.99452 8
      vertex 10 -7.13397 8
      vertex 10.191 -8.95106 8
    endloop
  endfacet
  facet normal 0 0 1
    outer loop
      vertex 10 -7.13397 8
      vertex 10 -8.86602 8
      vertex 10.191 -8.95106 8
    endloop
  endfacet
  facet normal -0 0 1
    outer loop
      vertex 9.83087 -7.25686 8
      vertex 10 -8.86602 8
      vertex 10 -7.13397 8
    endloop
  endfacet
  facet normal 0 0 1
    outer loop
      vertex 9.83087 -7.25686 8
      vertex 9.83087 -8.74314 8
      vertex 10 -8.86602 8
    endloop
  endfacet
  facet normal -0 0 1
    outer loop
      vertex 9.69098 -7.41221 8
      vertex 9.83087 -8.74314 8
      vertex 9.83087 -7.25686 8
    endloop
  endfacet
  facet normal 0 0 1
    outer loop
      vertex 9.69098 -7.41221 8
      vertex 9.69098 -8.58778 8
      vertex 9.83087 -8.74314 8
    endloop
  endfacet
  facet normal -0 0 1
    outer loop
      vertex 9.58645 -7.59326 8
      vertex 9.69098 -8.58778 8
      vertex 9.69098 -7.41221 8
    endloop
  endfacet
  facet normal 0 0 1
    outer loop
      vertex 9.58645 -7.59326 8
      vertex 9.58645 -8.40674 8
      vertex 9.69098 -8.58778 8
    endloop
  endfacet
  facet normal -0 0 1
    outer loop
      vertex 9.52185 -7.79209 8
      vertex 9.58645 -8.40674 8
      vertex 9.58645 -7.59326 8
    endloop
  endfacet
  facet normal 0 0 1
    outer loop
      vertex 9.52185 -7.79209 8
      vertex 9.52185 -8.20791 8
      vertex 9.58645 -8.40674 8
    endloop
  endfacet
  facet normal 0 -0 1
    outer loop
      vertex 9.52185 -8.20791 8
      vertex 9.52185 -7.79209 8
      vertex 9.5 -8 8
    endloop
  endfacet
  facet normal 0 0 1
    outer loop
      vertex 8.47815 -7.79209 8
      vertex 8.47815 -8.20791 8
      vertex 8.5 -8 8
    endloop
  endfacet
  facet normal 0 0 1
    outer loop
      vertex 8.41354 -7.59326 8
      vertex 8.47815 -8.20791 8
      vertex 8.47815 -7.79209 8
    endloop
  endfacet
  facet normal 0 0 1
    outer loop
      vertex 8.41354 -7.59326 8
      vertex 8.41354 -8.40674 8
      vertex 8.47815 -8.20791 8
    endloop
  endfacet
  facet normal 0 0 1
    outer loop
      vertex 8.30902 -7.41221 8
      vertex 8.41354 -8.40674 8
      vertex 8.41354 -7.59326 8
    endloop
  endfacet
  facet normal 0 0 1
    outer loop
      vertex 8.30902 -7.41221 8
      vertex 8.30902 -8.58778 8
      vertex 8.41354 -8.40674 8
    endloop
  endfacet
  facet normal 0 0 1
    outer loop
      vertex 8.16913 -7.25686 8
      vertex 8.30902 -8.58778 8
      vertex 8.30902 -7.41221 8
    endloop
  endfacet
  facet normal 0 0 1
    outer loop
      vertex 8.16913 -7.25686 8
      vertex 8.16913 -8.74314 8
      vertex 8.30902 -8.58778 8
    endloop
  endfacet
  facet normal 0 0 1
    outer loop
      vertex 8 -7.13397 8
      vertex 8.16913 -8.74314 8
      vertex 8.16913 -7.25686 8
    endloop
  endfacet
  facet normal 0 0 1
    outer loop
      vertex 8.16913 -8.74314 8
      vertex 8 -7.13397 8
      vertex 8 -8.86602 8
    endloop
  endfacet
  facet normal 0 0 1
    outer loop
      vertex 8 -8.86602 8
      vertex 7.5 -8.99452 8
      vertex 7.80902 -8.95106 8
    endloop
  endfacet
  facet normal 0 0 1
    outer loop
      vertex 7.80902 -8.95106 8
      vertex 7.5 -8.99452 8
      vertex 7.60453 -8.99452 8
    endloop
  endfacet
  facet normal 0 0 1
    outer loop
      vertex 6.001 -2.51562 8
      vertex 6.5 -1 8
      vertex 6.001 -1 8
    endloop
  endfacet
  facet normal 0 0 1
    outer loop
      vertex 8 -7.13397 8
      vertex 7.5 -8.99452 8
      vertex 8 -8.86602 8
    endloop
  endfacet
  facet normal 0 0 1
    outer loop
      vertex 8 -7.13397 8
      vertex 6 -9 8
      vertex 7.5 -8.99452 8
    endloop
  endfacet
  facet normal 0 0 1
    outer loop
      vertex 7.5 -8.99452 8
      vertex 6 -9 8
      vertex 7.5 -9 8
    endloop
  endfacet
  facet normal 0 0 1
    outer loop
      vertex 6.5 1 8
      vertex 6.001 2.51562 8
      vertex 6.001 1 8
    endloop
  endfacet
  facet normal 0 0 1
    outer loop
      vertex 3.34548 3.34548 8
      vertex 2.34045 3.65955 8
      vertex 3 3 8
    endloop
  endfacet
  facet normal 0 0 1
    outer loop
      vertex 6 7.07107 8
      vertex 6 6 8
      vertex 6.53553 6.53553 8
    endloop
  endfacet
  facet normal 1 -0 0
    outer loop
      vertex 11.5 -8 8
      vertex 11.5 8.5 0
      vertex 11.5 8.5 8
    endloop
  endfacet
  facet normal 1 0 0
    outer loop
      vertex 11.5 8.5 0
      vertex 11.5 -8 8
      vertex 11.5 -8 0
    endloop
  endfacet
  facet normal 0 0 -1
    outer loop
      vertex 6 -9 0
      vertex 7.5 -8.99452 0
      vertex 7.5 -9 0
    endloop
  endfacet
  facet normal -0 0 -1
    outer loop
      vertex 7.5 -8.99452 0
      vertex 6 -9 0
      vertex 6.5 -1 0
    endloop
  endfacet
  facet normal -0 0 -1
    outer loop
      vertex 6.5 -1 0
      vertex 6 -9 0
      vertex 6 -1 0
    endloop
  endfacet
  facet normal 0 0 -1
    outer loop
      vertex 8.47815 -8.20791 0
      vertex 8.47815 -7.79209 0
      vertex 8.5 -8 0
    endloop
  endfacet
  facet normal 0 0 -1
    outer loop
      vertex 8.41354 -8.40674 0
      vertex 8.47815 -7.79209 0
      vertex 8.47815 -8.20791 0
    endloop
  endfacet
  facet normal 0 0 -1
    outer loop
      vertex 8.41354 -8.40674 0
      vertex 8.41354 -7.59326 0
      vertex 8.47815 -7.79209 0
    endloop
  endfacet
  facet normal 0 0 -1
    outer loop
      vertex 8.30902 -8.58778 0
      vertex 8.41354 -7.59326 0
      vertex 8.41354 -8.40674 0
    endloop
  endfacet
  facet normal 0 0 -1
    outer loop
      vertex 8.30902 -8.58778 0
      vertex 8.30902 -7.41221 0
      vertex 8.41354 -7.59326 0
    endloop
  endfacet
  facet normal 0 0 -1
    outer loop
      vertex 8.16913 -8.74314 0
      vertex 8.30902 -7.41221 0
      vertex 8.30902 -8.58778 0
    endloop
  endfacet
  facet normal 0 0 -1
    outer loop
      vertex 8.16913 -8.74314 0
      vertex 8.16913 -7.25686 0
      vertex 8.30902 -7.41221 0
    endloop
  endfacet
  facet normal 0 0 -1
    outer loop
      vertex 8 -8.86602 0
      vertex 8.16913 -7.25686 0
      vertex 8.16913 -8.74314 0
    endloop
  endfacet
  facet normal 0 0 -1
    outer loop
      vertex 8 -8.86602 0
      vertex 8 -7.13397 0
      vertex 8.16913 -7.25686 0
    endloop
  endfacet
  facet normal 0 0 -1
    outer loop
      vertex 7.5 -8.99452 0
      vertex 8 -7.13397 0
      vertex 8 -8.86602 0
    endloop
  endfacet
  facet normal 0 0 -1
    outer loop
      vertex 8 -7.13397 0
      vertex 6.5 -1 0
      vertex 8 7 0
    endloop
  endfacet
  facet normal 0 0 -1
    outer loop
      vertex 7.5 -8.99452 0
      vertex 8 -8.86602 0
      vertex 7.80902 -8.95106 0
    endloop
  endfacet
  facet normal 0 0 -1
    outer loop
      vertex 7.5 -8.99452 0
      vertex 7.80902 -8.95106 0
      vertex 7.60453 -8.99452 0
    endloop
  endfacet
  facet normal -0 0 -1
    outer loop
      vertex 8 -7.13397 0
      vertex 7.5 -8.99452 0
      vertex 6.5 -1 0
    endloop
  endfacet
  facet normal 0 0 -1
    outer loop
      vertex 8 7 0
      vertex 6.5 -1 0
      vertex 6.5 1 0
    endloop
  endfacet
  facet normal 0 0 -1
    outer loop
      vertex 6 1 0
      vertex 8 7 0
      vertex 6.5 1 0
    endloop
  endfacet
  facet normal -0 0 -1
    outer loop
      vertex 8 7 0
      vertex 6 1 0
      vertex 6 8 0
    endloop
  endfacet
  facet normal 0 0 -1
    outer loop
      vertex 8 7 0
      vertex 6 8 0
      vertex 8 10 0
    endloop
  endfacet
  facet normal 0 0 -1
    outer loop
      vertex 9.83087 -8.74314 0
      vertex 10 -7.13397 0
      vertex 10 -8.86602 0
    endloop
  endfacet
  facet normal 0 0 -1
    outer loop
      vertex 9.83087 -8.74314 0
      vertex 9.83087 -7.25686 0
      vertex 10 -7.13397 0
    endloop
  endfacet
  facet normal 0 0 -1
    outer loop
      vertex 9.69098 -8.58778 0
      vertex 9.83087 -7.25686 0
      vertex 9.83087 -8.74314 0
    endloop
  endfacet
  facet normal 0 0 -1
    outer loop
      vertex 9.69098 -8.58778 0
      vertex 9.69098 -7.41221 0
      vertex 9.83087 -7.25686 0
    endloop
  endfacet
  facet normal 0 0 -1
    outer loop
      vertex 9.58645 -8.40674 0
      vertex 9.69098 -7.41221 0
      vertex 9.69098 -8.58778 0
    endloop
  endfacet
  facet normal 0 0 -1
    outer loop
      vertex 9.58645 -8.40674 0
      vertex 9.58645 -7.59326 0
      vertex 9.69098 -7.41221 0
    endloop
  endfacet
  facet normal 0 0 -1
    outer loop
      vertex 9.52185 -8.20791 0
      vertex 9.58645 -7.59326 0
      vertex 9.58645 -8.40674 0
    endloop
  endfacet
  facet normal 0 0 -1
    outer loop
      vertex 9.52185 -8.20791 0
      vertex 9.52185 -7.79209 0
      vertex 9.58645 -7.59326 0
    endloop
  endfacet
  facet normal 0 -0 -1
    outer loop
      vertex 9.52185 -7.79209 0
      vertex 9.52185 -8.20791 0
      vertex 9.5 -8 0
    endloop
  endfacet
  facet normal 0 0 -1
    outer loop
      vertex 10 -7.13397 0
      vertex 11.5 -8 0
      vertex 11.4781 -8.20791 0
    endloop
  endfacet
  facet normal 0 0 -1
    outer loop
      vertex 10 -7.13397 0
      vertex 11.4781 -8.20791 0
      vertex 11.4135 -8.40674 0
    endloop
  endfacet
  facet normal 0 0 -1
    outer loop
      vertex 10 -7.13397 0
      vertex 11.4135 -8.40674 0
      vertex 11.309 -8.58778 0
    endloop
  endfacet
  facet normal 0 0 -1
    outer loop
      vertex 10 -7.13397 0
      vertex 11.309 -8.58778 0
      vertex 11.1691 -8.74314 0
    endloop
  endfacet
  facet normal 0 0 -1
    outer loop
      vertex 10 -7.13397 0
      vertex 11.1691 -8.74314 0
      vertex 11 -8.86602 0
    endloop
  endfacet
  facet normal 0 0 -1
    outer loop
      vertex 10 -7.13397 0
      vertex 11 -8.86602 0
      vertex 10.809 -8.95106 0
    endloop
  endfacet
  facet normal 0 0 -1
    outer loop
      vertex 10 -7.13397 0
      vertex 10.809 -8.95106 0
      vertex 10.6045 -8.99452 0
    endloop
  endfacet
  facet normal 0 0 -1
    outer loop
      vertex 10 -7.13397 0
      vertex 10.6045 -8.99452 0
      vertex 10.3955 -8.99452 0
    endloop
  endfacet
  facet normal 0 0 -1
    outer loop
      vertex 10 -7.13397 0
      vertex 10.3955 -8.99452 0
      vertex 10.191 -8.95106 0
    endloop
  endfacet
  facet normal 0 0 -1
    outer loop
      vertex 10 -7.13397 0
      vertex 10.191 -8.95106 0
      vertex 10 -8.86602 0
    endloop
  endfacet
  facet normal 0 0 -1
    outer loop
      vertex 11.5 -8 0
      vertex 10 -7.13397 0
      vertex 10 7 0
    endloop
  endfacet
  facet normal 0 0 -1
    outer loop
      vertex 11.5 -8 0
      vertex 10 7 0
      vertex 11.5 8.5 0
    endloop
  endfacet
  facet normal 0 0 -1
    outer loop
      vertex 9.97815 7.20791 0
      vertex 11.5 8.5 0
      vertex 10 7 0
    endloop
  endfacet
  facet normal 0 0 -1
    outer loop
      vertex 9.91354 7.40674 0
      vertex 11.5 8.5 0
      vertex 9.97815 7.20791 0
    endloop
  endfacet
  facet normal 0 0 -1
    outer loop
      vertex 9.80902 7.58778 0
      vertex 11.5 8.5 0
      vertex 9.91354 7.40674 0
    endloop
  endfacet
  facet normal 0 0 -1
    outer loop
      vertex 9.66913 7.74314 0
      vertex 11.5 8.5 0
      vertex 9.80902 7.58778 0
    endloop
  endfacet
  facet normal -0 0 -1
    outer loop
      vertex 11.5 8.5 0
      vertex 9.66913 7.74314 0
      vertex 10 10 0
    endloop
  endfacet
  facet normal 0 0 -1
    outer loop
      vertex 9.5 7.86602 0
      vertex 10 10 0
      vertex 9.66913 7.74314 0
    endloop
  endfacet
  facet normal 0 0 -1
    outer loop
      vertex 9.30902 7.95106 0
      vertex 10 10 0
      vertex 9.5 7.86602 0
    endloop
  endfacet
  facet normal 0 0 -1
    outer loop
      vertex 9.10453 7.99452 0
      vertex 10 10 0
      vertex 9.30902 7.95106 0
    endloop
  endfacet
  facet normal 0 0 -1
    outer loop
      vertex 8.89547 7.99452 0
      vertex 10 10 0
      vertex 9.10453 7.99452 0
    endloop
  endfacet
  facet normal 0 0 -1
    outer loop
      vertex 8 10 0
      vertex 8.89547 7.99452 0
      vertex 8.69098 7.95106 0
    endloop
  endfacet
  facet normal 0 0 -1
    outer loop
      vertex 8 10 0
      vertex 8.69098 7.95106 0
      vertex 8.5 7.86602 0
    endloop
  endfacet
  facet normal 0 0 -1
    outer loop
      vertex 8 10 0
      vertex 8.5 7.86602 0
      vertex 8.33087 7.74314 0
    endloop
  endfacet
  facet normal 0 0 -1
    outer loop
      vertex 8 10 0
      vertex 8.33087 7.74314 0
      vertex 8.19098 7.58778 0
    endloop
  endfacet
  facet normal 0 0 -1
    outer loop
      vertex 8.89547 7.99452 0
      vertex 8 10 0
      vertex 10 10 0
    endloop
  endfacet
  facet normal 0 0 -1
    outer loop
      vertex 8.08645 7.40674 0
      vertex 8 10 0
      vertex 8.19098 7.58778 0
    endloop
  endfacet
  facet normal 0 0 -1
    outer loop
      vertex 8.02185 7.20791 0
      vertex 8 10 0
      vertex 8.08645 7.40674 0
    endloop
  endfacet
  facet normal 0 0 -1
    outer loop
      vertex 8 10 0
      vertex 8.02185 7.20791 0
      vertex 8 7 0
    endloop
  endfacet
  facet normal 0 1 -0
    outer loop
      vertex 10 10 0
      vertex 8 10 8
      vertex 10 10 8
    endloop
  endfacet
  facet normal 0 1 0
    outer loop
      vertex 8 10 8
      vertex 10 10 0
      vertex 8 10 0
    endloop
  endfacet
  facet normal 1 -0 0
    outer loop
      vertex 7.5 -9 8
      vertex 7.5 -8.99452 0
      vertex 7.5 -8.99452 8
    endloop
  endfacet
  facet normal 1 0 0
    outer loop
      vertex 7.5 -8.99452 0
      vertex 7.5 -9 8
      vertex 7.5 -9 0
    endloop
  endfacet
  facet normal 0 -1 0
    outer loop
      vertex 6 -9 0
      vertex 7.5 -9 8
      vertex 6 -9 8
    endloop
  endfacet
  facet normal 0 -1 -0
    outer loop
      vertex 7.5 -9 8
      vertex 6 -9 0
      vertex 7.5 -9 0
    endloop
  endfacet
  facet normal 1 -0 0
    outer loop
      vertex 8 -7.13397 8
      vertex 8 7 0
      vertex 8 7 8
    endloop
  endfacet
  facet normal 1 0 0
    outer loop
      vertex 8 7 0
      vertex 8 -7.13397 8
      vertex 8 -7.13397 0
    endloop
  endfacet
  facet normal -1 0 0
    outer loop
      vertex 10 -7.13397 0
      vertex 10 7 8
      vertex 10 7 0
    endloop
  endfacet
  facet normal -1 -0 0
    outer loop
      vertex 10 7 8
      vertex 10 -7.13397 0
      vertex 10 -7.13397 8
    endloop
  endfacet
  facet normal -0.866033 -0.499987 0
    outer loop
      vertex 9.91354 7.40674 0
      vertex 9.80902 7.58778 8
      vertex 9.80902 7.58778 0
    endloop
  endfacet
  facet normal -0.866033 -0.499987 0
    outer loop
      vertex 9.80902 7.58778 8
      vertex 9.91354 7.40674 0
      vertex 9.91354 7.40674 8
    endloop
  endfacet
  facet normal 0.994523 -0.104518 0
    outer loop
      vertex 8 7 8
      vertex 8.02185 7.20791 0
      vertex 8.02185 7.20791 8
    endloop
  endfacet
  facet normal 0.994523 -0.104518 0
    outer loop
      vertex 8.02185 7.20791 0
      vertex 8 7 8
      vertex 8 7 0
    endloop
  endfacet
  facet normal -0.743137 -0.669139 0
    outer loop
      vertex 9.80902 7.58778 0
      vertex 9.66913 7.74314 8
      vertex 9.66913 7.74314 0
    endloop
  endfacet
  facet normal -0.743137 -0.669139 0
    outer loop
      vertex 9.66913 7.74314 8
      vertex 9.80902 7.58778 0
      vertex 9.80902 7.58778 8
    endloop
  endfacet
  facet normal 0 -1 0
    outer loop
      vertex 8.89547 7.99452 0
      vertex 9.10453 7.99452 8
      vertex 8.89547 7.99452 8
    endloop
  endfacet
  facet normal 0 -1 -0
    outer loop
      vertex 9.10453 7.99452 8
      vertex 8.89547 7.99452 0
      vertex 9.10453 7.99452 0
    endloop
  endfacet
  facet normal -0.207886 -0.978153 0
    outer loop
      vertex 9.10453 7.99452 0
      vertex 9.30902 7.95106 8
      vertex 9.10453 7.99452 8
    endloop
  endfacet
  facet normal -0.207886 -0.978153 -0
    outer loop
      vertex 9.30902 7.95106 8
      vertex 9.10453 7.99452 0
      vertex 9.30902 7.95106 0
    endloop
  endfacet
  facet normal 0.587785 -0.809017 0
    outer loop
      vertex 8.33087 7.74314 0
      vertex 8.5 7.86602 8
      vertex 8.33087 7.74314 8
    endloop
  endfacet
  facet normal 0.587785 -0.809017 0
    outer loop
      vertex 8.5 7.86602 8
      vertex 8.33087 7.74314 0
      vertex 8.5 7.86602 0
    endloop
  endfacet
  facet normal -0.587785 -0.809017 0
    outer loop
      vertex 9.5 7.86602 0
      vertex 9.66913 7.74314 8
      vertex 9.5 7.86602 8
    endloop
  endfacet
  facet normal -0.587785 -0.809017 -0
    outer loop
      vertex 9.66913 7.74314 8
      vertex 9.5 7.86602 0
      vertex 9.66913 7.74314 0
    endloop
  endfacet
  facet normal 0.207886 -0.978153 0
    outer loop
      vertex 8.69098 7.95106 0
      vertex 8.89547 7.99452 8
      vertex 8.69098 7.95106 8
    endloop
  endfacet
  facet normal 0.207886 -0.978153 0
    outer loop
      vertex 8.89547 7.99452 8
      vertex 8.69098 7.95106 0
      vertex 8.89547 7.99452 0
    endloop
  endfacet
  facet normal -0.406777 -0.913527 0
    outer loop
      vertex 9.30902 7.95106 0
      vertex 9.5 7.86602 8
      vertex 9.30902 7.95106 8
    endloop
  endfacet
  facet normal -0.406777 -0.913527 -0
    outer loop
      vertex 9.5 7.86602 8
      vertex 9.30902 7.95106 0
      vertex 9.5 7.86602 0
    endloop
  endfacet
  facet normal 0.951062 -0.309001 0
    outer loop
      vertex 8.02185 7.20791 8
      vertex 8.08645 7.40674 0
      vertex 8.08645 7.40674 8
    endloop
  endfacet
  facet normal 0.951062 -0.309001 0
    outer loop
      vertex 8.08645 7.40674 0
      vertex 8.02185 7.20791 8
      vertex 8.02185 7.20791 0
    endloop
  endfacet
  facet normal 0.743137 -0.669139 0
    outer loop
      vertex 8.19098 7.58778 8
      vertex 8.33087 7.74314 0
      vertex 8.33087 7.74314 8
    endloop
  endfacet
  facet normal 0.743137 -0.669139 0
    outer loop
      vertex 8.33087 7.74314 0
      vertex 8.19098 7.58778 8
      vertex 8.19098 7.58778 0
    endloop
  endfacet
  facet normal 0.406777 -0.913527 0
    outer loop
      vertex 8.5 7.86602 0
      vertex 8.69098 7.95106 8
      vertex 8.5 7.86602 8
    endloop
  endfacet
  facet normal 0.406777 -0.913527 0
    outer loop
      vertex 8.69098 7.95106 8
      vertex 8.5 7.86602 0
      vertex 8.69098 7.95106 0
    endloop
  endfacet
  facet normal 0.866012 -0.500023 0
    outer loop
      vertex 8.08645 7.40674 8
      vertex 8.19098 7.58778 0
      vertex 8.19098 7.58778 8
    endloop
  endfacet
  facet normal 0.866012 -0.500023 0
    outer loop
      vertex 8.19098 7.58778 0
      vertex 8.08645 7.40674 8
      vertex 8.08645 7.40674 0
    endloop
  endfacet
  facet normal -0.994523 -0.104518 0
    outer loop
      vertex 10 7 0
      vertex 9.97815 7.20791 8
      vertex 9.97815 7.20791 0
    endloop
  endfacet
  facet normal -0.994523 -0.104518 0
    outer loop
      vertex 9.97815 7.20791 8
      vertex 10 7 0
      vertex 10 7 8
    endloop
  endfacet
  facet normal -0.951048 -0.309044 0
    outer loop
      vertex 9.97815 7.20791 0
      vertex 9.91354 7.40674 8
      vertex 9.91354 7.40674 0
    endloop
  endfacet
  facet normal -0.951048 -0.309044 0
    outer loop
      vertex 9.91354 7.40674 8
      vertex 9.97815 7.20791 0
      vertex 9.97815 7.20791 8
    endloop
  endfacet
  facet normal -0.707107 0.707107 0
    outer loop
      vertex 6 8 0
      vertex 8 10 8
      vertex 8 10 0
    endloop
  endfacet
  facet normal -0.707107 0.707107 0
    outer loop
      vertex 8 10 8
      vertex 6 8 0
      vertex 6 8 8
    endloop
  endfacet
  facet normal 0.707107 0.707107 -0
    outer loop
      vertex 11.5 8.5 0
      vertex 10 10 8
      vertex 11.5 8.5 8
    endloop
  endfacet
  facet normal 0.707107 0.707107 0
    outer loop
      vertex 10 10 8
      vertex 11.5 8.5 0
      vertex 10 10 0
    endloop
  endfacet
  facet normal -1 0 0
    outer loop
      vertex 6.5 -1 0
      vertex 6.5 1 8
      vertex 6.5 1 0
    endloop
  endfacet
  facet normal -1 -0 0
    outer loop
      vertex 6.5 1 8
      vertex 6.5 -1 0
      vertex 6.5 -1 8
    endloop
  endfacet
  facet normal 0 -1 0
    outer loop
      vertex 6 1 2.22045e-19
      vertex 6.001 1 8
      vertex 4.401 1 8
    endloop
  endfacet
  facet normal 0 -1 0
    outer loop
      vertex 6 1 2.22045e-19
      vertex 4.401 1 8
      vertex 4.401 1 3.55271e-16
    endloop
  endfacet
  facet normal 0 -1 -0
    outer loop
      vertex 6.001 1 8
      vertex 6 1 2.22045e-19
      vertex 6.5 1 8
    endloop
  endfacet
  facet normal 0 -1 0
    outer loop
      vertex 6.5 1 0
      vertex 6 1 2.22045e-19
      vertex 6 1 0
    endloop
  endfacet
  facet normal 0 -1 0
    outer loop
      vertex 6 1 2.22045e-19
      vertex 6.5 1 0
      vertex 6.5 1 8
    endloop
  endfacet
  facet normal 0 1 0
    outer loop
      vertex 6 -1 2.22045e-19
      vertex 6.001 -1 8
      vertex 6.5 -1 8
    endloop
  endfacet
  facet normal 0 1 0
    outer loop
      vertex 6.001 -1 8
      vertex 6 -1 2.22045e-19
      vertex 4.401 -1 8
    endloop
  endfacet
  facet normal 0 1 0
    outer loop
      vertex 4.401 -1 8
      vertex 6 -1 2.22045e-19
      vertex 4.401 -1 3.55271e-16
    endloop
  endfacet
  facet normal 0 1 -0
    outer loop
      vertex 6.5 -1 0
      vertex 6 -1 2.22045e-19
      vertex 6.5 -1 8
    endloop
  endfacet
  facet normal 0 1 0
    outer loop
      vertex 6 -1 2.22045e-19
      vertex 6.5 -1 0
      vertex 6 -1 0
    endloop
  endfacet
  facet normal 0.994523 0.104518 0
    outer loop
      vertex 8.5 -8 8
      vertex 8.47815 -7.79209 0
      vertex 8.47815 -7.79209 8
    endloop
  endfacet
  facet normal 0.994523 0.104518 0
    outer loop
      vertex 8.47815 -7.79209 0
      vertex 8.5 -8 8
      vertex 8.5 -8 0
    endloop
  endfacet
  facet normal 0.587816 0.808995 -0
    outer loop
      vertex 8.16913 -7.25686 0
      vertex 8 -7.13397 8
      vertex 8.16913 -7.25686 8
    endloop
  endfacet
  facet normal 0.587816 0.808995 0
    outer loop
      vertex 8 -7.13397 8
      vertex 8.16913 -7.25686 0
      vertex 8 -7.13397 0
    endloop
  endfacet
  facet normal 0.866045 0.499967 0
    outer loop
      vertex 8.41354 -7.59326 8
      vertex 8.30902 -7.41221 0
      vertex 8.30902 -7.41221 8
    endloop
  endfacet
  facet normal 0.866045 0.499967 0
    outer loop
      vertex 8.30902 -7.41221 0
      vertex 8.41354 -7.59326 8
      vertex 8.41354 -7.59326 0
    endloop
  endfacet
  facet normal 0.951048 0.309044 0
    outer loop
      vertex 8.47815 -7.79209 8
      vertex 8.41354 -7.59326 0
      vertex 8.41354 -7.59326 8
    endloop
  endfacet
  facet normal 0.951048 0.309044 0
    outer loop
      vertex 8.41354 -7.59326 0
      vertex 8.47815 -7.79209 8
      vertex 8.47815 -7.79209 0
    endloop
  endfacet
  facet normal 0.743116 0.669163 0
    outer loop
      vertex 8.30902 -7.41221 8
      vertex 8.16913 -7.25686 0
      vertex 8.16913 -7.25686 8
    endloop
  endfacet
  facet normal 0.743116 0.669163 0
    outer loop
      vertex 8.16913 -7.25686 0
      vertex 8.30902 -7.41221 8
      vertex 8.30902 -7.41221 0
    endloop
  endfacet
  facet normal 0.994523 -0.104518 0
    outer loop
      vertex 8.47815 -8.20791 8
      vertex 8.5 -8 0
      vertex 8.5 -8 8
    endloop
  endfacet
  facet normal 0.994523 -0.104518 0
    outer loop
      vertex 8.5 -8 0
      vertex 8.47815 -8.20791 8
      vertex 8.47815 -8.20791 0
    endloop
  endfacet
  facet normal 0 -1 0
    outer loop
      vertex 7.5 -8.99452 0
      vertex 7.60453 -8.99452 8
      vertex 7.5 -8.99452 8
    endloop
  endfacet
  facet normal 0 -1 -0
    outer loop
      vertex 7.60453 -8.99452 8
      vertex 7.5 -8.99452 0
      vertex 7.60453 -8.99452 0
    endloop
  endfacet
  facet normal 0.743137 -0.669139 0
    outer loop
      vertex 8.16913 -8.74314 8
      vertex 8.30902 -8.58778 0
      vertex 8.30902 -8.58778 8
    endloop
  endfacet
  facet normal 0.743137 -0.669139 0
    outer loop
      vertex 8.30902 -8.58778 0
      vertex 8.16913 -8.74314 8
      vertex 8.16913 -8.74314 0
    endloop
  endfacet
  facet normal 0.406777 -0.913527 0
    outer loop
      vertex 7.80902 -8.95106 0
      vertex 8 -8.86602 8
      vertex 7.80902 -8.95106 8
    endloop
  endfacet
  facet normal 0.406777 -0.913527 0
    outer loop
      vertex 8 -8.86602 8
      vertex 7.80902 -8.95106 0
      vertex 8 -8.86602 0
    endloop
  endfacet
  facet normal 0.951048 -0.309044 0
    outer loop
      vertex 8.41354 -8.40674 8
      vertex 8.47815 -8.20791 0
      vertex 8.47815 -8.20791 8
    endloop
  endfacet
  facet normal 0.951048 -0.309044 0
    outer loop
      vertex 8.47815 -8.20791 0
      vertex 8.41354 -8.40674 8
      vertex 8.41354 -8.40674 0
    endloop
  endfacet
  facet normal 0.866033 -0.499987 0
    outer loop
      vertex 8.30902 -8.58778 8
      vertex 8.41354 -8.40674 0
      vertex 8.41354 -8.40674 8
    endloop
  endfacet
  facet normal 0.866033 -0.499987 0
    outer loop
      vertex 8.41354 -8.40674 0
      vertex 8.30902 -8.58778 8
      vertex 8.30902 -8.58778 0
    endloop
  endfacet
  facet normal 0.207886 -0.978153 0
    outer loop
      vertex 7.60453 -8.99452 0
      vertex 7.80902 -8.95106 8
      vertex 7.60453 -8.99452 8
    endloop
  endfacet
  facet normal 0.207886 -0.978153 0
    outer loop
      vertex 7.80902 -8.95106 8
      vertex 7.60453 -8.99452 0
      vertex 7.80902 -8.95106 0
    endloop
  endfacet
  facet normal 0.587785 -0.809017 0
    outer loop
      vertex 8 -8.86602 0
      vertex 8.16913 -8.74314 8
      vertex 8 -8.86602 8
    endloop
  endfacet
  facet normal 0.587785 -0.809017 0
    outer loop
      vertex 8.16913 -8.74314 8
      vertex 8 -8.86602 0
      vertex 8.16913 -8.74314 0
    endloop
  endfacet
  facet normal -0.866024 0.500003 0
    outer loop
      vertex 9.58645 -7.59326 0
      vertex 9.69098 -7.41221 8
      vertex 9.69098 -7.41221 0
    endloop
  endfacet
  facet normal -0.866024 0.500003 0
    outer loop
      vertex 9.69098 -7.41221 8
      vertex 9.58645 -7.59326 0
      vertex 9.58645 -7.59326 8
    endloop
  endfacet
  facet normal -0.951062 0.309001 0
    outer loop
      vertex 9.52185 -7.79209 0
      vertex 9.58645 -7.59326 8
      vertex 9.58645 -7.59326 0
    endloop
  endfacet
  facet normal -0.951062 0.309001 0
    outer loop
      vertex 9.58645 -7.59326 8
      vertex 9.52185 -7.79209 0
      vertex 9.52185 -7.79209 8
    endloop
  endfacet
  facet normal -0.587816 0.808995 0
    outer loop
      vertex 10 -7.13397 0
      vertex 9.83087 -7.25686 8
      vertex 10 -7.13397 8
    endloop
  endfacet
  facet normal -0.587816 0.808995 0
    outer loop
      vertex 9.83087 -7.25686 8
      vertex 10 -7.13397 0
      vertex 9.83087 -7.25686 0
    endloop
  endfacet
  facet normal -0.994523 0.104518 0
    outer loop
      vertex 9.5 -8 0
      vertex 9.52185 -7.79209 8
      vertex 9.52185 -7.79209 0
    endloop
  endfacet
  facet normal -0.994523 0.104518 0
    outer loop
      vertex 9.52185 -7.79209 8
      vertex 9.5 -8 0
      vertex 9.5 -8 8
    endloop
  endfacet
  facet normal -0.743116 0.669163 0
    outer loop
      vertex 9.69098 -7.41221 0
      vertex 9.83087 -7.25686 8
      vertex 9.83087 -7.25686 0
    endloop
  endfacet
  facet normal -0.743116 0.669163 0
    outer loop
      vertex 9.83087 -7.25686 8
      vertex 9.69098 -7.41221 0
      vertex 9.69098 -7.41221 8
    endloop
  endfacet
  facet normal 0.994498 -0.104755 0
    outer loop
      vertex 11.4781 -8.20791 8
      vertex 11.5 -8 0
      vertex 11.5 -8 8
    endloop
  endfacet
  facet normal 0.994498 -0.104755 0
    outer loop
      vertex 11.5 -8 0
      vertex 11.4781 -8.20791 8
      vertex 11.4781 -8.20791 0
    endloop
  endfacet
  facet normal 0 -1 0
    outer loop
      vertex 10.3955 -8.99452 0
      vertex 10.6045 -8.99452 8
      vertex 10.3955 -8.99452 8
    endloop
  endfacet
  facet normal 0 -1 -0
    outer loop
      vertex 10.6045 -8.99452 8
      vertex 10.3955 -8.99452 0
      vertex 10.6045 -8.99452 0
    endloop
  endfacet
  facet normal -0.994523 -0.104518 0
    outer loop
      vertex 9.52185 -8.20791 0
      vertex 9.5 -8 8
      vertex 9.5 -8 0
    endloop
  endfacet
  facet normal -0.994523 -0.104518 0
    outer loop
      vertex 9.5 -8 8
      vertex 9.52185 -8.20791 0
      vertex 9.52185 -8.20791 8
    endloop
  endfacet
  facet normal 0.743113 -0.669166 0
    outer loop
      vertex 11.1691 -8.74314 8
      vertex 11.309 -8.58778 0
      vertex 11.309 -8.58778 8
    endloop
  endfacet
  facet normal 0.743113 -0.669166 0
    outer loop
      vertex 11.309 -8.58778 0
      vertex 11.1691 -8.74314 8
      vertex 11.1691 -8.74314 0
    endloop
  endfacet
  facet normal -0.743137 -0.669139 0
    outer loop
      vertex 9.83087 -8.74314 0
      vertex 9.69098 -8.58778 8
      vertex 9.69098 -8.58778 0
    endloop
  endfacet
  facet normal -0.743137 -0.669139 0
    outer loop
      vertex 9.69098 -8.58778 8
      vertex 9.83087 -8.74314 0
      vertex 9.83087 -8.74314 8
    endloop
  endfacet
  facet normal -0.951062 -0.309001 0
    outer loop
      vertex 9.58645 -8.40674 0
      vertex 9.52185 -8.20791 8
      vertex 9.52185 -8.20791 0
    endloop
  endfacet
  facet normal -0.951062 -0.309001 0
    outer loop
      vertex 9.52185 -8.20791 8
      vertex 9.58645 -8.40674 0
      vertex 9.58645 -8.40674 8
    endloop
  endfacet
  facet normal -0.866012 -0.500023 0
    outer loop
      vertex 9.69098 -8.58778 0
      vertex 9.58645 -8.40674 8
      vertex 9.58645 -8.40674 0
    endloop
  endfacet
  facet normal -0.866012 -0.500023 0
    outer loop
      vertex 9.58645 -8.40674 8
      vertex 9.69098 -8.58778 0
      vertex 9.69098 -8.58778 8
    endloop
  endfacet
  facet normal 0.406742 -0.913543 0
    outer loop
      vertex 10.809 -8.95106 0
      vertex 11 -8.86602 8
      vertex 10.809 -8.95106 8
    endloop
  endfacet
  facet normal 0.406742 -0.913543 0
    outer loop
      vertex 11 -8.86602 8
      vertex 10.809 -8.95106 0
      vertex 11 -8.86602 0
    endloop
  endfacet
  facet normal 0.951062 -0.309001 0
    outer loop
      vertex 11.4135 -8.40674 8
      vertex 11.4781 -8.20791 0
      vertex 11.4781 -8.20791 8
    endloop
  endfacet
  facet normal 0.951062 -0.309001 0
    outer loop
      vertex 11.4781 -8.20791 0
      vertex 11.4135 -8.40674 8
      vertex 11.4135 -8.40674 0
    endloop
  endfacet
  facet normal 0.866074 -0.499916 0
    outer loop
      vertex 11.309 -8.58778 8
      vertex 11.4135 -8.40674 0
      vertex 11.4135 -8.40674 8
    endloop
  endfacet
  facet normal 0.866074 -0.499916 0
    outer loop
      vertex 11.4135 -8.40674 0
      vertex 11.309 -8.58778 8
      vertex 11.309 -8.58778 0
    endloop
  endfacet
  facet normal 0.207876 -0.978155 0
    outer loop
      vertex 10.6045 -8.99452 0
      vertex 10.809 -8.95106 8
      vertex 10.6045 -8.99452 8
    endloop
  endfacet
  facet normal 0.207876 -0.978155 0
    outer loop
      vertex 10.809 -8.95106 8
      vertex 10.6045 -8.99452 0
      vertex 10.809 -8.95106 0
    endloop
  endfacet
  facet normal -0.406742 -0.913543 0
    outer loop
      vertex 10 -8.86602 0
      vertex 10.191 -8.95106 8
      vertex 10 -8.86602 8
    endloop
  endfacet
  facet normal -0.406742 -0.913543 -0
    outer loop
      vertex 10.191 -8.95106 8
      vertex 10 -8.86602 0
      vertex 10.191 -8.95106 0
    endloop
  endfacet
  facet normal -0.207876 -0.978155 0
    outer loop
      vertex 10.191 -8.95106 0
      vertex 10.3955 -8.99452 8
      vertex 10.191 -8.95106 8
    endloop
  endfacet
  facet normal -0.207876 -0.978155 -0
    outer loop
      vertex 10.3955 -8.99452 8
      vertex 10.191 -8.95106 0
      vertex 10.3955 -8.99452 0
    endloop
  endfacet
  facet normal -0.587785 -0.809017 0
    outer loop
      vertex 9.83087 -8.74314 0
      vertex 10 -8.86602 8
      vertex 9.83087 -8.74314 8
    endloop
  endfacet
  facet normal -0.587785 -0.809017 -0
    outer loop
      vertex 10 -8.86602 8
      vertex 9.83087 -8.74314 0
      vertex 10 -8.86602 0
    endloop
  endfacet
  facet normal 0.587853 -0.808968 0
    outer loop
      vertex 11 -8.86602 0
      vertex 11.1691 -8.74314 8
      vertex 11 -8.86602 8
    endloop
  endfacet
  facet normal 0.587853 -0.808968 0
    outer loop
      vertex 11.1691 -8.74314 8
      vertex 11 -8.86602 0
      vertex 11.1691 -8.74314 0
    endloop
  endfacet
endsolid OpenSCAD_Model
