solid OpenSCAD_Model
  facet normal 0 -1 0
    outer loop
      vertex 3 0 0
      vertex 8 0 6
      vertex 3 0 6
    endloop
  endfacet
  facet normal 0 -1 -0
    outer loop
      vertex 8 0 6
      vertex 3 0 0
      vertex 8 0 0
    endloop
  endfacet
  facet normal 0 -1 0
    outer loop
      vertex 38 0 0
      vertex 43 0 6
      vertex 38 0 6
    endloop
  endfacet
  facet normal 0 -1 -0
    outer loop
      vertex 43 0 6
      vertex 38 0 0
      vertex 43 0 0
    endloop
  endfacet
  facet normal -0.707107 -0.707107 0
    outer loop
      vertex 3 0 0
      vertex 0 3 6
      vertex 0 3 0
    endloop
  endfacet
  facet normal -0.707107 -0.707107 0
    outer loop
      vertex 0 3 6
      vertex 3 0 0
      vertex 3 0 6
    endloop
  endfacet
  facet normal 0 0 1
    outer loop
      vertex 48 133.5 6
      vertex 50.5 134.5 6
      vertex 48.5 136.5 6
    endloop
  endfacet
  facet normal 0 0 1
    outer loop
      vertex 48 23.5 6
      vertex 50.5 134.5 6
      vertex 48 133.5 6
    endloop
  endfacet
  facet normal 0 0 1
    outer loop
      vertex 50.5 134.5 6
      vertex 48 23.5 6
      vertex 50.5 19.5 6
    endloop
  endfacet
  facet normal 0 0 1
    outer loop
      vertex 48.5 136.5 6
      vertex -2 133.5 6
      vertex 48 133.5 6
    endloop
  endfacet
  facet normal -0 0 1
    outer loop
      vertex -4.5 134.5 6
      vertex -2 133.5 6
      vertex -2.5 136.5 6
    endloop
  endfacet
  facet normal -0 0 1
    outer loop
      vertex -2.5 136.5 6
      vertex -2 133.5 6
      vertex 48.5 136.5 6
    endloop
  endfacet
  facet normal 0 0 1
    outer loop
      vertex 50.5 19.5 6
      vertex 48 23.5 6
      vertex 48.5 17.5 6
    endloop
  endfacet
  facet normal 0 0 1
    outer loop
      vertex 48 23.5 6
      vertex 46 17.5 6
      vertex 48.5 17.5 6
    endloop
  endfacet
  facet normal 0 0 1
    outer loop
      vertex 46 17.5 6
      vertex 43 12 6
      vertex 46 3 6
    endloop
  endfacet
  facet normal -0 0 1
    outer loop
      vertex 38 23 6
      vertex 46 17.5 6
      vertex 48 23.5 6
    endloop
  endfacet
  facet normal 0 0 1
    outer loop
      vertex 46 17.5 6
      vertex 38 23 6
      vertex 43 12 6
    endloop
  endfacet
  facet normal 0 0 1
    outer loop
      vertex 48 23.5 6
      vertex 8 23 6
      vertex 38 23 6
    endloop
  endfacet
  facet normal 0 0 1
    outer loop
      vertex 8 23 6
      vertex 3.001 12 6
      vertex 8 10.5003 6
    endloop
  endfacet
  facet normal 0 0 1
    outer loop
      vertex 0 3 6
      vertex 3.001 4 6
      vertex 3.001 12 6
    endloop
  endfacet
  facet normal 0 0 1
    outer loop
      vertex 0 3 6
      vertex 3.001 12 6
      vertex 0 17.5 6
    endloop
  endfacet
  facet normal 0 0 1
    outer loop
      vertex 8 23 6
      vertex 0 17.5 6
      vertex 3.001 12 6
    endloop
  endfacet
  facet normal -0 0 1
    outer loop
      vertex -2 23.5 6
      vertex 8 23 6
      vertex 48 23.5 6
    endloop
  endfacet
  facet normal 0 0 1
    outer loop
      vertex -2 23.5 6
      vertex 0 17.5 6
      vertex 8 23 6
    endloop
  endfacet
  facet normal 0 0 1
    outer loop
      vertex -2 23.5 6
      vertex -2.5 17.5 6
      vertex 0 17.5 6
    endloop
  endfacet
  facet normal 0 0 1
    outer loop
      vertex -2 133.5 6
      vertex -4.5 134.5 6
      vertex -2 23.5 6
    endloop
  endfacet
  facet normal 0 0 1
    outer loop
      vertex -4.5 19.5 6
      vertex -2 23.5 6
      vertex -4.5 134.5 6
    endloop
  endfacet
  facet normal 0 0 1
    outer loop
      vertex -2 23.5 6
      vertex -4.5 19.5 6
      vertex -2.5 17.5 6
    endloop
  endfacet
  facet normal -0 0 1
    outer loop
      vertex 43 4 6
      vertex 46 3 6
      vertex 43 12 6
    endloop
  endfacet
  facet normal 0 0 1
    outer loop
      vertex 43 4 6
      vertex 43 0 6
      vertex 46 3 6
    endloop
  endfacet
  facet normal 0 0 1
    outer loop
      vertex 38 0 6
      vertex 43 4 6
      vertex 38 5.5 6
    endloop
  endfacet
  facet normal 0 0 1
    outer loop
      vertex 43 4 6
      vertex 38 0 6
      vertex 43 0 6
    endloop
  endfacet
  facet normal 0 0 1
    outer loop
      vertex 43 12 6
      vertex 38 23 6
      vertex 38 10.5 6
    endloop
  endfacet
  facet normal -0 0 1
    outer loop
      vertex 3.001 4 6
      vertex 8 0 6
      vertex 8 5.4997 6
    endloop
  endfacet
  facet normal 0 0 1
    outer loop
      vertex 8 0 6
      vertex 3.001 4 6
      vertex 3 0 6
    endloop
  endfacet
  facet normal 0 0 1
    outer loop
      vertex 3.001 4 6
      vertex 0 3 6
      vertex 3 0 6
    endloop
  endfacet
  facet normal -1 0 0
    outer loop
      vertex 0 3 0
      vertex 0 17.5 6
      vertex 0 17.5 0
    endloop
  endfacet
  facet normal -1 -0 0
    outer loop
      vertex 0 17.5 6
      vertex 0 3 0
      vertex 0 3 6
    endloop
  endfacet
  facet normal 0 0 -1
    outer loop
      vertex 8 0 0
      vertex 3.001 4 0
      vertex 8 5.4997 0
    endloop
  endfacet
  facet normal 0 0 -1
    outer loop
      vertex 0 3 0
      vertex 3.001 4 0
      vertex 3 0 0
    endloop
  endfacet
  facet normal 0 0 -1
    outer loop
      vertex 3 0 0
      vertex 3.001 4 0
      vertex 8 0 0
    endloop
  endfacet
  facet normal 0 0 -1
    outer loop
      vertex 8 10.5003 0
      vertex 3.001 12 0
      vertex 8 23 0
    endloop
  endfacet
  facet normal 0 0 -1
    outer loop
      vertex 43 4 0
      vertex 46 3 0
      vertex 43 0 0
    endloop
  endfacet
  facet normal 0 0 -1
    outer loop
      vertex 48 23.5 0
      vertex 50.5 19.5 0
      vertex 48.5 17.5 0
    endloop
  endfacet
  facet normal 0 0 -1
    outer loop
      vertex 50.5 19.5 0
      vertex 48 23.5 0
      vertex 50.5 134.5 0
    endloop
  endfacet
  facet normal 0 0 -1
    outer loop
      vertex 48 133.5 0
      vertex 50.5 134.5 0
      vertex 48 23.5 0
    endloop
  endfacet
  facet normal 0 0 -1
    outer loop
      vertex 46 17.5 0
      vertex 48 23.5 0
      vertex 48.5 17.5 0
    endloop
  endfacet
  facet normal 0 0 -1
    outer loop
      vertex 43 12 0
      vertex 46 3 0
      vertex 43 4 0
    endloop
  endfacet
  facet normal 0 0 -1
    outer loop
      vertex 46 3 0
      vertex 43 12 0
      vertex 46 17.5 0
    endloop
  endfacet
  facet normal 0 0 -1
    outer loop
      vertex 38 23 0
      vertex 46 17.5 0
      vertex 43 12 0
    endloop
  endfacet
  facet normal 0 0 -1
    outer loop
      vertex 38 23 0
      vertex 43 12 0
      vertex 38 10.5 0
    endloop
  endfacet
  facet normal 0 0 -1
    outer loop
      vertex 46 17.5 0
      vertex 38 23 0
      vertex 48 23.5 0
    endloop
  endfacet
  facet normal 0 0 -1
    outer loop
      vertex 8 23 0
      vertex 48 23.5 0
      vertex 38 23 0
    endloop
  endfacet
  facet normal -0 0 -1
    outer loop
      vertex 3.001 4 0
      vertex 0 3 0
      vertex 3.001 12 0
    endloop
  endfacet
  facet normal 0 0 -1
    outer loop
      vertex 0 17.5 0
      vertex 3.001 12 0
      vertex 0 3 0
    endloop
  endfacet
  facet normal 0 0 -1
    outer loop
      vertex 0 17.5 0
      vertex 8 23 0
      vertex 3.001 12 0
    endloop
  endfacet
  facet normal 0 0 -1
    outer loop
      vertex 8 23 0
      vertex -2 23.5 0
      vertex 48 23.5 0
    endloop
  endfacet
  facet normal 0 0 -1
    outer loop
      vertex 0 17.5 0
      vertex -2 23.5 0
      vertex 8 23 0
    endloop
  endfacet
  facet normal 0 0 -1
    outer loop
      vertex -4.5 19.5 0
      vertex -2 23.5 0
      vertex -2.5 17.5 0
    endloop
  endfacet
  facet normal 0 0 -1
    outer loop
      vertex -2.5 17.5 0
      vertex -2 23.5 0
      vertex 0 17.5 0
    endloop
  endfacet
  facet normal -0 0 -1
    outer loop
      vertex 50.5 134.5 0
      vertex 48 133.5 0
      vertex 48.5 136.5 0
    endloop
  endfacet
  facet normal 0 0 -1
    outer loop
      vertex -2 133.5 0
      vertex 48.5 136.5 0
      vertex 48 133.5 0
    endloop
  endfacet
  facet normal 0 0 -1
    outer loop
      vertex -2 133.5 0
      vertex -2.5 136.5 0
      vertex 48.5 136.5 0
    endloop
  endfacet
  facet normal 0 0 -1
    outer loop
      vertex -4.5 134.5 0
      vertex -2 23.5 0
      vertex -4.5 19.5 0
    endloop
  endfacet
  facet normal 0 0 -1
    outer loop
      vertex -2 23.5 0
      vertex -4.5 134.5 0
      vertex -2 133.5 0
    endloop
  endfacet
  facet normal 0 0 -1
    outer loop
      vertex -2 133.5 0
      vertex -4.5 134.5 0
      vertex -2.5 136.5 0
    endloop
  endfacet
  facet normal 0 0 -1
    outer loop
      vertex 38 0 0
      vertex 43 4 0
      vertex 43 0 0
    endloop
  endfacet
  facet normal -0 0 -1
    outer loop
      vertex 43 4 0
      vertex 38 0 0
      vertex 38 5.5 0
    endloop
  endfacet
  facet normal 1 -0 0
    outer loop
      vertex 46 3 6
      vertex 46 17.5 0
      vertex 46 17.5 6
    endloop
  endfacet
  facet normal 1 0 0
    outer loop
      vertex 46 17.5 0
      vertex 46 3 6
      vertex 46 3 0
    endloop
  endfacet
  facet normal 0.707107 -0.707107 0
    outer loop
      vertex 43 0 6
      vertex 46 3 0
      vertex 46 3 6
    endloop
  endfacet
  facet normal 0.707107 -0.707107 0
    outer loop
      vertex 46 3 0
      vertex 43 0 6
      vertex 43 0 0
    endloop
  endfacet
  facet normal 0 -1 0
    outer loop
      vertex 46 17.5 0
      vertex 48.5 17.5 6
      vertex 46 17.5 6
    endloop
  endfacet
  facet normal 0 -1 -0
    outer loop
      vertex 48.5 17.5 6
      vertex 46 17.5 0
      vertex 48.5 17.5 0
    endloop
  endfacet
  facet normal 0 -1 0
    outer loop
      vertex -2.5 17.5 0
      vertex 0 17.5 6
      vertex -2.5 17.5 6
    endloop
  endfacet
  facet normal 0 -1 -0
    outer loop
      vertex 0 17.5 6
      vertex -2.5 17.5 0
      vertex 0 17.5 0
    endloop
  endfacet
  facet normal 0.707107 -0.707107 0
    outer loop
      vertex 48.5 17.5 6
      vertex 50.5 19.5 0
      vertex 50.5 19.5 6
    endloop
  endfacet
  facet normal 0.707107 -0.707107 0
    outer loop
      vertex 50.5 19.5 0
      vertex 48.5 17.5 6
      vertex 48.5 17.5 0
    endloop
  endfacet
  facet normal -0.707107 -0.707107 0
    outer loop
      vertex -2.5 17.5 0
      vertex -4.5 19.5 6
      vertex -4.5 19.5 0
    endloop
  endfacet
  facet normal -0.707107 -0.707107 0
    outer loop
      vertex -4.5 19.5 6
      vertex -2.5 17.5 0
      vertex -2.5 17.5 6
    endloop
  endfacet
  facet normal 1 -0 0
    outer loop
      vertex 50.5 19.5 6
      vertex 50.5 134.5 0
      vertex 50.5 134.5 6
    endloop
  endfacet
  facet normal 1 0 0
    outer loop
      vertex 50.5 134.5 0
      vertex 50.5 19.5 6
      vertex 50.5 19.5 0
    endloop
  endfacet
  facet normal -1 0 0
    outer loop
      vertex -4.5 19.5 0
      vertex -4.5 134.5 6
      vertex -4.5 134.5 0
    endloop
  endfacet
  facet normal -1 -0 0
    outer loop
      vertex -4.5 134.5 6
      vertex -4.5 19.5 0
      vertex -4.5 19.5 6
    endloop
  endfacet
  facet normal -0.707107 0.707107 0
    outer loop
      vertex -4.5 134.5 0
      vertex -2.5 136.5 6
      vertex -2.5 136.5 0
    endloop
  endfacet
  facet normal -0.707107 0.707107 0
    outer loop
      vertex -2.5 136.5 6
      vertex -4.5 134.5 0
      vertex -4.5 134.5 6
    endloop
  endfacet
  facet normal 0 1 -0
    outer loop
      vertex 48.5 136.5 0
      vertex -2.5 136.5 6
      vertex 48.5 136.5 6
    endloop
  endfacet
  facet normal 0 1 0
    outer loop
      vertex -2.5 136.5 6
      vertex 48.5 136.5 0
      vertex -2.5 136.5 0
    endloop
  endfacet
  facet normal 0.707107 0.707107 0
    outer loop
      vertex 50.5 134.5 6
      vertex 48.5 136.5 0
      vertex 48.5 136.5 6
    endloop
  endfacet
  facet normal 0.707107 0.707107 0
    outer loop
      vertex 48.5 136.5 0
      vertex 50.5 134.5 6
      vertex 50.5 134.5 0
    endloop
  endfacet
  facet normal 1 -0 0
    outer loop
      vertex 8 0 6
      vertex 8 5.4997 0
      vertex 8 5.4997 6
    endloop
  endfacet
  facet normal 1 0 0
    outer loop
      vertex 8 5.4997 0
      vertex 8 0 6
      vertex 8 0 0
    endloop
  endfacet
  facet normal 1 -0 0
    outer loop
      vertex 8 10.5003 6
      vertex 8 23 0
      vertex 8 23 6
    endloop
  endfacet
  facet normal 1 0 0
    outer loop
      vertex 8 23 0
      vertex 8 10.5003 6
      vertex 8 10.5003 0
    endloop
  endfacet
  facet normal -1 0 0
    outer loop
      vertex 38 0 0
      vertex 38 5.5 6
      vertex 38 5.5 0
    endloop
  endfacet
  facet normal -1 -0 0
    outer loop
      vertex 38 5.5 6
      vertex 38 0 0
      vertex 38 0 6
    endloop
  endfacet
  facet normal -1 0 0
    outer loop
      vertex 38 10.5 0
      vertex 38 23 6
      vertex 38 23 0
    endloop
  endfacet
  facet normal -1 -0 0
    outer loop
      vertex 38 23 6
      vertex 38 10.5 0
      vertex 38 10.5 6
    endloop
  endfacet
  facet normal 0 -1 0
    outer loop
      vertex 8 23 0
      vertex 38 23 6
      vertex 8 23 6
    endloop
  endfacet
  facet normal 0 -1 -0
    outer loop
      vertex 38 23 6
      vertex 8 23 0
      vertex 38 23 0
    endloop
  endfacet
  facet normal -0.287348 0.957826 0
    outer loop
      vertex 8 5.4997 0
      vertex 3.001 4 6
      vertex 8 5.4997 6
    endloop
  endfacet
  facet normal -0.287348 0.957826 0
    outer loop
      vertex 3.001 4 6
      vertex 8 5.4997 0
      vertex 3.001 4 0
    endloop
  endfacet
  facet normal -0.287348 -0.957826 0
    outer loop
      vertex 3.001 12 0
      vertex 8 10.5003 6
      vertex 3.001 12 6
    endloop
  endfacet
  facet normal -0.287348 -0.957826 -0
    outer loop
      vertex 8 10.5003 6
      vertex 3.001 12 0
      vertex 8 10.5003 0
    endloop
  endfacet
  facet normal 1 -0 0
    outer loop
      vertex 3.001 4 6
      vertex 3.001 12 0
      vertex 3.001 12 6
    endloop
  endfacet
  facet normal 1 0 0
    outer loop
      vertex 3.001 12 0
      vertex 3.001 4 6
      vertex 3.001 4 0
    endloop
  endfacet
  facet normal 0.287348 -0.957826 0
    outer loop
      vertex 38 10.5 0
      vertex 43 12 6
      vertex 38 10.5 6
    endloop
  endfacet
  facet normal 0.287348 -0.957826 0
    outer loop
      vertex 43 12 6
      vertex 38 10.5 0
      vertex 43 12 0
    endloop
  endfacet
  facet normal 0.287348 0.957826 -0
    outer loop
      vertex 43 4 0
      vertex 38 5.5 6
      vertex 43 4 6
    endloop
  endfacet
  facet normal 0.287348 0.957826 0
    outer loop
      vertex 38 5.5 6
      vertex 43 4 0
      vertex 38 5.5 0
    endloop
  endfacet
  facet normal -1 0 0
    outer loop
      vertex 43 4 0
      vertex 43 12 6
      vertex 43 12 0
    endloop
  endfacet
  facet normal -1 -0 0
    outer loop
      vertex 43 12 6
      vertex 43 4 0
      vertex 43 4 6
    endloop
  endfacet
  facet normal 1 -0 0
    outer loop
      vertex -2 23.5 6
      vertex -2 133.5 0
      vertex -2 133.5 6
    endloop
  endfacet
  facet normal 1 0 0
    outer loop
      vertex -2 133.5 0
      vertex -2 23.5 6
      vertex -2 23.5 0
    endloop
  endfacet
  facet normal -1 0 0
    outer loop
      vertex 48 23.5 0
      vertex 48 133.5 6
      vertex 48 133.5 0
    endloop
  endfacet
  facet normal -1 -0 0
    outer loop
      vertex 48 133.5 6
      vertex 48 23.5 0
      vertex 48 23.5 6
    endloop
  endfacet
  facet normal 0 -1 0
    outer loop
      vertex -2 133.5 0
      vertex 48 133.5 6
      vertex -2 133.5 6
    endloop
  endfacet
  facet normal 0 -1 -0
    outer loop
      vertex 48 133.5 6
      vertex -2 133.5 0
      vertex 48 133.5 0
    endloop
  endfacet
  facet normal 0 1 -0
    outer loop
      vertex 48 23.5 0
      vertex -2 23.5 6
      vertex 48 23.5 6
    endloop
  endfacet
  facet normal 0 1 0
    outer loop
      vertex -2 23.5 6
      vertex 48 23.5 0
      vertex -2 23.5 0
    endloop
  endfacet
endsolid OpenSCAD_Model
