solid OpenSCAD_Model
  facet normal 0.677289 0.67728 0.287353
    outer loop
      vertex 26.4602 -30 6.66134e-015
      vertex 17.4749 -23.1317 4.99
      vertex 24.3431 -30 4.99
    endloop
  endfacet
  facet normal 0.677288 0.677288 0.287338
    outer loop
      vertex 17.4749 -23.1317 4.99
      vertex 26.4602 -30 6.66134e-015
      vertex 18.5334 -22.0732 4.90123e-015
    endloop
  endfacet
  facet normal -0.677283 -0.677292 0.287338
    outer loop
      vertex 22.0732 -18.5334 4.11524e-015
      vertex 30 -24.3431 4.99
      vertex 23.1317 -17.4749 4.99
    endloop
  endfacet
  facet normal -0.677285 -0.677285 0.287351
    outer loop
      vertex 30 -24.3431 4.99
      vertex 22.0732 -18.5334 4.11524e-015
      vertex 30 -26.4602 5.87535e-015
    endloop
  endfacet
  facet normal 0.707107 -0.707107 0
    outer loop
      vertex 23.1317 -17.4749 4.99
      vertex 18.5334 -22.0732 4.90123e-015
      vertex 22.0732 -18.5334 4.11524e-015
    endloop
  endfacet
  facet normal 0.707107 -0.707107 0
    outer loop
      vertex 18.5334 -22.0732 4.90123e-015
      vertex 23.1317 -17.4749 4.99
      vertex 17.4749 -23.1317 4.99
    endloop
  endfacet
  facet normal 0 0 -1
    outer loop
      vertex 24.3431 -30 4.99
      vertex 30 -24.3431 4.99
      vertex 30 -30 4.99
    endloop
  endfacet
  facet normal 0 0 -1
    outer loop
      vertex 24.3431 -30 4.99
      vertex 23.1317 -17.4749 4.99
      vertex 30 -24.3431 4.99
    endloop
  endfacet
  facet normal 0 -0 -1
    outer loop
      vertex 23.1317 -17.4749 4.99
      vertex 24.3431 -30 4.99
      vertex 17.4749 -23.1317 4.99
    endloop
  endfacet
  facet normal 0.707109 0.707105 -8.03963e-007
    outer loop
      vertex 23.1317 -12.5251 4.99
      vertex 22.0619 -11.4553 2.54358e-015
      vertex 17.4749 -6.86827 4.99
    endloop
  endfacet
  facet normal 0.707107 0.707107 -2.33201e-014
    outer loop
      vertex 22.0619 -11.4553 2.54358e-015
      vertex 23.1317 -12.5251 4.99
      vertex 22.0732 -11.4666 2.54609e-015
    endloop
  endfacet
  facet normal 0 0 -1
    outer loop
      vertex 30 -5.65685 4.99
      vertex 24.3431 1.108e-015 4.99
      vertex 30 1.108e-015 4.99
    endloop
  endfacet
  facet normal 0 0 -1
    outer loop
      vertex 23.1317 -12.5251 4.99
      vertex 24.3431 1.108e-015 4.99
      vertex 30 -5.65685 4.99
    endloop
  endfacet
  facet normal 0 0 -1
    outer loop
      vertex 24.3431 1.108e-015 4.99
      vertex 23.1317 -12.5251 4.99
      vertex 17.4749 -6.86827 4.99
    endloop
  endfacet
  facet normal 0.707106 0.707108 -6.09329e-006
    outer loop
      vertex 22.0619 -11.4553 2.54358e-015
      vertex 18.5334 -7.92681 1.76011e-015
      vertex 17.4749 -6.86827 4.99
    endloop
  endfacet
  facet normal -0.677287 0.677285 0.287347
    outer loop
      vertex 22.0732 -11.4666 2.54609e-015
      vertex 30 -5.65685 4.99
      vertex 30 -3.53978 7.85988e-016
    endloop
  endfacet
  facet normal -0.677285 0.67729 0.287338
    outer loop
      vertex 30 -5.65685 4.99
      vertex 22.0732 -11.4666 2.54609e-015
      vertex 23.1317 -12.5251 4.99
    endloop
  endfacet
  facet normal 0.67729 -0.677283 0.287343
    outer loop
      vertex 18.5334 -7.92681 1.76011e-015
      vertex 24.3431 1.108e-015 4.99
      vertex 17.4749 -6.86827 4.99
    endloop
  endfacet
  facet normal 0.677285 -0.677284 0.287351
    outer loop
      vertex 24.3431 1.108e-015 4.99
      vertex 18.5334 -7.92681 1.76011e-015
      vertex 26.4602 0 0
    endloop
  endfacet
  facet normal -0.707107 0.707107 -7.08524e-006
    outer loop
      vertex 7.93812 -11.4553 2.54358e-015
      vertex 6.86827 -12.5251 4.99
      vertex 12.5251 -6.86827 4.99
    endloop
  endfacet
  facet normal -0.706794 0.707419 0.000127014
    outer loop
      vertex 6.86827 -12.5251 4.99
      vertex 7.93812 -11.4553 2.54358e-015
      vertex 7.92681 -11.4666 2.54609e-015
    endloop
  endfacet
  facet normal 0 0 -1
    outer loop
      vertex 6.86827 -12.5251 4.99
      vertex 5.65685 1.108e-015 4.99
      vertex 12.5251 -6.86827 4.99
    endloop
  endfacet
  facet normal 0 0 -1
    outer loop
      vertex 0 -5.65685 4.99
      vertex 5.65685 1.108e-015 4.99
      vertex 6.86827 -12.5251 4.99
    endloop
  endfacet
  facet normal -0 0 -1
    outer loop
      vertex 5.65685 1.108e-015 4.99
      vertex 0 -5.65685 4.99
      vertex 0 1.108e-015 4.99
    endloop
  endfacet
  facet normal -0.707108 0.707106 -5.24309e-006
    outer loop
      vertex 12.5251 -6.86827 4.99
      vertex 11.4666 -7.92681 1.76011e-015
      vertex 7.93812 -11.4553 2.54358e-015
    endloop
  endfacet
  facet normal -0.677287 -0.677285 0.287347
    outer loop
      vertex 3.53978 0 0
      vertex 12.5251 -6.86827 4.99
      vertex 5.65685 1.108e-015 4.99
    endloop
  endfacet
  facet normal -0.677286 -0.677287 0.287343
    outer loop
      vertex 12.5251 -6.86827 4.99
      vertex 3.53978 0 0
      vertex 11.4666 -7.92681 1.76011e-015
    endloop
  endfacet
  facet normal 0.677286 0.677285 0.287348
    outer loop
      vertex 0 -5.65685 4.99
      vertex 7.92681 -11.4666 2.54609e-015
      vertex 0 -3.53977 7.85988e-016
    endloop
  endfacet
  facet normal 0.677285 0.677287 0.287343
    outer loop
      vertex 7.92681 -11.4666 2.54609e-015
      vertex 0 -5.65685 4.99
      vertex 6.86827 -12.5251 4.99
    endloop
  endfacet
  facet normal -0.707105 -0.707109 -8.03963e-007
    outer loop
      vertex 11.4553 -22.0619 4.89872e-015
      vertex 12.5251 -23.1317 4.99
      vertex 6.86827 -17.4749 4.99
    endloop
  endfacet
  facet normal -0.707107 -0.707107 -2.50604e-014
    outer loop
      vertex 12.5251 -23.1317 4.99
      vertex 11.4553 -22.0619 4.89872e-015
      vertex 11.4666 -22.0732 4.90123e-015
    endloop
  endfacet
  facet normal -0.707108 -0.707106 -6.09329e-006
    outer loop
      vertex 7.92681 -18.5334 4.11524e-015
      vertex 11.4553 -22.0619 4.89872e-015
      vertex 6.86827 -17.4749 4.99
    endloop
  endfacet
  facet normal -0.67729 0.677285 0.287338
    outer loop
      vertex 11.4666 -22.0732 4.90123e-015
      vertex 5.65685 -30 4.99
      vertex 12.5251 -23.1317 4.99
    endloop
  endfacet
  facet normal -0.677285 0.677287 0.287347
    outer loop
      vertex 5.65685 -30 4.99
      vertex 11.4666 -22.0732 4.90123e-015
      vertex 3.53978 -30 6.66134e-015
    endloop
  endfacet
  facet normal 0 0 -1
    outer loop
      vertex 5.65685 -30 4.99
      vertex 6.86827 -17.4749 4.99
      vertex 12.5251 -23.1317 4.99
    endloop
  endfacet
  facet normal 0 0 -1
    outer loop
      vertex 0 -24.3431 4.99
      vertex 5.65685 -30 4.99
      vertex 0 -30 4.99
    endloop
  endfacet
  facet normal 0 0 -1
    outer loop
      vertex 5.65685 -30 4.99
      vertex 0 -24.3431 4.99
      vertex 6.86827 -17.4749 4.99
    endloop
  endfacet
  facet normal 0.677283 -0.67729 0.287343
    outer loop
      vertex 0 -24.3431 4.99
      vertex 7.92681 -18.5334 4.11524e-015
      vertex 6.86827 -17.4749 4.99
    endloop
  endfacet
  facet normal 0.677284 -0.677285 0.287351
    outer loop
      vertex 7.92681 -18.5334 4.11524e-015
      vertex 0 -24.3431 4.99
      vertex 0 -26.4602 5.87535e-015
    endloop
  endfacet
  facet normal -0.677283 -0.677292 -0.287338
    outer loop
      vertex 30 -24.3431 115.01
      vertex 22.0732 -18.5334 120
      vertex 23.1317 -17.4749 115.01
    endloop
  endfacet
  facet normal -0.677285 -0.677285 -0.287351
    outer loop
      vertex 22.0732 -18.5334 120
      vertex 30 -24.3431 115.01
      vertex 30 -26.4602 120
    endloop
  endfacet
  facet normal 0.677288 0.677288 -0.287338
    outer loop
      vertex 26.4602 -30 120
      vertex 17.4749 -23.1317 115.01
      vertex 18.5334 -22.0732 120
    endloop
  endfacet
  facet normal 0.677289 0.67728 -0.287353
    outer loop
      vertex 17.4749 -23.1317 115.01
      vertex 26.4602 -30 120
      vertex 24.3431 -30 115.01
    endloop
  endfacet
  facet normal 0.707107 -0.707107 0
    outer loop
      vertex 18.5334 -22.0732 120
      vertex 23.1317 -17.4749 115.01
      vertex 22.0732 -18.5334 120
    endloop
  endfacet
  facet normal 0.707107 -0.707107 0
    outer loop
      vertex 23.1317 -17.4749 115.01
      vertex 18.5334 -22.0732 120
      vertex 17.4749 -23.1317 115.01
    endloop
  endfacet
  facet normal 0 0 1
    outer loop
      vertex 30 -24.3431 115.01
      vertex 24.3431 -30 115.01
      vertex 30 -30 115.01
    endloop
  endfacet
  facet normal 0 0 1
    outer loop
      vertex 23.1317 -17.4749 115.01
      vertex 24.3431 -30 115.01
      vertex 30 -24.3431 115.01
    endloop
  endfacet
  facet normal 0 0 1
    outer loop
      vertex 24.3431 -30 115.01
      vertex 23.1317 -17.4749 115.01
      vertex 17.4749 -23.1317 115.01
    endloop
  endfacet
  facet normal -0.707105 -0.707109 8.03963e-007
    outer loop
      vertex 12.5251 -23.1317 115.01
      vertex 11.4553 -22.0619 120
      vertex 6.86827 -17.4749 115.01
    endloop
  endfacet
  facet normal -0.707107 -0.707107 2.33201e-014
    outer loop
      vertex 11.4553 -22.0619 120
      vertex 12.5251 -23.1317 115.01
      vertex 11.4666 -22.0732 120
    endloop
  endfacet
  facet normal 0 0 1
    outer loop
      vertex 6.86827 -17.4749 115.01
      vertex 5.65685 -30 115.01
      vertex 12.5251 -23.1317 115.01
    endloop
  endfacet
  facet normal -0 0 1
    outer loop
      vertex 0 -24.3431 115.01
      vertex 5.65685 -30 115.01
      vertex 6.86827 -17.4749 115.01
    endloop
  endfacet
  facet normal 0 0 1
    outer loop
      vertex 5.65685 -30 115.01
      vertex 0 -24.3431 115.01
      vertex 0 -30 115.01
    endloop
  endfacet
  facet normal -0.707108 -0.707106 6.09329e-006
    outer loop
      vertex 11.4553 -22.0619 120
      vertex 7.92681 -18.5334 120
      vertex 6.86827 -17.4749 115.01
    endloop
  endfacet
  facet normal -0.67729 0.677285 -0.287338
    outer loop
      vertex 5.65685 -30 115.01
      vertex 11.4666 -22.0732 120
      vertex 12.5251 -23.1317 115.01
    endloop
  endfacet
  facet normal -0.677285 0.677287 -0.287347
    outer loop
      vertex 11.4666 -22.0732 120
      vertex 5.65685 -30 115.01
      vertex 3.53978 -30 120
    endloop
  endfacet
  facet normal 0.677283 -0.67729 -0.287343
    outer loop
      vertex 7.92681 -18.5334 120
      vertex 0 -24.3431 115.01
      vertex 6.86827 -17.4749 115.01
    endloop
  endfacet
  facet normal 0.677284 -0.677285 -0.287351
    outer loop
      vertex 0 -24.3431 115.01
      vertex 7.92681 -18.5334 120
      vertex 0 -26.4602 120
    endloop
  endfacet
  facet normal -0.707419 0.706794 -0.000127014
    outer loop
      vertex 12.5251 -6.86827 115.01
      vertex 11.4553 -7.93812 120
      vertex 11.4666 -7.92681 120
    endloop
  endfacet
  facet normal -0.707107 0.707107 7.08524e-006
    outer loop
      vertex 11.4553 -7.93812 120
      vertex 12.5251 -6.86827 115.01
      vertex 6.86827 -12.5251 115.01
    endloop
  endfacet
  facet normal 0 0 1
    outer loop
      vertex 5.65685 2.55374e-014 115.01
      vertex 6.86827 -12.5251 115.01
      vertex 12.5251 -6.86827 115.01
    endloop
  endfacet
  facet normal 0 0 1
    outer loop
      vertex 0 -5.65685 115.01
      vertex 5.65685 2.55374e-014 115.01
      vertex 0 2.55374e-014 115.01
    endloop
  endfacet
  facet normal 0 0 1
    outer loop
      vertex 5.65685 2.55374e-014 115.01
      vertex 0 -5.65685 115.01
      vertex 6.86827 -12.5251 115.01
    endloop
  endfacet
  facet normal -0.707106 0.707108 5.24309e-006
    outer loop
      vertex 7.92681 -11.4666 120
      vertex 11.4553 -7.93812 120
      vertex 6.86827 -12.5251 115.01
    endloop
  endfacet
  facet normal 0.677287 0.677286 -0.287343
    outer loop
      vertex 6.86827 -12.5251 115.01
      vertex 0 -3.53978 120
      vertex 7.92681 -11.4666 120
    endloop
  endfacet
  facet normal 0.677285 0.677287 -0.287347
    outer loop
      vertex 0 -3.53978 120
      vertex 6.86827 -12.5251 115.01
      vertex 0 -5.65685 115.01
    endloop
  endfacet
  facet normal -0.677286 -0.677284 -0.287349
    outer loop
      vertex 12.5251 -6.86827 115.01
      vertex 3.53977 2.66454e-014 120
      vertex 5.65685 2.55374e-014 115.01
    endloop
  endfacet
  facet normal -0.677286 -0.677287 -0.287343
    outer loop
      vertex 3.53977 2.66454e-014 120
      vertex 12.5251 -6.86827 115.01
      vertex 11.4666 -7.92681 120
    endloop
  endfacet
  facet normal 0.707107 0.707107 2.50604e-014
    outer loop
      vertex 23.1317 -12.5251 115.01
      vertex 22.0619 -11.4553 120
      vertex 22.0732 -11.4666 120
    endloop
  endfacet
  facet normal 0.707109 0.707105 8.03963e-007
    outer loop
      vertex 22.0619 -11.4553 120
      vertex 23.1317 -12.5251 115.01
      vertex 17.4749 -6.86827 115.01
    endloop
  endfacet
  facet normal 0.707106 0.707108 6.09329e-006
    outer loop
      vertex 18.5334 -7.92681 120
      vertex 22.0619 -11.4553 120
      vertex 17.4749 -6.86827 115.01
    endloop
  endfacet
  facet normal -0.677287 0.677285 -0.287347
    outer loop
      vertex 30 -5.65685 115.01
      vertex 22.0732 -11.4666 120
      vertex 30 -3.53978 120
    endloop
  endfacet
  facet normal -0.677285 0.67729 -0.287338
    outer loop
      vertex 22.0732 -11.4666 120
      vertex 30 -5.65685 115.01
      vertex 23.1317 -12.5251 115.01
    endloop
  endfacet
  facet normal -0 0 1
    outer loop
      vertex 24.3431 2.55374e-014 115.01
      vertex 30 -5.65685 115.01
      vertex 30 2.55374e-014 115.01
    endloop
  endfacet
  facet normal 0 0 1
    outer loop
      vertex 24.3431 2.55374e-014 115.01
      vertex 23.1317 -12.5251 115.01
      vertex 30 -5.65685 115.01
    endloop
  endfacet
  facet normal 0 -0 1
    outer loop
      vertex 23.1317 -12.5251 115.01
      vertex 24.3431 2.55374e-014 115.01
      vertex 17.4749 -6.86827 115.01
    endloop
  endfacet
  facet normal 0.67729 -0.677283 -0.287343
    outer loop
      vertex 24.3431 2.55374e-014 115.01
      vertex 18.5334 -7.92681 120
      vertex 17.4749 -6.86827 115.01
    endloop
  endfacet
  facet normal 0.677285 -0.677284 -0.287351
    outer loop
      vertex 18.5334 -7.92681 120
      vertex 24.3431 2.55374e-014 115.01
      vertex 26.4602 2.66454e-014 120
    endloop
  endfacet
  facet normal 0.957826 0.287348 0
    outer loop
      vertex 12.5 -30 120
      vertex 11 -25 5.55112e-015
      vertex 11 -25 120
    endloop
  endfacet
  facet normal 0.957826 0.287348 0
    outer loop
      vertex 11 -25 5.55112e-015
      vertex 12.5 -30 120
      vertex 12.5 -30 6.66134e-015
    endloop
  endfacet
  facet normal -0.957826 0.287348 0
    outer loop
      vertex 17.5 -30 6.66134e-015
      vertex 19 -25 36.5714
      vertex 19 -25 5.55112e-015
    endloop
  endfacet
  facet normal -0.957826 0.287348 0
    outer loop
      vertex 19 -25 36.5714
      vertex 17.5 -30 6.66134e-015
      vertex 17.5 -30 37.8571
    endloop
  endfacet
  facet normal -0.957799 0.287438 0.000102346
    outer loop
      vertex 17.5 -30 88.2355
      vertex 19 -25 83.4286
      vertex 18.9539 -25.1536 83.3891
    endloop
  endfacet
  facet normal -0.957826 0.287348 0
    outer loop
      vertex 19 -25 83.4286
      vertex 17.5 -30 88.2355
      vertex 19 -25 120
    endloop
  endfacet
  facet normal -0.957826 0.287348 0
    outer loop
      vertex 19 -25 120
      vertex 17.5 -30 88.2355
      vertex 17.5 -30 120
    endloop
  endfacet
  facet normal 0 -1 0
    outer loop
      vertex 0 -30 115.01
      vertex 0 -30 4.99
      vertex 5.65685 -30 115.01
    endloop
  endfacet
  facet normal 0 -1 0
    outer loop
      vertex 5.65685 -30 115.01
      vertex 12.5 -30 120
      vertex 3.53978 -30 120
    endloop
  endfacet
  facet normal 0 -1 0
    outer loop
      vertex 5.65685 -30 4.99
      vertex 5.65685 -30 115.01
      vertex 0 -30 4.99
    endloop
  endfacet
  facet normal 0 -1 0
    outer loop
      vertex 5.65685 -30 115.01
      vertex 5.65685 -30 4.99
      vertex 12.5 -30 120
    endloop
  endfacet
  facet normal 0 -1 0
    outer loop
      vertex 5.65685 -30 4.99
      vertex 12.5 -30 6.66134e-015
      vertex 12.5 -30 120
    endloop
  endfacet
  facet normal 0 -1 0
    outer loop
      vertex 12.5 -30 6.66134e-015
      vertex 5.65685 -30 4.99
      vertex 3.53978 -30 6.66134e-015
    endloop
  endfacet
  facet normal 0 -1 0
    outer loop
      vertex 17.5 -30 37.8571
      vertex 24.3431 -30 4.99
      vertex 30 -30 27.1429
    endloop
  endfacet
  facet normal 0 -1 0
    outer loop
      vertex 17.5 -30 6.66134e-015
      vertex 24.3431 -30 4.99
      vertex 17.5 -30 37.8571
    endloop
  endfacet
  facet normal 0 -1 -0
    outer loop
      vertex 24.3431 -30 4.99
      vertex 17.5 -30 6.66134e-015
      vertex 26.4602 -30 6.66134e-015
    endloop
  endfacet
  facet normal 0 -1 -0
    outer loop
      vertex 30 -30 27.1429
      vertex 24.3431 -30 4.99
      vertex 30 -30 4.99
    endloop
  endfacet
  facet normal 0 -1 0
    outer loop
      vertex 17.5 -30 120
      vertex 24.3431 -30 115.01
      vertex 26.4602 -30 120
    endloop
  endfacet
  facet normal 0 -1 0
    outer loop
      vertex 24.3431 -30 115.01
      vertex 30 -30 92.8571
      vertex 30 -30 115.01
    endloop
  endfacet
  facet normal 0 -1 0
    outer loop
      vertex 17.5 -30 88.2355
      vertex 24.3431 -30 115.01
      vertex 17.5 -30 120
    endloop
  endfacet
  facet normal 0 -1 -0
    outer loop
      vertex 24.3431 -30 115.01
      vertex 17.5 -30 88.2355
      vertex 30 -30 92.8571
    endloop
  endfacet
  facet normal 0 -1 0
    outer loop
      vertex 30 -30 92.8571
      vertex 17.5 -30 88.2355
      vertex 24.6081 -30 88.2355
    endloop
  endfacet
  facet normal -0.287348 0.957826 0
    outer loop
      vertex 30 -17.5 27.1429
      vertex 25 -19 4.21885e-015
      vertex 25 -19 31.4286
    endloop
  endfacet
  facet normal -0.287348 0.957826 0
    outer loop
      vertex 25 -19 4.21885e-015
      vertex 30 -17.5 27.1429
      vertex 30 -17.5 3.88578e-015
    endloop
  endfacet
  facet normal -0.287348 0.957826 0
    outer loop
      vertex 30 -17.5 92.8571
      vertex 25 -19 120
      vertex 30 -17.5 120
    endloop
  endfacet
  facet normal -0.287348 0.957826 0
    outer loop
      vertex 25 -19 120
      vertex 30 -17.5 92.8571
      vertex 25 -19 88.5714
    endloop
  endfacet
  facet normal -0.287348 -0.957826 0
    outer loop
      vertex 25 -11 2.44249e-015
      vertex 30 -12.5 27.1429
      vertex 25 -11 31.4286
    endloop
  endfacet
  facet normal -0.287348 -0.957826 -0
    outer loop
      vertex 30 -12.5 27.1429
      vertex 25 -11 2.44249e-015
      vertex 30 -12.5 2.77556e-015
    endloop
  endfacet
  facet normal -0.287348 -0.957826 0
    outer loop
      vertex 25 -11 120
      vertex 30 -12.5 92.8571
      vertex 30 -12.5 120
    endloop
  endfacet
  facet normal -0.287348 -0.957826 0
    outer loop
      vertex 30 -12.5 92.8571
      vertex 25 -11 120
      vertex 25 -11 88.5714
    endloop
  endfacet
  facet normal 1 -0 0
    outer loop
      vertex 25 -19 31.4286
      vertex 25 -11 2.44249e-015
      vertex 25 -11 31.4286
    endloop
  endfacet
  facet normal 1 0 0
    outer loop
      vertex 25 -11 2.44249e-015
      vertex 25 -19 31.4286
      vertex 25 -19 4.21885e-015
    endloop
  endfacet
  facet normal 1 -0 0
    outer loop
      vertex 25 -19 120
      vertex 25 -11 88.5714
      vertex 25 -11 120
    endloop
  endfacet
  facet normal 1 0 0
    outer loop
      vertex 25 -11 88.5714
      vertex 25 -19 120
      vertex 25 -19 88.5714
    endloop
  endfacet
  facet normal 1 0 0
    outer loop
      vertex 30 6.02692e-015 27.1429
      vertex 30 -5.65685 4.99
      vertex 30 1.108e-015 4.99
    endloop
  endfacet
  facet normal 1 0 -0
    outer loop
      vertex 30 -5.65685 4.99
      vertex 30 6.02692e-015 27.1429
      vertex 30 -12.5 27.1429
    endloop
  endfacet
  facet normal 1 0 0
    outer loop
      vertex 30 -5.65685 4.99
      vertex 30 -12.5 2.77556e-015
      vertex 30 -3.53978 7.85988e-016
    endloop
  endfacet
  facet normal 1 0 0
    outer loop
      vertex 30 -12.5 2.77556e-015
      vertex 30 -5.65685 4.99
      vertex 30 -12.5 27.1429
    endloop
  endfacet
  facet normal 1 0 0
    outer loop
      vertex 30 -3.53978 120
      vertex 30 -12.5 120
      vertex 30 -5.65685 115.01
    endloop
  endfacet
  facet normal 1 -0 0
    outer loop
      vertex 30 -5.65685 115.01
      vertex 30 2.06184e-014 92.8571
      vertex 30 2.55374e-014 115.01
    endloop
  endfacet
  facet normal 1 0 0
    outer loop
      vertex 30 -12.5 92.8571
      vertex 30 -5.65685 115.01
      vertex 30 -12.5 120
    endloop
  endfacet
  facet normal 1 0 0
    outer loop
      vertex 30 -5.65685 115.01
      vertex 30 -12.5 92.8571
      vertex 30 2.06184e-014 92.8571
    endloop
  endfacet
  facet normal 1 0 0
    outer loop
      vertex 30 -17.5 27.1429
      vertex 30 -24.3431 4.99
      vertex 30 -17.5 3.88578e-015
    endloop
  endfacet
  facet normal 1 -0 0
    outer loop
      vertex 30 -30 27.1429
      vertex 30 -24.3431 4.99
      vertex 30 -17.5 27.1429
    endloop
  endfacet
  facet normal 1 0 0
    outer loop
      vertex 30 -24.3431 4.99
      vertex 30 -30 27.1429
      vertex 30 -30 4.99
    endloop
  endfacet
  facet normal 1 0 0
    outer loop
      vertex 30 -17.5 3.88578e-015
      vertex 30 -24.3431 4.99
      vertex 30 -26.4602 5.87535e-015
    endloop
  endfacet
  facet normal 1 0 0
    outer loop
      vertex 30 -17.5 120
      vertex 30 -24.3431 115.01
      vertex 30 -17.5 92.8571
    endloop
  endfacet
  facet normal 1 0 -0
    outer loop
      vertex 30 -24.3431 115.01
      vertex 30 -17.5 120
      vertex 30 -26.4602 120
    endloop
  endfacet
  facet normal 1 0 0
    outer loop
      vertex 30 -30 92.8571
      vertex 30 -24.3431 115.01
      vertex 30 -30 115.01
    endloop
  endfacet
  facet normal 1 0 0
    outer loop
      vertex 30 -24.3431 115.01
      vertex 30 -30 92.8571
      vertex 30 -17.5 92.8571
    endloop
  endfacet
  facet normal -0.957826 -0.287348 -0
    outer loop
      vertex 19 -5 36.5714
      vertex 17.5 0 0
      vertex 19 -5 1.11022e-015
    endloop
  endfacet
  facet normal -0.957826 -0.287348 6.38041e-017
    outer loop
      vertex 17.5 0 0
      vertex 19 -5 36.5714
      vertex 17.5 8.40597e-015 37.8571
    endloop
  endfacet
  facet normal -0.957779 -0.287506 0.000179149
    outer loop
      vertex 19 -5 83.4286
      vertex 17.5 1.95922e-014 88.2355
      vertex 18.9539 -4.84645 83.3891
    endloop
  endfacet
  facet normal -0.957826 -0.287348 -0
    outer loop
      vertex 19 -5 120
      vertex 17.5 1.95922e-014 88.2355
      vertex 19 -5 83.4286
    endloop
  endfacet
  facet normal -0.957826 -0.287348 6.38046e-017
    outer loop
      vertex 17.5 1.95922e-014 88.2355
      vertex 19 -5 120
      vertex 17.5 2.66454e-014 120
    endloop
  endfacet
  facet normal 0.957826 -0.287348 6.3804e-017
    outer loop
      vertex 11 -5 120
      vertex 12.5 0 0
      vertex 12.5 2.66454e-014 120
    endloop
  endfacet
  facet normal 0.957826 -0.287348 0
    outer loop
      vertex 12.5 0 0
      vertex 11 -5 120
      vertex 11 -5 1.11022e-015
    endloop
  endfacet
  facet normal 0 1 0
    outer loop
      vertex 18.7671 -5 83.2289
      vertex 15 -5 80
      vertex 15 -5 83.2289
    endloop
  endfacet
  facet normal 0 1 0
    outer loop
      vertex 15 -5 83.2355
      vertex 19 -5 120
      vertex 19 -5 83.4286
    endloop
  endfacet
  facet normal 0 1 0
    outer loop
      vertex 15 -5 83.2355
      vertex 19 -5 83.4286
      vertex 18.7748 -5 83.2355
    endloop
  endfacet
  facet normal 0 1 0
    outer loop
      vertex 19 -5 120
      vertex 15 -5 83.2355
      vertex 11 -5 120
    endloop
  endfacet
  facet normal 0 1 -0
    outer loop
      vertex 15 -5 83.2289
      vertex 11 -5 120
      vertex 15 -5 83.2355
    endloop
  endfacet
  facet normal 0 1 -0
    outer loop
      vertex 15 -5 80
      vertex 11 -5 120
      vertex 15 -5 83.2289
    endloop
  endfacet
  facet normal 0 1 -0
    outer loop
      vertex 15 -5 40
      vertex 11 -5 120
      vertex 15 -5 80
    endloop
  endfacet
  facet normal 0 1 0
    outer loop
      vertex 11 -5 1.11022e-015
      vertex 19 -5 36.5714
      vertex 19 -5 1.11022e-015
    endloop
  endfacet
  facet normal 0 1 0
    outer loop
      vertex 15 -5 40
      vertex 11 -5 1.11022e-015
      vertex 11 -5 120
    endloop
  endfacet
  facet normal 0 1 0
    outer loop
      vertex 19 -5 36.5714
      vertex 11 -5 1.11022e-015
      vertex 15 -5 40
    endloop
  endfacet
  facet normal 0 1 -2.22044e-016
    outer loop
      vertex 12.5 2.66454e-014 120
      vertex 5.65685 2.55374e-014 115.01
      vertex 3.53977 2.66454e-014 120
    endloop
  endfacet
  facet normal 0 1 -2.22045e-016
    outer loop
      vertex 5.65685 2.55374e-014 115.01
      vertex 5.65685 1.108e-015 4.99
      vertex 0 2.55374e-014 115.01
    endloop
  endfacet
  facet normal 7.25212e-022 1 -2.22045e-016
    outer loop
      vertex 12.5 2.66454e-014 120
      vertex 5.65685 1.108e-015 4.99
      vertex 5.65685 2.55374e-014 115.01
    endloop
  endfacet
  facet normal -6.64898e-022 1 -2.22045e-016
    outer loop
      vertex 12.5 0 0
      vertex 5.65685 1.108e-015 4.99
      vertex 12.5 2.66454e-014 120
    endloop
  endfacet
  facet normal 0 1 -2.22044e-016
    outer loop
      vertex 5.65685 1.108e-015 4.99
      vertex 12.5 0 0
      vertex 3.53978 0 0
    endloop
  endfacet
  facet normal 0 1 -2.22045e-016
    outer loop
      vertex 0 2.55374e-014 115.01
      vertex 5.65685 1.108e-015 4.99
      vertex 0 1.108e-015 4.99
    endloop
  endfacet
  facet normal 0 1 -2.22044e-016
    outer loop
      vertex 24.3431 1.108e-015 4.99
      vertex 30 6.02692e-015 27.1429
      vertex 30 1.108e-015 4.99
    endloop
  endfacet
  facet normal 1.67125e-021 1 -2.22044e-016
    outer loop
      vertex 30 6.02692e-015 27.1429
      vertex 24.3431 1.108e-015 4.99
      vertex 17.5 8.40597e-015 37.8571
    endloop
  endfacet
  facet normal 4.76724e-022 1 -2.22045e-016
    outer loop
      vertex 24.3431 1.108e-015 4.99
      vertex 17.5 0 0
      vertex 17.5 8.40597e-015 37.8571
    endloop
  endfacet
  facet normal 0 1 -2.22044e-016
    outer loop
      vertex 17.5 0 0
      vertex 24.3431 1.108e-015 4.99
      vertex 26.4602 0 0
    endloop
  endfacet
  facet normal 0 1 -2.22048e-016
    outer loop
      vertex 30 2.55374e-014 115.01
      vertex 30 2.06184e-014 92.8571
      vertex 24.3431 2.55374e-014 115.01
    endloop
  endfacet
  facet normal 0 1 -2.22044e-016
    outer loop
      vertex 24.3431 2.55374e-014 115.01
      vertex 17.5 2.66454e-014 120
      vertex 26.4602 2.66454e-014 120
    endloop
  endfacet
  facet normal 1.13649e-021 1 -2.22047e-016
    outer loop
      vertex 17.5 1.95922e-014 88.2355
      vertex 24.3431 2.55374e-014 115.01
      vertex 30 2.06184e-014 92.8571
    endloop
  endfacet
  facet normal 0 1 -2.22044e-016
    outer loop
      vertex 17.5 1.95922e-014 88.2355
      vertex 30 2.06184e-014 92.8571
      vertex 24.6081 1.95922e-014 88.2355
    endloop
  endfacet
  facet normal -1.8494e-021 1 -2.22047e-016
    outer loop
      vertex 24.3431 2.55374e-014 115.01
      vertex 17.5 1.95922e-014 88.2355
      vertex 17.5 2.66454e-014 120
    endloop
  endfacet
  facet normal 0.287348 -0.957826 0
    outer loop
      vertex 0 -12.5 2.77556e-015
      vertex 5 -11 120
      vertex 0 -12.5 120
    endloop
  endfacet
  facet normal 0.287348 -0.957826 0
    outer loop
      vertex 5 -11 120
      vertex 0 -12.5 2.77556e-015
      vertex 5 -11 2.44249e-015
    endloop
  endfacet
  facet normal 0.287348 0.957826 -0
    outer loop
      vertex 5 -19 4.21885e-015
      vertex 0 -17.5 120
      vertex 5 -19 120
    endloop
  endfacet
  facet normal 0.287348 0.957826 0
    outer loop
      vertex 0 -17.5 120
      vertex 5 -19 4.21885e-015
      vertex 0 -17.5 3.88578e-015
    endloop
  endfacet
  facet normal -1 0 0
    outer loop
      vertex 5 -11 2.44249e-015
      vertex 5 -19 120
      vertex 5 -11 120
    endloop
  endfacet
  facet normal -1 0 0
    outer loop
      vertex 5 -19 120
      vertex 5 -11 2.44249e-015
      vertex 5 -19 4.21885e-015
    endloop
  endfacet
  facet normal -1 -0 0
    outer loop
      vertex 0 -5.65685 4.99
      vertex 0 -12.5 2.77556e-015
      vertex 0 -5.65685 115.01
    endloop
  endfacet
  facet normal -1 0 0
    outer loop
      vertex 0 -12.5 2.77556e-015
      vertex 0 -5.65685 4.99
      vertex 0 -3.53977 7.85988e-016
    endloop
  endfacet
  facet normal -1 0 0
    outer loop
      vertex 0 -5.65685 4.99
      vertex 0 2.55374e-014 115.01
      vertex 0 1.108e-015 4.99
    endloop
  endfacet
  facet normal -1 -0 0
    outer loop
      vertex 0 2.55374e-014 115.01
      vertex 0 -5.65685 4.99
      vertex 0 -5.65685 115.01
    endloop
  endfacet
  facet normal -1 0 0
    outer loop
      vertex 0 -5.65685 115.01
      vertex 0 -12.5 120
      vertex 0 -3.53978 120
    endloop
  endfacet
  facet normal -1 0 0
    outer loop
      vertex 0 -12.5 120
      vertex 0 -5.65685 115.01
      vertex 0 -12.5 2.77556e-015
    endloop
  endfacet
  facet normal -1 0 0
    outer loop
      vertex 0 -30 4.99
      vertex 0 -24.3431 115.01
      vertex 0 -24.3431 4.99
    endloop
  endfacet
  facet normal -1 -0 0
    outer loop
      vertex 0 -24.3431 115.01
      vertex 0 -30 4.99
      vertex 0 -30 115.01
    endloop
  endfacet
  facet normal -1 0 0
    outer loop
      vertex 0 -17.5 3.88578e-015
      vertex 0 -26.4602 5.87535e-015
      vertex 0 -24.3431 4.99
    endloop
  endfacet
  facet normal -1 0 0
    outer loop
      vertex 0 -24.3431 4.99
      vertex 0 -17.5 120
      vertex 0 -17.5 3.88578e-015
    endloop
  endfacet
  facet normal -1 0 0
    outer loop
      vertex 0 -24.3431 115.01
      vertex 0 -17.5 120
      vertex 0 -24.3431 4.99
    endloop
  endfacet
  facet normal -1 -0 0
    outer loop
      vertex 0 -17.5 120
      vertex 0 -24.3431 115.01
      vertex 0 -26.4602 120
    endloop
  endfacet
  facet normal 0 -1 0
    outer loop
      vertex 11.0656 -25 5.55112e-015
      vertex 15 -25 40
      vertex 15 -25 60
    endloop
  endfacet
  facet normal 0 -1 0
    outer loop
      vertex 11.0656 -25 5.55112e-015
      vertex 19 -25 36.5714
      vertex 15 -25 40
    endloop
  endfacet
  facet normal 0 -1 -0
    outer loop
      vertex 19 -25 36.5714
      vertex 11.0656 -25 5.55112e-015
      vertex 19 -25 5.55112e-015
    endloop
  endfacet
  facet normal 0 -1 0
    outer loop
      vertex 18.9344 -25 120
      vertex 19 -25 83.4286
      vertex 19 -25 120
    endloop
  endfacet
  facet normal 0 -1 0
    outer loop
      vertex 16.5236 -25 83.2355
      vertex 19 -25 83.4286
      vertex 18.9344 -25 120
    endloop
  endfacet
  facet normal 0 -1 0
    outer loop
      vertex 19 -25 83.4286
      vertex 16.5236 -25 83.2355
      vertex 18.7748 -25 83.2355
    endloop
  endfacet
  facet normal -0 -1 0
    outer loop
      vertex 18.7671 -25 83.2289
      vertex 16.5232 -25 83.2289
      vertex 16.3896 -25 81.1911
    endloop
  endfacet
  facet normal 0 -1 0
    outer loop
      vertex 11 -25 120
      vertex 15 -25 83.2355
      vertex 18.9344 -25 120
    endloop
  endfacet
  facet normal 0 -1 0
    outer loop
      vertex 11 -25 120
      vertex 15 -25 83.2289
      vertex 15 -25 83.2355
    endloop
  endfacet
  facet normal 0 -1 0
    outer loop
      vertex 15 -25 83.2289
      vertex 16.3896 -25 81.1911
      vertex 16.5232 -25 83.2289
    endloop
  endfacet
  facet normal 0 -1 0
    outer loop
      vertex 15 -25 83.2289
      vertex 15 -25 80
      vertex 16.3896 -25 81.1911
    endloop
  endfacet
  facet normal 0 -1 0
    outer loop
      vertex 11 -25 120
      vertex 15 -25 80
      vertex 15 -25 83.2289
    endloop
  endfacet
  facet normal 0 -1 0
    outer loop
      vertex 11 -25 120
      vertex 15 -25 60
      vertex 15 -25 80
    endloop
  endfacet
  facet normal 0 -1 0
    outer loop
      vertex 11 -25 5.55112e-015
      vertex 15 -25 60
      vertex 11 -25 120
    endloop
  endfacet
  facet normal 0 -1 0
    outer loop
      vertex 15 -25 60
      vertex 11 -25 5.55112e-015
      vertex 11.0656 -25 5.55112e-015
    endloop
  endfacet
  facet normal 0 -1 0
    outer loop
      vertex 18.9344 -25 120
      vertex 15 -25 83.2355
      vertex 16.5236 -25 83.2355
    endloop
  endfacet
  facet normal 0.91354 0.406748 0
    outer loop
      vertex 11.3594 -17.645 119.51
      vertex 10.5983 -15.9356 0.49
      vertex 10.5983 -15.9356 119.51
    endloop
  endfacet
  facet normal 0.91354 0.406748 0
    outer loop
      vertex 10.5983 -15.9356 0.49
      vertex 11.3594 -17.645 119.51
      vertex 11.3594 -17.645 0.49
    endloop
  endfacet
  facet normal -0.104476 -0.994527 0
    outer loop
      vertex 14.5296 -10.5247 119.51
      vertex 16.3906 -10.7202 81.1919
      vertex 16.3906 -10.7202 119.51
    endloop
  endfacet
  facet normal -0.104487 -0.994526 -5.33966e-007
    outer loop
      vertex 14.5296 -10.5247 119.51
      vertex 15 -10.5741 80
      vertex 16.3906 -10.7202 81.1919
    endloop
  endfacet
  facet normal -0.104443 -0.994531 0
    outer loop
      vertex 14.5296 -10.5247 119.51
      vertex 15 -10.5741 40
      vertex 15 -10.5741 80
    endloop
  endfacet
  facet normal -0.104443 -0.994531 0
    outer loop
      vertex 14.5296 -10.5247 0.49
      vertex 15 -10.5741 40
      vertex 14.5296 -10.5247 119.51
    endloop
  endfacet
  facet normal -0.104487 -0.994526 5.33966e-007
    outer loop
      vertex 14.5296 -10.5247 0.49
      vertex 16.3906 -10.7202 38.8081
      vertex 15 -10.5741 40
    endloop
  endfacet
  facet normal -0.104476 -0.994527 -0
    outer loop
      vertex 16.3906 -10.7202 38.8081
      vertex 14.5296 -10.5247 0.49
      vertex 16.3906 -10.7202 0.49
    endloop
  endfacet
  facet normal -0.978152 -0.20789 0
    outer loop
      vertex 19.5 -15 83.8571
      vertex 19.111 -13.1697 119.51
      vertex 19.111 -13.1697 83.5237
    endloop
  endfacet
  facet normal -0.978152 -0.20789 0
    outer loop
      vertex 19.111 -13.1697 119.51
      vertex 19.5 -15 83.8571
      vertex 19.5 -15 119.51
    endloop
  endfacet
  facet normal -0.978152 -0.20789 -0
    outer loop
      vertex 19.5 -15 36.1429
      vertex 19.111 -13.1697 0.49
      vertex 19.5 -15 0.49
    endloop
  endfacet
  facet normal -0.978152 -0.20789 0
    outer loop
      vertex 19.111 -13.1697 0.49
      vertex 19.5 -15 36.1429
      vertex 19.111 -13.1697 36.4763
    endloop
  endfacet
  facet normal 1 -0 0
    outer loop
      vertex 10.5983 -15.9356 119.51
      vertex 10.5983 -14.0644 0.49
      vertex 10.5983 -14.0644 119.51
    endloop
  endfacet
  facet normal 1 0 0
    outer loop
      vertex 10.5983 -14.0644 0.49
      vertex 10.5983 -15.9356 119.51
      vertex 10.5983 -15.9356 0.49
    endloop
  endfacet
  facet normal 0.66913 -0.743145 0
    outer loop
      vertex 11.3594 -12.355 0.49
      vertex 12.75 -11.1029 119.51
      vertex 11.3594 -12.355 119.51
    endloop
  endfacet
  facet normal 0.66913 -0.743145 0
    outer loop
      vertex 12.75 -11.1029 119.51
      vertex 11.3594 -12.355 0.49
      vertex 12.75 -11.1029 0.49
    endloop
  endfacet
  facet normal -0.978152 0.20789 0
    outer loop
      vertex 19.111 -16.8303 119.51
      vertex 19.5 -15 83.8571
      vertex 19.111 -16.8303 83.5237
    endloop
  endfacet
  facet normal -0.978152 0.20789 0
    outer loop
      vertex 19.5 -15 83.8571
      vertex 19.111 -16.8303 119.51
      vertex 19.5 -15 119.51
    endloop
  endfacet
  facet normal -0.978152 0.20789 0
    outer loop
      vertex 19.111 -16.8303 0.49
      vertex 19.5 -15 36.1429
      vertex 19.5 -15 0.49
    endloop
  endfacet
  facet normal -0.978152 0.20789 0
    outer loop
      vertex 19.5 -15 36.1429
      vertex 19.111 -16.8303 0.49
      vertex 19.111 -16.8303 36.4763
    endloop
  endfacet
  facet normal 0.91354 -0.406748 0
    outer loop
      vertex 10.5983 -14.0644 119.51
      vertex 11.3594 -12.355 0.49
      vertex 11.3594 -12.355 119.51
    endloop
  endfacet
  facet normal 0.91354 -0.406748 0
    outer loop
      vertex 11.3594 -12.355 0.49
      vertex 10.5983 -14.0644 119.51
      vertex 10.5983 -14.0644 0.49
    endloop
  endfacet
  facet normal 0.309004 -0.951061 0
    outer loop
      vertex 12.75 -11.1029 0.49
      vertex 14.5296 -10.5247 119.51
      vertex 12.75 -11.1029 119.51
    endloop
  endfacet
  facet normal 0.309004 -0.951061 0
    outer loop
      vertex 14.5296 -10.5247 119.51
      vertex 12.75 -11.1029 0.49
      vertex 14.5296 -10.5247 0.49
    endloop
  endfacet
  facet normal -0.80902 -0.587781 0
    outer loop
      vertex 19.111 -13.1697 83.5237
      vertex 18.0111 -11.6558 119.51
      vertex 18.0111 -11.6558 82.5809
    endloop
  endfacet
  facet normal -0.80902 -0.587781 0
    outer loop
      vertex 18.0111 -11.6558 119.51
      vertex 19.111 -13.1697 83.5237
      vertex 19.111 -13.1697 119.51
    endloop
  endfacet
  facet normal -0.80902 -0.587781 -0
    outer loop
      vertex 19.111 -13.1697 36.4763
      vertex 18.0111 -11.6558 0.49
      vertex 19.111 -13.1697 0.49
    endloop
  endfacet
  facet normal -0.80902 -0.587781 0
    outer loop
      vertex 18.0111 -11.6558 0.49
      vertex 19.111 -13.1697 36.4763
      vertex 18.0111 -11.6558 37.4191
    endloop
  endfacet
  facet normal 0.309004 0.951061 -0
    outer loop
      vertex 14.5296 -19.4753 0.49
      vertex 12.75 -18.8971 119.51
      vertex 14.5296 -19.4753 119.51
    endloop
  endfacet
  facet normal 0.309004 0.951061 -0
    outer loop
      vertex 12.75 -18.8971 0.49
      vertex 12.75 -18.8971 119.51
      vertex 14.5296 -19.4753 0.49
    endloop
  endfacet
  facet normal 0.66913 0.743145 -0
    outer loop
      vertex 12.75 -18.8971 0.49
      vertex 11.3594 -17.645 119.51
      vertex 12.75 -18.8971 119.51
    endloop
  endfacet
  facet normal 0.66913 0.743145 0
    outer loop
      vertex 11.3594 -17.645 119.51
      vertex 12.75 -18.8971 0.49
      vertex 11.3594 -17.645 0.49
    endloop
  endfacet
  facet normal -0.500002 -0.866025 0
    outer loop
      vertex 16.3906 -10.7202 119.51
      vertex 18.0111 -11.6558 82.5809
      vertex 18.0111 -11.6558 119.51
    endloop
  endfacet
  facet normal -0.500002 -0.866025 0
    outer loop
      vertex 18.0111 -11.6558 82.5809
      vertex 16.3906 -10.7202 119.51
      vertex 16.3906 -10.7202 81.1919
    endloop
  endfacet
  facet normal -0.500002 -0.866025 0
    outer loop
      vertex 16.3906 -10.7202 0.49
      vertex 18.0111 -11.6558 37.4191
      vertex 16.3906 -10.7202 38.8081
    endloop
  endfacet
  facet normal -0.500002 -0.866025 -0
    outer loop
      vertex 18.0111 -11.6558 37.4191
      vertex 16.3906 -10.7202 0.49
      vertex 18.0111 -11.6558 0.49
    endloop
  endfacet
  facet normal -0.500002 0.866025 0
    outer loop
      vertex 18.0111 -18.3442 82.5809
      vertex 16.3906 -19.2798 119.51
      vertex 18.0111 -18.3442 119.51
    endloop
  endfacet
  facet normal -0.500002 0.866025 0
    outer loop
      vertex 16.3906 -19.2798 119.51
      vertex 18.0111 -18.3442 82.5809
      vertex 16.3906 -19.2798 81.1919
    endloop
  endfacet
  facet normal -0.500002 0.866025 0
    outer loop
      vertex 16.3906 -19.2798 0.49
      vertex 18.0111 -18.3442 37.4191
      vertex 18.0111 -18.3442 0.49
    endloop
  endfacet
  facet normal -0.500002 0.866025 0
    outer loop
      vertex 18.0111 -18.3442 37.4191
      vertex 16.3906 -19.2798 0.49
      vertex 16.3906 -19.2798 38.8081
    endloop
  endfacet
  facet normal -0.80902 0.587781 0
    outer loop
      vertex 18.0111 -18.3442 119.51
      vertex 19.111 -16.8303 83.5237
      vertex 18.0111 -18.3442 82.5809
    endloop
  endfacet
  facet normal -0.80902 0.587781 0
    outer loop
      vertex 19.111 -16.8303 83.5237
      vertex 18.0111 -18.3442 119.51
      vertex 19.111 -16.8303 119.51
    endloop
  endfacet
  facet normal -0.80902 0.587781 0
    outer loop
      vertex 18.0111 -18.3442 0.49
      vertex 19.111 -16.8303 36.4763
      vertex 19.111 -16.8303 0.49
    endloop
  endfacet
  facet normal -0.80902 0.587781 0
    outer loop
      vertex 19.111 -16.8303 36.4763
      vertex 18.0111 -18.3442 0.49
      vertex 18.0111 -18.3442 37.4191
    endloop
  endfacet
  facet normal -0.104476 0.994527 0
    outer loop
      vertex 16.3906 -19.2798 81.1919
      vertex 14.5296 -19.4753 119.51
      vertex 16.3906 -19.2798 119.51
    endloop
  endfacet
  facet normal -0.104487 0.994526 -5.33966e-007
    outer loop
      vertex 15 -19.4259 80
      vertex 14.5296 -19.4753 119.51
      vertex 16.3906 -19.2798 81.1919
    endloop
  endfacet
  facet normal -0.104443 0.994531 0
    outer loop
      vertex 15 -19.4259 40
      vertex 14.5296 -19.4753 119.51
      vertex 15 -19.4259 80
    endloop
  endfacet
  facet normal -0.104476 0.994527 0
    outer loop
      vertex 14.5296 -19.4753 0.49
      vertex 16.3906 -19.2798 38.8081
      vertex 16.3906 -19.2798 0.49
    endloop
  endfacet
  facet normal -0.104443 0.994531 0
    outer loop
      vertex 15 -19.4259 40
      vertex 14.5296 -19.4753 0.49
      vertex 14.5296 -19.4753 119.51
    endloop
  endfacet
  facet normal -0.104487 0.994526 5.33966e-007
    outer loop
      vertex 16.3906 -19.2798 38.8081
      vertex 14.5296 -19.4753 0.49
      vertex 15 -19.4259 40
    endloop
  endfacet
  facet normal -0.699254 -0.148622 -0.699254
    outer loop
      vertex 19.5664 -13.007 2.88813e-015
      vertex 19.99 -15 3.33067e-015
      vertex 19.5 -15 0.49
    endloop
  endfacet
  facet normal -0.0747241 -0.710896 -0.699316
    outer loop
      vertex 16.5048 -10.2503 2.27603e-015
      vertex 14.5296 -10.5247 0.49
      vertex 14.4784 -10.0373 2.22874e-015
    endloop
  endfacet
  facet normal -0.578475 -0.420014 -0.699253
    outer loop
      vertex 19.111 -13.1697 0.49
      vertex 19.5366 -12.9401 2.87328e-015
      vertex 19.5586 -12.9704 2.88e-015
    endloop
  endfacet
  facet normal -0.578359 -0.420198 -0.699239
    outer loop
      vertex 19.5366 -12.9401 2.87328e-015
      vertex 19.111 -13.1697 0.49
      vertex 18.0111 -11.6558 0.49
    endloop
  endfacet
  facet normal -0.699254 0.148622 -0.699254
    outer loop
      vertex 19.99 -15 3.33067e-015
      vertex 19.5664 -16.993 3.77321e-015
      vertex 19.5 -15 0.49
    endloop
  endfacet
  facet normal -0.0746898 0.710986 -0.699228
    outer loop
      vertex 16.3906 -19.2798 0.49
      vertex 16.5048 -19.7497 4.38531e-015
      vertex 14.5296 -19.4753 0.49
    endloop
  endfacet
  facet normal -0.0745415 0.711012 -0.699218
    outer loop
      vertex 16.5048 -19.7497 4.38531e-015
      vertex 16.3906 -19.2798 0.49
      vertex 16.542 -19.7458 4.38444e-015
    endloop
  endfacet
  facet normal -0.578354 0.420187 -0.69925
    outer loop
      vertex 19.5366 -17.0599 3.78806e-015
      vertex 18.339 -18.7083 4.15408e-015
      vertex 18.0111 -18.3442 0.49
    endloop
  endfacet
  facet normal -0.578475 0.420014 -0.699253
    outer loop
      vertex 19.5366 -17.0599 3.78806e-015
      vertex 19.111 -16.8303 0.49
      vertex 19.5586 -17.0296 3.78133e-015
    endloop
  endfacet
  facet normal -0.578359 0.420198 -0.699239
    outer loop
      vertex 19.111 -16.8303 0.49
      vertex 19.5366 -17.0599 3.78806e-015
      vertex 18.0111 -18.3442 0.49
    endloop
  endfacet
  facet normal -0.699269 -0.148618 -0.699239
    outer loop
      vertex 19.111 -13.1697 0.49
      vertex 19.5664 -13.007 2.88813e-015
      vertex 19.5 -15 0.49
    endloop
  endfacet
  facet normal -0.699161 -0.149001 -0.699266
    outer loop
      vertex 19.5664 -13.007 2.88813e-015
      vertex 19.111 -13.1697 0.49
      vertex 19.5586 -12.9704 2.88e-015
    endloop
  endfacet
  facet normal 0.653054 -0.290776 -0.699263
    outer loop
      vertex 10.9478 -12.1011 2.68699e-015
      vertex 10.5983 -14.0644 0.49
      vertex 10.119 -13.9625 3.1003e-015
    endloop
  endfacet
  facet normal 0.220903 0.679903 -0.699238
    outer loop
      vertex 12.5406 -19.333 4.2928e-015
      vertex 12.75 -18.8971 0.49
      vertex 14.5296 -19.4753 0.49
    endloop
  endfacet
  facet normal 0.219777 0.680352 -0.699156
    outer loop
      vertex 12.75 -18.8971 0.49
      vertex 12.5406 -19.333 4.2928e-015
      vertex 12.505 -19.3215 4.29023e-015
    endloop
  endfacet
  facet normal 0.653054 0.290776 -0.699263
    outer loop
      vertex 10.5983 -15.9356 0.49
      vertex 10.9478 -17.8989 3.97435e-015
      vertex 10.119 -16.0375 3.56104e-015
    endloop
  endfacet
  facet normal 0.478329 0.531235 -0.699279
    outer loop
      vertex 12.75 -18.8971 0.49
      vertex 12.505 -19.3215 4.29023e-015
      vertex 10.9908 -17.9581 3.9875e-015
    endloop
  endfacet
  facet normal 0.220915 0.67983 -0.699306
    outer loop
      vertex 14.5296 -19.4753 0.49
      vertex 14.4784 -19.9627 4.4326e-015
      vertex 12.5406 -19.333 4.2928e-015
    endloop
  endfacet
  facet normal 0.220915 -0.67983 -0.699306
    outer loop
      vertex 14.4784 -10.0373 2.22874e-015
      vertex 14.5296 -10.5247 0.49
      vertex 12.5406 -10.667 2.36854e-015
    endloop
  endfacet
  facet normal -0.357445 -0.619111 -0.699238
    outer loop
      vertex 16.3906 -10.7202 0.49
      vertex 16.5744 -10.2729 2.28105e-015
      vertex 18.0111 -11.6558 0.49
    endloop
  endfacet
  facet normal -0.357353 -0.619157 -0.699245
    outer loop
      vertex 16.5744 -10.2729 2.28105e-015
      vertex 16.3906 -10.7202 0.49
      vertex 16.542 -10.2542 2.2769e-015
    endloop
  endfacet
  facet normal -0.0746898 -0.710986 -0.699228
    outer loop
      vertex 16.5048 -10.2503 2.27603e-015
      vertex 16.3906 -10.7202 0.49
      vertex 14.5296 -10.5247 0.49
    endloop
  endfacet
  facet normal -0.0745415 -0.711012 -0.699218
    outer loop
      vertex 16.3906 -10.7202 0.49
      vertex 16.5048 -10.2503 2.27603e-015
      vertex 16.542 -10.2542 2.2769e-015
    endloop
  endfacet
  facet normal -0.357447 -0.619112 -0.699236
    outer loop
      vertex 18.339 -11.2917 2.50726e-015
      vertex 18.0111 -11.6558 0.49
      vertex 16.5744 -10.2729 2.28105e-015
    endloop
  endfacet
  facet normal -0.578354 -0.420187 -0.69925
    outer loop
      vertex 18.339 -11.2917 2.50726e-015
      vertex 19.5366 -12.9401 2.87328e-015
      vertex 18.0111 -11.6558 0.49
    endloop
  endfacet
  facet normal 0.65293 0.291042 -0.699269
    outer loop
      vertex 10.9478 -17.8989 3.97435e-015
      vertex 11.3594 -17.645 0.49
      vertex 10.963 -17.933 3.98194e-015
    endloop
  endfacet
  facet normal 0.65307 0.290776 -0.699248
    outer loop
      vertex 11.3594 -17.645 0.49
      vertex 10.9478 -17.8989 3.97435e-015
      vertex 10.5983 -15.9356 0.49
    endloop
  endfacet
  facet normal 0.478327 -0.531236 -0.699279
    outer loop
      vertex 11.3594 -12.355 0.49
      vertex 12.505 -10.6785 2.37111e-015
      vertex 12.75 -11.1029 0.49
    endloop
  endfacet
  facet normal 0.478369 -0.531253 -0.699238
    outer loop
      vertex 12.505 -10.6785 2.37111e-015
      vertex 11.3594 -12.355 0.49
      vertex 10.963 -12.067 2.6794e-015
    endloop
  endfacet
  facet normal 0.65293 -0.291042 -0.699269
    outer loop
      vertex 11.3594 -12.355 0.49
      vertex 10.9478 -12.1011 2.68699e-015
      vertex 10.963 -12.067 2.6794e-015
    endloop
  endfacet
  facet normal 0.65307 -0.290776 -0.699248
    outer loop
      vertex 10.9478 -12.1011 2.68699e-015
      vertex 11.3594 -12.355 0.49
      vertex 10.5983 -14.0644 0.49
    endloop
  endfacet
  facet normal 0.714869 0 -0.699259
    outer loop
      vertex 10.5983 -15.9356 0.49
      vertex 10.119 -13.9625 3.1003e-015
      vertex 10.5983 -14.0644 0.49
    endloop
  endfacet
  facet normal 0.714869 -1.55266e-016 -0.699259
    outer loop
      vertex 10.119 -13.9625 3.1003e-015
      vertex 10.5983 -15.9356 0.49
      vertex 10.119 -16.0375 3.56104e-015
    endloop
  endfacet
  facet normal 0.47833 0.531241 -0.699274
    outer loop
      vertex 10.9908 -17.9581 3.9875e-015
      vertex 11.3594 -17.645 0.49
      vertex 12.75 -18.8971 0.49
    endloop
  endfacet
  facet normal 0.479012 0.53054 -0.699339
    outer loop
      vertex 11.3594 -17.645 0.49
      vertex 10.9908 -17.9581 3.9875e-015
      vertex 10.963 -17.933 3.98194e-015
    endloop
  endfacet
  facet normal -0.0747241 0.710896 -0.699316
    outer loop
      vertex 14.5296 -19.4753 0.49
      vertex 16.5048 -19.7497 4.38531e-015
      vertex 14.4784 -19.9627 4.4326e-015
    endloop
  endfacet
  facet normal -0.357353 0.619157 -0.699245
    outer loop
      vertex 16.3906 -19.2798 0.49
      vertex 16.5744 -19.7271 4.38029e-015
      vertex 16.542 -19.7458 4.38444e-015
    endloop
  endfacet
  facet normal -0.357445 0.619111 -0.699238
    outer loop
      vertex 16.5744 -19.7271 4.38029e-015
      vertex 16.3906 -19.2798 0.49
      vertex 18.0111 -18.3442 0.49
    endloop
  endfacet
  facet normal -0.357447 0.619112 -0.699236
    outer loop
      vertex 18.0111 -18.3442 0.49
      vertex 18.339 -18.7083 4.15408e-015
      vertex 16.5744 -19.7271 4.38029e-015
    endloop
  endfacet
  facet normal 0.220903 -0.679903 -0.699238
    outer loop
      vertex 12.75 -11.1029 0.49
      vertex 12.5406 -10.667 2.36854e-015
      vertex 14.5296 -10.5247 0.49
    endloop
  endfacet
  facet normal 0.219777 -0.680352 -0.699156
    outer loop
      vertex 12.5406 -10.667 2.36854e-015
      vertex 12.75 -11.1029 0.49
      vertex 12.505 -10.6785 2.37111e-015
    endloop
  endfacet
  facet normal -0.699161 0.149001 -0.699266
    outer loop
      vertex 19.111 -16.8303 0.49
      vertex 19.5664 -16.993 3.77321e-015
      vertex 19.5586 -17.0296 3.78133e-015
    endloop
  endfacet
  facet normal -0.699269 0.148618 -0.699239
    outer loop
      vertex 19.5664 -16.993 3.77321e-015
      vertex 19.111 -16.8303 0.49
      vertex 19.5 -15 0.49
    endloop
  endfacet
  facet normal -0.699254 0.148622 0.699254
    outer loop
      vertex 19.5664 -16.993 120
      vertex 19.99 -15 120
      vertex 19.5 -15 119.51
    endloop
  endfacet
  facet normal 0.714869 0 0.699259
    outer loop
      vertex 10.119 -13.9625 120
      vertex 10.5983 -15.9356 119.51
      vertex 10.5983 -14.0644 119.51
    endloop
  endfacet
  facet normal 0.714869 0 0.699259
    outer loop
      vertex 10.5983 -15.9356 119.51
      vertex 10.119 -13.9625 120
      vertex 10.119 -16.0375 120
    endloop
  endfacet
  facet normal -0.0747241 0.710896 0.699316
    outer loop
      vertex 16.5048 -19.7497 120
      vertex 14.5296 -19.4753 119.51
      vertex 14.4784 -19.9627 120
    endloop
  endfacet
  facet normal -0.578475 0.420014 0.699253
    outer loop
      vertex 19.111 -16.8303 119.51
      vertex 19.5366 -17.0599 120
      vertex 19.5586 -17.0296 120
    endloop
  endfacet
  facet normal -0.578359 0.420198 0.699239
    outer loop
      vertex 19.5366 -17.0599 120
      vertex 19.111 -16.8303 119.51
      vertex 18.0111 -18.3442 119.51
    endloop
  endfacet
  facet normal -0.699254 -0.148622 0.699254
    outer loop
      vertex 19.99 -15 120
      vertex 19.5664 -13.007 120
      vertex 19.5 -15 119.51
    endloop
  endfacet
  facet normal -0.0746898 -0.710986 0.699228
    outer loop
      vertex 16.3906 -10.7202 119.51
      vertex 16.5048 -10.2503 120
      vertex 14.5296 -10.5247 119.51
    endloop
  endfacet
  facet normal -0.0745415 -0.711012 0.699218
    outer loop
      vertex 16.5048 -10.2503 120
      vertex 16.3906 -10.7202 119.51
      vertex 16.542 -10.2542 120
    endloop
  endfacet
  facet normal -0.699269 0.148618 0.699239
    outer loop
      vertex 19.111 -16.8303 119.51
      vertex 19.5664 -16.993 120
      vertex 19.5 -15 119.51
    endloop
  endfacet
  facet normal -0.699161 0.149001 0.699266
    outer loop
      vertex 19.5664 -16.993 120
      vertex 19.111 -16.8303 119.51
      vertex 19.5586 -17.0296 120
    endloop
  endfacet
  facet normal 0.653054 0.290776 0.699263
    outer loop
      vertex 10.9478 -17.8989 120
      vertex 10.5983 -15.9356 119.51
      vertex 10.119 -16.0375 120
    endloop
  endfacet
  facet normal 0.220903 -0.679903 0.699238
    outer loop
      vertex 12.5406 -10.667 120
      vertex 12.75 -11.1029 119.51
      vertex 14.5296 -10.5247 119.51
    endloop
  endfacet
  facet normal 0.219777 -0.680352 0.699156
    outer loop
      vertex 12.75 -11.1029 119.51
      vertex 12.5406 -10.667 120
      vertex 12.505 -10.6785 120
    endloop
  endfacet
  facet normal 0.653054 -0.290776 0.699263
    outer loop
      vertex 10.5983 -14.0644 119.51
      vertex 10.9478 -12.1011 120
      vertex 10.119 -13.9625 120
    endloop
  endfacet
  facet normal 0.478329 -0.531235 0.699279
    outer loop
      vertex 12.75 -11.1029 119.51
      vertex 12.505 -10.6785 120
      vertex 10.9908 -12.0419 120
    endloop
  endfacet
  facet normal 0.220915 -0.67983 0.699306
    outer loop
      vertex 14.5296 -10.5247 119.51
      vertex 14.4784 -10.0373 120
      vertex 12.5406 -10.667 120
    endloop
  endfacet
  facet normal -0.578354 -0.420187 0.69925
    outer loop
      vertex 19.5366 -12.9401 120
      vertex 18.339 -11.2917 120
      vertex 18.0111 -11.6558 119.51
    endloop
  endfacet
  facet normal -0.578475 -0.420014 0.699253
    outer loop
      vertex 19.5366 -12.9401 120
      vertex 19.111 -13.1697 119.51
      vertex 19.5586 -12.9704 120
    endloop
  endfacet
  facet normal -0.578359 -0.420198 0.699239
    outer loop
      vertex 19.111 -13.1697 119.51
      vertex 19.5366 -12.9401 120
      vertex 18.0111 -11.6558 119.51
    endloop
  endfacet
  facet normal 0.220915 0.67983 0.699306
    outer loop
      vertex 14.4784 -19.9627 120
      vertex 14.5296 -19.4753 119.51
      vertex 12.5406 -19.333 120
    endloop
  endfacet
  facet normal -0.357445 0.619111 0.699238
    outer loop
      vertex 16.3906 -19.2798 119.51
      vertex 16.5744 -19.7271 120
      vertex 18.0111 -18.3442 119.51
    endloop
  endfacet
  facet normal -0.357353 0.619157 0.699245
    outer loop
      vertex 16.5744 -19.7271 120
      vertex 16.3906 -19.2798 119.51
      vertex 16.542 -19.7458 120
    endloop
  endfacet
  facet normal -0.0745415 0.711012 0.699218
    outer loop
      vertex 16.3906 -19.2798 119.51
      vertex 16.5048 -19.7497 120
      vertex 16.542 -19.7458 120
    endloop
  endfacet
  facet normal -0.0746898 0.710986 0.699228
    outer loop
      vertex 16.5048 -19.7497 120
      vertex 16.3906 -19.2798 119.51
      vertex 14.5296 -19.4753 119.51
    endloop
  endfacet
  facet normal -0.357447 0.619112 0.699236
    outer loop
      vertex 18.339 -18.7083 120
      vertex 18.0111 -18.3442 119.51
      vertex 16.5744 -19.7271 120
    endloop
  endfacet
  facet normal -0.578354 0.420187 0.69925
    outer loop
      vertex 18.339 -18.7083 120
      vertex 19.5366 -17.0599 120
      vertex 18.0111 -18.3442 119.51
    endloop
  endfacet
  facet normal 0.65293 -0.291042 0.699269
    outer loop
      vertex 10.9478 -12.1011 120
      vertex 11.3594 -12.355 119.51
      vertex 10.963 -12.067 120
    endloop
  endfacet
  facet normal 0.65307 -0.290776 0.699248
    outer loop
      vertex 11.3594 -12.355 119.51
      vertex 10.9478 -12.1011 120
      vertex 10.5983 -14.0644 119.51
    endloop
  endfacet
  facet normal 0.478327 0.531236 0.699279
    outer loop
      vertex 11.3594 -17.645 119.51
      vertex 12.505 -19.3215 120
      vertex 12.75 -18.8971 119.51
    endloop
  endfacet
  facet normal 0.478369 0.531253 0.699238
    outer loop
      vertex 12.505 -19.3215 120
      vertex 11.3594 -17.645 119.51
      vertex 10.963 -17.933 120
    endloop
  endfacet
  facet normal 0.65293 0.291042 0.699269
    outer loop
      vertex 11.3594 -17.645 119.51
      vertex 10.9478 -17.8989 120
      vertex 10.963 -17.933 120
    endloop
  endfacet
  facet normal 0.65307 0.290776 0.699248
    outer loop
      vertex 10.9478 -17.8989 120
      vertex 11.3594 -17.645 119.51
      vertex 10.5983 -15.9356 119.51
    endloop
  endfacet
  facet normal 0.47833 -0.531241 0.699274
    outer loop
      vertex 10.9908 -12.0419 120
      vertex 11.3594 -12.355 119.51
      vertex 12.75 -11.1029 119.51
    endloop
  endfacet
  facet normal 0.479012 -0.53054 0.699339
    outer loop
      vertex 11.3594 -12.355 119.51
      vertex 10.9908 -12.0419 120
      vertex 10.963 -12.067 120
    endloop
  endfacet
  facet normal -0.0747241 -0.710896 0.699316
    outer loop
      vertex 14.5296 -10.5247 119.51
      vertex 16.5048 -10.2503 120
      vertex 14.4784 -10.0373 120
    endloop
  endfacet
  facet normal -0.357353 -0.619157 0.699245
    outer loop
      vertex 16.3906 -10.7202 119.51
      vertex 16.5744 -10.2729 120
      vertex 16.542 -10.2542 120
    endloop
  endfacet
  facet normal -0.357445 -0.619111 0.699238
    outer loop
      vertex 16.5744 -10.2729 120
      vertex 16.3906 -10.7202 119.51
      vertex 18.0111 -11.6558 119.51
    endloop
  endfacet
  facet normal -0.357447 -0.619112 0.699236
    outer loop
      vertex 18.0111 -11.6558 119.51
      vertex 18.339 -11.2917 120
      vertex 16.5744 -10.2729 120
    endloop
  endfacet
  facet normal 0.220903 0.679903 0.699238
    outer loop
      vertex 12.75 -18.8971 119.51
      vertex 12.5406 -19.333 120
      vertex 14.5296 -19.4753 119.51
    endloop
  endfacet
  facet normal 0.219777 0.680352 0.699156
    outer loop
      vertex 12.5406 -19.333 120
      vertex 12.75 -18.8971 119.51
      vertex 12.505 -19.3215 120
    endloop
  endfacet
  facet normal -0.699161 -0.149001 0.699266
    outer loop
      vertex 19.111 -13.1697 119.51
      vertex 19.5664 -13.007 120
      vertex 19.5586 -12.9704 120
    endloop
  endfacet
  facet normal -0.699269 -0.148618 0.699239
    outer loop
      vertex 19.5664 -13.007 120
      vertex 19.111 -13.1697 119.51
      vertex 19.5 -15 119.51
    endloop
  endfacet
  facet normal -0 -2.22044e-016 -1
    outer loop
      vertex 12.5 -30 6.66134e-015
      vertex 3.53978 -30 6.66134e-015
      vertex 11 -25 5.55112e-015
    endloop
  endfacet
  facet normal 9.67293e-021 -2.22042e-016 -1
    outer loop
      vertex 10.963 -12.067 2.6794e-015
      vertex 11.4666 -7.92681 1.76011e-015
      vertex 12.505 -10.6785 2.37111e-015
    endloop
  endfacet
  facet normal -1.00857e-019 -2.22536e-016 -1
    outer loop
      vertex 7.93812 -11.4553 2.54358e-015
      vertex 10.963 -12.067 2.6794e-015
      vertex 10.9478 -12.1011 2.68699e-015
    endloop
  endfacet
  facet normal 4.52565e-021 -2.22045e-016 -1
    outer loop
      vertex 7.93812 -11.4553 2.54358e-015
      vertex 10.9478 -12.1011 2.68699e-015
      vertex 10.119 -13.9625 3.1003e-015
    endloop
  endfacet
  facet normal -7.08187e-022 -2.2204e-016 -1
    outer loop
      vertex 10.963 -12.067 2.6794e-015
      vertex 7.93812 -11.4553 2.54358e-015
      vertex 11.4666 -7.92681 1.76011e-015
    endloop
  endfacet
  facet normal 4.12233e-019 -2.22202e-016 -1
    outer loop
      vertex 12.5406 -19.333 4.2928e-015
      vertex 11.4553 -22.0619 4.89872e-015
      vertex 12.505 -19.3215 4.29023e-015
    endloop
  endfacet
  facet normal -2.504e-021 -2.22043e-016 -1
    outer loop
      vertex 11.4553 -22.0619 4.89872e-015
      vertex 10.9908 -17.9581 3.9875e-015
      vertex 12.505 -19.3215 4.29023e-015
    endloop
  endfacet
  facet normal 4.24726e-022 -2.22043e-016 -1
    outer loop
      vertex 7.92681 -18.5334 4.11524e-015
      vertex 10.9908 -17.9581 3.9875e-015
      vertex 11.4553 -22.0619 4.89872e-015
    endloop
  endfacet
  facet normal -8.18734e-020 -2.21605e-016 -1
    outer loop
      vertex 10.9908 -17.9581 3.9875e-015
      vertex 7.92681 -18.5334 4.11524e-015
      vertex 10.963 -17.933 3.98194e-015
    endloop
  endfacet
  facet normal 1.0213e-019 -2.22535e-016 -1
    outer loop
      vertex 10.963 -17.933 3.98194e-015
      vertex 7.92681 -18.5334 4.11524e-015
      vertex 10.9478 -17.8989 3.97435e-015
    endloop
  endfacet
  facet normal 5.44848e-021 -2.22043e-016 -1
    outer loop
      vertex 7.92681 -11.4666 2.54609e-015
      vertex 10.119 -13.9625 3.1003e-015
      vertex 10.119 -16.0375 3.56104e-015
    endloop
  endfacet
  facet normal -1.21171e-021 -2.22043e-016 -1
    outer loop
      vertex 10.9478 -17.8989 3.97435e-015
      vertex 7.92681 -18.5334 4.11524e-015
      vertex 10.119 -16.0375 3.56104e-015
    endloop
  endfacet
  facet normal 1.35072e-021 -2.22045e-016 -1
    outer loop
      vertex 7.92681 -11.4666 2.54609e-015
      vertex 10.119 -16.0375 3.56104e-015
      vertex 7.92681 -18.5334 4.11524e-015
    endloop
  endfacet
  facet normal -4.03016e-020 -2.22084e-016 -1
    outer loop
      vertex 10.119 -13.9625 3.1003e-015
      vertex 7.92681 -11.4666 2.54609e-015
      vertex 7.93812 -11.4553 2.54358e-015
    endloop
  endfacet
  facet normal -1.24536e-021 -2.22045e-016 -1
    outer loop
      vertex 7.92681 -18.5334 4.11524e-015
      vertex 5 -19 4.21885e-015
      vertex 7.92681 -11.4666 2.54609e-015
    endloop
  endfacet
  facet normal -1.45742e-021 -2.22044e-016 -1
    outer loop
      vertex 0 -26.4602 5.87535e-015
      vertex 5 -19 4.21885e-015
      vertex 7.92681 -18.5334 4.11524e-015
    endloop
  endfacet
  facet normal 4.19946e-022 -2.22045e-016 -1
    outer loop
      vertex 5 -19 4.21885e-015
      vertex 0 -26.4602 5.87535e-015
      vertex 0 -17.5 3.88578e-015
    endloop
  endfacet
  facet normal -0 -2.22044e-016 -1
    outer loop
      vertex 26.4602 -30 6.66134e-015
      vertex 17.5 -30 6.66134e-015
      vertex 19 -25 5.55112e-015
    endloop
  endfacet
  facet normal -2.97946e-021 -2.22048e-016 -1
    outer loop
      vertex 19 -25 5.55112e-015
      vertex 18.5334 -22.0732 4.90123e-015
      vertex 26.4602 -30 6.66134e-015
    endloop
  endfacet
  facet normal 3.64926e-021 -2.22042e-016 -1
    outer loop
      vertex 18.5334 -22.0732 4.90123e-015
      vertex 16.5744 -19.7271 4.38029e-015
      vertex 18.339 -18.7083 4.15408e-015
    endloop
  endfacet
  facet normal 0 -2.22048e-016 -1
    outer loop
      vertex 11.0656 -25 5.55112e-015
      vertex 18.5334 -22.0732 4.90123e-015
      vertex 19 -25 5.55112e-015
    endloop
  endfacet
  facet normal 4.67212e-020 -2.22006e-016 -1
    outer loop
      vertex 18.5334 -22.0732 4.90123e-015
      vertex 16.542 -19.7458 4.38444e-015
      vertex 16.5744 -19.7271 4.38029e-015
    endloop
  endfacet
  facet normal -9.91778e-020 -2.22131e-016 -1
    outer loop
      vertex 18.5334 -22.0732 4.90123e-015
      vertex 16.5048 -19.7497 4.38531e-015
      vertex 16.542 -19.7458 4.38444e-015
    endloop
  endfacet
  facet normal 2.45991e-021 -2.22042e-016 -1
    outer loop
      vertex 18.5334 -22.0732 4.90123e-015
      vertex 14.4784 -19.9627 4.4326e-015
      vertex 16.5048 -19.7497 4.38531e-015
    endloop
  endfacet
  facet normal -0 -2.22047e-016 -1
    outer loop
      vertex 18.5334 -22.0732 4.90123e-015
      vertex 11.4666 -22.0732 4.90123e-015
      vertex 14.4784 -19.9627 4.4326e-015
    endloop
  endfacet
  facet normal -8.08702e-021 -2.22035e-016 -1
    outer loop
      vertex 14.4784 -19.9627 4.4326e-015
      vertex 11.4666 -22.0732 4.90123e-015
      vertex 12.5406 -19.333 4.2928e-015
    endloop
  endfacet
  facet normal 6.13219e-020 -2.22063e-016 -1
    outer loop
      vertex 11.4553 -22.0619 4.89872e-015
      vertex 12.5406 -19.333 4.2928e-015
      vertex 11.4666 -22.0732 4.90123e-015
    endloop
  endfacet
  facet normal -0 -2.22048e-016 -1
    outer loop
      vertex 18.5334 -22.0732 4.90123e-015
      vertex 11.0656 -25 5.55112e-015
      vertex 11.4666 -22.0732 4.90123e-015
    endloop
  endfacet
  facet normal 0 -2.22048e-016 -1
    outer loop
      vertex 11 -25 5.55112e-015
      vertex 11.4666 -22.0732 4.90123e-015
      vertex 11.0656 -25 5.55112e-015
    endloop
  endfacet
  facet normal 2.97945e-021 -2.22048e-016 -1
    outer loop
      vertex 11.4666 -22.0732 4.90123e-015
      vertex 11 -25 5.55112e-015
      vertex 3.53978 -30 6.66134e-015
    endloop
  endfacet
  facet normal 4.61432e-020 -2.22121e-016 -1
    outer loop
      vertex 19.5586 -12.9704 2.88e-015
      vertex 22.0732 -11.4666 2.54609e-015
      vertex 19.5664 -13.007 2.88813e-015
    endloop
  endfacet
  facet normal 2.98406e-020 -2.22094e-016 -1
    outer loop
      vertex 22.0732 -11.4666 2.54609e-015
      vertex 19.5586 -12.9704 2.88e-015
      vertex 22.0619 -11.4553 2.54358e-015
    endloop
  endfacet
  facet normal -1.10403e-019 -2.21862e-016 -1
    outer loop
      vertex 19.5366 -12.9401 2.87328e-015
      vertex 22.0619 -11.4553 2.54358e-015
      vertex 19.5586 -12.9704 2.88e-015
    endloop
  endfacet
  facet normal -1.84888e-021 -2.22047e-016 -1
    outer loop
      vertex 18.339 -11.2917 2.50726e-015
      vertex 22.0619 -11.4553 2.54358e-015
      vertex 19.5366 -12.9401 2.87328e-015
    endloop
  endfacet
  facet normal -1.66695e-021 -2.22043e-016 -1
    outer loop
      vertex 22.0619 -11.4553 2.54358e-015
      vertex 18.339 -11.2917 2.50726e-015
      vertex 18.5334 -7.92681 1.76011e-015
    endloop
  endfacet
  facet normal -4.19946e-022 -2.22045e-016 -1
    outer loop
      vertex 30 -26.4602 5.87535e-015
      vertex 25 -19 4.21885e-015
      vertex 30 -17.5 3.88578e-015
    endloop
  endfacet
  facet normal 1.29937e-021 -2.22045e-016 -1
    outer loop
      vertex 25 -19 4.21885e-015
      vertex 22.0732 -18.5334 4.11524e-015
      vertex 25 -11 2.44249e-015
    endloop
  endfacet
  facet normal 1.45743e-021 -2.22044e-016 -1
    outer loop
      vertex 22.0732 -18.5334 4.11524e-015
      vertex 25 -19 4.21885e-015
      vertex 30 -26.4602 5.87535e-015
    endloop
  endfacet
  facet normal 5.01671e-022 -2.22045e-016 -1
    outer loop
      vertex 25 -11 2.44249e-015
      vertex 30 -3.53978 7.85988e-016
      vertex 30 -12.5 2.77556e-015
    endloop
  endfacet
  facet normal 2.30962e-021 -2.22046e-016 -1
    outer loop
      vertex 25 -11 2.44249e-015
      vertex 22.0732 -11.4666 2.54609e-015
      vertex 30 -3.53978 7.85988e-016
    endloop
  endfacet
  facet normal 2.17134e-021 -2.22045e-016 -1
    outer loop
      vertex 22.0732 -18.5334 4.11524e-015
      vertex 22.0732 -11.4666 2.54609e-015
      vertex 25 -11 2.44249e-015
    endloop
  endfacet
  facet normal -2.40015e-021 -2.22045e-016 -1
    outer loop
      vertex 19.99 -15 3.33067e-015
      vertex 22.0732 -11.4666 2.54609e-015
      vertex 22.0732 -18.5334 4.11524e-015
    endloop
  endfacet
  facet normal 5.12697e-022 -2.22047e-016 -1
    outer loop
      vertex 19.5664 -13.007 2.88813e-015
      vertex 22.0732 -11.4666 2.54609e-015
      vertex 19.99 -15 3.33067e-015
    endloop
  endfacet
  facet normal -4.04103e-021 -2.22046e-016 -1
    outer loop
      vertex 22.0732 -18.5334 4.11524e-015
      vertex 19.5664 -16.993 3.77321e-015
      vertex 19.99 -15 3.33067e-015
    endloop
  endfacet
  facet normal 9.87819e-020 -2.21879e-016 -1
    outer loop
      vertex 22.0732 -18.5334 4.11524e-015
      vertex 19.5586 -17.0296 3.78133e-015
      vertex 19.5664 -16.993 3.77321e-015
    endloop
  endfacet
  facet normal -2.83777e-020 -2.22092e-016 -1
    outer loop
      vertex 22.0732 -18.5334 4.11524e-015
      vertex 19.5366 -17.0599 3.78806e-015
      vertex 19.5586 -17.0296 3.78133e-015
    endloop
  endfacet
  facet normal -1.28429e-021 -2.22042e-016 -1
    outer loop
      vertex 18.339 -18.7083 4.15408e-015
      vertex 22.0732 -18.5334 4.11524e-015
      vertex 18.5334 -22.0732 4.90123e-015
    endloop
  endfacet
  facet normal -1.1702e-021 -2.22045e-016 -1
    outer loop
      vertex 22.0732 -18.5334 4.11524e-015
      vertex 18.339 -18.7083 4.15408e-015
      vertex 19.5366 -17.0599 3.78806e-015
    endloop
  endfacet
  facet normal 2.41015e-021 -2.22048e-016 -1
    outer loop
      vertex 18.5334 -7.92681 1.76011e-015
      vertex 19 -5 1.11022e-015
      vertex 26.4602 0 0
    endloop
  endfacet
  facet normal -4.01795e-021 -2.22043e-016 -1
    outer loop
      vertex 16.5744 -10.2729 2.28105e-015
      vertex 18.5334 -7.92681 1.76011e-015
      vertex 18.339 -11.2917 2.50726e-015
    endloop
  endfacet
  facet normal -4.70897e-020 -2.22007e-016 -1
    outer loop
      vertex 16.542 -10.2542 2.2769e-015
      vertex 18.5334 -7.92681 1.76011e-015
      vertex 16.5744 -10.2729 2.28105e-015
    endloop
  endfacet
  facet normal 9.90859e-020 -2.22132e-016 -1
    outer loop
      vertex 16.5048 -10.2503 2.27603e-015
      vertex 18.5334 -7.92681 1.76011e-015
      vertex 16.542 -10.2542 2.2769e-015
    endloop
  endfacet
  facet normal -2.55192e-021 -2.22043e-016 -1
    outer loop
      vertex 14.4784 -10.0373 2.22874e-015
      vertex 18.5334 -7.92681 1.76011e-015
      vertex 16.5048 -10.2503 2.27603e-015
    endloop
  endfacet
  facet normal 0 -2.22048e-016 -1
    outer loop
      vertex 11.4666 -7.92681 1.76011e-015
      vertex 18.5334 -7.92681 1.76011e-015
      vertex 14.4784 -10.0373 2.22874e-015
    endloop
  endfacet
  facet normal 8.32058e-021 -2.22036e-016 -1
    outer loop
      vertex 11.4666 -7.92681 1.76011e-015
      vertex 14.4784 -10.0373 2.22874e-015
      vertex 12.5406 -10.667 2.36854e-015
    endloop
  endfacet
  facet normal -4.1258e-019 -2.22201e-016 -1
    outer loop
      vertex 11.4666 -7.92681 1.76011e-015
      vertex 12.5406 -10.667 2.36854e-015
      vertex 12.505 -10.6785 2.37111e-015
    endloop
  endfacet
  facet normal -0 -2.22047e-016 -1
    outer loop
      vertex 18.5334 -7.92681 1.76011e-015
      vertex 11.4666 -7.92681 1.76011e-015
      vertex 19 -5 1.11022e-015
    endloop
  endfacet
  facet normal 0 -2.22047e-016 -1
    outer loop
      vertex 11.4666 -7.92681 1.76011e-015
      vertex 11 -5 1.11022e-015
      vertex 19 -5 1.11022e-015
    endloop
  endfacet
  facet normal -2.41015e-021 -2.22048e-016 -1
    outer loop
      vertex 11 -5 1.11022e-015
      vertex 11.4666 -7.92681 1.76011e-015
      vertex 3.53978 0 0
    endloop
  endfacet
  facet normal -0 -2.22044e-016 -1
    outer loop
      vertex 26.4602 0 0
      vertex 19 -5 1.11022e-015
      vertex 17.5 0 0
    endloop
  endfacet
  facet normal -0 -2.22044e-016 -1
    outer loop
      vertex 12.5 0 0
      vertex 11 -5 1.11022e-015
      vertex 3.53978 0 0
    endloop
  endfacet
  facet normal -2.11732e-021 -2.22045e-016 -1
    outer loop
      vertex 5 -11 2.44249e-015
      vertex 7.92681 -11.4666 2.54609e-015
      vertex 5 -19 4.21885e-015
    endloop
  endfacet
  facet normal -2.25648e-021 -2.22046e-016 -1
    outer loop
      vertex 5 -11 2.44249e-015
      vertex 0 -3.53977 7.85988e-016
      vertex 7.92681 -11.4666 2.54609e-015
    endloop
  endfacet
  facet normal -5.76014e-022 -2.22045e-016 -1
    outer loop
      vertex 0 -3.53977 7.85988e-016
      vertex 5 -11 2.44249e-015
      vertex 0 -12.5 2.77556e-015
    endloop
  endfacet
  facet normal 0 0 1
    outer loop
      vertex 12.5 2.66454e-014 120
      vertex 3.53977 2.66454e-014 120
      vertex 11 -5 120
    endloop
  endfacet
  facet normal 0 0 1
    outer loop
      vertex 26.4602 2.66454e-014 120
      vertex 17.5 2.66454e-014 120
      vertex 19 -5 120
    endloop
  endfacet
  facet normal -0 0 1
    outer loop
      vertex 19 -5 120
      vertex 18.5334 -7.92681 120
      vertex 26.4602 2.66454e-014 120
    endloop
  endfacet
  facet normal 0 0 1
    outer loop
      vertex 18.5334 -7.92681 120
      vertex 16.5744 -10.2729 120
      vertex 18.339 -11.2917 120
    endloop
  endfacet
  facet normal 0 0 1
    outer loop
      vertex 11.4666 -7.92681 120
      vertex 18.5334 -7.92681 120
      vertex 19 -5 120
    endloop
  endfacet
  facet normal 0 0 1
    outer loop
      vertex 18.5334 -7.92681 120
      vertex 16.542 -10.2542 120
      vertex 16.5744 -10.2729 120
    endloop
  endfacet
  facet normal 0 0 1
    outer loop
      vertex 18.5334 -7.92681 120
      vertex 16.5048 -10.2503 120
      vertex 16.542 -10.2542 120
    endloop
  endfacet
  facet normal 0 0 1
    outer loop
      vertex 18.5334 -7.92681 120
      vertex 14.4784 -10.0373 120
      vertex 16.5048 -10.2503 120
    endloop
  endfacet
  facet normal 0 0 1
    outer loop
      vertex 18.5334 -7.92681 120
      vertex 11.4666 -7.92681 120
      vertex 14.4784 -10.0373 120
    endloop
  endfacet
  facet normal 0 0 1
    outer loop
      vertex 14.4784 -10.0373 120
      vertex 11.4666 -7.92681 120
      vertex 12.5406 -10.667 120
    endloop
  endfacet
  facet normal -0 0 1
    outer loop
      vertex 11.4553 -7.93812 120
      vertex 12.5406 -10.667 120
      vertex 11.4666 -7.92681 120
    endloop
  endfacet
  facet normal -0 0 1
    outer loop
      vertex 11 -5 120
      vertex 11.4666 -7.92681 120
      vertex 19 -5 120
    endloop
  endfacet
  facet normal 0 0 1
    outer loop
      vertex 11.4666 -7.92681 120
      vertex 11 -5 120
      vertex 3.53977 2.66454e-014 120
    endloop
  endfacet
  facet normal 0 0 1
    outer loop
      vertex 22.0732 -11.4666 120
      vertex 19.5664 -13.007 120
      vertex 19.99 -15 120
    endloop
  endfacet
  facet normal 0 0 1
    outer loop
      vertex 22.0732 -11.4666 120
      vertex 19.5586 -12.9704 120
      vertex 19.5664 -13.007 120
    endloop
  endfacet
  facet normal 0 0 1
    outer loop
      vertex 22.0619 -11.4553 120
      vertex 19.5366 -12.9401 120
      vertex 19.5586 -12.9704 120
    endloop
  endfacet
  facet normal -0 0 1
    outer loop
      vertex 18.339 -11.2917 120
      vertex 22.0619 -11.4553 120
      vertex 18.5334 -7.92681 120
    endloop
  endfacet
  facet normal 0 0 1
    outer loop
      vertex 22.0619 -11.4553 120
      vertex 18.339 -11.2917 120
      vertex 19.5366 -12.9401 120
    endloop
  endfacet
  facet normal 0 0 1
    outer loop
      vertex 30 -3.53978 120
      vertex 25 -11 120
      vertex 30 -12.5 120
    endloop
  endfacet
  facet normal 0 0 1
    outer loop
      vertex 25 -11 120
      vertex 22.0732 -11.4666 120
      vertex 25 -19 120
    endloop
  endfacet
  facet normal 0 0 1
    outer loop
      vertex 22.0732 -11.4666 120
      vertex 25 -11 120
      vertex 30 -3.53978 120
    endloop
  endfacet
  facet normal -0 0 1
    outer loop
      vertex 25 -19 120
      vertex 30 -26.4602 120
      vertex 30 -17.5 120
    endloop
  endfacet
  facet normal 0 0 1
    outer loop
      vertex 25 -19 120
      vertex 22.0732 -18.5334 120
      vertex 30 -26.4602 120
    endloop
  endfacet
  facet normal 0 0 1
    outer loop
      vertex 22.0732 -11.4666 120
      vertex 22.0732 -18.5334 120
      vertex 25 -19 120
    endloop
  endfacet
  facet normal 0 0 1
    outer loop
      vertex 19.5586 -12.9704 120
      vertex 22.0732 -11.4666 120
      vertex 22.0619 -11.4553 120
    endloop
  endfacet
  facet normal 0 0 1
    outer loop
      vertex 22.0732 -11.4666 120
      vertex 19.99 -15 120
      vertex 22.0732 -18.5334 120
    endloop
  endfacet
  facet normal -0 0 1
    outer loop
      vertex 19.5664 -16.993 120
      vertex 22.0732 -18.5334 120
      vertex 19.99 -15 120
    endloop
  endfacet
  facet normal -0 0 1
    outer loop
      vertex 19.5586 -17.0296 120
      vertex 22.0732 -18.5334 120
      vertex 19.5664 -16.993 120
    endloop
  endfacet
  facet normal -0 0 1
    outer loop
      vertex 19.5366 -17.0599 120
      vertex 22.0732 -18.5334 120
      vertex 19.5586 -17.0296 120
    endloop
  endfacet
  facet normal 0 0 1
    outer loop
      vertex 18.339 -18.7083 120
      vertex 22.0732 -18.5334 120
      vertex 19.5366 -17.0599 120
    endloop
  endfacet
  facet normal 0 0 1
    outer loop
      vertex 22.0732 -18.5334 120
      vertex 18.339 -18.7083 120
      vertex 18.5334 -22.0732 120
    endloop
  endfacet
  facet normal 0 0 1
    outer loop
      vertex 18.5334 -22.0732 120
      vertex 19 -25 120
      vertex 26.4602 -30 120
    endloop
  endfacet
  facet normal 0 0 1
    outer loop
      vertex 18.5334 -22.0732 120
      vertex 18.9344 -25 120
      vertex 19 -25 120
    endloop
  endfacet
  facet normal -0 0 1
    outer loop
      vertex 16.5744 -19.7271 120
      vertex 18.5334 -22.0732 120
      vertex 18.339 -18.7083 120
    endloop
  endfacet
  facet normal -0 0 1
    outer loop
      vertex 16.542 -19.7458 120
      vertex 18.5334 -22.0732 120
      vertex 16.5744 -19.7271 120
    endloop
  endfacet
  facet normal -0 0 1
    outer loop
      vertex 16.5048 -19.7497 120
      vertex 18.5334 -22.0732 120
      vertex 16.542 -19.7458 120
    endloop
  endfacet
  facet normal -0 0 1
    outer loop
      vertex 14.4784 -19.9627 120
      vertex 18.5334 -22.0732 120
      vertex 16.5048 -19.7497 120
    endloop
  endfacet
  facet normal 0 0 1
    outer loop
      vertex 11.4666 -22.0732 120
      vertex 18.5334 -22.0732 120
      vertex 14.4784 -19.9627 120
    endloop
  endfacet
  facet normal 0 0 1
    outer loop
      vertex 11.4666 -22.0732 120
      vertex 14.4784 -19.9627 120
      vertex 12.5406 -19.333 120
    endloop
  endfacet
  facet normal 0 0 1
    outer loop
      vertex 11.4553 -22.0619 120
      vertex 12.5406 -19.333 120
      vertex 12.505 -19.3215 120
    endloop
  endfacet
  facet normal 0 0 1
    outer loop
      vertex 18.5334 -22.0732 120
      vertex 11.4666 -22.0732 120
      vertex 18.9344 -25 120
    endloop
  endfacet
  facet normal 0 0 1
    outer loop
      vertex 11.4666 -22.0732 120
      vertex 11 -25 120
      vertex 18.9344 -25 120
    endloop
  endfacet
  facet normal 0 -0 1
    outer loop
      vertex 11 -25 120
      vertex 11.4666 -22.0732 120
      vertex 3.53978 -30 120
    endloop
  endfacet
  facet normal 0 0 1
    outer loop
      vertex 26.4602 -30 120
      vertex 19 -25 120
      vertex 17.5 -30 120
    endloop
  endfacet
  facet normal 0 0 1
    outer loop
      vertex 12.5406 -19.333 120
      vertex 11.4553 -22.0619 120
      vertex 11.4666 -22.0732 120
    endloop
  endfacet
  facet normal 0 0 1
    outer loop
      vertex 10.963 -17.933 120
      vertex 11.4553 -22.0619 120
      vertex 12.505 -19.3215 120
    endloop
  endfacet
  facet normal 0 0 1
    outer loop
      vertex 7.92681 -18.5334 120
      vertex 10.963 -17.933 120
      vertex 10.9478 -17.8989 120
    endloop
  endfacet
  facet normal 0 0 1
    outer loop
      vertex 7.92681 -18.5334 120
      vertex 10.9478 -17.8989 120
      vertex 10.119 -16.0375 120
    endloop
  endfacet
  facet normal 0 0 1
    outer loop
      vertex 10.963 -17.933 120
      vertex 7.92681 -18.5334 120
      vertex 11.4553 -22.0619 120
    endloop
  endfacet
  facet normal 0 0 1
    outer loop
      vertex 12.5406 -10.667 120
      vertex 11.4553 -7.93812 120
      vertex 12.505 -10.6785 120
    endloop
  endfacet
  facet normal 0 0 1
    outer loop
      vertex 11.4553 -7.93812 120
      vertex 10.9908 -12.0419 120
      vertex 12.505 -10.6785 120
    endloop
  endfacet
  facet normal -0 0 1
    outer loop
      vertex 7.92681 -11.4666 120
      vertex 10.9908 -12.0419 120
      vertex 11.4553 -7.93812 120
    endloop
  endfacet
  facet normal 0 0 1
    outer loop
      vertex 10.9908 -12.0419 120
      vertex 7.92681 -11.4666 120
      vertex 10.963 -12.067 120
    endloop
  endfacet
  facet normal 0 0 1
    outer loop
      vertex 10.963 -12.067 120
      vertex 7.92681 -11.4666 120
      vertex 10.9478 -12.1011 120
    endloop
  endfacet
  facet normal 0 0 1
    outer loop
      vertex 10.119 -13.9625 120
      vertex 7.92681 -18.5334 120
      vertex 10.119 -16.0375 120
    endloop
  endfacet
  facet normal 0 0 1
    outer loop
      vertex 10.9478 -12.1011 120
      vertex 7.92681 -11.4666 120
      vertex 10.119 -13.9625 120
    endloop
  endfacet
  facet normal 0 0 1
    outer loop
      vertex 10.119 -13.9625 120
      vertex 7.92681 -11.4666 120
      vertex 7.92681 -18.5334 120
    endloop
  endfacet
  facet normal 0 0 1
    outer loop
      vertex 5 -11 120
      vertex 7.92681 -18.5334 120
      vertex 7.92681 -11.4666 120
    endloop
  endfacet
  facet normal 0 0 1
    outer loop
      vertex 5 -19 120
      vertex 7.92681 -18.5334 120
      vertex 5 -11 120
    endloop
  endfacet
  facet normal -0 0 1
    outer loop
      vertex 5 -19 120
      vertex 0 -26.4602 120
      vertex 7.92681 -18.5334 120
    endloop
  endfacet
  facet normal 0 0 1
    outer loop
      vertex 0 -26.4602 120
      vertex 5 -19 120
      vertex 0 -17.5 120
    endloop
  endfacet
  facet normal 0 0 1
    outer loop
      vertex 12.5 -30 120
      vertex 11 -25 120
      vertex 3.53978 -30 120
    endloop
  endfacet
  facet normal 0 0 1
    outer loop
      vertex 0 -3.53978 120
      vertex 5 -11 120
      vertex 7.92681 -11.4666 120
    endloop
  endfacet
  facet normal 0 0 1
    outer loop
      vertex 5 -11 120
      vertex 0 -3.53978 120
      vertex 0 -12.5 120
    endloop
  endfacet
  facet normal 1 0 0
    outer loop
      vertex 15 -25 60
      vertex 15 -19.4259 80
      vertex 15 -25 80
    endloop
  endfacet
  facet normal 1 0 0
    outer loop
      vertex 15 -19.4259 80
      vertex 15 -25 60
      vertex 15 -19.4259 40
    endloop
  endfacet
  facet normal 1 0 0
    outer loop
      vertex 15 -19.4259 40
      vertex 15 -25 60
      vertex 15 -25 40
    endloop
  endfacet
  facet normal 1 -0 0
    outer loop
      vertex 15 -10.5741 80
      vertex 15 -5 40
      vertex 15 -5 80
    endloop
  endfacet
  facet normal 1 0 0
    outer loop
      vertex 15 -5 40
      vertex 15 -10.5741 80
      vertex 15 -10.5741 40
    endloop
  endfacet
  facet normal 0.65079 0 -0.759258
    outer loop
      vertex 30 -30 92.8571
      vertex 25 -19 88.5714
      vertex 30 -17.5 92.8571
    endloop
  endfacet
  facet normal 0.650788 -7.5534e-007 -0.75926
    outer loop
      vertex 19 -25 83.4286
      vertex 25 -19 88.5714
      vertex 24.6081 -30 88.2355
    endloop
  endfacet
  facet normal 0.650789 -8.42712e-007 -0.759259
    outer loop
      vertex 24.6081 -30 88.2355
      vertex 25 -19 88.5714
      vertex 30 -30 92.8571
    endloop
  endfacet
  facet normal 0.65079 0 -0.759258
    outer loop
      vertex 25 -11 88.5714
      vertex 30 2.06184e-014 92.8571
      vertex 30 -12.5 92.8571
    endloop
  endfacet
  facet normal 0.650789 8.42712e-007 -0.759259
    outer loop
      vertex 25 -11 88.5714
      vertex 24.6081 1.95922e-014 88.2355
      vertex 30 2.06184e-014 92.8571
    endloop
  endfacet
  facet normal 0.650788 -1.06285e-005 -0.759259
    outer loop
      vertex 19.5 -15 83.8571
      vertex 25 -19 88.5714
      vertex 19.111 -16.8303 83.5237
    endloop
  endfacet
  facet normal 0.650788 1.06285e-005 -0.759259
    outer loop
      vertex 19.111 -13.1697 83.5237
      vertex 25 -11 88.5714
      vertex 19.5 -15 83.8571
    endloop
  endfacet
  facet normal 0.650793 0 -0.759256
    outer loop
      vertex 25 -19 88.5714
      vertex 19.5 -15 83.8571
      vertex 25 -11 88.5714
    endloop
  endfacet
  facet normal 0.650792 -8.02953e-006 -0.759256
    outer loop
      vertex 18.0111 -18.3442 82.5809
      vertex 25 -19 88.5714
      vertex 19 -25 83.4286
    endloop
  endfacet
  facet normal 0.65076 -5.43366e-005 -0.759283
    outer loop
      vertex 19 -25 83.4286
      vertex 24.6081 -30 88.2355
      vertex 18.9539 -25.1536 83.3891
    endloop
  endfacet
  facet normal 0.650792 8.02953e-006 -0.759256
    outer loop
      vertex 25 -11 88.5714
      vertex 18.0111 -11.6558 82.5809
      vertex 19 -5 83.4286
    endloop
  endfacet
  facet normal 0.650846 -5.93265e-006 -0.75921
    outer loop
      vertex 18.7709 -5.0033 83.2322
      vertex 19 -5 83.4286
      vertex 18.0111 -11.6558 82.5809
    endloop
  endfacet
  facet normal 0.650897 -0.010143 -0.759099
    outer loop
      vertex 19 -5 83.4286
      vertex 18.7709 -5.0033 83.2322
      vertex 18.7748 -5 83.2355
    endloop
  endfacet
  facet normal 0.650793 4.58874e-006 -0.759255
    outer loop
      vertex 16.3906 -10.7202 81.1919
      vertex 18.7709 -5.0033 83.2322
      vertex 18.0111 -11.6558 82.5809
    endloop
  endfacet
  facet normal 0.650791 5.68975e-006 -0.759257
    outer loop
      vertex 15 -5 80
      vertex 18.7709 -5.0033 83.2322
      vertex 16.3906 -10.7202 81.1919
    endloop
  endfacet
  facet normal 0.650778 0 -0.759268
    outer loop
      vertex 15 -5 80
      vertex 16.3906 -10.7202 81.1919
      vertex 15 -10.5741 80
    endloop
  endfacet
  facet normal 0.650755 -0.00987 -0.759224
    outer loop
      vertex 18.7709 -5.0033 83.2322
      vertex 15 -5 80
      vertex 18.7671 -5 83.2289
    endloop
  endfacet
  facet normal 0.650793 -1.23591e-005 -0.759255
    outer loop
      vertex 18.0111 -11.6558 82.5809
      vertex 25 -11 88.5714
      vertex 19.111 -13.1697 83.5237
    endloop
  endfacet
  facet normal 0.650788 7.5534e-007 -0.75926
    outer loop
      vertex 25 -11 88.5714
      vertex 19 -5 83.4286
      vertex 24.6081 1.95922e-014 88.2355
    endloop
  endfacet
  facet normal 0.65076 5.43506e-005 -0.759283
    outer loop
      vertex 24.6081 1.95922e-014 88.2355
      vertex 19 -5 83.4286
      vertex 18.9539 -4.84645 83.3891
    endloop
  endfacet
  facet normal 0.650897 0.010143 -0.759099
    outer loop
      vertex 18.7709 -24.9967 83.2322
      vertex 19 -25 83.4286
      vertex 18.7748 -25 83.2355
    endloop
  endfacet
  facet normal 0.650846 5.93265e-006 -0.75921
    outer loop
      vertex 19 -25 83.4286
      vertex 18.7709 -24.9967 83.2322
      vertex 18.0111 -18.3442 82.5809
    endloop
  endfacet
  facet normal 0.650749 0.00988112 -0.759229
    outer loop
      vertex 16.3896 -25 81.1911
      vertex 18.7709 -24.9967 83.2322
      vertex 18.7671 -25 83.2289
    endloop
  endfacet
  facet normal 0.650793 1.23591e-005 -0.759255
    outer loop
      vertex 25 -19 88.5714
      vertex 18.0111 -18.3442 82.5809
      vertex 19.111 -16.8303 83.5237
    endloop
  endfacet
  facet normal 0.650793 -4.58874e-006 -0.759255
    outer loop
      vertex 18.7709 -24.9967 83.2322
      vertex 16.3906 -19.2798 81.1919
      vertex 18.0111 -18.3442 82.5809
    endloop
  endfacet
  facet normal 0.650789 -7.58394e-006 -0.759259
    outer loop
      vertex 18.7709 -24.9967 83.2322
      vertex 16.3896 -25 81.1911
      vertex 16.3906 -19.2798 81.1919
    endloop
  endfacet
  facet normal 0.650796 0 -0.759253
    outer loop
      vertex 15 -19.4259 80
      vertex 16.3896 -25 81.1911
      vertex 15 -25 80
    endloop
  endfacet
  facet normal 0.650778 -7.58088e-006 -0.759268
    outer loop
      vertex 16.3896 -25 81.1911
      vertex 15 -19.4259 80
      vertex 16.3906 -19.2798 81.1919
    endloop
  endfacet
  facet normal 0.650792 -8.02953e-006 0.759256
    outer loop
      vertex 25 -19 31.4286
      vertex 18.0111 -18.3442 37.4191
      vertex 19 -25 36.5714
    endloop
  endfacet
  facet normal 0.650794 -7.50441e-006 0.759254
    outer loop
      vertex 16.3906 -19.2798 38.8081
      vertex 19 -25 36.5714
      vertex 18.0111 -18.3442 37.4191
    endloop
  endfacet
  facet normal 0.650778 -0 0.759268
    outer loop
      vertex 15 -25 40
      vertex 16.3906 -19.2798 38.8081
      vertex 15 -19.4259 40
    endloop
  endfacet
  facet normal 0.650794 -7.00693e-006 0.759254
    outer loop
      vertex 16.3906 -19.2798 38.8081
      vertex 15 -25 40
      vertex 19 -25 36.5714
    endloop
  endfacet
  facet normal 0.65079 0 0.759258
    outer loop
      vertex 30 6.02692e-015 27.1429
      vertex 25 -11 31.4286
      vertex 30 -12.5 27.1429
    endloop
  endfacet
  facet normal 0.650793 0 0.759256
    outer loop
      vertex 25 -11 31.4286
      vertex 19.5 -15 36.1429
      vertex 25 -19 31.4286
    endloop
  endfacet
  facet normal 0.650788 1.58179e-006 0.759259
    outer loop
      vertex 19 -5 36.5714
      vertex 25 -11 31.4286
      vertex 30 6.02692e-015 27.1429
    endloop
  endfacet
  facet normal 0.650788 1.06285e-005 0.759259
    outer loop
      vertex 25 -11 31.4286
      vertex 19.111 -13.1697 36.4763
      vertex 19.5 -15 36.1429
    endloop
  endfacet
  facet normal 0.650792 8.02953e-006 0.759256
    outer loop
      vertex 18.0111 -11.6558 37.4191
      vertex 25 -11 31.4286
      vertex 19 -5 36.5714
    endloop
  endfacet
  facet normal 0.650788 6.07407e-007 0.759259
    outer loop
      vertex 19 -5 36.5714
      vertex 30 6.02692e-015 27.1429
      vertex 17.5 8.40597e-015 37.8571
    endloop
  endfacet
  facet normal 0.65079 0 0.759258
    outer loop
      vertex 25 -19 31.4286
      vertex 30 -30 27.1429
      vertex 30 -17.5 27.1429
    endloop
  endfacet
  facet normal 0.650788 -1.06285e-005 0.759259
    outer loop
      vertex 19.111 -16.8303 36.4763
      vertex 25 -19 31.4286
      vertex 19.5 -15 36.1429
    endloop
  endfacet
  facet normal 0.650793 1.23591e-005 0.759255
    outer loop
      vertex 18.0111 -18.3442 37.4191
      vertex 25 -19 31.4286
      vertex 19.111 -16.8303 36.4763
    endloop
  endfacet
  facet normal 0.650788 -1.58179e-006 0.759259
    outer loop
      vertex 25 -19 31.4286
      vertex 19 -25 36.5714
      vertex 30 -30 27.1429
    endloop
  endfacet
  facet normal 0.650788 -6.07407e-007 0.759259
    outer loop
      vertex 30 -30 27.1429
      vertex 19 -25 36.5714
      vertex 17.5 -30 37.8571
    endloop
  endfacet
  facet normal 0.650793 -1.23591e-005 0.759255
    outer loop
      vertex 25 -11 31.4286
      vertex 18.0111 -11.6558 37.4191
      vertex 19.111 -13.1697 36.4763
    endloop
  endfacet
  facet normal 0.650794 7.50441e-006 0.759254
    outer loop
      vertex 19 -5 36.5714
      vertex 16.3906 -10.7202 38.8081
      vertex 18.0111 -11.6558 37.4191
    endloop
  endfacet
  facet normal 0.650794 7.00693e-006 0.759254
    outer loop
      vertex 15 -5 40
      vertex 16.3906 -10.7202 38.8081
      vertex 19 -5 36.5714
    endloop
  endfacet
  facet normal 0.650778 0 0.759268
    outer loop
      vertex 16.3906 -10.7202 38.8081
      vertex 15 -5 40
      vertex 15 -10.5741 40
    endloop
  endfacet
  facet normal 1 0 0
    outer loop
      vertex 15 -25 83.2289
      vertex 15 -24.9967 83.2322
      vertex 15 -25 83.2355
    endloop
  endfacet
  facet normal 0 -0.707107 -0.707107
    outer loop
      vertex 15 -24.9967 83.2322
      vertex 16.5236 -25 83.2355
      vertex 15 -25 83.2355
    endloop
  endfacet
  facet normal 0 -0.707107 -0.707107
    outer loop
      vertex 16.5236 -25 83.2355
      vertex 15 -24.9967 83.2322
      vertex 18.7709 -24.9967 83.2322
    endloop
  endfacet
  facet normal 0 -0.707107 -0.707107
    outer loop
      vertex 16.5236 -25 83.2355
      vertex 18.7709 -24.9967 83.2322
      vertex 18.7748 -25 83.2355
    endloop
  endfacet
  facet normal 0 -0.707107 -0.707107
    outer loop
      vertex 18.9539 -25.1536 83.3891
      vertex 24.6081 -30 88.2355
      vertex 17.5 -30 88.2355
    endloop
  endfacet
  facet normal 0 -0.707107 0.707107
    outer loop
      vertex 16.5232 -25 83.2289
      vertex 15 -24.9967 83.2322
      vertex 15 -25 83.2289
    endloop
  endfacet
  facet normal 0 -0.707107 0.707107
    outer loop
      vertex 15 -24.9967 83.2322
      vertex 16.5232 -25 83.2289
      vertex 18.7709 -24.9967 83.2322
    endloop
  endfacet
  facet normal 0 -0.707107 0.707107
    outer loop
      vertex 18.7709 -24.9967 83.2322
      vertex 16.5232 -25 83.2289
      vertex 18.7671 -25 83.2289
    endloop
  endfacet
  facet normal 1 0 -0
    outer loop
      vertex 15 -5 83.2289
      vertex 15 -5 83.2355
      vertex 15 -5.0033 83.2322
    endloop
  endfacet
  facet normal 0 0.707107 0.707107
    outer loop
      vertex 18.7671 -5 83.2289
      vertex 15 -5.0033 83.2322
      vertex 18.7709 -5.0033 83.2322
    endloop
  endfacet
  facet normal 0 0.707107 0.707107
    outer loop
      vertex 15 -5.0033 83.2322
      vertex 18.7671 -5 83.2289
      vertex 15 -5 83.2289
    endloop
  endfacet
  facet normal 0 0.707107 -0.707107
    outer loop
      vertex 18.7709 -5.0033 83.2322
      vertex 15 -5 83.2355
      vertex 18.7748 -5 83.2355
    endloop
  endfacet
  facet normal 0 0.707107 -0.707107
    outer loop
      vertex 15 -5 83.2355
      vertex 18.7709 -5.0033 83.2322
      vertex 15 -5.0033 83.2322
    endloop
  endfacet
  facet normal 0 0.707103 -0.70711
    outer loop
      vertex 24.6081 1.95922e-014 88.2355
      vertex 18.9539 -4.84645 83.3891
      vertex 17.5 1.95922e-014 88.2355
    endloop
  endfacet
endsolid OpenSCAD_Model
