solid OpenSCAD_Model
  facet normal 0 0 -1
    outer loop
      vertex 61.8203 110.019 -4
      vertex 67.03 114.5 -4
      vertex 66.6148 110.55 -4
    endloop
  endfacet
  facet normal -0 0 -1
    outer loop
      vertex 67.03 114.5 -4
      vertex 61.8203 110.019 -4
      vertex 66.6148 118.45 -4
    endloop
  endfacet
  facet normal 0 0 -1
    outer loop
      vertex 61.8203 110.019 -4
      vertex 66.6148 110.55 -4
      vertex 65.3874 106.772 -4
    endloop
  endfacet
  facet normal 0 0 -1
    outer loop
      vertex 60.9496 107.917 -4
      vertex 65.3874 106.772 -4
      vertex 63.4013 103.332 -4
    endloop
  endfacet
  facet normal -0 0 -1
    outer loop
      vertex 66.6148 118.45 -4
      vertex 61.8203 110.019 -4
      vertex 65.9774 120.412 -4
    endloop
  endfacet
  facet normal 0 0 -1
    outer loop
      vertex 65.3874 106.772 -4
      vertex 60.9496 107.917 -4
      vertex 61.8203 110.019 -4
    endloop
  endfacet
  facet normal 0 0 -1
    outer loop
      vertex 58.283 104.247 -4
      vertex 63.4013 103.332 -4
      vertex 60.7435 100.38 -4
    endloop
  endfacet
  facet normal 0 0 -1
    outer loop
      vertex 63.4013 103.332 -4
      vertex 59.7607 105.977 -4
      vertex 60.9496 107.917 -4
    endloop
  endfacet
  facet normal 0 0 -1
    outer loop
      vertex 63.4013 103.332 -4
      vertex 58.283 104.247 -4
      vertex 59.7607 105.977 -4
    endloop
  endfacet
  facet normal 0 0 -1
    outer loop
      vertex 56.5529 102.769 -4
      vertex 60.7435 100.38 -4
      vertex 57.53 98.0455 -4
    endloop
  endfacet
  facet normal 0 0 -1
    outer loop
      vertex 60.7435 100.38 -4
      vertex 56.5529 102.769 -4
      vertex 58.283 104.247 -4
    endloop
  endfacet
  facet normal 0 0 -1
    outer loop
      vertex 57.53 98.0455 -4
      vertex 54.6129 101.58 -4
      vertex 56.5529 102.769 -4
    endloop
  endfacet
  facet normal 0 0 -1
    outer loop
      vertex 53.9013 96.4299 -4
      vertex 54.6129 101.58 -4
      vertex 57.53 98.0455 -4
    endloop
  endfacet
  facet normal 0 0 -1
    outer loop
      vertex 53.9013 96.4299 -4
      vertex 52.5107 100.71 -4
      vertex 54.6129 101.58 -4
    endloop
  endfacet
  facet normal 0 0 -1
    outer loop
      vertex 51.504 95.9204 -4
      vertex 52.5107 100.71 -4
      vertex 53.9013 96.4299 -4
    endloop
  endfacet
  facet normal 0 0 -1
    outer loop
      vertex 51.504 95.9204 -4
      vertex 50.2983 100.179 -4
      vertex 52.5107 100.71 -4
    endloop
  endfacet
  facet normal 0 0 -1
    outer loop
      vertex 51.504 95.9204 -4
      vertex 48.03 100 -4
      vertex 50.2983 100.179 -4
    endloop
  endfacet
  facet normal 0 0 -1
    outer loop
      vertex 51.504 95.9204 -4
      vertex 45.7617 100.179 -4
      vertex 48.03 100 -4
    endloop
  endfacet
  facet normal 0 0 -1
    outer loop
      vertex 51.504 95.9204 -4
      vertex 43.5493 100.71 -4
      vertex 45.7617 100.179 -4
    endloop
  endfacet
  facet normal 0 0 -1
    outer loop
      vertex 32.861 77.4844 -4
      vertex 43.5493 100.71 -4
      vertex 51.504 95.9204 -4
    endloop
  endfacet
  facet normal -0 0 -1
    outer loop
      vertex 43.5493 100.71 -4
      vertex 32.861 77.4844 -4
      vertex 42.8436 101.002 -4
    endloop
  endfacet
  facet normal -0 0 -1
    outer loop
      vertex 32.861 77.4844 -4
      vertex 17.8486 18.1387 -4
      vertex 31.9405 77.8752 -4
    endloop
  endfacet
  facet normal 0 0 -1
    outer loop
      vertex 17.8486 18.1387 -4
      vertex 32.861 77.4844 -4
      vertex 51.504 95.9204 -4
    endloop
  endfacet
  facet normal 0 0 -1
    outer loop
      vertex 34.2397 110.019 -4
      vertex 29.4452 110.55 -4
      vertex 33.7085 112.232 -4
    endloop
  endfacet
  facet normal 0 0 -1
    outer loop
      vertex 29.4452 110.55 -4
      vertex 34.2397 110.019 -4
      vertex 30.6726 106.772 -4
    endloop
  endfacet
  facet normal -0 0 -1
    outer loop
      vertex 35.1104 107.917 -4
      vertex 30.6726 106.772 -4
      vertex 34.2397 110.019 -4
    endloop
  endfacet
  facet normal 0 0 -1
    outer loop
      vertex 30.6726 106.772 -4
      vertex 35.1104 107.917 -4
      vertex 32.2096 104.11 -4
    endloop
  endfacet
  facet normal -0 0 -1
    outer loop
      vertex 36.2993 105.977 -4
      vertex 32.2096 104.11 -4
      vertex 35.1104 107.917 -4
    endloop
  endfacet
  facet normal -0 0 -1
    outer loop
      vertex 37.777 104.247 -4
      vertex 32.2096 104.11 -4
      vertex 36.2993 105.977 -4
    endloop
  endfacet
  facet normal 0 0 -1
    outer loop
      vertex 39.5071 102.769 -4
      vertex 32.2096 104.11 -4
      vertex 37.777 104.247 -4
    endloop
  endfacet
  facet normal 0 0 -1
    outer loop
      vertex 41.4471 101.58 -4
      vertex 32.2096 104.11 -4
      vertex 39.5071 102.769 -4
    endloop
  endfacet
  facet normal 0 0 -1
    outer loop
      vertex 31.9405 77.8752 -4
      vertex 41.4471 101.58 -4
      vertex 41.9197 101.385 -4
    endloop
  endfacet
  facet normal -0 0 -1
    outer loop
      vertex 41.4471 101.58 -4
      vertex 31.9405 77.8752 -4
      vertex 32.2096 104.11 -4
    endloop
  endfacet
  facet normal 0 0 -1
    outer loop
      vertex -3.48145 18.1152 -4
      vertex 31.9405 77.8752 -4
      vertex 17.8486 18.1387 -4
    endloop
  endfacet
  facet normal 0 0 -1
    outer loop
      vertex 0 0 -4
      vertex 17.8486 18.1387 -4
      vertex 5 -41 -4
    endloop
  endfacet
  facet normal 0 0 -1
    outer loop
      vertex 0 -40.0996 -4
      vertex 5 -41 -4
      vertex 2 -46 -4
    endloop
  endfacet
  facet normal 0 0 -1
    outer loop
      vertex 5 -41 -4
      vertex 0 -40.0996 -4
      vertex 0 0 -4
    endloop
  endfacet
  facet normal 0 0 -1
    outer loop
      vertex -3.48145 18.1152 -4
      vertex 17.8486 18.1387 -4
      vertex 0 0 -4
    endloop
  endfacet
  facet normal -0 0 -1
    outer loop
      vertex 31.9405 77.8752 -4
      vertex -3.48145 18.1152 -4
      vertex 32.2096 104.11 -4
    endloop
  endfacet
  facet normal 0 0 -1
    outer loop
      vertex -11 5 -4
      vertex 0 0 -4
      vertex -6.2002 0 -4
    endloop
  endfacet
  facet normal 0 0 -1
    outer loop
      vertex 0 0 -4
      vertex -11 5 -4
      vertex -3.48145 18.1152 -4
    endloop
  endfacet
  facet normal 0 0 -1
    outer loop
      vertex 34.2397 118.981 -4
      vertex 38.53 130.954 -4
      vertex 39.1373 131.225 -4
    endloop
  endfacet
  facet normal 0 0 -1
    outer loop
      vertex 38.53 130.954 -4
      vertex 34.2397 118.981 -4
      vertex 35.3165 128.62 -4
    endloop
  endfacet
  facet normal 0 0 -1
    outer loop
      vertex 32.6587 125.668 -4
      vertex 34.2397 118.981 -4
      vertex 33.7085 116.768 -4
    endloop
  endfacet
  facet normal 0 0 -1
    outer loop
      vertex 34.2397 118.981 -4
      vertex 32.6587 125.668 -4
      vertex 35.3165 128.62 -4
    endloop
  endfacet
  facet normal 0 0 -1
    outer loop
      vertex 32.6587 125.668 -4
      vertex 33.7085 116.768 -4
      vertex 33.53 114.5 -4
    endloop
  endfacet
  facet normal 0 0 -1
    outer loop
      vertex 29.03 114.5 -4
      vertex 33.7085 112.232 -4
      vertex 29.4452 110.55 -4
    endloop
  endfacet
  facet normal 0 0 -1
    outer loop
      vertex 33.53 114.5 -4
      vertex 30.6726 122.228 -4
      vertex 32.6587 125.668 -4
    endloop
  endfacet
  facet normal 0 0 -1
    outer loop
      vertex 33.7085 112.232 -4
      vertex 29.03 114.5 -4
      vertex 33.53 114.5 -4
    endloop
  endfacet
  facet normal 0 0 -1
    outer loop
      vertex 33.53 114.5 -4
      vertex 29.4452 118.45 -4
      vertex 30.6726 122.228 -4
    endloop
  endfacet
  facet normal 0 0 -1
    outer loop
      vertex 33.53 114.5 -4
      vertex 29.03 114.5 -4
      vertex 29.4452 118.45 -4
    endloop
  endfacet
  facet normal 0 0 -1
    outer loop
      vertex -11.5996 -4.2998 -4
      vertex -6.2002 0 -4
      vertex -6.2002 -4.2998 -4
    endloop
  endfacet
  facet normal -0 0 -1
    outer loop
      vertex -6.2002 0 -4
      vertex -11.5996 -4.2998 -4
      vertex -11 5 -4
    endloop
  endfacet
  facet normal 0 0 -1
    outer loop
      vertex -8 -46 -4
      vertex 0 -40.0996 -4
      vertex 2 -46 -4
    endloop
  endfacet
  facet normal -0 0 -1
    outer loop
      vertex 0 -40.0996 -4
      vertex -8 -46 -4
      vertex -8 -40.0996 -4
    endloop
  endfacet
  facet normal 0 0 1
    outer loop
      vertex 34.2397 118.981 4
      vertex 38.53 130.954 4
      vertex 35.3165 128.62 4
    endloop
  endfacet
  facet normal -0 0 1
    outer loop
      vertex 38.53 130.954 4
      vertex 34.2397 118.981 4
      vertex 39.1373 131.225 4
    endloop
  endfacet
  facet normal -0 0 1
    outer loop
      vertex 32.6587 125.668 4
      vertex 34.2397 118.981 4
      vertex 35.3165 128.62 4
    endloop
  endfacet
  facet normal 0 0 1
    outer loop
      vertex 29.4452 118.45 4
      vertex 34.2397 118.981 4
      vertex 30.6726 122.228 4
    endloop
  endfacet
  facet normal -0 0 1
    outer loop
      vertex 30.6726 122.228 4
      vertex 34.2397 118.981 4
      vertex 32.6587 125.668 4
    endloop
  endfacet
  facet normal 0 0 1
    outer loop
      vertex 34.2397 118.981 4
      vertex 29.4452 118.45 4
      vertex 33.7085 116.768 4
    endloop
  endfacet
  facet normal 0 0 1
    outer loop
      vertex 30.6726 106.772 4
      vertex 33.7085 112.232 4
      vertex 33.53 114.5 4
    endloop
  endfacet
  facet normal 0 0 1
    outer loop
      vertex 30.6726 106.772 4
      vertex 34.2397 110.019 4
      vertex 33.7085 112.232 4
    endloop
  endfacet
  facet normal 0 0 1
    outer loop
      vertex 30.6726 106.772 4
      vertex 35.1104 107.917 4
      vertex 34.2397 110.019 4
    endloop
  endfacet
  facet normal 0 0 1
    outer loop
      vertex 32.2096 104.11 4
      vertex 36.2993 105.977 4
      vertex 35.1104 107.917 4
    endloop
  endfacet
  facet normal 0 0 1
    outer loop
      vertex 32.2096 104.11 4
      vertex 37.777 104.247 4
      vertex 36.2993 105.977 4
    endloop
  endfacet
  facet normal -0 0 1
    outer loop
      vertex 32.2096 104.11 4
      vertex 39.5071 102.769 4
      vertex 37.777 104.247 4
    endloop
  endfacet
  facet normal 0 0 1
    outer loop
      vertex 32.2096 104.11 4
      vertex 41.4471 101.58 4
      vertex 39.5071 102.769 4
    endloop
  endfacet
  facet normal 0 0 1
    outer loop
      vertex 31.9405 77.8752 4
      vertex 41.4471 101.58 4
      vertex 32.2096 104.11 4
    endloop
  endfacet
  facet normal 0 0 1
    outer loop
      vertex 41.4471 101.58 4
      vertex 31.9405 77.8752 4
      vertex 41.9197 101.385 4
    endloop
  endfacet
  facet normal 0 0 1
    outer loop
      vertex -3.48145 18.1152 4
      vertex 31.9405 77.8752 4
      vertex 32.2096 104.11 4
    endloop
  endfacet
  facet normal 0 0 1
    outer loop
      vertex 31.9405 77.8752 4
      vertex -3.48145 18.1152 4
      vertex 17.8486 18.1387 4
    endloop
  endfacet
  facet normal 0 0 1
    outer loop
      vertex 17.8486 18.1387 4
      vertex 0 0 4
      vertex 5 -41 4
    endloop
  endfacet
  facet normal -0 0 1
    outer loop
      vertex 0 -40.0996 4
      vertex 5 -41 4
      vertex 0 0 4
    endloop
  endfacet
  facet normal 0 0 1
    outer loop
      vertex 17.8486 18.1387 4
      vertex -3.48145 18.1152 4
      vertex 0 0 4
    endloop
  endfacet
  facet normal -0 0 1
    outer loop
      vertex -11 5 4
      vertex 0 0 4
      vertex -3.48145 18.1152 4
    endloop
  endfacet
  facet normal 0 0 1
    outer loop
      vertex 0 0 4
      vertex -11 5 4
      vertex -6.2002 0 4
    endloop
  endfacet
  facet normal 0 0 1
    outer loop
      vertex -11.5996 -4.2998 4
      vertex -6.2002 0 4
      vertex -11 5 4
    endloop
  endfacet
  facet normal 0 0 1
    outer loop
      vertex -6.2002 0 4
      vertex -11.5996 -4.2998 4
      vertex -6.2002 -4.2998 4
    endloop
  endfacet
  facet normal 0 0 1
    outer loop
      vertex 29.03 114.5 4
      vertex 33.7085 116.768 4
      vertex 29.4452 118.45 4
    endloop
  endfacet
  facet normal 0 0 1
    outer loop
      vertex 33.7085 116.768 4
      vertex 29.03 114.5 4
      vertex 33.53 114.5 4
    endloop
  endfacet
  facet normal 0 -0 1
    outer loop
      vertex 30.6726 106.772 4
      vertex 33.53 114.5 4
      vertex 29.4452 110.55 4
    endloop
  endfacet
  facet normal 0 0 1
    outer loop
      vertex 35.1104 107.917 4
      vertex 30.6726 106.772 4
      vertex 32.2096 104.11 4
    endloop
  endfacet
  facet normal 0 0 1
    outer loop
      vertex 33.53 114.5 4
      vertex 29.03 114.5 4
      vertex 29.4452 110.55 4
    endloop
  endfacet
  facet normal 0 0 1
    outer loop
      vertex 61.8203 110.019 4
      vertex 67.03 114.5 4
      vertex 66.6148 118.45 4
    endloop
  endfacet
  facet normal 0 0 1
    outer loop
      vertex 61.8203 110.019 4
      vertex 66.6148 118.45 4
      vertex 65.9774 120.412 4
    endloop
  endfacet
  facet normal 0 0 1
    outer loop
      vertex 67.03 114.5 4
      vertex 61.8203 110.019 4
      vertex 66.6148 110.55 4
    endloop
  endfacet
  facet normal 0 0 1
    outer loop
      vertex 66.6148 110.55 4
      vertex 61.8203 110.019 4
      vertex 65.3874 106.772 4
    endloop
  endfacet
  facet normal -0 0 1
    outer loop
      vertex 60.9496 107.917 4
      vertex 65.3874 106.772 4
      vertex 61.8203 110.019 4
    endloop
  endfacet
  facet normal 0 0 1
    outer loop
      vertex 65.3874 106.772 4
      vertex 60.9496 107.917 4
      vertex 63.4013 103.332 4
    endloop
  endfacet
  facet normal -0 0 1
    outer loop
      vertex 59.7607 105.977 4
      vertex 63.4013 103.332 4
      vertex 60.9496 107.917 4
    endloop
  endfacet
  facet normal -0 0 1
    outer loop
      vertex 58.283 104.247 4
      vertex 63.4013 103.332 4
      vertex 59.7607 105.977 4
    endloop
  endfacet
  facet normal 0 0 1
    outer loop
      vertex 63.4013 103.332 4
      vertex 58.283 104.247 4
      vertex 60.7435 100.38 4
    endloop
  endfacet
  facet normal -0 0 1
    outer loop
      vertex 56.5529 102.769 4
      vertex 60.7435 100.38 4
      vertex 58.283 104.247 4
    endloop
  endfacet
  facet normal 0 0 1
    outer loop
      vertex 60.7435 100.38 4
      vertex 56.5529 102.769 4
      vertex 57.53 98.0455 4
    endloop
  endfacet
  facet normal -0 0 1
    outer loop
      vertex 54.6129 101.58 4
      vertex 57.53 98.0455 4
      vertex 56.5529 102.769 4
    endloop
  endfacet
  facet normal 0 0 1
    outer loop
      vertex 54.6129 101.58 4
      vertex 53.9013 96.4299 4
      vertex 57.53 98.0455 4
    endloop
  endfacet
  facet normal -0 0 1
    outer loop
      vertex 52.5107 100.71 4
      vertex 53.9013 96.4299 4
      vertex 54.6129 101.58 4
    endloop
  endfacet
  facet normal 0 0 1
    outer loop
      vertex 52.5107 100.71 4
      vertex 51.504 95.9204 4
      vertex 53.9013 96.4299 4
    endloop
  endfacet
  facet normal -0 0 1
    outer loop
      vertex 50.2983 100.179 4
      vertex 51.504 95.9204 4
      vertex 52.5107 100.71 4
    endloop
  endfacet
  facet normal -0 0 1
    outer loop
      vertex 48.03 100 4
      vertex 51.504 95.9204 4
      vertex 50.2983 100.179 4
    endloop
  endfacet
  facet normal 0 0 1
    outer loop
      vertex 45.7617 100.179 4
      vertex 51.504 95.9204 4
      vertex 48.03 100 4
    endloop
  endfacet
  facet normal 0 0 1
    outer loop
      vertex 43.5493 100.71 4
      vertex 51.504 95.9204 4
      vertex 45.7617 100.179 4
    endloop
  endfacet
  facet normal 0 0 1
    outer loop
      vertex 32.861 77.4844 4
      vertex 43.5493 100.71 4
      vertex 42.8436 101.002 4
    endloop
  endfacet
  facet normal 0 0 1
    outer loop
      vertex 43.5493 100.71 4
      vertex 32.861 77.4844 4
      vertex 51.504 95.9204 4
    endloop
  endfacet
  facet normal -0 0 1
    outer loop
      vertex 32.861 77.4844 4
      vertex 17.8486 18.1387 4
      vertex 51.504 95.9204 4
    endloop
  endfacet
  facet normal 0 0 1
    outer loop
      vertex 17.8486 18.1387 4
      vertex 32.861 77.4844 4
      vertex 31.9405 77.8752 4
    endloop
  endfacet
  facet normal 0 0 1
    outer loop
      vertex 5 -41 4
      vertex 0 -40.0996 4
      vertex 2 -46 4
    endloop
  endfacet
  facet normal 0 0 1
    outer loop
      vertex -8 -46 4
      vertex 0 -40.0996 4
      vertex -8 -40.0996 4
    endloop
  endfacet
  facet normal 0 0 1
    outer loop
      vertex 0 -40.0996 4
      vertex -8 -46 4
      vertex 2 -46 4
    endloop
  endfacet
  facet normal 0.977203 -0.212309 0
    outer loop
      vertex 5 -41 4
      vertex 17.8486 18.1387 -4
      vertex 17.8486 18.1387 4
    endloop
  endfacet
  facet normal 0.977203 -0.212309 0
    outer loop
      vertex 17.8486 18.1387 -4
      vertex 5 -41 4
      vertex 5 -41 -4
    endloop
  endfacet
  facet normal 0.917771 -0.397111 0
    outer loop
      vertex 17.8486 18.1387 4
      vertex 51.504 95.9204 -4
      vertex 51.504 95.9204 4
    endloop
  endfacet
  facet normal 0.917771 -0.397111 0
    outer loop
      vertex 51.504 95.9204 -4
      vertex 17.8486 18.1387 4
      vertex 17.8486 18.1387 -4
    endloop
  endfacet
  facet normal -0.92361 0.383333 0
    outer loop
      vertex -3.48145 18.1152 -4
      vertex 32.2096 104.11 4
      vertex 32.2096 104.11 -4
    endloop
  endfacet
  facet normal -0.92361 0.383333 0
    outer loop
      vertex 32.2096 104.11 4
      vertex -3.48145 18.1152 -4
      vertex -3.48145 18.1152 4
    endloop
  endfacet
  facet normal -0.867554 0.497343 0
    outer loop
      vertex -11 5 -4
      vertex -3.48145 18.1152 4
      vertex -3.48145 18.1152 -4
    endloop
  endfacet
  facet normal -0.867554 0.497343 0
    outer loop
      vertex -3.48145 18.1152 4
      vertex -11 5 -4
      vertex -11 5 4
    endloop
  endfacet
  facet normal -0.997928 0.0643409 0
    outer loop
      vertex -11.5996 -4.2998 -4
      vertex -11 5 4
      vertex -11 5 -4
    endloop
  endfacet
  facet normal -0.997928 0.0643409 0
    outer loop
      vertex -11 5 4
      vertex -11.5996 -4.2998 -4
      vertex -11.5996 -4.2998 4
    endloop
  endfacet
  facet normal 0 -1 0
    outer loop
      vertex -11.5996 -4.2998 -4
      vertex -6.2002 -4.2998 4
      vertex -11.5996 -4.2998 4
    endloop
  endfacet
  facet normal 0 -1 -0
    outer loop
      vertex -6.2002 -4.2998 4
      vertex -11.5996 -4.2998 -4
      vertex -6.2002 -4.2998 -4
    endloop
  endfacet
  facet normal 1 -0 0
    outer loop
      vertex -6.2002 -4.2998 4
      vertex -6.2002 0 -4
      vertex -6.2002 0 4
    endloop
  endfacet
  facet normal 1 0 0
    outer loop
      vertex -6.2002 0 -4
      vertex -6.2002 -4.2998 4
      vertex -6.2002 -4.2998 -4
    endloop
  endfacet
  facet normal 0 -1 0
    outer loop
      vertex -6.2002 0 -4
      vertex 0 0 4
      vertex -6.2002 0 4
    endloop
  endfacet
  facet normal 0 -1 -0
    outer loop
      vertex 0 0 4
      vertex -6.2002 0 -4
      vertex 0 0 -4
    endloop
  endfacet
  facet normal -1 0 0
    outer loop
      vertex 0 -40.0996 -4
      vertex 0 0 4
      vertex 0 0 -4
    endloop
  endfacet
  facet normal -1 -0 0
    outer loop
      vertex 0 0 4
      vertex 0 -40.0996 -4
      vertex 0 -40.0996 4
    endloop
  endfacet
  facet normal 0 1 -0
    outer loop
      vertex 0 -40.0996 -4
      vertex -8 -40.0996 4
      vertex 0 -40.0996 4
    endloop
  endfacet
  facet normal 0 1 0
    outer loop
      vertex -8 -40.0996 4
      vertex 0 -40.0996 -4
      vertex -8 -40.0996 -4
    endloop
  endfacet
  facet normal -1 0 0
    outer loop
      vertex -8 -46 -4
      vertex -8 -40.0996 4
      vertex -8 -40.0996 -4
    endloop
  endfacet
  facet normal -1 -0 0
    outer loop
      vertex -8 -40.0996 4
      vertex -8 -46 -4
      vertex -8 -46 4
    endloop
  endfacet
  facet normal 0 -1 0
    outer loop
      vertex -8 -46 -4
      vertex 2 -46 4
      vertex -8 -46 4
    endloop
  endfacet
  facet normal 0 -1 -0
    outer loop
      vertex 2 -46 4
      vertex -8 -46 -4
      vertex 2 -46 -4
    endloop
  endfacet
  facet normal 0.857493 -0.514496 0
    outer loop
      vertex 2 -46 4
      vertex 5 -41 -4
      vertex 5 -41 4
    endloop
  endfacet
  facet normal 0.857493 -0.514496 0
    outer loop
      vertex 5 -41 -4
      vertex 2 -46 4
      vertex 2 -46 -4
    endloop
  endfacet
  facet normal 0.994521 -0.104538 0
    outer loop
      vertex 66.6148 110.55 4
      vertex 67.03 114.5 -4
      vertex 67.03 114.5 4
    endloop
  endfacet
  facet normal 0.994521 -0.104538 0
    outer loop
      vertex 67.03 114.5 -4
      vertex 66.6148 110.55 4
      vertex 66.6148 110.55 -4
    endloop
  endfacet
  facet normal -0.407505 0.913203 0
    outer loop
      vertex 39.1373 131.225 -4
      vertex 38.53 130.954 4
      vertex 39.1373 131.225 4
    endloop
  endfacet
  facet normal -0.407505 0.913203 0
    outer loop
      vertex 38.53 130.954 4
      vertex 39.1373 131.225 -4
      vertex 38.53 130.954 -4
    endloop
  endfacet
  facet normal -0.951067 0.308984 0
    outer loop
      vertex 29.4452 118.45 -4
      vertex 30.6726 122.228 4
      vertex 30.6726 122.228 -4
    endloop
  endfacet
  facet normal -0.951067 0.308984 0
    outer loop
      vertex 30.6726 122.228 4
      vertex 29.4452 118.45 -4
      vertex 29.4452 118.45 4
    endloop
  endfacet
  facet normal -0.951067 -0.308984 0
    outer loop
      vertex 30.6726 106.772 -4
      vertex 29.4452 110.55 4
      vertex 29.4452 110.55 -4
    endloop
  endfacet
  facet normal -0.951067 -0.308984 0
    outer loop
      vertex 29.4452 110.55 4
      vertex 30.6726 106.772 -4
      vertex 30.6726 106.772 4
    endloop
  endfacet
  facet normal -0.994521 -0.104538 0
    outer loop
      vertex 29.4452 110.55 -4
      vertex 29.03 114.5 4
      vertex 29.03 114.5 -4
    endloop
  endfacet
  facet normal -0.994521 -0.104538 0
    outer loop
      vertex 29.03 114.5 4
      vertex 29.4452 110.55 -4
      vertex 29.4452 110.55 4
    endloop
  endfacet
  facet normal -0.866024 0.500003 0
    outer loop
      vertex 30.6726 122.228 -4
      vertex 32.6587 125.668 4
      vertex 32.6587 125.668 -4
    endloop
  endfacet
  facet normal -0.866024 0.500003 0
    outer loop
      vertex 32.6587 125.668 4
      vertex 30.6726 122.228 -4
      vertex 30.6726 122.228 4
    endloop
  endfacet
  facet normal -0.587663 0.809106 0
    outer loop
      vertex 38.53 130.954 -4
      vertex 35.3165 128.62 4
      vertex 38.53 130.954 4
    endloop
  endfacet
  facet normal -0.587663 0.809106 0
    outer loop
      vertex 35.3165 128.62 4
      vertex 38.53 130.954 -4
      vertex 35.3165 128.62 -4
    endloop
  endfacet
  facet normal -0.743169 0.669104 0
    outer loop
      vertex 32.6587 125.668 -4
      vertex 35.3165 128.62 4
      vertex 35.3165 128.62 -4
    endloop
  endfacet
  facet normal -0.743169 0.669104 0
    outer loop
      vertex 35.3165 128.62 4
      vertex 32.6587 125.668 -4
      vertex 32.6587 125.668 4
    endloop
  endfacet
  facet normal 0.994521 0.104538 0
    outer loop
      vertex 67.03 114.5 4
      vertex 66.6148 118.45 -4
      vertex 66.6148 118.45 4
    endloop
  endfacet
  facet normal 0.994521 0.104538 0
    outer loop
      vertex 66.6148 118.45 -4
      vertex 67.03 114.5 4
      vertex 67.03 114.5 -4
    endloop
  endfacet
  facet normal 0.207888 -0.978153 0
    outer loop
      vertex 51.504 95.9204 -4
      vertex 53.9013 96.4299 4
      vertex 51.504 95.9204 4
    endloop
  endfacet
  facet normal 0.207888 -0.978153 0
    outer loop
      vertex 53.9013 96.4299 4
      vertex 51.504 95.9204 -4
      vertex 53.9013 96.4299 -4
    endloop
  endfacet
  facet normal 0.866024 -0.500003 0
    outer loop
      vertex 63.4013 103.332 4
      vertex 65.3874 106.772 -4
      vertex 65.3874 106.772 4
    endloop
  endfacet
  facet normal 0.866024 -0.500003 0
    outer loop
      vertex 65.3874 106.772 -4
      vertex 63.4013 103.332 4
      vertex 63.4013 103.332 -4
    endloop
  endfacet
  facet normal 0.951067 -0.308984 0
    outer loop
      vertex 65.3874 106.772 4
      vertex 66.6148 110.55 -4
      vertex 66.6148 110.55 4
    endloop
  endfacet
  facet normal 0.951067 -0.308984 0
    outer loop
      vertex 66.6148 110.55 -4
      vertex 65.3874 106.772 4
      vertex 65.3874 106.772 -4
    endloop
  endfacet
  facet normal 0.406736 -0.913546 0
    outer loop
      vertex 53.9013 96.4299 -4
      vertex 57.53 98.0455 4
      vertex 53.9013 96.4299 4
    endloop
  endfacet
  facet normal 0.406736 -0.913546 0
    outer loop
      vertex 57.53 98.0455 4
      vertex 53.9013 96.4299 -4
      vertex 57.53 98.0455 -4
    endloop
  endfacet
  facet normal 0.587745 -0.809046 0
    outer loop
      vertex 57.53 98.0455 -4
      vertex 60.7435 100.38 4
      vertex 57.53 98.0455 4
    endloop
  endfacet
  facet normal 0.587745 -0.809046 0
    outer loop
      vertex 60.7435 100.38 4
      vertex 57.53 98.0455 -4
      vertex 60.7435 100.38 -4
    endloop
  endfacet
  facet normal -0.866012 -0.500023 0
    outer loop
      vertex 32.2096 104.11 -4
      vertex 30.6726 106.772 4
      vertex 30.6726 106.772 -4
    endloop
  endfacet
  facet normal -0.866012 -0.500023 0
    outer loop
      vertex 30.6726 106.772 4
      vertex 32.2096 104.11 -4
      vertex 32.2096 104.11 4
    endloop
  endfacet
  facet normal 0.95107 0.308976 0
    outer loop
      vertex 66.6148 118.45 4
      vertex 65.9774 120.412 -4
      vertex 65.9774 120.412 4
    endloop
  endfacet
  facet normal 0.95107 0.308976 0
    outer loop
      vertex 65.9774 120.412 -4
      vertex 66.6148 118.45 4
      vertex 66.6148 118.45 -4
    endloop
  endfacet
  facet normal -0.994521 0.104538 0
    outer loop
      vertex 29.03 114.5 -4
      vertex 29.4452 118.45 4
      vertex 29.4452 118.45 -4
    endloop
  endfacet
  facet normal -0.994521 0.104538 0
    outer loop
      vertex 29.4452 118.45 4
      vertex 29.03 114.5 -4
      vertex 29.03 114.5 4
    endloop
  endfacet
  facet normal 0.743169 -0.669104 0
    outer loop
      vertex 60.7435 100.38 4
      vertex 63.4013 103.332 -4
      vertex 63.4013 103.332 4
    endloop
  endfacet
  facet normal 0.743169 -0.669104 0
    outer loop
      vertex 63.4013 103.332 -4
      vertex 60.7435 100.38 4
      vertex 60.7435 100.38 -4
    endloop
  endfacet
  facet normal 0.996917 -0.0784611 0
    outer loop
      vertex 33.53 114.5 4
      vertex 33.7085 116.768 -4
      vertex 33.7085 116.768 4
    endloop
  endfacet
  facet normal 0.996917 -0.0784611 0
    outer loop
      vertex 33.7085 116.768 -4
      vertex 33.53 114.5 4
      vertex 33.53 114.5 -4
    endloop
  endfacet
  facet normal -0.852627 0.52252 0
    outer loop
      vertex 59.7607 105.977 -4
      vertex 60.9496 107.917 4
      vertex 60.9496 107.917 -4
    endloop
  endfacet
  facet normal -0.852627 0.52252 0
    outer loop
      vertex 60.9496 107.917 4
      vertex 59.7607 105.977 -4
      vertex 59.7607 105.977 4
    endloop
  endfacet
  facet normal 0.233383 0.972385 -0
    outer loop
      vertex 45.7617 100.179 -4
      vertex 43.5493 100.71 4
      vertex 45.7617 100.179 4
    endloop
  endfacet
  facet normal 0.233383 0.972385 0
    outer loop
      vertex 43.5493 100.71 4
      vertex 45.7617 100.179 -4
      vertex 43.5493 100.71 -4
    endloop
  endfacet
  facet normal -0.649538 0.760329 0
    outer loop
      vertex 58.283 104.247 -4
      vertex 56.5529 102.769 4
      vertex 58.283 104.247 4
    endloop
  endfacet
  facet normal -0.649538 0.760329 0
    outer loop
      vertex 56.5529 102.769 4
      vertex 58.283 104.247 -4
      vertex 56.5529 102.769 -4
    endloop
  endfacet
  facet normal 0.996917 0.0784611 0
    outer loop
      vertex 33.7085 112.232 4
      vertex 33.53 114.5 -4
      vertex 33.53 114.5 4
    endloop
  endfacet
  facet normal 0.996917 0.0784611 0
    outer loop
      vertex 33.53 114.5 -4
      vertex 33.7085 112.232 4
      vertex 33.7085 112.232 -4
    endloop
  endfacet
  facet normal 0.972379 -0.233406 0
    outer loop
      vertex 33.7085 116.768 4
      vertex 34.2397 118.981 -4
      vertex 34.2397 118.981 4
    endloop
  endfacet
  facet normal 0.972379 -0.233406 0
    outer loop
      vertex 34.2397 118.981 -4
      vertex 33.7085 116.768 4
      vertex 33.7085 116.768 -4
    endloop
  endfacet
  facet normal 0.928477 -0.371391 0
    outer loop
      vertex 34.2397 118.981 4
      vertex 39.1373 131.225 -4
      vertex 39.1373 131.225 4
    endloop
  endfacet
  facet normal 0.928477 -0.371391 0
    outer loop
      vertex 39.1373 131.225 -4
      vertex 34.2397 118.981 4
      vertex 34.2397 118.981 -4
    endloop
  endfacet
  facet normal -0.760375 0.649484 0
    outer loop
      vertex 58.283 104.247 -4
      vertex 59.7607 105.977 4
      vertex 59.7607 105.977 -4
    endloop
  endfacet
  facet normal -0.760375 0.649484 0
    outer loop
      vertex 59.7607 105.977 4
      vertex 58.283 104.247 -4
      vertex 58.283 104.247 4
    endloop
  endfacet
  facet normal -0.92848 0.371383 0
    outer loop
      vertex 61.8203 110.019 -4
      vertex 65.9774 120.412 4
      vertex 65.9774 120.412 -4
    endloop
  endfacet
  facet normal -0.92848 0.371383 0
    outer loop
      vertex 65.9774 120.412 4
      vertex 61.8203 110.019 -4
      vertex 61.8203 110.019 4
    endloop
  endfacet
  facet normal -0.923876 0.382692 0
    outer loop
      vertex 60.9496 107.917 -4
      vertex 61.8203 110.019 4
      vertex 61.8203 110.019 -4
    endloop
  endfacet
  facet normal -0.923876 0.382692 0
    outer loop
      vertex 61.8203 110.019 4
      vertex 60.9496 107.917 -4
      vertex 60.9496 107.917 4
    endloop
  endfacet
  facet normal 0.972379 0.233406 0
    outer loop
      vertex 34.2397 110.019 4
      vertex 33.7085 112.232 -4
      vertex 33.7085 112.232 4
    endloop
  endfacet
  facet normal 0.972379 0.233406 0
    outer loop
      vertex 33.7085 112.232 -4
      vertex 34.2397 110.019 4
      vertex 34.2397 110.019 -4
    endloop
  endfacet
  facet normal 0.923876 0.382692 0
    outer loop
      vertex 35.1104 107.917 4
      vertex 34.2397 110.019 -4
      vertex 34.2397 110.019 4
    endloop
  endfacet
  facet normal 0.923876 0.382692 0
    outer loop
      vertex 34.2397 110.019 -4
      vertex 35.1104 107.917 4
      vertex 35.1104 107.917 -4
    endloop
  endfacet
  facet normal 0.522552 0.852608 -0
    outer loop
      vertex 41.4471 101.58 -4
      vertex 39.5071 102.769 4
      vertex 41.4471 101.58 4
    endloop
  endfacet
  facet normal 0.522552 0.852608 0
    outer loop
      vertex 39.5071 102.769 4
      vertex 41.4471 101.58 -4
      vertex 39.5071 102.769 -4
    endloop
  endfacet
  facet normal 0.760375 0.649484 0
    outer loop
      vertex 37.777 104.247 4
      vertex 36.2993 105.977 -4
      vertex 36.2993 105.977 4
    endloop
  endfacet
  facet normal 0.760375 0.649484 0
    outer loop
      vertex 36.2993 105.977 -4
      vertex 37.777 104.247 4
      vertex 37.777 104.247 -4
    endloop
  endfacet
  facet normal 0.852627 0.52252 0
    outer loop
      vertex 36.2993 105.977 4
      vertex 35.1104 107.917 -4
      vertex 35.1104 107.917 4
    endloop
  endfacet
  facet normal 0.852627 0.52252 0
    outer loop
      vertex 35.1104 107.917 -4
      vertex 36.2993 105.977 4
      vertex 36.2993 105.977 -4
    endloop
  endfacet
  facet normal 0.649538 0.760329 -0
    outer loop
      vertex 39.5071 102.769 -4
      vertex 37.777 104.247 4
      vertex 39.5071 102.769 4
    endloop
  endfacet
  facet normal 0.649538 0.760329 0
    outer loop
      vertex 37.777 104.247 4
      vertex 39.5071 102.769 -4
      vertex 37.777 104.247 -4
    endloop
  endfacet
  facet normal 0.381419 0.924402 -0
    outer loop
      vertex 41.9197 101.385 -4
      vertex 41.4471 101.58 4
      vertex 41.9197 101.385 4
    endloop
  endfacet
  facet normal 0.381419 0.924402 0
    outer loop
      vertex 41.4471 101.58 4
      vertex 41.9197 101.385 -4
      vertex 41.4471 101.58 -4
    endloop
  endfacet
  facet normal 0.382336 0.924023 -0
    outer loop
      vertex 43.5493 100.71 -4
      vertex 42.8436 101.002 4
      vertex 43.5493 100.71 4
    endloop
  endfacet
  facet normal 0.382336 0.924023 0
    outer loop
      vertex 42.8436 101.002 4
      vertex 43.5493 100.71 -4
      vertex 42.8436 101.002 -4
    endloop
  endfacet
  facet normal -0.0786692 0.996901 0
    outer loop
      vertex 50.2983 100.179 -4
      vertex 48.03 100 4
      vertex 50.2983 100.179 4
    endloop
  endfacet
  facet normal -0.0786692 0.996901 0
    outer loop
      vertex 48.03 100 4
      vertex 50.2983 100.179 -4
      vertex 48.03 100 -4
    endloop
  endfacet
  facet normal 0.0786692 0.996901 -0
    outer loop
      vertex 48.03 100 -4
      vertex 45.7617 100.179 4
      vertex 48.03 100 4
    endloop
  endfacet
  facet normal 0.0786692 0.996901 0
    outer loop
      vertex 45.7617 100.179 4
      vertex 48.03 100 -4
      vertex 45.7617 100.179 -4
    endloop
  endfacet
  facet normal -0.233383 0.972385 0
    outer loop
      vertex 52.5107 100.71 -4
      vertex 50.2983 100.179 4
      vertex 52.5107 100.71 4
    endloop
  endfacet
  facet normal -0.233383 0.972385 0
    outer loop
      vertex 50.2983 100.179 4
      vertex 52.5107 100.71 -4
      vertex 50.2983 100.179 -4
    endloop
  endfacet
  facet normal -0.382398 0.923998 0
    outer loop
      vertex 54.6129 101.58 -4
      vertex 52.5107 100.71 4
      vertex 54.6129 101.58 4
    endloop
  endfacet
  facet normal -0.382398 0.923998 0
    outer loop
      vertex 52.5107 100.71 4
      vertex 54.6129 101.58 -4
      vertex 52.5107 100.71 -4
    endloop
  endfacet
  facet normal -0.522552 0.852608 0
    outer loop
      vertex 56.5529 102.769 -4
      vertex 54.6129 101.58 4
      vertex 56.5529 102.769 4
    endloop
  endfacet
  facet normal -0.522552 0.852608 0
    outer loop
      vertex 54.6129 101.58 4
      vertex 56.5529 102.769 -4
      vertex 54.6129 101.58 -4
    endloop
  endfacet
  facet normal 0.920507 -0.390727 0
    outer loop
      vertex 31.9405 77.8752 4
      vertex 41.9197 101.385 -4
      vertex 41.9197 101.385 4
    endloop
  endfacet
  facet normal 0.920507 -0.390727 0
    outer loop
      vertex 41.9197 101.385 -4
      vertex 31.9405 77.8752 4
      vertex 31.9405 77.8752 -4
    endloop
  endfacet
  facet normal -0.920505 0.39073 0
    outer loop
      vertex 32.861 77.4844 -4
      vertex 42.8436 101.002 4
      vertex 42.8436 101.002 -4
    endloop
  endfacet
  facet normal -0.920505 0.39073 0
    outer loop
      vertex 42.8436 101.002 4
      vertex 32.861 77.4844 -4
      vertex 32.861 77.4844 4
    endloop
  endfacet
  facet normal 0.390791 0.920479 -0
    outer loop
      vertex 32.861 77.4844 -4
      vertex 31.9405 77.8752 4
      vertex 32.861 77.4844 4
    endloop
  endfacet
  facet normal 0.390791 0.920479 0
    outer loop
      vertex 31.9405 77.8752 4
      vertex 32.861 77.4844 -4
      vertex 31.9405 77.8752 -4
    endloop
  endfacet
  facet normal -0 0 -1
    outer loop
      vertex -12.5523 -28.6805 -4
      vertex -17.2696 -30.8668 -4
      vertex -17.0516 -28.602 -4
    endloop
  endfacet
  facet normal 0 0 -1
    outer loop
      vertex -14.3295 -36.3787 -4
      vertex -17.8393 -33.0697 -4
      vertex -17.2696 -30.8668 -4
    endloop
  endfacet
  facet normal 0 0 -1
    outer loop
      vertex -19.0842 -42.6884 -4
      vertex -17.8393 -33.0697 -4
      vertex -16.3753 -39.7834 -4
    endloop
  endfacet
  facet normal 0 0 -1
    outer loop
      vertex -17.8393 -33.0697 -4
      vertex -19.0842 -42.6884 -4
      vertex -20.7738 -43.8715 -4
    endloop
  endfacet
  facet normal 0 0 -1
    outer loop
      vertex -17.2696 -30.8668 -4
      vertex -12.5523 -28.6805 -4
      vertex -13.0363 -32.623 -4
    endloop
  endfacet
  facet normal 0 0 -1
    outer loop
      vertex -17.1905 -26.3309 -4
      vertex -12.5523 -28.6805 -4
      vertex -17.0516 -28.602 -4
    endloop
  endfacet
  facet normal 0 0 -1
    outer loop
      vertex -17.2696 -30.8668 -4
      vertex -13.0363 -32.623 -4
      vertex -14.3295 -36.3787 -4
    endloop
  endfacet
  facet normal 0 0 -1
    outer loop
      vertex -12.5523 -28.6805 -4
      vertex -17.1905 -26.3309 -4
      vertex -12.8984 -24.7236 -4
    endloop
  endfacet
  facet normal 0 0 -1
    outer loop
      vertex -17.8393 -33.0697 -4
      vertex -14.3295 -36.3787 -4
      vertex -16.3753 -39.7834 -4
    endloop
  endfacet
  facet normal 0 0 -1
    outer loop
      vertex -17.6829 -24.1096 -4
      vertex -12.8984 -24.7236 -4
      vertex -17.1905 -26.3309 -4
    endloop
  endfacet
  facet normal 0 0 -1
    outer loop
      vertex -12.8984 -24.7236 -4
      vertex -17.6829 -24.1096 -4
      vertex -14.0598 -20.925 -4
    endloop
  endfacet
  facet normal 0 0 -1
    outer loop
      vertex -18.5168 -21.9926 -4
      vertex -14.0598 -20.925 -4
      vertex -17.6829 -24.1096 -4
    endloop
  endfacet
  facet normal -0 0 -1
    outer loop
      vertex -14.0598 -20.925 -4
      vertex -18.5168 -21.9926 -4
      vertex -15.9855 -17.451 -4
    endloop
  endfacet
  facet normal 0 0 -1
    outer loop
      vertex -1 92 -4
      vertex 27.6676 121.735 -4
      vertex 2.33843 66.7722 -4
    endloop
  endfacet
  facet normal -0 0 -1
    outer loop
      vertex 27.6676 121.735 -4
      vertex -1 92 -4
      vertex 23.1325 124.025 -4
    endloop
  endfacet
  facet normal 0 0 -1
    outer loop
      vertex -14.6824 79.6277 -4
      vertex -1 92 -4
      vertex 2.33843 66.7722 -4
    endloop
  endfacet
  facet normal -0 0 -1
    outer loop
      vertex -5.9517 95.7314 -4
      vertex -12.7941 94.6268 -4
      vertex -7.67617 102.415 -4
    endloop
  endfacet
  facet normal 0 -0 -1
    outer loop
      vertex -12.7941 94.6268 -4
      vertex -1 92 -4
      vertex -14.6824 79.6277 -4
    endloop
  endfacet
  facet normal 0 0 -1
    outer loop
      vertex -1 92 -4
      vertex -12.7941 94.6268 -4
      vertex -5.9517 95.7314 -4
    endloop
  endfacet
  facet normal 0 0 -1
    outer loop
      vertex -21.3873 10.3419 -4
      vertex 2.33843 66.7722 -4
      vertex -17.5934 -15.6013 -4
    endloop
  endfacet
  facet normal 0 0 -1
    outer loop
      vertex -19.6717 -20.0321 -4
      vertex -15.9855 -17.451 -4
      vertex -18.5168 -21.9926 -4
    endloop
  endfacet
  facet normal -0 0 -1
    outer loop
      vertex -15.9855 -17.451 -4
      vertex -19.6717 -20.0321 -4
      vertex -17.5934 -15.6013 -4
    endloop
  endfacet
  facet normal 0 0 -1
    outer loop
      vertex -21.1189 -18.2764 -4
      vertex -17.5934 -15.6013 -4
      vertex -19.6717 -20.0321 -4
    endloop
  endfacet
  facet normal 0 0 -1
    outer loop
      vertex -22.823 -16.7687 -4
      vertex -17.5934 -15.6013 -4
      vertex -21.1189 -18.2764 -4
    endloop
  endfacet
  facet normal 0 0 -1
    outer loop
      vertex -22.3576 10.5838 -4
      vertex 2.33843 66.7722 -4
      vertex -21.3873 10.3419 -4
    endloop
  endfacet
  facet normal -0 0 -1
    outer loop
      vertex 2.33843 66.7722 -4
      vertex -22.3576 10.5838 -4
      vertex -14.6824 79.6277 -4
    endloop
  endfacet
  facet normal 0 0 -1
    outer loop
      vertex -29.0315 -14.0692 -4
      vertex -22.3576 10.5838 -4
      vertex -28.5363 -14.1973 -4
    endloop
  endfacet
  facet normal 0 0 -1
    outer loop
      vertex -22.3576 10.5838 -4
      vertex -29.0315 -14.0692 -4
      vertex -37.9312 -10.5301 -4
    endloop
  endfacet
  facet normal 0 0 -1
    outer loop
      vertex -37.9312 -10.5301 -4
      vertex -29.0315 -14.0692 -4
      vertex -31.2963 -13.8511 -4
    endloop
  endfacet
  facet normal 0 0 -1
    outer loop
      vertex -37.9312 -10.5301 -4
      vertex -31.2963 -13.8511 -4
      vertex -33.5674 -13.9901 -4
    endloop
  endfacet
  facet normal 0 0 -1
    outer loop
      vertex -37.9312 -10.5301 -4
      vertex -33.5674 -13.9901 -4
      vertex -35.7887 -14.4825 -4
    endloop
  endfacet
  facet normal 0 0 -1
    outer loop
      vertex -37.9312 -10.5301 -4
      vertex -35.7887 -14.4825 -4
      vertex -37.9057 -15.3164 -4
    endloop
  endfacet
  facet normal -0 0 -1
    outer loop
      vertex -22.3576 10.5838 -4
      vertex -37.9312 -10.5301 -4
      vertex -14.6824 79.6277 -4
    endloop
  endfacet
  facet normal 0 0 -1
    outer loop
      vertex -40.7607 -11.7312 -4
      vertex -37.9057 -15.3164 -4
      vertex -39.8662 -16.4712 -4
    endloop
  endfacet
  facet normal 0 0 -1
    outer loop
      vertex -37.9057 -15.3164 -4
      vertex -40.7607 -11.7312 -4
      vertex -37.9312 -10.5301 -4
    endloop
  endfacet
  facet normal 0 0 -1
    outer loop
      vertex -44.0145 -14.0095 -4
      vertex -39.8662 -16.4712 -4
      vertex -41.6219 -17.9185 -4
    endloop
  endfacet
  facet normal 0 0 -1
    outer loop
      vertex -46.7234 -16.9145 -4
      vertex -41.6219 -17.9185 -4
      vertex -43.1296 -19.6226 -4
    endloop
  endfacet
  facet normal 0 0 -1
    outer loop
      vertex -39.8662 -16.4712 -4
      vertex -44.0145 -14.0095 -4
      vertex -40.7607 -11.7312 -4
    endloop
  endfacet
  facet normal 0 0 -1
    outer loop
      vertex -46.7234 -16.9145 -4
      vertex -43.1296 -19.6226 -4
      vertex -44.3521 -21.5416 -4
    endloop
  endfacet
  facet normal 0 0 -1
    outer loop
      vertex -48.7692 -20.3192 -4
      vertex -44.3521 -21.5416 -4
      vertex -45.2594 -23.6282 -4
    endloop
  endfacet
  facet normal 0 0 -1
    outer loop
      vertex -41.6219 -17.9185 -4
      vertex -46.7234 -16.9145 -4
      vertex -44.0145 -14.0095 -4
    endloop
  endfacet
  facet normal 0 0 -1
    outer loop
      vertex -49.0389 -35.7728 -4
      vertex -45.2594 -23.6282 -4
      vertex -48.7166 -36.3543 -4
    endloop
  endfacet
  facet normal 0 0 -1
    outer loop
      vertex -44.3521 -21.5416 -4
      vertex -48.7692 -20.3192 -4
      vertex -46.7234 -16.9145 -4
    endloop
  endfacet
  facet normal 0 0 -1
    outer loop
      vertex -45.2594 -23.6282 -4
      vertex -49.0389 -35.7728 -4
      vertex -50.2003 -31.9743 -4
    endloop
  endfacet
  facet normal -0 0 -1
    outer loop
      vertex -45.2594 -23.6282 -4
      vertex -50.0624 -24.0749 -4
      vertex -48.7692 -20.3192 -4
    endloop
  endfacet
  facet normal 0 0 -1
    outer loop
      vertex -50.5465 -28.0173 -4
      vertex -45.2594 -23.6282 -4
      vertex -50.2003 -31.9743 -4
    endloop
  endfacet
  facet normal 0 0 -1
    outer loop
      vertex -45.2594 -23.6282 -4
      vertex -50.5465 -28.0173 -4
      vertex -50.0624 -24.0749 -4
    endloop
  endfacet
  facet normal 0 0 -1
    outer loop
      vertex 23.1325 124.025 -4
      vertex 28.2808 127.534 -4
      vertex 27.6676 121.735 -4
    endloop
  endfacet
  facet normal 0 0 -1
    outer loop
      vertex 23.1325 124.025 -4
      vertex 20.2944 133.552 -4
      vertex 28.2808 127.534 -4
    endloop
  endfacet
  facet normal 0 -0 -1
    outer loop
      vertex 20.2944 133.552 -4
      vertex 23.1325 124.025 -4
      vertex 16.7435 128.839 -4
    endloop
  endfacet
  facet normal -0 0 -1
    outer loop
      vertex -3.36401 99.1653 -4
      vertex -5.9517 95.7314 -4
      vertex -7.67617 102.415 -4
    endloop
  endfacet
  facet normal 0 0 -1
    outer loop
      vertex -24.742 -15.5462 -4
      vertex -17.5934 -15.6013 -4
      vertex -22.823 -16.7687 -4
    endloop
  endfacet
  facet normal 0 0 -1
    outer loop
      vertex -26.8286 -14.6389 -4
      vertex -17.5934 -15.6013 -4
      vertex -24.742 -15.5462 -4
    endloop
  endfacet
  facet normal 0 0 -1
    outer loop
      vertex -17.5934 -15.6013 -4
      vertex -26.8286 -14.6389 -4
      vertex -21.3873 10.3419 -4
    endloop
  endfacet
  facet normal 0 0 -1
    outer loop
      vertex -21.3873 10.3419 -4
      vertex -26.8286 -14.6389 -4
      vertex -27.5681 -14.4477 -4
    endloop
  endfacet
  facet normal 0 0 1
    outer loop
      vertex -3.36401 99.1653 4
      vertex -7.67617 102.415 4
      vertex -5.9517 95.7314 4
    endloop
  endfacet
  facet normal 0 0 1
    outer loop
      vertex 28.2808 127.534 4
      vertex 23.1325 124.025 4
      vertex 27.6676 121.735 4
    endloop
  endfacet
  facet normal 0 0 1
    outer loop
      vertex 20.2944 133.552 4
      vertex 23.1325 124.025 4
      vertex 28.2808 127.534 4
    endloop
  endfacet
  facet normal 0 0 1
    outer loop
      vertex 23.1325 124.025 4
      vertex 20.2944 133.552 4
      vertex 16.7435 128.839 4
    endloop
  endfacet
  facet normal 0 0 1
    outer loop
      vertex -1 92 4
      vertex 27.6676 121.735 4
      vertex 23.1325 124.025 4
    endloop
  endfacet
  facet normal 0 0 1
    outer loop
      vertex 27.6676 121.735 4
      vertex -1 92 4
      vertex 2.33843 66.7722 4
    endloop
  endfacet
  facet normal -0 0 1
    outer loop
      vertex -12.7941 94.6268 4
      vertex -1 92 4
      vertex -5.9517 95.7314 4
    endloop
  endfacet
  facet normal 0 0 1
    outer loop
      vertex -12.7941 94.6268 4
      vertex -5.9517 95.7314 4
      vertex -7.67617 102.415 4
    endloop
  endfacet
  facet normal 0 0 1
    outer loop
      vertex -1 92 4
      vertex -12.7941 94.6268 4
      vertex -14.6824 79.6277 4
    endloop
  endfacet
  facet normal 0 0 1
    outer loop
      vertex -1 92 4
      vertex -14.6824 79.6277 4
      vertex 2.33843 66.7722 4
    endloop
  endfacet
  facet normal 0 0 1
    outer loop
      vertex -22.3576 10.5838 4
      vertex 2.33843 66.7722 4
      vertex -14.6824 79.6277 4
    endloop
  endfacet
  facet normal 0 0 1
    outer loop
      vertex -14.0598 -20.925 4
      vertex -18.5168 -21.9926 4
      vertex -17.6829 -24.1096 4
    endloop
  endfacet
  facet normal 0 0 1
    outer loop
      vertex 2.33843 66.7722 4
      vertex -21.3873 10.3419 4
      vertex -17.5934 -15.6013 4
    endloop
  endfacet
  facet normal -0 0 1
    outer loop
      vertex -26.8286 -14.6389 4
      vertex -17.5934 -15.6013 4
      vertex -21.3873 10.3419 4
    endloop
  endfacet
  facet normal 0 0 1
    outer loop
      vertex -15.9855 -17.451 4
      vertex -19.6717 -20.0321 4
      vertex -18.5168 -21.9926 4
    endloop
  endfacet
  facet normal 0 0 1
    outer loop
      vertex -17.5934 -15.6013 4
      vertex -21.1189 -18.2764 4
      vertex -19.6717 -20.0321 4
    endloop
  endfacet
  facet normal 0 0 1
    outer loop
      vertex 2.33843 66.7722 4
      vertex -22.3576 10.5838 4
      vertex -21.3873 10.3419 4
    endloop
  endfacet
  facet normal 0 0 1
    outer loop
      vertex -37.9312 -10.5301 4
      vertex -22.3576 10.5838 4
      vertex -14.6824 79.6277 4
    endloop
  endfacet
  facet normal 0 -0 1
    outer loop
      vertex -29.0315 -14.0692 4
      vertex -22.3576 10.5838 4
      vertex -37.9312 -10.5301 4
    endloop
  endfacet
  facet normal 0 0 1
    outer loop
      vertex -22.3576 10.5838 4
      vertex -29.0315 -14.0692 4
      vertex -28.5363 -14.1973 4
    endloop
  endfacet
  facet normal 0 0 1
    outer loop
      vertex -29.0315 -14.0692 4
      vertex -37.9312 -10.5301 4
      vertex -31.2963 -13.8511 4
    endloop
  endfacet
  facet normal 0 0 1
    outer loop
      vertex -31.2963 -13.8511 4
      vertex -37.9312 -10.5301 4
      vertex -33.5674 -13.9901 4
    endloop
  endfacet
  facet normal 0 0 1
    outer loop
      vertex -33.5674 -13.9901 4
      vertex -37.9312 -10.5301 4
      vertex -35.7887 -14.4825 4
    endloop
  endfacet
  facet normal 0 0 1
    outer loop
      vertex -35.7887 -14.4825 4
      vertex -37.9312 -10.5301 4
      vertex -37.9057 -15.3164 4
    endloop
  endfacet
  facet normal -0 0 1
    outer loop
      vertex -40.7607 -11.7312 4
      vertex -37.9057 -15.3164 4
      vertex -37.9312 -10.5301 4
    endloop
  endfacet
  facet normal 0 0 1
    outer loop
      vertex -37.9057 -15.3164 4
      vertex -40.7607 -11.7312 4
      vertex -39.8662 -16.4712 4
    endloop
  endfacet
  facet normal -0 0 1
    outer loop
      vertex -44.0145 -14.0095 4
      vertex -39.8662 -16.4712 4
      vertex -40.7607 -11.7312 4
    endloop
  endfacet
  facet normal 0 0 1
    outer loop
      vertex -39.8662 -16.4712 4
      vertex -44.0145 -14.0095 4
      vertex -41.6219 -17.9185 4
    endloop
  endfacet
  facet normal -0 0 1
    outer loop
      vertex -46.7234 -16.9145 4
      vertex -41.6219 -17.9185 4
      vertex -44.0145 -14.0095 4
    endloop
  endfacet
  facet normal 0 0 1
    outer loop
      vertex -41.6219 -17.9185 4
      vertex -46.7234 -16.9145 4
      vertex -43.1296 -19.6226 4
    endloop
  endfacet
  facet normal 0 0 1
    outer loop
      vertex -43.1296 -19.6226 4
      vertex -46.7234 -16.9145 4
      vertex -44.3521 -21.5416 4
    endloop
  endfacet
  facet normal -0 0 1
    outer loop
      vertex -48.7692 -20.3192 4
      vertex -44.3521 -21.5416 4
      vertex -46.7234 -16.9145 4
    endloop
  endfacet
  facet normal 0 0 1
    outer loop
      vertex -44.3521 -21.5416 4
      vertex -48.7692 -20.3192 4
      vertex -45.2594 -23.6282 4
    endloop
  endfacet
  facet normal 0 0 1
    outer loop
      vertex -50.0624 -24.0749 4
      vertex -45.2594 -23.6282 4
      vertex -48.7692 -20.3192 4
    endloop
  endfacet
  facet normal 0 0 1
    outer loop
      vertex -50.5465 -28.0173 4
      vertex -45.2594 -23.6282 4
      vertex -50.0624 -24.0749 4
    endloop
  endfacet
  facet normal 0 -0 1
    outer loop
      vertex -49.0389 -35.7728 4
      vertex -45.2594 -23.6282 4
      vertex -50.2003 -31.9743 4
    endloop
  endfacet
  facet normal 0 0 1
    outer loop
      vertex -45.2594 -23.6282 4
      vertex -49.0389 -35.7728 4
      vertex -48.7166 -36.3543 4
    endloop
  endfacet
  facet normal 0 0 1
    outer loop
      vertex -45.2594 -23.6282 4
      vertex -50.5465 -28.0173 4
      vertex -50.2003 -31.9743 4
    endloop
  endfacet
  facet normal -0 0 1
    outer loop
      vertex -17.1905 -26.3309 4
      vertex -12.5523 -28.6805 4
      vertex -12.8984 -24.7236 4
    endloop
  endfacet
  facet normal -0 0 1
    outer loop
      vertex -17.6829 -24.1096 4
      vertex -12.8984 -24.7236 4
      vertex -14.0598 -20.925 4
    endloop
  endfacet
  facet normal 0 0 1
    outer loop
      vertex -12.5523 -28.6805 4
      vertex -17.1905 -26.3309 4
      vertex -17.0516 -28.602 4
    endloop
  endfacet
  facet normal 0 0 1
    outer loop
      vertex -18.5168 -21.9926 4
      vertex -14.0598 -20.925 4
      vertex -15.9855 -17.451 4
    endloop
  endfacet
  facet normal 0 0 1
    outer loop
      vertex -17.2696 -30.8668 4
      vertex -12.5523 -28.6805 4
      vertex -17.0516 -28.602 4
    endloop
  endfacet
  facet normal 0 0 1
    outer loop
      vertex -17.8393 -33.0697 4
      vertex -13.0363 -32.623 4
      vertex -17.2696 -30.8668 4
    endloop
  endfacet
  facet normal 0 0 1
    outer loop
      vertex -12.5523 -28.6805 4
      vertex -17.2696 -30.8668 4
      vertex -13.0363 -32.623 4
    endloop
  endfacet
  facet normal 0 0 1
    outer loop
      vertex -19.6717 -20.0321 4
      vertex -15.9855 -17.451 4
      vertex -17.5934 -15.6013 4
    endloop
  endfacet
  facet normal 0 0 1
    outer loop
      vertex -12.8984 -24.7236 4
      vertex -17.6829 -24.1096 4
      vertex -17.1905 -26.3309 4
    endloop
  endfacet
  facet normal 0 0 1
    outer loop
      vertex -13.0363 -32.623 4
      vertex -17.8393 -33.0697 4
      vertex -14.3295 -36.3787 4
    endloop
  endfacet
  facet normal 0 0 1
    outer loop
      vertex -14.3295 -36.3787 4
      vertex -17.8393 -33.0697 4
      vertex -16.3753 -39.7834 4
    endloop
  endfacet
  facet normal 0 0 1
    outer loop
      vertex -17.8393 -33.0697 4
      vertex -19.0842 -42.6884 4
      vertex -16.3753 -39.7834 4
    endloop
  endfacet
  facet normal 0 -0 1
    outer loop
      vertex -19.0842 -42.6884 4
      vertex -17.8393 -33.0697 4
      vertex -20.7738 -43.8715 4
    endloop
  endfacet
  facet normal 0 0 1
    outer loop
      vertex -17.5934 -15.6013 4
      vertex -22.823 -16.7687 4
      vertex -21.1189 -18.2764 4
    endloop
  endfacet
  facet normal 0 0 1
    outer loop
      vertex -17.5934 -15.6013 4
      vertex -24.742 -15.5462 4
      vertex -22.823 -16.7687 4
    endloop
  endfacet
  facet normal 0 0 1
    outer loop
      vertex -17.5934 -15.6013 4
      vertex -26.8286 -14.6389 4
      vertex -24.742 -15.5462 4
    endloop
  endfacet
  facet normal 0 -0 1
    outer loop
      vertex -26.8286 -14.6389 4
      vertex -21.3873 10.3419 4
      vertex -27.5681 -14.4477 4
    endloop
  endfacet
  facet normal 0.9082 -0.418537 0
    outer loop
      vertex 2.33843 66.7722 4
      vertex 27.6676 121.735 -4
      vertex 27.6676 121.735 4
    endloop
  endfacet
  facet normal 0.9082 -0.418537 0
    outer loop
      vertex 27.6676 121.735 -4
      vertex 2.33843 66.7722 4
      vertex 2.33843 66.7722 -4
    endloop
  endfacet
  facet normal 0.971951 -0.235182 0
    outer loop
      vertex -17.5934 -15.6013 4
      vertex 2.33843 66.7722 -4
      vertex 2.33843 66.7722 4
    endloop
  endfacet
  facet normal 0.971951 -0.235182 0
    outer loop
      vertex 2.33843 66.7722 -4
      vertex -17.5934 -15.6013 4
      vertex -17.5934 -15.6013 -4
    endloop
  endfacet
  facet normal -0.968323 0.249699 0
    outer loop
      vertex -37.9312 -10.5301 -4
      vertex -14.6824 79.6277 4
      vertex -14.6824 79.6277 -4
    endloop
  endfacet
  facet normal -0.968323 0.249699 0
    outer loop
      vertex -14.6824 79.6277 4
      vertex -37.9312 -10.5301 -4
      vertex -37.9312 -10.5301 4
    endloop
  endfacet
  facet normal -0.992168 0.124908 0
    outer loop
      vertex -14.6824 79.6277 -4
      vertex -12.7941 94.6268 4
      vertex -12.7941 94.6268 -4
    endloop
  endfacet
  facet normal -0.992168 0.124908 0
    outer loop
      vertex -12.7941 94.6268 4
      vertex -14.6824 79.6277 -4
      vertex -14.6824 79.6277 4
    endloop
  endfacet
  facet normal -0.835707 0.549176 0
    outer loop
      vertex -12.7941 94.6268 -4
      vertex -7.67617 102.415 4
      vertex -7.67617 102.415 -4
    endloop
  endfacet
  facet normal -0.835707 0.549176 0
    outer loop
      vertex -7.67617 102.415 4
      vertex -12.7941 94.6268 -4
      vertex -12.7941 94.6268 4
    endloop
  endfacet
  facet normal 0.601845 0.798613 -0
    outer loop
      vertex -3.36401 99.1653 -4
      vertex -7.67617 102.415 4
      vertex -3.36401 99.1653 4
    endloop
  endfacet
  facet normal 0.601845 0.798613 0
    outer loop
      vertex -7.67617 102.415 4
      vertex -3.36401 99.1653 -4
      vertex -7.67617 102.415 -4
    endloop
  endfacet
  facet normal 0.798629 -0.601824 0
    outer loop
      vertex -5.9517 95.7314 4
      vertex -3.36401 99.1653 -4
      vertex -3.36401 99.1653 4
    endloop
  endfacet
  facet normal 0.798629 -0.601824 0
    outer loop
      vertex -3.36401 99.1653 -4
      vertex -5.9517 95.7314 4
      vertex -5.9517 95.7314 -4
    endloop
  endfacet
  facet normal 0.601818 0.798633 -0
    outer loop
      vertex -1 92 -4
      vertex -5.9517 95.7314 4
      vertex -1 92 4
    endloop
  endfacet
  facet normal 0.601818 0.798633 0
    outer loop
      vertex -5.9517 95.7314 4
      vertex -1 92 -4
      vertex -5.9517 95.7314 -4
    endloop
  endfacet
  facet normal -0.798636 0.601814 0
    outer loop
      vertex -1 92 -4
      vertex 23.1325 124.025 4
      vertex 23.1325 124.025 -4
    endloop
  endfacet
  facet normal -0.798636 0.601814 0
    outer loop
      vertex 23.1325 124.025 4
      vertex -1 92 -4
      vertex -1 92 4
    endloop
  endfacet
  facet normal -0.601779 -0.798663 0
    outer loop
      vertex 16.7435 128.839 -4
      vertex 23.1325 124.025 4
      vertex 16.7435 128.839 4
    endloop
  endfacet
  facet normal -0.601779 -0.798663 -0
    outer loop
      vertex 23.1325 124.025 4
      vertex 16.7435 128.839 -4
      vertex 23.1325 124.025 -4
    endloop
  endfacet
  facet normal -0.798684 0.60175 0
    outer loop
      vertex 16.7435 128.839 -4
      vertex 20.2944 133.552 4
      vertex 20.2944 133.552 -4
    endloop
  endfacet
  facet normal -0.798684 0.60175 0
    outer loop
      vertex 20.2944 133.552 4
      vertex 16.7435 128.839 -4
      vertex 16.7435 128.839 4
    endloop
  endfacet
  facet normal 0.601803 0.798644 -0
    outer loop
      vertex 28.2808 127.534 -4
      vertex 20.2944 133.552 4
      vertex 28.2808 127.534 4
    endloop
  endfacet
  facet normal 0.601803 0.798644 0
    outer loop
      vertex 20.2944 133.552 4
      vertex 28.2808 127.534 -4
      vertex 20.2944 133.552 -4
    endloop
  endfacet
  facet normal 0.994456 -0.105156 0
    outer loop
      vertex 27.6676 121.735 4
      vertex 28.2808 127.534 -4
      vertex 28.2808 127.534 4
    endloop
  endfacet
  facet normal 0.994456 -0.105156 0
    outer loop
      vertex 28.2808 127.534 -4
      vertex 27.6676 121.735 4
      vertex 27.6676 121.735 -4
    endloop
  endfacet
  facet normal 0.857162 -0.515047 0
    outer loop
      vertex -16.3753 -39.7834 4
      vertex -14.3295 -36.3787 -4
      vertex -14.3295 -36.3787 4
    endloop
  endfacet
  facet normal 0.857162 -0.515047 0
    outer loop
      vertex -14.3295 -36.3787 -4
      vertex -16.3753 -39.7834 4
      vertex -16.3753 -39.7834 -4
    endloop
  endfacet
  facet normal -0.874639 -0.484774 0
    outer loop
      vertex -48.7166 -36.3543 -4
      vertex -49.0389 -35.7728 4
      vertex -49.0389 -35.7728 -4
    endloop
  endfacet
  facet normal -0.874639 -0.484774 0
    outer loop
      vertex -49.0389 -35.7728 4
      vertex -48.7166 -36.3543 -4
      vertex -48.7166 -36.3543 4
    endloop
  endfacet
  facet normal -0.945518 0.32557 0
    outer loop
      vertex -50.0624 -24.0749 -4
      vertex -48.7692 -20.3192 4
      vertex -48.7692 -20.3192 -4
    endloop
  endfacet
  facet normal -0.945518 0.32557 0
    outer loop
      vertex -48.7692 -20.3192 4
      vertex -50.0624 -24.0749 -4
      vertex -50.0624 -24.0749 4
    endloop
  endfacet
  facet normal -0.57357 0.819156 0
    outer loop
      vertex -40.7607 -11.7312 -4
      vertex -44.0145 -14.0095 4
      vertex -40.7607 -11.7312 4
    endloop
  endfacet
  facet normal -0.57357 0.819156 0
    outer loop
      vertex -44.0145 -14.0095 4
      vertex -40.7607 -11.7312 -4
      vertex -44.0145 -14.0095 -4
    endloop
  endfacet
  facet normal -0.731361 0.681991 0
    outer loop
      vertex -46.7234 -16.9145 -4
      vertex -44.0145 -14.0095 4
      vertex -44.0145 -14.0095 -4
    endloop
  endfacet
  facet normal -0.731361 0.681991 0
    outer loop
      vertex -44.0145 -14.0095 4
      vertex -46.7234 -16.9145 -4
      vertex -46.7234 -16.9145 4
    endloop
  endfacet
  facet normal -0.992545 0.121878 0
    outer loop
      vertex -50.5465 -28.0173 -4
      vertex -50.0624 -24.0749 4
      vertex -50.0624 -24.0749 -4
    endloop
  endfacet
  facet normal -0.992545 0.121878 0
    outer loop
      vertex -50.0624 -24.0749 4
      vertex -50.5465 -28.0173 -4
      vertex -50.5465 -28.0173 4
    endloop
  endfacet
  facet normal -0.956299 -0.292391 0
    outer loop
      vertex -49.0389 -35.7728 -4
      vertex -50.2003 -31.9743 4
      vertex -50.2003 -31.9743 -4
    endloop
  endfacet
  facet normal -0.956299 -0.292391 0
    outer loop
      vertex -50.2003 -31.9743 4
      vertex -49.0389 -35.7728 -4
      vertex -49.0389 -35.7728 4
    endloop
  endfacet
  facet normal -0.996195 -0.0871576 0
    outer loop
      vertex -50.2003 -31.9743 -4
      vertex -50.5465 -28.0173 4
      vertex -50.5465 -28.0173 -4
    endloop
  endfacet
  facet normal -0.996195 -0.0871576 0
    outer loop
      vertex -50.5465 -28.0173 4
      vertex -50.2003 -31.9743 -4
      vertex -50.2003 -31.9743 4
    endloop
  endfacet
  facet normal 0.731361 -0.681991 0
    outer loop
      vertex -19.0842 -42.6884 4
      vertex -16.3753 -39.7834 -4
      vertex -16.3753 -39.7834 4
    endloop
  endfacet
  facet normal 0.731361 -0.681991 0
    outer loop
      vertex -16.3753 -39.7834 -4
      vertex -19.0842 -42.6884 4
      vertex -19.0842 -42.6884 -4
    endloop
  endfacet
  facet normal 0.754714 0.656054 0
    outer loop
      vertex -15.9855 -17.451 4
      vertex -17.5934 -15.6013 -4
      vertex -17.5934 -15.6013 4
    endloop
  endfacet
  facet normal 0.754714 0.656054 0
    outer loop
      vertex -17.5934 -15.6013 -4
      vertex -15.9855 -17.451 4
      vertex -15.9855 -17.451 -4
    endloop
  endfacet
  facet normal 0.992549 -0.12185 0
    outer loop
      vertex -13.0363 -32.623 4
      vertex -12.5523 -28.6805 -4
      vertex -12.5523 -28.6805 4
    endloop
  endfacet
  facet normal 0.992549 -0.12185 0
    outer loop
      vertex -12.5523 -28.6805 -4
      vertex -13.0363 -32.623 4
      vertex -13.0363 -32.623 -4
    endloop
  endfacet
  facet normal 0.945518 -0.32557 0
    outer loop
      vertex -14.3295 -36.3787 4
      vertex -13.0363 -32.623 -4
      vertex -13.0363 -32.623 4
    endloop
  endfacet
  facet normal 0.945518 -0.32557 0
    outer loop
      vertex -13.0363 -32.623 -4
      vertex -14.3295 -36.3787 4
      vertex -14.3295 -36.3787 -4
    endloop
  endfacet
  facet normal 0.874616 0.484815 0
    outer loop
      vertex -14.0598 -20.925 4
      vertex -15.9855 -17.451 -4
      vertex -15.9855 -17.451 4
    endloop
  endfacet
  facet normal 0.874616 0.484815 0
    outer loop
      vertex -15.9855 -17.451 -4
      vertex -14.0598 -20.925 4
      vertex -14.0598 -20.925 -4
    endloop
  endfacet
  facet normal 0.956301 0.292384 0
    outer loop
      vertex -12.8984 -24.7236 4
      vertex -14.0598 -20.925 -4
      vertex -14.0598 -20.925 4
    endloop
  endfacet
  facet normal 0.956301 0.292384 0
    outer loop
      vertex -14.0598 -20.925 -4
      vertex -12.8984 -24.7236 4
      vertex -12.8984 -24.7236 -4
    endloop
  endfacet
  facet normal -0.390744 0.920499 0
    outer loop
      vertex -37.9312 -10.5301 -4
      vertex -40.7607 -11.7312 4
      vertex -37.9312 -10.5301 4
    endloop
  endfacet
  facet normal -0.390744 0.920499 0
    outer loop
      vertex -40.7607 -11.7312 4
      vertex -37.9312 -10.5301 -4
      vertex -40.7607 -11.7312 -4
    endloop
  endfacet
  facet normal 0.573586 -0.819145 0
    outer loop
      vertex -20.7738 -43.8715 -4
      vertex -19.0842 -42.6884 4
      vertex -20.7738 -43.8715 4
    endloop
  endfacet
  facet normal 0.573586 -0.819145 0
    outer loop
      vertex -19.0842 -42.6884 4
      vertex -20.7738 -43.8715 -4
      vertex -19.0842 -42.6884 -4
    endloop
  endfacet
  facet normal -0.857162 0.515047 0
    outer loop
      vertex -48.7692 -20.3192 -4
      vertex -46.7234 -16.9145 4
      vertex -46.7234 -16.9145 -4
    endloop
  endfacet
  facet normal -0.857162 0.515047 0
    outer loop
      vertex -46.7234 -16.9145 4
      vertex -48.7692 -20.3192 -4
      vertex -48.7692 -20.3192 4
    endloop
  endfacet
  facet normal 0.996197 0.0871348 0
    outer loop
      vertex -12.5523 -28.6805 4
      vertex -12.8984 -24.7236 -4
      vertex -12.8984 -24.7236 4
    endloop
  endfacet
  facet normal 0.996197 0.0871348 0
    outer loop
      vertex -12.8984 -24.7236 -4
      vertex -12.5523 -28.6805 4
      vertex -12.5523 -28.6805 -4
    endloop
  endfacet
  facet normal 0.843399 -0.537288 0
    outer loop
      vertex -44.3521 -21.5416 4
      vertex -43.1296 -19.6226 -4
      vertex -43.1296 -19.6226 4
    endloop
  endfacet
  facet normal 0.843399 -0.537288 0
    outer loop
      vertex -43.1296 -19.6226 -4
      vertex -44.3521 -21.5416 4
      vertex -44.3521 -21.5416 -4
    endloop
  endfacet
  facet normal -0.995399 0.0958129 0
    outer loop
      vertex -17.2696 -30.8668 -4
      vertex -17.0516 -28.602 4
      vertex -17.0516 -28.602 -4
    endloop
  endfacet
  facet normal -0.995399 0.0958129 0
    outer loop
      vertex -17.0516 -28.602 4
      vertex -17.2696 -30.8668 -4
      vertex -17.2696 -30.8668 4
    endloop
  endfacet
  facet normal -0.398757 -0.917057 0
    outer loop
      vertex -26.8286 -14.6389 -4
      vertex -24.742 -15.5462 4
      vertex -26.8286 -14.6389 4
    endloop
  endfacet
  facet normal -0.398757 -0.917057 -0
    outer loop
      vertex -24.742 -15.5462 4
      vertex -26.8286 -14.6389 -4
      vertex -24.742 -15.5462 -4
    endloop
  endfacet
  facet normal -0.976301 -0.216419 0
    outer loop
      vertex -17.1905 -26.3309 -4
      vertex -17.6829 -24.1096 4
      vertex -17.6829 -24.1096 -4
    endloop
  endfacet
  facet normal -0.976301 -0.216419 0
    outer loop
      vertex -17.6829 -24.1096 4
      vertex -17.1905 -26.3309 -4
      vertex -17.1905 -26.3309 4
    endloop
  endfacet
  facet normal 0.748947 -0.66263 0
    outer loop
      vertex -43.1296 -19.6226 4
      vertex -41.6219 -17.9185 -4
      vertex -41.6219 -17.9185 4
    endloop
  endfacet
  facet normal 0.748947 -0.66263 0
    outer loop
      vertex -41.6219 -17.9185 -4
      vertex -43.1296 -19.6226 4
      vertex -43.1296 -19.6226 -4
    endloop
  endfacet
  facet normal 0.917057 -0.398757 0
    outer loop
      vertex -45.2594 -23.6282 4
      vertex -44.3521 -21.5416 -4
      vertex -44.3521 -21.5416 4
    endloop
  endfacet
  facet normal 0.917057 -0.398757 0
    outer loop
      vertex -44.3521 -21.5416 -4
      vertex -45.2594 -23.6282 4
      vertex -45.2594 -23.6282 -4
    endloop
  endfacet
  facet normal 0.965024 -0.262161 0
    outer loop
      vertex -48.7166 -36.3543 4
      vertex -45.2594 -23.6282 -4
      vertex -45.2594 -23.6282 4
    endloop
  endfacet
  facet normal 0.965024 -0.262161 0
    outer loop
      vertex -45.2594 -23.6282 -4
      vertex -48.7166 -36.3543 4
      vertex -48.7166 -36.3543 -4
    endloop
  endfacet
  facet normal -0.998135 -0.0610457 0
    outer loop
      vertex -17.0516 -28.602 -4
      vertex -17.1905 -26.3309 4
      vertex -17.1905 -26.3309 -4
    endloop
  endfacet
  facet normal -0.998135 -0.0610457 0
    outer loop
      vertex -17.1905 -26.3309 4
      vertex -17.0516 -28.602 -4
      vertex -17.0516 -28.602 4
    endloop
  endfacet
  facet normal -0.965023 0.262166 0
    outer loop
      vertex -20.7738 -43.8715 -4
      vertex -17.8393 -33.0697 4
      vertex -17.8393 -33.0697 -4
    endloop
  endfacet
  facet normal -0.965023 0.262166 0
    outer loop
      vertex -17.8393 -33.0697 4
      vertex -20.7738 -43.8715 -4
      vertex -20.7738 -43.8715 4
    endloop
  endfacet
  facet normal -0.968149 0.250376 0
    outer loop
      vertex -17.8393 -33.0697 -4
      vertex -17.2696 -30.8668 4
      vertex -17.2696 -30.8668 -4
    endloop
  endfacet
  facet normal -0.968149 0.250376 0
    outer loop
      vertex -17.2696 -30.8668 4
      vertex -17.8393 -33.0697 -4
      vertex -17.8393 -33.0697 4
    endloop
  endfacet
  facet normal 0.636082 -0.771622 0
    outer loop
      vertex -41.6219 -17.9185 -4
      vertex -39.8662 -16.4712 4
      vertex -41.6219 -17.9185 4
    endloop
  endfacet
  facet normal 0.636082 -0.771622 0
    outer loop
      vertex -39.8662 -16.4712 4
      vertex -41.6219 -17.9185 -4
      vertex -39.8662 -16.4712 -4
    endloop
  endfacet
  facet normal 0.507531 -0.861634 0
    outer loop
      vertex -39.8662 -16.4712 -4
      vertex -37.9057 -15.3164 4
      vertex -39.8662 -16.4712 4
    endloop
  endfacet
  facet normal 0.507531 -0.861634 0
    outer loop
      vertex -37.9057 -15.3164 4
      vertex -39.8662 -16.4712 -4
      vertex -37.9057 -15.3164 -4
    endloop
  endfacet
  facet normal -0.0958564 -0.995395 0
    outer loop
      vertex -31.2963 -13.8511 -4
      vertex -29.0315 -14.0692 4
      vertex -31.2963 -13.8511 4
    endloop
  endfacet
  facet normal -0.0958564 -0.995395 -0
    outer loop
      vertex -29.0315 -14.0692 4
      vertex -31.2963 -13.8511 -4
      vertex -29.0315 -14.0692 -4
    endloop
  endfacet
  facet normal 0.216419 -0.976301 0
    outer loop
      vertex -35.7887 -14.4825 -4
      vertex -33.5674 -13.9901 4
      vertex -35.7887 -14.4825 4
    endloop
  endfacet
  facet normal 0.216419 -0.976301 0
    outer loop
      vertex -33.5674 -13.9901 4
      vertex -35.7887 -14.4825 -4
      vertex -33.5674 -13.9901 -4
    endloop
  endfacet
  facet normal 0.366498 -0.930419 0
    outer loop
      vertex -37.9057 -15.3164 -4
      vertex -35.7887 -14.4825 4
      vertex -37.9057 -15.3164 4
    endloop
  endfacet
  facet normal 0.366498 -0.930419 0
    outer loop
      vertex -35.7887 -14.4825 4
      vertex -37.9057 -15.3164 -4
      vertex -35.7887 -14.4825 -4
    endloop
  endfacet
  facet normal 0.0610895 -0.998132 0
    outer loop
      vertex -33.5674 -13.9901 -4
      vertex -31.2963 -13.8511 4
      vertex -33.5674 -13.9901 4
    endloop
  endfacet
  facet normal 0.0610895 -0.998132 0
    outer loop
      vertex -31.2963 -13.8511 4
      vertex -33.5674 -13.9901 -4
      vertex -31.2963 -13.8511 -4
    endloop
  endfacet
  facet normal -0.25044 -0.968132 0
    outer loop
      vertex -29.0315 -14.0692 -4
      vertex -28.5363 -14.1973 4
      vertex -29.0315 -14.0692 4
    endloop
  endfacet
  facet normal -0.25044 -0.968132 -0
    outer loop
      vertex -28.5363 -14.1973 4
      vertex -29.0315 -14.0692 -4
      vertex -28.5363 -14.1973 -4
    endloop
  endfacet
  facet normal -0.250321 -0.968163 0
    outer loop
      vertex -27.5681 -14.4477 -4
      vertex -26.8286 -14.6389 4
      vertex -27.5681 -14.4477 4
    endloop
  endfacet
  facet normal -0.250321 -0.968163 -0
    outer loop
      vertex -26.8286 -14.6389 4
      vertex -27.5681 -14.4477 -4
      vertex -26.8286 -14.6389 -4
    endloop
  endfacet
  facet normal -0.66263 -0.748947 0
    outer loop
      vertex -22.823 -16.7687 -4
      vertex -21.1189 -18.2764 4
      vertex -22.823 -16.7687 4
    endloop
  endfacet
  facet normal -0.66263 -0.748947 -0
    outer loop
      vertex -21.1189 -18.2764 4
      vertex -22.823 -16.7687 -4
      vertex -21.1189 -18.2764 -4
    endloop
  endfacet
  facet normal -0.537288 -0.843399 0
    outer loop
      vertex -24.742 -15.5462 -4
      vertex -22.823 -16.7687 4
      vertex -24.742 -15.5462 4
    endloop
  endfacet
  facet normal -0.537288 -0.843399 -0
    outer loop
      vertex -22.823 -16.7687 4
      vertex -24.742 -15.5462 -4
      vertex -22.823 -16.7687 -4
    endloop
  endfacet
  facet normal -0.771643 -0.636055 0
    outer loop
      vertex -19.6717 -20.0321 -4
      vertex -21.1189 -18.2764 4
      vertex -21.1189 -18.2764 -4
    endloop
  endfacet
  facet normal -0.771643 -0.636055 0
    outer loop
      vertex -21.1189 -18.2764 4
      vertex -19.6717 -20.0321 -4
      vertex -19.6717 -20.0321 4
    endloop
  endfacet
  facet normal -0.861614 -0.507564 0
    outer loop
      vertex -18.5168 -21.9926 -4
      vertex -19.6717 -20.0321 4
      vertex -19.6717 -20.0321 -4
    endloop
  endfacet
  facet normal -0.861614 -0.507564 0
    outer loop
      vertex -19.6717 -20.0321 4
      vertex -18.5168 -21.9926 -4
      vertex -18.5168 -21.9926 4
    endloop
  endfacet
  facet normal -0.930419 -0.366498 0
    outer loop
      vertex -17.6829 -24.1096 -4
      vertex -18.5168 -21.9926 4
      vertex -18.5168 -21.9926 -4
    endloop
  endfacet
  facet normal -0.930419 -0.366498 0
    outer loop
      vertex -18.5168 -21.9926 4
      vertex -17.6829 -24.1096 -4
      vertex -17.6829 -24.1096 4
    endloop
  endfacet
  facet normal 0.970295 -0.241925 0
    outer loop
      vertex -28.5363 -14.1973 4
      vertex -22.3576 10.5838 -4
      vertex -22.3576 10.5838 4
    endloop
  endfacet
  facet normal 0.970295 -0.241925 0
    outer loop
      vertex -22.3576 10.5838 -4
      vertex -28.5363 -14.1973 4
      vertex -28.5363 -14.1973 -4
    endloop
  endfacet
  facet normal -0.970295 0.241924 0
    outer loop
      vertex -27.5681 -14.4477 -4
      vertex -21.3873 10.3419 4
      vertex -21.3873 10.3419 -4
    endloop
  endfacet
  facet normal -0.970295 0.241924 0
    outer loop
      vertex -21.3873 10.3419 4
      vertex -27.5681 -14.4477 -4
      vertex -27.5681 -14.4477 4
    endloop
  endfacet
  facet normal -0.2419 -0.970301 0
    outer loop
      vertex -22.3576 10.5838 -4
      vertex -21.3873 10.3419 4
      vertex -22.3576 10.5838 4
    endloop
  endfacet
  facet normal -0.2419 -0.970301 -0
    outer loop
      vertex -21.3873 10.3419 4
      vertex -22.3576 10.5838 -4
      vertex -21.3873 10.3419 -4
    endloop
  endfacet
endsolid OpenSCAD_Model
